<?xml version="1.0" standalone="yes"?>
<svg xmlns="http://www.w3.org/2000/svg" width="5000" height="5000">
<path style="fill:#010101; stroke:none;" d="M0 0L0 5000L5000 5000L5000 0L0 0z"/>
<path style="fill:#390835; stroke:none;" d="M3052 2095L3052 2096L3094 2096C3083.01 2091.39 3063.96 2095 3052 2095M3027 2096L3027 2097L3038 2097L3027 2096z"/>
<path style="fill:#4c3a33; stroke:none;" d="M3038 2096L3038 2097L3116 2097L3092 2096L3038 2096z"/>
<path style="fill:#390835; stroke:none;" d="M3116 2096L3116 2097L3120 2097L3116 2096M3011 2097L3011 2098L3018 2098L3011 2097z"/>
<path style="fill:#4c3a33; stroke:none;" d="M3018 2097L3018 2098L3035 2098L3018 2097z"/>
<path style="fill:#6b574d; stroke:none;" d="M2532 2291C2541.23 2286.7 2549.5 2277.75 2558 2271.88C2575.19 2260.03 2593.22 2249.25 2612 2240.11C2668.57 2212.57 2735.85 2203.34 2798 2205.96C2807.01 2206.34 2815.91 2204.3 2825 2205.17C2853.42 2207.87 2881.7 2212.34 2909 2221.03C2960.82 2237.52 3008.77 2261.19 3065 2255.83C3122 2250.4 3170.43 2217.46 3224 2200.34C3278.56 2182.91 3334.13 2184.54 3389 2200C3380.94 2186.05 3364.19 2175.42 3351 2166.67C3315.23 2142.93 3275.16 2126.31 3234 2114.58C3180.79 2099.41 3125.96 2097 3071 2097C2952.47 2097 2830.77 2118.28 2720 2161.19C2668.58 2181.1 2617.71 2205.3 2573 2237.85C2553.76 2251.85 2532 2264.97 2532 2291z"/>
<path style="fill:#4c3a33; stroke:none;" d="M3120 2097L3120 2098L3132 2098L3120 2097z"/>
<path style="fill:#390835; stroke:none;" d="M3132 2097L3132 2098L3135 2098L3132 2097M2998 2098L2998 2099L3004 2099L2998 2098z"/>
<path style="fill:#4c3a33; stroke:none;" d="M3004 2098L3004 2099L3017 2099L3004 2098M3136 2098L3136 2099L3145 2099L3136 2098z"/>
<path style="fill:#390835; stroke:none;" d="M3145.67 2098.33L3146.33 2098.67L3145.67 2098.33M2986 2099L2986 2100L2992 2100L2986 2099z"/>
<path style="fill:#4c3a33; stroke:none;" d="M2992 2099L2992 2100L3002 2100L2992 2099M3148 2099L3148 2100L3155 2100L3148 2099z"/>
<path style="fill:#390835; stroke:none;" d="M3155.67 2099.33L3156.33 2099.67L3155.67 2099.33M2976 2100L2976 2101L2981 2101L2976 2100z"/>
<path style="fill:#4c3a33; stroke:none;" d="M2981 2100L2981 2101L2990 2101L2981 2100M3158 2100L3158 2101L3164 2101L3158 2100z"/>
<path style="fill:#390835; stroke:none;" d="M3164.67 2100.33L3165.33 2100.67L3164.67 2100.33M2967 2101L2967 2102L2971 2102L2967 2101z"/>
<path style="fill:#4c3a33; stroke:none;" d="M2971 2101L2971 2102L2980 2102L2971 2101M3167 2101L3167 2102L3172 2102L3167 2101z"/>
<path style="fill:#390835; stroke:none;" d="M3172.67 2101.33L3173.33 2101.67L3172.67 2101.33M2959 2102L2959 2103L2962 2103L2959 2102z"/>
<path style="fill:#4c3a33; stroke:none;" d="M2962 2102L2962 2103L2970 2103L2962 2102M3175 2102L3175 2103L3179 2103L3175 2102z"/>
<path style="fill:#390835; stroke:none;" d="M3179.67 2102.33L3180.33 2102.67L3179.67 2102.33M2951 2103L2951 2104L2954 2104L2951 2103z"/>
<path style="fill:#4c3a33; stroke:none;" d="M2954 2103L2954 2104L2961 2104L2954 2103M3182 2103L3182 2104L3186 2104L3182 2103z"/>
<path style="fill:#390835; stroke:none;" d="M3186.67 2103.33L3187.33 2103.67L3186.67 2103.33M2944.67 2104.33L2945.33 2104.67L2944.67 2104.33z"/>
<path style="fill:#4c3a33; stroke:none;" d="M2946 2104L2946 2105L2953 2105L2946 2104M3188 2104L3188 2105L3192 2105L3188 2104z"/>
<path style="fill:#390835; stroke:none;" d="M3192.67 2104.33L3193.33 2104.67L3192.67 2104.33M2937.67 2105.33L2938.33 2105.67L2937.67 2105.33z"/>
<path style="fill:#4c3a33; stroke:none;" d="M2939 2105L2939 2106L2946 2106L2939 2105M3194 2105L3194 2106L3198 2106L3194 2105z"/>
<path style="fill:#390835; stroke:none;" d="M3198 2105L3199 2106L3198 2105M2930.67 2106.33L2931.33 2106.67L2930.67 2106.33z"/>
<path style="fill:#4c3a33; stroke:none;" d="M2932 2106L2932 2107L2939 2107L2932 2106M3200 2106L3200 2107L3203 2107L3200 2106z"/>
<path style="fill:#390835; stroke:none;" d="M3203 2106L3204 2107L3203 2106M2923.67 2107.33L2924.33 2107.67L2923.67 2107.33z"/>
<path style="fill:#4c3a33; stroke:none;" d="M2925 2107L2925 2108L2932 2108L2925 2107M3205 2107L3205 2108L3208 2108L3205 2107z"/>
<path style="fill:#390835; stroke:none;" d="M3208 2107L3209 2108L3208 2107M2917 2108L2918 2109L2917 2108z"/>
<path style="fill:#4c3a33; stroke:none;" d="M2918 2108L2918 2109L2925 2109L2918 2108M3210 2108L3210 2109L3213 2109L3210 2108z"/>
<path style="fill:#390835; stroke:none;" d="M2911 2109L2912 2110L2911 2109z"/>
<path style="fill:#4c3a33; stroke:none;" d="M2912 2109L2912 2110L2918 2110L2912 2109M3215.67 2109.33L3216.33 2109.67L3215.67 2109.33z"/>
<path style="fill:#390835; stroke:none;" d="M3217 2109L3218 2110L3217 2109M2905 2110L2906 2111L2905 2110z"/>
<path style="fill:#4c3a33; stroke:none;" d="M2906 2110L2906 2111L2911 2111L2906 2110M3219.67 2110.33L3220.33 2110.67L3219.67 2110.33z"/>
<path style="fill:#390835; stroke:none;" d="M3221 2110L3222 2111L3221 2110M2899 2111L2900 2112L2899 2111z"/>
<path style="fill:#4c3a33; stroke:none;" d="M2900 2111L2900 2112L2905 2112L2900 2111M3223.67 2111.33L3224.33 2111.67L3223.67 2111.33z"/>
<path style="fill:#390835; stroke:none;" d="M3225 2111L3226 2112L3225 2111M2894 2112L2895 2113L2894 2112z"/>
<path style="fill:#4c3a33; stroke:none;" d="M2895 2112L2895 2113L2899 2113L2895 2112M3226 2112L3226 2113L3229 2113L3226 2112z"/>
<path style="fill:#390835; stroke:none;" d="M3229 2112L3230 2113L3229 2112M2888 2113L2889 2114L2888 2113z"/>
<path style="fill:#4c3a33; stroke:none;" d="M2889 2113L2889 2114L2894 2114L2889 2113M3230 2113L3230 2114L3243 2117L3243 2116L3230 2113z"/>
<path style="fill:#390835; stroke:none;" d="M3233 2113L3234 2114L3233 2113M2883 2114L2884 2115L2883 2114z"/>
<path style="fill:#4c3a33; stroke:none;" d="M2884 2114L2884 2115L2888 2115L2884 2114z"/>
<path style="fill:#390835; stroke:none;" d="M3237 2114L3238 2115L3237 2114M2878 2115L2879 2116L2878 2115z"/>
<path style="fill:#4c3a33; stroke:none;" d="M2879 2115L2879 2116L2883 2116L2879 2115z"/>
<path style="fill:#390835; stroke:none;" d="M3240 2115L3241 2116L3240 2115M2873 2116L2874 2117L2873 2116z"/>
<path style="fill:#4c3a33; stroke:none;" d="M2874 2116L2874 2117L2877 2117L2874 2116z"/>
<path style="fill:#390835; stroke:none;" d="M3243 2116L3244 2117L3243 2116z"/>
<path style="fill:#4c3a33; stroke:none;" d="M2869 2117L2869 2118L2872 2118L2869 2117M3244.67 2117.33L3245.33 2117.67L3244.67 2117.33z"/>
<path style="fill:#390835; stroke:none;" d="M3246.67 2117.33L3247.33 2117.67L3246.67 2117.33M2864 2118L2865 2119L2864 2118z"/>
<path style="fill:#4c3a33; stroke:none;" d="M2865.67 2118.33L2866.33 2118.67L2865.67 2118.33M3247.67 2118.33L3248.33 2118.67L3247.67 2118.33z"/>
<path style="fill:#390835; stroke:none;" d="M3249 2118L3250 2119L3249 2118M2859 2119L2860 2120L2859 2119z"/>
<path style="fill:#4c3a33; stroke:none;" d="M2860 2119L2860 2120L2863 2120L2860 2119M3250.67 2119.33L3251.33 2119.67L3250.67 2119.33z"/>
<path style="fill:#390835; stroke:none;" d="M3252 2119L3253 2120L3252 2119M2854.67 2120.33L2855.33 2120.67L2854.67 2120.33z"/>
<path style="fill:#4c3a33; stroke:none;" d="M2856.67 2120.33L2857.33 2120.67L2856.67 2120.33M3253.67 2120.33L3254.33 2120.67L3253.67 2120.33z"/>
<path style="fill:#390835; stroke:none;" d="M3255 2120L3256 2121L3255 2120M2850 2121L2851 2122L2850 2121z"/>
<path style="fill:#4c3a33; stroke:none;" d="M2851 2121L2851 2122L2854 2122L2851 2121M3257 2121L3258 2122L3257 2121z"/>
<path style="fill:#390835; stroke:none;" d="M3258 2121L3259 2122L3258 2121M2846 2122L2847 2123L2846 2122z"/>
<path style="fill:#4c3a33; stroke:none;" d="M2847.67 2122.33L2848.33 2122.67L2847.67 2122.33M3260 2122L3261 2123L3260 2122z"/>
<path style="fill:#390835; stroke:none;" d="M3261 2122L3262 2123L3261 2122M2841 2123L2842 2124L2841 2123z"/>
<path style="fill:#4c3a33; stroke:none;" d="M2842 2123L2842 2124L2845 2124L2842 2123M3262.67 2123.33L3263.33 2123.67L3262.67 2123.33z"/>
<path style="fill:#390835; stroke:none;" d="M3264 2123L3265 2124L3264 2123M2837 2124L2838 2125L2837 2124z"/>
<path style="fill:#4c3a33; stroke:none;" d="M2838 2124L2838 2125L2841 2125L2838 2124M3265.67 2124.33L3266.33 2124.67L3265.67 2124.33z"/>
<path style="fill:#390835; stroke:none;" d="M2833 2125L2834 2126L2833 2125z"/>
<path style="fill:#4c3a33; stroke:none;" d="M2834 2125L2834 2126L2837 2126L2834 2125M3268.67 2125.33L3269.33 2125.67L3268.67 2125.33z"/>
<path style="fill:#390835; stroke:none;" d="M2828.67 2126.33L2829.33 2126.67L2828.67 2126.33z"/>
<path style="fill:#4c3a33; stroke:none;" d="M2830 2126L2830 2127L2833 2127L2830 2126M3271 2126L3272 2127L3271 2126z"/>
<path style="fill:#390835; stroke:none;" d="M3272 2126L3273 2127L3272 2126M2824.67 2127.33L2825.33 2127.67L2824.67 2127.33z"/>
<path style="fill:#4c3a33; stroke:none;" d="M2826 2127L2826 2128L2829 2128L2826 2127M3273.67 2127.33L3274.33 2127.67L3273.67 2127.33z"/>
<path style="fill:#390835; stroke:none;" d="M3275 2127L3276 2128L3275 2127M2820.67 2128.33L2821.33 2128.67L2820.67 2128.33z"/>
<path style="fill:#4c3a33; stroke:none;" d="M2822 2128L2822 2129L2825 2129L2822 2128M3276.67 2128.33L3277.33 2128.67L3276.67 2128.33z"/>
<path style="fill:#390835; stroke:none;" d="M2816.67 2129.33L2817.33 2129.67L2816.67 2129.33z"/>
<path style="fill:#4c3a33; stroke:none;" d="M2818 2129L2818 2130L2821 2130L2818 2129M3278.67 2129.33L3279.33 2129.67L3278.67 2129.33z"/>
<path style="fill:#390835; stroke:none;" d="M3280 2129L3281 2130L3280 2129M2813 2130L2814 2131L2813 2130z"/>
<path style="fill:#4c3a33; stroke:none;" d="M2814 2130L2814 2131L2817 2131L2814 2130M3281.67 2130.33L3282.33 2130.67L3281.67 2130.33z"/>
<path style="fill:#390835; stroke:none;" d="M2809 2131L2810 2132L2809 2131z"/>
<path style="fill:#4c3a33; stroke:none;" d="M2810 2131L2810 2132L2813 2132L2810 2131M3283 2131L3283 2132L3287 2133L3287 2132L3283 2131z"/>
<path style="fill:#390835; stroke:none;" d="M3285 2131L3286 2132L3285 2131M2805.67 2132.33L2806.33 2132.67L2805.67 2132.33z"/>
<path style="fill:#4c3a33; stroke:none;" d="M2807 2132L2807 2133L2810 2133L2807 2132z"/>
<path style="fill:#390835; stroke:none;" d="M3287 2132L3288 2133L3287 2132M2801.67 2133.33L2802.33 2133.67L2801.67 2133.33z"/>
<path style="fill:#4c3a33; stroke:none;" d="M2803 2133L2803 2134L2806 2134L2803 2133M3288.67 2133.33L3289.33 2133.67L3288.67 2133.33z"/>
<path style="fill:#390835; stroke:none;" d="M2798 2134L2799 2135L2798 2134z"/>
<path style="fill:#4c3a33; stroke:none;" d="M2799 2134L2799 2135L2802 2135L2799 2134M3290 2134L3290 2135L3294 2136L3294 2135L3290 2134z"/>
<path style="fill:#390835; stroke:none;" d="M3292 2134L3293 2135L3292 2134M2794.67 2135.33L2795.33 2135.67L2794.67 2135.33z"/>
<path style="fill:#4c3a33; stroke:none;" d="M2796 2135L2796 2136L2799 2136L2796 2135z"/>
<path style="fill:#390835; stroke:none;" d="M3294 2135L3295 2136L3294 2135M2791 2136L2792 2137L2791 2136z"/>
<path style="fill:#4c3a33; stroke:none;" d="M2792 2136L2792 2137L2795 2137L2792 2136M3295.67 2136.33L3296.33 2136.67L3295.67 2136.33z"/>
<path style="fill:#390835; stroke:none;" d="M2788 2137L2789 2138L2788 2137z"/>
<path style="fill:#4c3a33; stroke:none;" d="M2789 2137L2789 2138L2792 2138L2789 2137M3297.67 2137.33L3298.33 2137.67L3297.67 2137.33z"/>
<path style="fill:#390835; stroke:none;" d="M2784 2138L2785 2139L2784 2138z"/>
<path style="fill:#4c3a33; stroke:none;" d="M2785 2138L2785 2139L2789 2139L2785 2138M3299 2138L3299 2139L3305 2141L3305 2140L3299 2138z"/>
<path style="fill:#390835; stroke:none;" d="M3301 2138L3302 2139L3301 2138M2781 2139L2782 2140L2781 2139z"/>
<path style="fill:#4c3a33; stroke:none;" d="M2782 2139L2782 2140L2785 2140L2782 2139z"/>
<path style="fill:#390835; stroke:none;" d="M3303 2139L3304 2140L3303 2139M2778 2140L2779 2141L2778 2140z"/>
<path style="fill:#4c3a33; stroke:none;" d="M2779 2140L2779 2141L2782 2141L2779 2140z"/>
<path style="fill:#390835; stroke:none;" d="M3305 2140L3306 2141L3305 2140M2774 2141L2775 2142L2774 2141z"/>
<path style="fill:#4c3a33; stroke:none;" d="M2775 2141L2775 2142L2778 2142L2775 2141M3306 2141L3307 2142L3306 2141z"/>
<path style="fill:#390835; stroke:none;" d="M3307 2141L3308 2142L3307 2141M2771 2142L2772 2143L2771 2142z"/>
<path style="fill:#4c3a33; stroke:none;" d="M2772 2142L2772 2143L2775 2143L2772 2142M3308 2142L3309 2143L3308 2142z"/>
<path style="fill:#390835; stroke:none;" d="M3309 2142L3310 2143L3309 2142M2768 2143L2769 2144L2768 2143z"/>
<path style="fill:#4c3a33; stroke:none;" d="M2769 2143L2769 2144L2772 2144L2769 2143M3310 2143L3311 2144L3310 2143z"/>
<path style="fill:#390835; stroke:none;" d="M3311 2143L3312 2144L3311 2143M2765 2144L2766 2145L2765 2144z"/>
<path style="fill:#4c3a33; stroke:none;" d="M2766 2144L2766 2145L2769 2145L2766 2144M3312 2144L3313 2145L3312 2144z"/>
<path style="fill:#390835; stroke:none;" d="M3313 2144L3314 2145L3313 2144M2762 2145L2763 2146L2762 2145z"/>
<path style="fill:#4c3a33; stroke:none;" d="M2763.67 2145.33L2764.33 2145.67L2763.67 2145.33M3314 2145L3315 2146L3314 2145z"/>
<path style="fill:#390835; stroke:none;" d="M3315 2145L3316 2146L3315 2145M2759 2146L2760 2147L2759 2146z"/>
<path style="fill:#4c3a33; stroke:none;" d="M2760.67 2146.33L2761.33 2146.67L2760.67 2146.33M3316 2146L3317 2147L3316 2146z"/>
<path style="fill:#390835; stroke:none;" d="M3317 2146L3318 2147L3317 2146M2756 2147L2757 2148L2756 2147z"/>
<path style="fill:#4c3a33; stroke:none;" d="M2757.67 2147.33L2758.33 2147.67L2757.67 2147.33M3318 2147L3319 2148L3318 2147z"/>
<path style="fill:#390835; stroke:none;" d="M3319 2147L3320 2148L3319 2147M2753 2148L2754 2149L2753 2148z"/>
<path style="fill:#4c3a33; stroke:none;" d="M2754.67 2148.33L2755.33 2148.67L2754.67 2148.33M3320 2148L3321 2149L3320 2148z"/>
<path style="fill:#390835; stroke:none;" d="M3321 2148L3322 2149L3321 2148M2750 2149L2751 2150L2750 2149z"/>
<path style="fill:#4c3a33; stroke:none;" d="M2751.67 2149.33L2752.33 2149.67L2751.67 2149.33M3322 2149L3323 2150L3322 2149z"/>
<path style="fill:#390835; stroke:none;" d="M2747 2150L2748 2151L2747 2150z"/>
<path style="fill:#4c3a33; stroke:none;" d="M2748.67 2150.33L2749.33 2150.67L2748.67 2150.33M3323.67 2150.33L3324.33 2150.67L3323.67 2150.33M2745.67 2151.33L2746.33 2151.67L2745.67 2151.33M3325.67 2151.33L3326.33 2151.67L3325.67 2151.33M2742.67 2152.33L2743.33 2152.67L2742.67 2152.33M3327 2152L3328 2153L3327 2152z"/>
<path style="fill:#390835; stroke:none;" d="M3328 2152L3329 2153L3328 2152z"/>
<path style="fill:#4c3a33; stroke:none;" d="M2739.67 2153.33L2740.33 2153.67L2739.67 2153.33M3329 2153L3330 2154L3329 2153z"/>
<path style="fill:#390835; stroke:none;" d="M3330 2153L3331 2154L3330 2153M2736 2154L2737 2155L2736 2154z"/>
<path style="fill:#4c3a33; stroke:none;" d="M2737 2154L2738 2155L2737 2154M3331 2154L3332 2155L3331 2154z"/>
<path style="fill:#390835; stroke:none;" d="M2733 2155L2734 2156L2733 2155z"/>
<path style="fill:#4c3a33; stroke:none;" d="M2734.67 2155.33L2735.33 2155.67L2734.67 2155.33M3333 2155L3334 2156L3333 2155M2731.67 2156.33L2732.33 2156.67L2731.67 2156.33M3334 2156L3335 2157L3334 2156z"/>
<path style="fill:#390835; stroke:none;" d="M3335 2156L3336 2157L3335 2156M2728 2157L2729 2158L2728 2157z"/>
<path style="fill:#4c3a33; stroke:none;" d="M2729 2157L2730 2158L2729 2157M3336 2157L3339 2159L3339 2158L3336 2157z"/>
<path style="fill:#390835; stroke:none;" d="M3337 2157L3338 2158L3337 2157M2725 2158L2726 2159L2725 2158z"/>
<path style="fill:#4c3a33; stroke:none;" d="M2726 2158L2727 2159L2726 2158z"/>
<path style="fill:#390835; stroke:none;" d="M2722 2159L2723 2160L2722 2159z"/>
<path style="fill:#4c3a33; stroke:none;" d="M2723.67 2159.33L2724.33 2159.67L2723.67 2159.33M3339 2159L3340 2160L3339 2159z"/>
<path style="fill:#390835; stroke:none;" d="M3340 2159L3341 2160L3340 2159M2720 2160L2721 2161L2720 2160z"/>
<path style="fill:#4c3a33; stroke:none;" d="M2721 2160L2722 2161L2721 2160M3341 2160L3344 2162L3344 2161L3341 2160z"/>
<path style="fill:#390835; stroke:none;" d="M3342 2160L3343 2161L3342 2160M2717 2161L2718 2162L2717 2161z"/>
<path style="fill:#4c3a33; stroke:none;" d="M2718.67 2161.33L2719.33 2161.67L2718.67 2161.33z"/>
<path style="fill:#390835; stroke:none;" d="M2714 2162L2715 2163L2714 2162z"/>
<path style="fill:#4c3a33; stroke:none;" d="M2715.67 2162.33L2716.33 2162.67L2715.67 2162.33M3344 2162L3345 2163L3344 2162z"/>
<path style="fill:#390835; stroke:none;" d="M3345 2162L3346 2163L3345 2162M2712 2163L2713 2164L2712 2163z"/>
<path style="fill:#4c3a33; stroke:none;" d="M2713 2163L2714 2164L2713 2163M3346 2163L3347 2164L3346 2163z"/>
<path style="fill:#390835; stroke:none;" d="M2709 2164L2710 2165L2709 2164z"/>
<path style="fill:#4c3a33; stroke:none;" d="M2710.67 2164.33L2711.33 2164.67L2710.67 2164.33M3347.67 2164.33L3348.33 2164.67L3347.67 2164.33z"/>
<path style="fill:#390835; stroke:none;" d="M2707 2165L2708 2166L2707 2165z"/>
<path style="fill:#4c3a33; stroke:none;" d="M2708 2165L2709 2166L2708 2165M3349 2165L3352 2167L3352 2166L3349 2165z"/>
<path style="fill:#390835; stroke:none;" d="M3350 2165L3351 2166L3350 2165M2704 2166L2705 2167L2704 2166z"/>
<path style="fill:#4c3a33; stroke:none;" d="M2705.67 2166.33L2706.33 2166.67L2705.67 2166.33z"/>
<path style="fill:#390835; stroke:none;" d="M2702 2167L2703 2168L2702 2167z"/>
<path style="fill:#4c3a33; stroke:none;" d="M2703.67 2167.33L2704.33 2167.67L2703.67 2167.33M3352 2167L3353 2168L3352 2167z"/>
<path style="fill:#390835; stroke:none;" d="M2699 2168L2700 2169L2699 2168z"/>
<path style="fill:#4c3a33; stroke:none;" d="M2700.67 2168.33L2701.33 2168.67L2700.67 2168.33M3353 2168L3354 2169L3353 2168z"/>
<path style="fill:#390835; stroke:none;" d="M3354 2168L3355 2169L3354 2168M2697 2169L2698 2170L2697 2169z"/>
<path style="fill:#4c3a33; stroke:none;" d="M2698.67 2169.33L2699.33 2169.67L2698.67 2169.33M3355 2169L3356 2170L3355 2169z"/>
<path style="fill:#390835; stroke:none;" d="M2694 2170L2695 2171L2694 2170z"/>
<path style="fill:#4c3a33; stroke:none;" d="M2695.67 2170.33L2696.33 2170.67L2695.67 2170.33M3356 2170L3357 2171L3356 2170z"/>
<path style="fill:#390835; stroke:none;" d="M3357 2170L3358 2171L3357 2170M2692 2171L2693 2172L2692 2171z"/>
<path style="fill:#4c3a33; stroke:none;" d="M2693.67 2171.33L2694.33 2171.67L2693.67 2171.33M3358 2171L3359 2172L3358 2171z"/>
<path style="fill:#390835; stroke:none;" d="M2690 2172L2691 2173L2690 2172z"/>
<path style="fill:#4c3a33; stroke:none;" d="M2691.67 2172.33L2692.33 2172.67L2691.67 2172.33M3359 2172L3360 2173L3359 2172z"/>
<path style="fill:#390835; stroke:none;" d="M2687 2173L2688 2174L2687 2173z"/>
<path style="fill:#4c3a33; stroke:none;" d="M2688.67 2173.33L2689.33 2173.67L2688.67 2173.33M3360 2173L3361 2174L3360 2173z"/>
<path style="fill:#390835; stroke:none;" d="M3361 2173L3362 2174L3361 2173M2685 2174L2686 2175L2685 2174z"/>
<path style="fill:#4c3a33; stroke:none;" d="M2686.67 2174.33L2687.33 2174.67L2686.67 2174.33M3362 2174L3363 2175L3362 2174z"/>
<path style="fill:#390835; stroke:none;" d="M2683 2175L2684 2176L2683 2175z"/>
<path style="fill:#4c3a33; stroke:none;" d="M2684.67 2175.33L2685.33 2175.67L2684.67 2175.33M3363 2175L3364 2176L3363 2175z"/>
<path style="fill:#390835; stroke:none;" d="M2680 2176L2681 2177L2680 2176z"/>
<path style="fill:#4c3a33; stroke:none;" d="M2681.67 2176.33L2682.33 2176.67L2681.67 2176.33M3364 2176L3365 2177L3364 2176z"/>
<path style="fill:#390835; stroke:none;" d="M3365 2176L3366 2177L3365 2176M2678 2177L2679 2178L2678 2177z"/>
<path style="fill:#4c3a33; stroke:none;" d="M2679.67 2177.33L2680.33 2177.67L2679.67 2177.33M3366 2177L3367 2178L3366 2177z"/>
<path style="fill:#390835; stroke:none;" d="M2676 2178L2677 2179L2676 2178z"/>
<path style="fill:#4c3a33; stroke:none;" d="M2677.67 2178.33L2678.33 2178.67L2677.67 2178.33M3367 2178L3368 2179L3367 2178z"/>
<path style="fill:#390835; stroke:none;" d="M2674 2179L2675 2180L2674 2179z"/>
<path style="fill:#4c3a33; stroke:none;" d="M2675.67 2179.33L2676.33 2179.67L2675.67 2179.33M3368 2179L3369 2180L3368 2179M2672.67 2180.33L2673.33 2180.67L2672.67 2180.33M3369 2180L3370 2181L3369 2180z"/>
<path style="fill:#390835; stroke:none;" d="M3370 2180L3371 2181L3370 2180z"/>
<path style="fill:#4c3a33; stroke:none;" d="M2670.67 2181.33L2671.33 2181.67L2670.67 2181.33M3371 2181L3372 2182L3371 2181z"/>
<path style="fill:#390835; stroke:none;" d="M2667 2182L2668 2183L2667 2182z"/>
<path style="fill:#4c3a33; stroke:none;" d="M2668.67 2182.33L2669.33 2182.67L2668.67 2182.33M3372 2182L3373 2183L3372 2182z"/>
<path style="fill:#390835; stroke:none;" d="M2665 2183L2666 2184L2665 2183z"/>
<path style="fill:#4c3a33; stroke:none;" d="M2666.67 2183.33L2667.33 2183.67L2666.67 2183.33M3373 2183L3374 2184L3373 2183z"/>
<path style="fill:#390835; stroke:none;" d="M2663 2184L2664 2185L2663 2184z"/>
<path style="fill:#4c3a33; stroke:none;" d="M2664.67 2184.33L2665.33 2184.67L2664.67 2184.33M3374 2184L3375 2185L3374 2184z"/>
<path style="fill:#390835; stroke:none;" d="M2661 2185L2662 2186L2661 2185z"/>
<path style="fill:#4c3a33; stroke:none;" d="M2662.67 2185.33L2663.33 2185.67L2662.67 2185.33M3375 2185L3377 2187L3375 2185z"/>
<path style="fill:#390835; stroke:none;" d="M3376 2185L3377 2186L3376 2185M2659 2186L2660 2187L2659 2186z"/>
<path style="fill:#4c3a33; stroke:none;" d="M2660.67 2186.33L2661.33 2186.67L2660.67 2186.33z"/>
<path style="fill:#390835; stroke:none;" d="M3377 2186L3378 2187L3377 2186M2657 2187L2658 2188L2657 2187z"/>
<path style="fill:#4c3a33; stroke:none;" d="M2658.67 2187.33L2659.33 2187.67L2658.67 2187.33M2970 2244L2970 2245C2991.98 2250.08 3012.17 2257.35 3035 2258.91C3090.6 2262.72 3140.75 2240.87 3191 2220.4C3210.82 2212.32 3230.24 2203.34 3251 2197.88C3257.09 2196.28 3268.4 2192.11 3273.67 2197.43C3276.35 2200.14 3275.22 2203.81 3271.89 2205.26C3265.27 2208.15 3256.11 2208.34 3249 2210.42C3217.86 2219.53 3188.12 2235.15 3158 2247.2C3106.93 2267.63 3053.56 2278.85 2999 2266.35C2960.04 2257.42 2924.88 2237.11 2886 2227.88C2864.58 2222.8 2842.92 2219.59 2821 2218.09C2813.17 2217.55 2798.88 2222.45 2792.12 2218.1C2783.57 2212.6 2796.1 2207.23 2801 2207L2801 2206C2739.63 2204.74 2675.92 2210.72 2619 2236.31C2587.01 2250.69 2560.39 2271.08 2532 2291L2532 2283L2531 2283C2531.03 2323.94 2577.26 2357.42 2608 2378C2618.02 2384.71 2629.45 2393.34 2641 2397C2639.79 2388 2637.82 2379.16 2639.46 2370C2641.78 2357.11 2649.15 2345.51 2656.58 2335C2683.73 2296.55 2724.48 2281.71 2769 2271.65C2841.38 2255.3 2920.3 2277.93 2993 2282.91C3071.59 2288.29 3146.78 2276.35 3224 2262.42C3269.48 2254.22 3314.41 2246.98 3359 2263.32C3378.74 2270.55 3397.44 2281.05 3408 2300L3409 2300C3424.49 2262.23 3413.3 2230.47 3390 2199C3375.43 2199.57 3358.58 2192.59 3344 2190.43C3317.31 2186.48 3290.63 2185.62 3264 2190.42C3197.13 2202.49 3140.74 2243.84 3074 2254.56C3037.87 2260.37 3005.05 2249.18 2970 2244M3378 2187L3379 2188L3378 2187z"/>
<path style="fill:#390835; stroke:none;" d="M2655 2188L2656 2189L2655 2188z"/>
<path style="fill:#4c3a33; stroke:none;" d="M2656.67 2188.33L2657.33 2188.67L2656.67 2188.33M3379 2188L3380 2189L3379 2188M2653.67 2189.33L2654.33 2189.67L2653.67 2189.33M3380 2189L3381 2190L3380 2189M2651.67 2190.33L2652.33 2190.67L2651.67 2190.33M3381 2190L3382 2191L3381 2190M2649.67 2191.33L2650.33 2191.67L2649.67 2191.33M3382 2191L3383 2192L3382 2191M2647.67 2192.33L2648.33 2192.67L2647.67 2192.33M3383 2192L3384 2193L3383 2192M2645.67 2193.33L2646.33 2193.67L2645.67 2193.33M3384 2193L3385 2194L3384 2193z"/>
<path style="fill:#390835; stroke:none;" d="M2643 2194L2644 2195L2643 2194z"/>
<path style="fill:#4c3a33; stroke:none;" d="M2644 2194L2645 2195L2644 2194M3385 2194L3386 2195L3385 2194z"/>
<path style="fill:#390835; stroke:none;" d="M2641 2195L2642 2196L2641 2195z"/>
<path style="fill:#4c3a33; stroke:none;" d="M2642 2195L2643 2196L2642 2195z"/>
<path style="fill:#390835; stroke:none;" d="M3261 2195L3262 2196L3261 2195z"/>
<path style="fill:#010101; stroke:none;" d="M3262 2195.44C3238.69 2199.08 3216.56 2209.53 3195 2218.58C3152.53 2236.4 3109.55 2255.72 3063 2258.91C3002.17 2263.07 2952.59 2233.79 2896 2217.71C2870.37 2210.43 2842.63 2206 2816 2206C2809.52 2206 2792.48 2204.32 2789.62 2212.11C2785.71 2222.78 2808.27 2218.01 2813 2218C2841.91 2217.95 2871.28 2223.31 2899 2231.42C2926.33 2239.42 2951.83 2252.53 2979 2260.97C3010.86 2270.88 3044.87 2273.69 3078 2269.71C3130.19 2263.45 3178 2238.79 3226 2218.99C3237.04 2214.43 3248.31 2210.04 3260 2207.43C3263.89 2206.55 3271.66 2207.13 3274.21 2203.68C3279.87 2196.06 3266.19 2194.79 3262 2195.44z"/>
<path style="fill:#390835; stroke:none;" d="M3386 2195L3387 2196L3386 2195M2639 2196L2640 2197L2639 2196z"/>
<path style="fill:#4c3a33; stroke:none;" d="M2640.67 2196.33L2641.33 2196.67L2640.67 2196.33z"/>
<path style="fill:#390835; stroke:none;" d="M3256 2196L3257 2197L3256 2196M3273 2196L3274 2197L3273 2196M3387 2196L3389 2198L3387 2196M2637 2197L2638 2198L2637 2197z"/>
<path style="fill:#4c3a33; stroke:none;" d="M2638.67 2197.33L2639.33 2197.67L2638.67 2197.33z"/>
<path style="fill:#390835; stroke:none;" d="M3252 2197L3253 2198L3252 2197M3274 2197L3275 2198L3274 2197z"/>
<path style="fill:#4c3a33; stroke:none;" d="M3387 2197L3388 2198L3387 2197z"/>
<path style="fill:#390835; stroke:none;" d="M2635 2198L2636 2199L2635 2198z"/>
<path style="fill:#4c3a33; stroke:none;" d="M2636.67 2198.33L2637.33 2198.67L2636.67 2198.33z"/>
<path style="fill:#390835; stroke:none;" d="M3248 2198L3249 2199L3248 2198M3275.33 2198.67L3275.67 2199.33L3275.33 2198.67z"/>
<path style="fill:#4c3a33; stroke:none;" d="M3388 2198L3389 2199L3388 2198M2634.67 2199.33L2635.33 2199.67L2634.67 2199.33z"/>
<path style="fill:#390835; stroke:none;" d="M3245 2199L3246 2200L3245 2199z"/>
<path style="fill:#4c3a33; stroke:none;" d="M2632.67 2200.33L2633.33 2200.67L2632.67 2200.33z"/>
<path style="fill:#390835; stroke:none;" d="M3241 2200L3242 2201L3241 2200z"/>
<path style="fill:#4c3a33; stroke:none;" d="M2630.67 2201.33L2631.33 2201.67L2630.67 2201.33z"/>
<path style="fill:#390835; stroke:none;" d="M3238 2201L3239 2202L3238 2201M3391 2201L3392 2202L3391 2201M2628 2202L2629 2203L2628 2202z"/>
<path style="fill:#4c3a33; stroke:none;" d="M2629 2202L2630 2203L2629 2202z"/>
<path style="fill:#390835; stroke:none;" d="M3235 2202L3236 2203L3235 2202M3275 2202L3276 2203L3275 2202M3392 2202L3393 2203L3392 2202M2626 2203L2627 2204L2626 2203z"/>
<path style="fill:#4c3a33; stroke:none;" d="M2627 2203L2628 2204L2627 2203z"/>
<path style="fill:#390835; stroke:none;" d="M3232 2203L3233 2204L3232 2203z"/>
<path style="fill:#4c3a33; stroke:none;" d="M2625.67 2204.33L2626.33 2204.67L2625.67 2204.33z"/>
<path style="fill:#390835; stroke:none;" d="M3229 2204L3230 2205L3229 2204M3274 2204L3275 2205L3274 2204z"/>
<path style="fill:#4c3a33; stroke:none;" d="M2623.67 2205.33L2624.33 2205.67L2623.67 2205.33M2806 2205L2806 2206L2828 2206L2806 2205M2621.67 2206.33L2622.33 2206.67L2621.67 2206.33z"/>
<path style="fill:#390835; stroke:none;" d="M2801.67 2206.33L2802.33 2206.67L2801.67 2206.33M2830 2206L2830 2207L2833 2207L2830 2206z"/>
<path style="fill:#4c3a33; stroke:none;" d="M2833 2206L2833 2207L2839 2207L2833 2206z"/>
<path style="fill:#390835; stroke:none;" d="M3224 2206L3225 2207L3224 2206M3264 2206L3265 2207L3264 2206M3395 2206L3396 2207L3395 2206M2619 2207L2620 2208L2619 2207z"/>
<path style="fill:#4c3a33; stroke:none;" d="M2620 2207L2621 2208L2620 2207z"/>
<path style="fill:#390835; stroke:none;" d="M2795 2207L2796 2208L2795 2207M2841.67 2207.33L2842.33 2207.67L2841.67 2207.33z"/>
<path style="fill:#4c3a33; stroke:none;" d="M2843 2207L2843 2208L2848 2208L2843 2207z"/>
<path style="fill:#390835; stroke:none;" d="M3259 2207L3260 2208L3259 2207z"/>
<path style="fill:#4c3a33; stroke:none;" d="M2618.67 2208.33L2619.33 2208.67L2618.67 2208.33z"/>
<path style="fill:#390835; stroke:none;" d="M2792 2208L2793 2209L2792 2208M2849.67 2208.33L2850.33 2208.67L2849.67 2208.33z"/>
<path style="fill:#4c3a33; stroke:none;" d="M2851 2208L2851 2209L2855 2209L2851 2208z"/>
<path style="fill:#390835; stroke:none;" d="M3219 2208L3220 2209L3219 2208M3255 2208L3256 2209L3255 2208z"/>
<path style="fill:#4c3a33; stroke:none;" d="M2617 2209L2618 2210L2617 2209z"/>
<path style="fill:#390835; stroke:none;" d="M2856 2209L2857 2210L2856 2209z"/>
<path style="fill:#4c3a33; stroke:none;" d="M2857 2209L2857 2210L2861 2210L2857 2209z"/>
<path style="fill:#390835; stroke:none;" d="M3252 2209L3253 2210L3252 2209M3397 2209L3398 2210L3397 2209M2615 2210L2616 2211L2615 2210z"/>
<path style="fill:#4c3a33; stroke:none;" d="M2616 2210L2617 2211L2616 2210z"/>
<path style="fill:#390835; stroke:none;" d="M2862 2210L2863 2211L2862 2210z"/>
<path style="fill:#4c3a33; stroke:none;" d="M2863 2210L2863 2211L2866 2211L2863 2210z"/>
<path style="fill:#390835; stroke:none;" d="M3214 2210L3215 2211L3214 2210M3398 2210L3399 2211L3398 2210z"/>
<path style="fill:#4c3a33; stroke:none;" d="M2613.67 2211.33L2614.33 2211.67L2613.67 2211.33z"/>
<path style="fill:#390835; stroke:none;" d="M2868 2211L2869 2212L2868 2211z"/>
<path style="fill:#4c3a33; stroke:none;" d="M2869 2211L2869 2212L2872 2212L2869 2211z"/>
<path style="fill:#390835; stroke:none;" d="M3245 2211L3246 2212L3245 2211z"/>
<path style="fill:#4c3a33; stroke:none;" d="M2611.67 2212.33L2612.33 2212.67L2611.67 2212.33z"/>
<path style="fill:#390835; stroke:none;" d="M2873 2212L2874 2213L2873 2212z"/>
<path style="fill:#4c3a33; stroke:none;" d="M2874.67 2212.33L2875.33 2212.67L2874.67 2212.33z"/>
<path style="fill:#390835; stroke:none;" d="M3209 2212L3210 2213L3209 2212M3242 2212L3243 2213L3242 2212z"/>
<path style="fill:#4c3a33; stroke:none;" d="M2609.67 2213.33L2610.33 2213.67L2609.67 2213.33z"/>
<path style="fill:#390835; stroke:none;" d="M2788.33 2213.67L2788.67 2214.33L2788.33 2213.67M2878 2213L2879 2214L2878 2213z"/>
<path style="fill:#4c3a33; stroke:none;" d="M2879.67 2213.33L2880.33 2213.67L2879.67 2213.33z"/>
<path style="fill:#390835; stroke:none;" d="M3207 2213L3208 2214L3207 2213M3239 2213L3240 2214L3239 2213M3400 2213L3401 2214L3400 2213M2607 2214L2608 2215L2607 2214z"/>
<path style="fill:#4c3a33; stroke:none;" d="M2608 2214L2609 2215L2608 2214z"/>
<path style="fill:#390835; stroke:none;" d="M2882 2214L2883 2215L2882 2214z"/>
<path style="fill:#4c3a33; stroke:none;" d="M2883.67 2214.33L2884.33 2214.67L2883.67 2214.33M2606 2215L2607 2216L2606 2215M2887 2215L2887 2216L2890 2216L2887 2215z"/>
<path style="fill:#390835; stroke:none;" d="M3202 2215L3203 2216L3202 2215M3234 2215L3235 2216L3234 2215M2604 2216L2605 2217L2604 2216z"/>
<path style="fill:#4c3a33; stroke:none;" d="M2605 2216L2606 2217L2605 2216z"/>
<path style="fill:#390835; stroke:none;" d="M2891 2216L2892 2217L2891 2216z"/>
<path style="fill:#4c3a33; stroke:none;" d="M2892.67 2216.33L2893.33 2216.67L2892.67 2216.33z"/>
<path style="fill:#390835; stroke:none;" d="M3231 2216L3232 2217L3231 2216M3402 2216L3403 2217L3402 2216z"/>
<path style="fill:#4c3a33; stroke:none;" d="M2603 2217L2604 2218L2603 2217M2895.67 2217.33L2896.33 2217.67L2895.67 2217.33z"/>
<path style="fill:#390835; stroke:none;" d="M3197 2217L3198 2218L3197 2217M3229 2217L3230 2218L3229 2217z"/>
<path style="fill:#4c3a33; stroke:none;" d="M2601.67 2218.33L2602.33 2218.67L2601.67 2218.33z"/>
<path style="fill:#390835; stroke:none;" d="M2804 2218L2804 2219L2809 2219L2804 2218M2824 2218L2824 2219L2830 2219L2824 2218M2898 2218L2899 2219L2898 2218z"/>
<path style="fill:#4c3a33; stroke:none;" d="M2899.67 2218.33L2900.33 2218.67L2899.67 2218.33z"/>
<path style="fill:#390835; stroke:none;" d="M3195 2218L3196 2219L3195 2218M3403 2218L3404 2219L3403 2218M2599 2219L2600 2220L2599 2219z"/>
<path style="fill:#4c3a33; stroke:none;" d="M2600 2219L2601 2220L2600 2219z"/>
<path style="fill:#390835; stroke:none;" d="M2794 2219L2794 2220L2797 2220L2794 2219M2838.67 2219.33L2839.33 2219.67L2838.67 2219.33M2902 2219L2903 2220L2902 2219z"/>
<path style="fill:#4c3a33; stroke:none;" d="M2903 2219L2904 2220L2903 2219z"/>
<path style="fill:#390835; stroke:none;" d="M3224 2219L3225 2220L3224 2219z"/>
<path style="fill:#4c3a33; stroke:none;" d="M2598 2220L2599 2221L2598 2220z"/>
<path style="fill:#390835; stroke:none;" d="M2846.67 2220.33L2847.33 2220.67L2846.67 2220.33M2905 2220L2906 2221L2905 2220z"/>
<path style="fill:#4c3a33; stroke:none;" d="M2906.67 2220.33L2907.33 2220.67L2906.67 2220.33z"/>
<path style="fill:#390835; stroke:none;" d="M3190 2220L3191 2221L3190 2220M2596 2221L2597 2222L2596 2221z"/>
<path style="fill:#4c3a33; stroke:none;" d="M2597 2221L2598 2222L2597 2221z"/>
<path style="fill:#390835; stroke:none;" d="M2853.67 2221.33L2854.33 2221.67L2853.67 2221.33M2908 2221L2909 2222L2908 2221z"/>
<path style="fill:#4c3a33; stroke:none;" d="M2909.67 2221.33L2910.33 2221.67L2909.67 2221.33z"/>
<path style="fill:#390835; stroke:none;" d="M3219 2221L3220 2222L3219 2221z"/>
<path style="fill:#4c3a33; stroke:none;" d="M2595 2222L2596 2223L2595 2222z"/>
<path style="fill:#390835; stroke:none;" d="M2859.67 2222.33L2860.33 2222.67L2859.67 2222.33z"/>
<path style="fill:#4c3a33; stroke:none;" d="M2912.67 2222.33L2913.33 2222.67L2912.67 2222.33z"/>
<path style="fill:#390835; stroke:none;" d="M3185 2222L3186 2223L3185 2222M3217 2222L3218 2223L3217 2222z"/>
<path style="fill:#4c3a33; stroke:none;" d="M2593 2223L2594 2224L2593 2223z"/>
<path style="fill:#390835; stroke:none;" d="M2865 2223L2866 2224L2865 2223M2914 2223L2915 2224L2914 2223z"/>
<path style="fill:#4c3a33; stroke:none;" d="M2915 2223L2916 2224L2915 2223z"/>
<path style="fill:#390835; stroke:none;" d="M3183 2223L3184 2224L3183 2223M3215 2223L3216 2224L3215 2223M3406 2223L3407 2224L3406 2223z"/>
<path style="fill:#4c3a33; stroke:none;" d="M2592 2224L2593 2225L2592 2224z"/>
<path style="fill:#390835; stroke:none;" d="M2870 2224L2871 2225L2870 2224M2917 2224L2918 2225L2917 2224z"/>
<path style="fill:#4c3a33; stroke:none;" d="M2918 2224L2919 2225L2918 2224M2590.67 2225.33L2591.33 2225.67L2590.67 2225.33z"/>
<path style="fill:#390835; stroke:none;" d="M2875 2225L2876 2226L2875 2225M2920 2225L2921 2226L2920 2225z"/>
<path style="fill:#4c3a33; stroke:none;" d="M2921 2225L2922 2226L2921 2225z"/>
<path style="fill:#390835; stroke:none;" d="M3178 2225L3179 2226L3178 2225M3210 2225L3211 2226L3210 2225M3407 2225L3408 2226L3407 2225z"/>
<path style="fill:#4c3a33; stroke:none;" d="M2589 2226L2590 2227L2589 2226z"/>
<path style="fill:#390835; stroke:none;" d="M2879 2226L2880 2227L2879 2226z"/>
<path style="fill:#4c3a33; stroke:none;" d="M2923.67 2226.33L2924.33 2226.67L2923.67 2226.33z"/>
<path style="fill:#390835; stroke:none;" d="M3208 2226L3209 2227L3208 2226z"/>
<path style="fill:#4c3a33; stroke:none;" d="M2587 2227L2588 2228L2587 2227z"/>
<path style="fill:#390835; stroke:none;" d="M2884 2227L2885 2228L2884 2227z"/>
<path style="fill:#4c3a33; stroke:none;" d="M2926 2227L2927 2228L2926 2227z"/>
<path style="fill:#390835; stroke:none;" d="M3173 2227L3174 2228L3173 2227M3408 2227L3409 2228L3408 2227z"/>
<path style="fill:#4c3a33; stroke:none;" d="M2586 2228L2587 2229L2586 2228z"/>
<path style="fill:#390835; stroke:none;" d="M2888 2228L2889 2229L2888 2228M2928 2228L2929 2229L2928 2228z"/>
<path style="fill:#4c3a33; stroke:none;" d="M2929 2228L2930 2229L2929 2228z"/>
<path style="fill:#390835; stroke:none;" d="M3203 2228L3204 2229L3203 2228z"/>
<path style="fill:#4c3a33; stroke:none;" d="M2584 2229L2585 2230L2584 2229z"/>
<path style="fill:#390835; stroke:none;" d="M2892 2229L2893 2230L2892 2229M2931 2229L2932 2230L2931 2229z"/>
<path style="fill:#4c3a33; stroke:none;" d="M2932 2229L2933 2230L2932 2229z"/>
<path style="fill:#390835; stroke:none;" d="M3168 2229L3169 2230L3168 2229M3201 2229L3202 2230L3201 2229M3409 2229L3410 2230L3409 2229z"/>
<path style="fill:#4c3a33; stroke:none;" d="M2583 2230L2584 2231L2583 2230z"/>
<path style="fill:#390835; stroke:none;" d="M2895 2230L2896 2231L2895 2230z"/>
<path style="fill:#4c3a33; stroke:none;" d="M2934.67 2230.33L2935.33 2230.67L2934.67 2230.33z"/>
<path style="fill:#390835; stroke:none;" d="M3166 2230L3167 2231L3166 2230z"/>
<path style="fill:#4c3a33; stroke:none;" d="M2581.67 2231.33L2582.33 2231.67L2581.67 2231.33z"/>
<path style="fill:#390835; stroke:none;" d="M2899 2231L2900 2232L2899 2231M2936 2231L2937 2232L2936 2231z"/>
<path style="fill:#4c3a33; stroke:none;" d="M2937.67 2231.33L2938.33 2231.67L2937.67 2231.33z"/>
<path style="fill:#390835; stroke:none;" d="M3196 2231L3197 2232L3196 2231z"/>
<path style="fill:#4c3a33; stroke:none;" d="M2580 2232L2581 2233L2580 2232z"/>
<path style="fill:#390835; stroke:none;" d="M2902 2232L2903 2233L2902 2232z"/>
<path style="fill:#4c3a33; stroke:none;" d="M2939.67 2232.33L2940.33 2232.67L2939.67 2232.33z"/>
<path style="fill:#390835; stroke:none;" d="M3161 2232L3162 2233L3161 2232M3194 2232L3195 2233L3194 2232M3410 2232L3411 2233L3410 2232M2578 2233L2579 2234L2578 2233M2905 2233L2906 2234L2905 2233M2941 2233L2942 2234L2941 2233z"/>
<path style="fill:#4c3a33; stroke:none;" d="M2942.67 2233.33L2943.33 2233.67L2942.67 2233.33z"/>
<path style="fill:#390835; stroke:none;" d="M3191 2233L3192 2234L3191 2233z"/>
<path style="fill:#4c3a33; stroke:none;" d="M2577 2234L2578 2235L2577 2234z"/>
<path style="fill:#390835; stroke:none;" d="M2908 2234L2909 2235L2908 2234z"/>
<path style="fill:#4c3a33; stroke:none;" d="M2944.67 2234.33L2945.33 2234.67L2944.67 2234.33z"/>
<path style="fill:#390835; stroke:none;" d="M3156 2234L3157 2235L3156 2234M3189 2234L3190 2235L3189 2234M3411 2234L3412 2235L3411 2234M2575 2235L2576 2236L2575 2235z"/>
<path style="fill:#4c3a33; stroke:none;" d="M2576 2235L2577 2236L2576 2235z"/>
<path style="fill:#390835; stroke:none;" d="M2911 2235L2912 2236L2911 2235M2946 2235L2947 2236L2946 2235z"/>
<path style="fill:#4c3a33; stroke:none;" d="M2947.67 2235.33L2948.33 2235.67L2947.67 2235.33M2574 2236L2575 2237L2574 2236z"/>
<path style="fill:#390835; stroke:none;" d="M2914 2236L2915 2237L2914 2236z"/>
<path style="fill:#4c3a33; stroke:none;" d="M2949.67 2236.33L2950.33 2236.67L2949.67 2236.33z"/>
<path style="fill:#390835; stroke:none;" d="M3151 2236L3152 2237L3151 2236M3184 2236L3185 2237L3184 2236z"/>
<path style="fill:#4c3a33; stroke:none;" d="M2573 2237L2574 2238L2573 2237z"/>
<path style="fill:#390835; stroke:none;" d="M2917 2237L2918 2238L2917 2237M2951 2237L2952 2238L2951 2237z"/>
<path style="fill:#4c3a33; stroke:none;" d="M2952.67 2237.33L2953.33 2237.67L2952.67 2237.33z"/>
<path style="fill:#390835; stroke:none;" d="M3412 2237L3413 2238L3412 2237M2571 2238L2572 2239L2571 2238z"/>
<path style="fill:#4c3a33; stroke:none;" d="M2572 2238L2573 2239L2572 2238M2954.67 2238.33L2955.33 2238.67L2954.67 2238.33z"/>
<path style="fill:#390835; stroke:none;" d="M3146 2238L3147 2239L3146 2238M3179 2238L3180 2239L3179 2238z"/>
<path style="fill:#4c3a33; stroke:none;" d="M2570 2239L2571 2240L2570 2239z"/>
<path style="fill:#390835; stroke:none;" d="M2922 2239L2923 2240L2922 2239M2956 2239L2957 2240L2956 2239z"/>
<path style="fill:#4c3a33; stroke:none;" d="M2957.67 2239.33L2958.33 2239.67L2957.67 2239.33z"/>
<path style="fill:#390835; stroke:none;" d="M3143 2239L3144 2240L3143 2239M3177 2239L3178 2240L3177 2239z"/>
<path style="fill:#4c3a33; stroke:none;" d="M2569 2240L2570 2241L2569 2240z"/>
<path style="fill:#390835; stroke:none;" d="M2925 2240L2926 2241L2925 2240z"/>
<path style="fill:#4c3a33; stroke:none;" d="M2959.67 2240.33L2960.33 2240.67L2959.67 2240.33z"/>
<path style="fill:#390835; stroke:none;" d="M3174 2240L3175 2241L3174 2240M3413 2240L3414 2241L3413 2240z"/>
<path style="fill:#4c3a33; stroke:none;" d="M2567 2241L2568 2242L2567 2241z"/>
<path style="fill:#390835; stroke:none;" d="M2927 2241L2928 2242L2927 2241M2961 2241L2962 2242L2961 2241z"/>
<path style="fill:#4c3a33; stroke:none;" d="M2962.67 2241.33L2963.33 2241.67L2962.67 2241.33z"/>
<path style="fill:#390835; stroke:none;" d="M3138 2241L3139 2242L3138 2241M3172 2241L3173 2242L3172 2241z"/>
<path style="fill:#4c3a33; stroke:none;" d="M2566 2242L2567 2243L2566 2242z"/>
<path style="fill:#390835; stroke:none;" d="M2930 2242L2931 2243L2930 2242M2964 2242L2965 2243L2964 2242z"/>
<path style="fill:#4c3a33; stroke:none;" d="M2965.67 2242.33L2966.33 2242.67L2965.67 2242.33z"/>
<path style="fill:#390835; stroke:none;" d="M3135 2242L3136 2243L3135 2242z"/>
<path style="fill:#4c3a33; stroke:none;" d="M2565 2243L2566 2244L2565 2243M2967.67 2243.33L2968.33 2243.67L2967.67 2243.33z"/>
<path style="fill:#390835; stroke:none;" d="M3167 2243L3168 2244L3167 2243M3414.33 2243.67L3414.67 2244.33L3414.33 2243.67M2563 2244L2564 2245L2563 2244M2935 2244L2936 2245L2935 2244M2969 2244L2970 2245L2969 2244z"/>
<path style="fill:#4c3a33; stroke:none;" d="M2562 2245L2563 2246L2562 2245z"/>
<path style="fill:#390835; stroke:none;" d="M2972 2245L2973 2246L2972 2245M3127 2245L3128 2246L3127 2245M3162 2245L3163 2246L3162 2245z"/>
<path style="fill:#4c3a33; stroke:none;" d="M2561 2246L2562 2247L2561 2246z"/>
<path style="fill:#390835; stroke:none;" d="M2940 2246L2941 2247L2940 2246M2975 2246L2976 2247L2975 2246M3124 2246L3125 2247L3124 2246M2559 2247L2560 2248L2559 2247M2978 2247L2979 2248L2978 2247M3157 2247L3158 2248L3157 2247z"/>
<path style="fill:#4c3a33; stroke:none;" d="M2558 2248L2559 2249L2558 2248z"/>
<path style="fill:#390835; stroke:none;" d="M2945 2248L2946 2249L2945 2248M2981 2248L2982 2249L2981 2248M3117 2248L3118 2249L3117 2248M3415.33 2248.67L3415.67 2249.33L3415.33 2248.67z"/>
<path style="fill:#4c3a33; stroke:none;" d="M2557 2249L2558 2250L2557 2249z"/>
<path style="fill:#390835; stroke:none;" d="M2984 2249L2985 2250L2984 2249M3114 2249L3115 2250L3114 2249M3152 2249L3153 2250L3152 2249M2555 2250L2556 2251L2555 2250M2950 2250L2951 2251L2950 2250M2987 2250L2988 2251L2987 2250M3111 2250L3112 2251L3111 2250z"/>
<path style="fill:#4c3a33; stroke:none;" d="M2554 2251L2555 2252L2554 2251z"/>
<path style="fill:#390835; stroke:none;" d="M2991 2251L2992 2252L2991 2251M3107 2251L3108 2252L3107 2251M3147 2251L3148 2252L3147 2251z"/>
<path style="fill:#4c3a33; stroke:none;" d="M2553 2252L2554 2253L2553 2252z"/>
<path style="fill:#390835; stroke:none;" d="M2955 2252L2956 2253L2955 2252M2994 2252L2995 2253L2994 2252M3103 2252L3104 2253L3103 2252M3144 2252L3145 2253L3144 2252z"/>
<path style="fill:#4c3a33; stroke:none;" d="M2552 2253L2553 2254L2552 2253z"/>
<path style="fill:#390835; stroke:none;" d="M2998 2253L2999 2254L2998 2253M3099 2253L3100 2254L3099 2253M2639 2398L2649 2402C2650.45 2368.11 2673.33 2347.93 2700 2331.05C2759.51 2293.38 2846.9 2300.2 2908 2330.75C2934.9 2344.2 2967.12 2367.11 2972.38 2399C2975.61 2418.6 2955.65 2440.56 2937 2443.67C2923.1 2446 2906.16 2440.87 2893 2436.66C2875.9 2431.18 2860.72 2420.56 2848 2408C2819.21 2379.55 2790.01 2344.28 2747 2340.17C2718.3 2337.43 2694.55 2348.79 2676.61 2371C2669.34 2380.01 2661.38 2394.67 2663.49 2406.9C2664.58 2413.22 2678.85 2416.88 2684 2419.01C2704.81 2427.6 2725.61 2435.93 2747 2443C2821.61 2467.65 2897.35 2478.86 2975 2488.16C2994.72 2490.52 3014.14 2491 3034 2491C3039.94 2491 3051.54 2492 3056.39 2488.14C3064.52 2481.67 3069.09 2466.37 3072.8 2457C3086.2 2423.15 3089.24 2383.54 3082 2348C3079.54 2335.96 3075.85 2323.83 3069.97 2313C3067.91 2309.21 3063.13 2303.56 3065.84 2299.11C3071.16 2290.37 3078.41 2302.57 3080.86 2307C3088.67 2321.18 3093.24 2337.1 3095.92 2353C3101.35 2385.23 3098.65 2418.8 3088.66 2450C3084.57 2462.74 3076.71 2474.38 3073 2487C3154.04 2466.04 3228.51 2430.74 3301 2389.13C3315.24 2380.95 3329.1 2372.15 3343 2363.42C3347.37 2360.68 3356.65 2356.54 3358.84 2351.67C3360.16 2348.74 3357.33 2344.72 3356.35 2342C3352.88 2332.4 3348.97 2323.8 3340 2318.03C3332.85 2313.42 3323.21 2313 3315 2313C3274.51 2313.02 3252.37 2349.87 3229 2377C3222.61 2384.42 3216.27 2390.98 3208 2396.31C3192.09 2406.56 3152.4 2424.73 3144.84 2394C3143.69 2389.3 3145.86 2381.77 3146.81 2377C3151.27 2354.54 3167.05 2336.52 3184 2322.13C3234.98 2278.85 3344.22 2263.89 3370 2343C3377.12 2340.25 3382.68 2334.31 3388 2329C3394.44 2322.57 3407.58 2310.95 3407.94 2301C3408.18 2294.58 3399.46 2286.39 3394.99 2282.61C3380.1 2270.06 3361.67 2262.81 3343 2257.88C3301.53 2246.94 3258.25 2256.14 3217 2263.58C3171.9 2271.71 3126.61 2279.49 3081 2283.83C3019.63 2289.67 2956.94 2279.36 2896 2272.83C2857.37 2268.7 2818.75 2263.57 2780 2269.58C2743.67 2275.21 2697.12 2287.34 2671.09 2315C2657.78 2329.14 2642.97 2349.5 2639.46 2369C2637.87 2377.85 2642.51 2390.18 2639 2398z"/>
<path style="fill:#4c3a33; stroke:none;" d="M2551 2254L2552 2255L2551 2254z"/>
<path style="fill:#390835; stroke:none;" d="M2960 2254L2961 2255L2960 2254M3002.67 2254.33L3003.33 2254.67L3002.67 2254.33M3094 2254L3095 2255L3094 2254M3139 2254L3140 2255L3139 2254M3416 2254L3416 2257L3417 2257L3416 2254z"/>
<path style="fill:#4c3a33; stroke:none;" d="M2550 2255L2551 2256L2550 2255z"/>
<path style="fill:#390835; stroke:none;" d="M2963 2255L2964 2256L2963 2255M3007.67 2255.33L3008.33 2255.67L3007.67 2255.33M3089 2255L3090 2256L3089 2255M3136 2255L3137 2256L3136 2255M2548 2256L2549 2257L2548 2256z"/>
<path style="fill:#4c3a33; stroke:none;" d="M2549 2256L2550 2257L2549 2256z"/>
<path style="fill:#390835; stroke:none;" d="M2966 2256L2967 2257L2966 2256M3013.67 2256.33L3014.33 2256.67L3013.67 2256.33M3082.67 2256.33L3083.33 2256.67L3082.67 2256.33M3133 2256L3134 2257L3133 2256M2547 2257L2548 2258L2547 2257M3019 2257L3019 2258L3022 2258L3019 2257M3074 2257L3074 2258L3077 2258L3074 2257M3130 2257L3131 2258L3130 2257z"/>
<path style="fill:#4c3a33; stroke:none;" d="M2546 2258L2547 2259L2546 2258z"/>
<path style="fill:#390835; stroke:none;" d="M2971 2258L2972 2259L2971 2258M3028 2258L3028 2259L3032 2259L3028 2258M3062 2258L3062 2259L3067 2259L3062 2258M3127 2258L3128 2259L3127 2258z"/>
<path style="fill:#4c3a33; stroke:none;" d="M2545 2259L2546 2260L2545 2259z"/>
<path style="fill:#390835; stroke:none;" d="M2974 2259L2975 2260L2974 2259M3124 2259L3125 2260L3124 2259z"/>
<path style="fill:#4c3a33; stroke:none;" d="M2544 2260L2545 2261L2544 2260z"/>
<path style="fill:#390835; stroke:none;" d="M2977 2260L2978 2261L2977 2260M3121 2260L3122 2261L3121 2260z"/>
<path style="fill:#4c3a33; stroke:none;" d="M2543 2261L2544 2262L2543 2261z"/>
<path style="fill:#390835; stroke:none;" d="M2980 2261L2981 2262L2980 2261M3118 2261L3119 2262L3118 2261z"/>
<path style="fill:#4c3a33; stroke:none;" d="M2542 2262L2543 2263L2542 2262z"/>
<path style="fill:#390835; stroke:none;" d="M2984 2262L2985 2263L2984 2262M3114 2262L3115 2263L3114 2262z"/>
<path style="fill:#4c3a33; stroke:none;" d="M2541 2263L2542 2264L2541 2263z"/>
<path style="fill:#390835; stroke:none;" d="M2987 2263L2988 2264L2987 2263M3110.67 2263.33L3111.33 2263.67L3110.67 2263.33z"/>
<path style="fill:#4c3a33; stroke:none;" d="M2540 2264L2541 2265L2540 2264z"/>
<path style="fill:#390835; stroke:none;" d="M2991 2264L2992 2265L2991 2264M3107 2264L3108 2265L3107 2264M2539 2265L2540 2266L2539 2265M2995 2265L2996 2266L2995 2265M3102.67 2265.33L3103.33 2265.67L3102.67 2265.33M2999 2266L3000 2267L2999 2266M3098 2266L3099 2267L3098 2266z"/>
<path style="fill:#4c3a33; stroke:none;" d="M2538 2267L2539 2268L2538 2267z"/>
<path style="fill:#390835; stroke:none;" d="M3004 2267L3005 2268L3004 2267M3092.67 2267.33L3093.33 2267.67L3092.67 2267.33z"/>
<path style="fill:#4c3a33; stroke:none;" d="M2537 2268L2538 2269L2537 2268z"/>
<path style="fill:#390835; stroke:none;" d="M3009.67 2268.33L3010.33 2268.67L3009.67 2268.33M3086.67 2268.33L3087.33 2268.67L3086.67 2268.33M2536 2269L2537 2270L2536 2269M3015.67 2269.33L3016.33 2269.67L3015.67 2269.33M3079.67 2269.33L3080.33 2269.67L3079.67 2269.33M3023 2270L3023 2271L3026 2271L3023 2270M3068 2270L3068 2271L3072 2271L3068 2270z"/>
<path style="fill:#4c3a33; stroke:none;" d="M2535 2271L2536 2272L2535 2271z"/>
<path style="fill:#390835; stroke:none;" d="M3035 2271L3035 2272L3057 2272L3035 2271M2534 2272L2535 2273L2534 2272z"/>
<path style="fill:#4c3a33; stroke:none;" d="M2534 2273L2535 2274L2534 2273z"/>
<path style="fill:#390835; stroke:none;" d="M3416 2273L3416 2276L3417 2276L3416 2273z"/>
<path style="fill:#4c3a33; stroke:none;" d="M2533 2275L2534 2276L2533 2275z"/>
<path style="fill:#390835; stroke:none;" d="M2532 2277L2533 2278L2532 2277z"/>
<path style="fill:#4c3a33; stroke:none;" d="M2532.33 2278.67L2532.67 2279.33L2532.33 2278.67z"/>
<path style="fill:#390835; stroke:none;" d="M3415.33 2280.67L3415.67 2281.33L3415.33 2280.67M2531 2282L2532 2283L2531 2282M3414 2284L3414 2287L3415 2287L3414 2284M3005 2554L3006 2577C2984.28 2577.18 2961.14 2583.91 2940 2588.58C2897.7 2597.92 2856.14 2610.13 2814 2620.12C2748.66 2635.61 2685.86 2657.25 2622 2677.66C2537.78 2704.56 2453.81 2731.26 2372 2765.01C2338.25 2778.93 2304.85 2794.36 2272 2810.26C2257.27 2817.39 2243.14 2827.56 2228 2833.54C2206.09 2842.18 2180.8 2845.89 2158 2851.88C2121.1 2861.59 2083.55 2872.86 2046.01 2879.7C2033.48 2881.98 2017.46 2872.27 2005 2870.08C2000.81 2869.35 1993.24 2867.35 1989.76 2870.86C1980.3 2880.36 2001.24 2898 2007 2902.6C2017.63 2911.09 2029.42 2918.25 2038.99 2928C2051.49 2940.76 2061.54 2956.03 2075 2967.81C2083.32 2975.09 2094.86 2978.07 2105 2973C2095.75 2953.05 2076.77 2933.78 2063.63 2916C2060.22 2911.39 2048.62 2900.92 2050.62 2895.02C2051.88 2891.32 2056.26 2888.72 2060 2890.27C2065.82 2892.69 2067.07 2900.33 2072.33 2902.87C2078.11 2905.66 2095.21 2894.4 2101 2892.01C2156.65 2869.05 2212.67 2846.82 2269 2825.58C2447.13 2758.39 2625.52 2696.84 2811 2652.88C2866.86 2639.65 2923.37 2628.46 2980 2619.08C2996.31 2616.38 3012.65 2613.84 3029 2611.42C3033.86 2610.7 3043.52 2611.21 3047.4 2607.99C3051.56 2604.53 3049.94 2587.25 3050 2582C3050.29 2556.17 3044.53 2530.69 3044 2505C3008.36 2505 2974.37 2500.59 2939 2497.17C2840.61 2487.64 2735.5 2463.63 2648 2416.31C2602 2391.43 2548.41 2360.87 2523.99 2312C2519.65 2303.3 2520.64 2293.93 2518 2285C2500.38 2294.22 2509.39 2319.15 2515.42 2333C2533.07 2373.53 2560.34 2412.36 2595 2440C2635.38 2472.19 2684.26 2494.09 2733 2510.33C2819.68 2539.23 2913.77 2554 3005 2554M3413.33 2288.67L3413.67 2289.33L3413.33 2288.67M3412.33 2291.67L3412.67 2292.33L3412.33 2291.67M2531.33 2292.67L2531.67 2293.33L2531.33 2292.67M3411.33 2294.67L3411.67 2295.33L3411.33 2294.67z"/>
<path style="fill:#010165; stroke:none;" d="M3423 2295L3424 2296L3423 2295z"/>
<path style="fill:#390835; stroke:none;" d="M3410.33 2296.67L3410.67 2297.33L3410.33 2296.67M3423 2296C3416.22 2307.91 3410.93 2319.5 3401.71 2330C3377.43 2357.62 3341.37 2377.46 3310 2395.86C3264.01 2422.84 3217.86 2447.29 3169 2468.72C3143.96 2479.7 3118.82 2491.22 3092 2497.21C3085.32 2498.7 3063.99 2499.02 3060.07 2504.7C3058.39 2507.14 3059.92 2512.28 3060.28 2515C3061.37 2523.28 3062.83 2531.64 3063 2540C3089.93 2540 3117.27 2530.1 3143 2522.71C3227.31 2498.48 3294.72 2456.55 3358 2396.04C3379.08 2375.88 3400.8 2354.34 3414.24 2328C3419 2318.67 3424.68 2306.75 3423 2296M2532.33 2297.67L2532.67 2298.33L2532.33 2297.67z"/>
<path style="fill:#010165; stroke:none;" d="M3423.33 2297.67L3423.67 2298.33L3423.33 2297.67z"/>
<path style="fill:#390835; stroke:none;" d="M3409.33 2298.67L3409.67 2299.33L3409.33 2298.67M2533.33 2301.67L2533.67 2302.33L2533.33 2301.67M2534 2304L2535 2305L2534 2304M2535 2306L2536 2307L2535 2306M2536 2308L2537 2309L2536 2308M2538 2311L2539 2312L2538 2311M2539 2312L2540 2313L2539 2312M2540 2314L2541 2315L2540 2314M2541 2315L2542 2316L2541 2315z"/>
<path style="fill:#010165; stroke:none;" d="M2509 2316L2510 2317L2509 2316z"/>
<path style="fill:#390835; stroke:none;" d="M2542 2317L2543 2318L2542 2317M2543 2318L2544 2319L2543 2318M2545 2321L2546 2322L2545 2321M2546 2322L2547 2323L2546 2322M2547 2323L2548 2324L2547 2323M2548 2325L2549 2326L2548 2325M2549 2326L2550 2327L2549 2326M2550 2327L2551 2328L2550 2327z"/>
<path style="fill:#010165; stroke:none;" d="M2514 2330L2515 2331L2514 2330z"/>
<path style="fill:#390835; stroke:none;" d="M2552 2330L2553 2331L2552 2330M2553 2331L2554 2332L2553 2331M2554 2332L2555 2333L2554 2332M2555 2333L2556 2334L2555 2333M2556 2334L2557 2335L2556 2334z"/>
<path style="fill:#010165; stroke:none;" d="M3410 2334L3411 2335L3410 2334z"/>
<path style="fill:#390835; stroke:none;" d="M2557 2335L2558 2336L2557 2335z"/>
<path style="fill:#4c3a33; stroke:none;" d="M3409 2335L3410 2336L3409 2335z"/>
<path style="fill:#390835; stroke:none;" d="M2558 2336L2559 2337L2558 2336M2559 2337L2560 2338L2559 2337M2560 2338L2561 2339L2560 2338M2561 2339L2562 2340L2561 2339M2562 2340L2563 2341L2562 2340M2563 2341L2564 2342L2563 2341z"/>
<path style="fill:#010165; stroke:none;" d="M2520 2342L2521 2343L2520 2342M3404 2343L3405 2344L3404 2343z"/>
<path style="fill:#390835; stroke:none;" d="M2568 2346L2569 2347L2568 2346z"/>
<path style="fill:#010165; stroke:none;" d="M2523 2347L2524 2348L2523 2347z"/>
<path style="fill:#390835; stroke:none;" d="M2569 2347L2570 2348L2569 2347M2570 2348L2571 2349L2570 2348M2571 2349L2572 2350L2571 2349M2572 2350L2573 2351L2572 2350z"/>
<path style="fill:#010165; stroke:none;" d="M3399 2350L3400 2351L3399 2350z"/>
<path style="fill:#390835; stroke:none;" d="M2573 2351L2574 2352L2573 2351M2574 2352L2575 2353L2574 2352M2575 2353L2576 2354L2575 2353M2576 2354L2577 2355L2576 2354z"/>
<path style="fill:#010165; stroke:none;" d="M3396 2354L3397 2355L3396 2354z"/>
<path style="fill:#390835; stroke:none;" d="M2577.67 2355.33L2578.33 2355.67L2577.67 2355.33M2579 2356L2580 2357L2579 2356M2580 2357L2581 2358L2580 2357M2581 2358L2582 2359L2581 2358M2582.67 2359.33L2583.33 2359.67L2582.67 2359.33z"/>
<path style="fill:#010165; stroke:none;" d="M3392 2359L3393 2360L3392 2359z"/>
<path style="fill:#390835; stroke:none;" d="M2584 2360L2585 2361L2584 2360M2585 2361L2586 2362L2585 2361M2586 2362L2587 2363L2586 2362M2587 2363L2588 2364L2587 2363M2588.67 2364.33L2589.33 2364.67L2588.67 2364.33M2590 2365L2591 2366L2590 2365z"/>
<path style="fill:#010165; stroke:none;" d="M3387 2365L3388 2366L3387 2365z"/>
<path style="fill:#390835; stroke:none;" d="M2591 2366L2592 2367L2591 2366M2592.67 2367.33L2593.33 2367.67L2592.67 2367.33z"/>
<path style="fill:#010165; stroke:none;" d="M2534 2368L2535 2369L2534 2368z"/>
<path style="fill:#390835; stroke:none;" d="M2594 2368L2595 2369L2594 2368M2595 2369L2596 2370L2595 2369M2596.67 2370.33L2597.33 2370.67L2596.67 2370.33M2598 2371L2599 2372L2598 2371M2599.67 2372.33L2600.33 2372.67L2599.67 2372.33M2601 2373L2602 2374L2601 2373M2602 2374L2603 2375L2602 2374z"/>
<path style="fill:#010165; stroke:none;" d="M3379 2374L3380 2375L3379 2374z"/>
<path style="fill:#390835; stroke:none;" d="M2604 2375L2605 2376L2604 2375M2605 2376L2606 2377L2605 2376M2606.67 2377.33L2607.33 2377.67L2606.67 2377.33M2608 2378L2609 2379L2608 2378M2610 2379L2611 2380L2610 2379M2611 2380L2612 2381L2611 2380z"/>
<path style="fill:#010165; stroke:none;" d="M2542 2381L2543 2382L2542 2381z"/>
<path style="fill:#390835; stroke:none;" d="M2613 2381L2614 2382L2613 2381M2614 2382L2615 2383L2614 2382M2616 2383L2617 2384L2616 2383z"/>
<path style="fill:#010165; stroke:none;" d="M2544 2384L2545 2385L2544 2384z"/>
<path style="fill:#390835; stroke:none;" d="M2617.67 2384.33L2618.33 2384.67L2617.67 2384.33M2619 2385L2620 2386L2619 2385M2621 2386L2622 2387L2621 2386z"/>
<path style="fill:#010165; stroke:none;" d="M2546 2387L2547 2388L2546 2387z"/>
<path style="fill:#390835; stroke:none;" d="M2622.67 2387.33L2623.33 2387.67L2622.67 2387.33M2624 2388L2625 2389L2624 2388M2625.67 2389.33L2626.33 2389.67L2625.67 2389.33M2627.67 2390.33L2628.33 2390.67L2627.67 2390.33M2629 2391L2630 2392L2629 2391M2630.67 2392.33L2631.33 2392.67L2630.67 2392.33z"/>
<path style="fill:#010165; stroke:none;" d="M3361 2392L3362 2393L3361 2392z"/>
<path style="fill:#390835; stroke:none;" d="M2632.67 2393.33L2633.33 2393.67L2632.67 2393.33z"/>
<path style="fill:#010165; stroke:none;" d="M3360 2393L3361 2394L3360 2393z"/>
<path style="fill:#390835; stroke:none;" d="M2634.67 2394.33L2635.33 2394.67L2634.67 2394.33M2636 2395L2637 2396L2636 2395M2637.67 2396.33L2638.33 2396.67L2637.67 2396.33z"/>
<path style="fill:#010165; stroke:none;" d="M2559 2404L2560 2405L2559 2404M3344 2408L3345 2409L3344 2408M3332 2419L3333 2420L3332 2419M3331 2420L3332 2421L3331 2420M3322 2428L3323 2429L3322 2428M2586 2432L2587 2433L2586 2432M3315 2434L3316 2435L3315 2434M2593 2438L2594 2439L2593 2438M2602 2445L2603 2446L2602 2445M2616 2455L2617 2456L2616 2455M3282 2459L3283 2460L3282 2459M3279 2461L3280 2462L3279 2461M2627 2462L2628 2463L2627 2462M3276 2463L3277 2464L3276 2463z"/>
<path style="fill:#390835; stroke:none;" d="M3510 2555C3488.97 2551.1 3467.96 2555.26 3447 2553.68C3413.55 2551.14 3380.56 2545.51 3347 2544.04C3289.73 2541.53 3233.09 2545.46 3176 2547.96C3148.61 2549.16 3121.18 2552.08 3094 2555.87C3086.05 2556.98 3070.8 2556.73 3066.03 2564.47C3064 2567.76 3065 2573.3 3065 2577L3065 2606C3099.88 2605.71 3136.22 2598.48 3171 2595.17C3230.97 2589.46 3291.69 2589.29 3352 2590C3399.84 2590.57 3448.37 2595.63 3496 2600.17C3514.82 2601.96 3534.14 2606.84 3553 2607C3547.69 2597.48 3540.89 2588.98 3536.31 2579C3526.32 2557.25 3523.06 2534.51 3520.29 2511C3519.36 2503.18 3518.74 2492.53 3521.34 2485C3522.66 2481.2 3526.54 2477.08 3530.89 2479.22C3537.89 2482.67 3533.58 2495.76 3534.17 2502C3536.26 2523.95 3539 2545.26 3547 2566C3549.27 2558.6 3544.21 2546.7 3543.13 2539C3540.64 2521.28 3541 2504.74 3541 2487C3541 2481.04 3542.75 2467.65 3535.89 2464.74C3525.31 2460.25 3516.71 2475.38 3513.43 2483C3503.83 2505.25 3503.49 2531.89 3510 2555z"/>
<path style="fill:#010165; stroke:none;" d="M2632 2465L2633 2466L2632 2465M3525 2466L3526 2467L3525 2466M2639 2469L2640 2470L2639 2469M3540 2473L3541 2474L3540 2473M3517 2475L3518 2476L3517 2475M2652 2476L2653 2477L2652 2476M2654 2477L2655 2478L2654 2477M2656 2478L2657 2479L2656 2478M2658 2479L2659 2480L2658 2479M3250 2479L3251 2480L3250 2479M3239 2485L3240 2486L3239 2485M3512 2485L3513 2486L3512 2485M3237 2486L3238 2487L3237 2486M2684 2491L2685 2492L2684 2491M3223 2493L3224 2494L3223 2493M2691 2494L2692 2495L2691 2494M3221 2494L3222 2495L3221 2494M3540 2497L3540 2500L3541 2500L3540 2497M2703 2499L2704 2500L2703 2499M2716 2504L2717 2505L2716 2504M3190 2507L3191 2508L3190 2507M2730 2509L2731 2510L2730 2509M3506 2509L3507 2510L3506 2509M2733 2510L2734 2511L2733 2510M2736 2511L2737 2512L2736 2511M2739 2512L2740 2513L2739 2512M3540.33 2513.67L3540.67 2514.33L3540.33 2513.67M2752 2516L2753 2517L2752 2516M3163 2516L3164 2517L3163 2516M2766 2520L2767 2521L2766 2520M3143 2522L3144 2523L3143 2522M2777 2523L2778 2524L2777 2523M2781 2524L2782 2525L2781 2524M3136 2524L3137 2525L3136 2524M2785 2525L2786 2526L2785 2525M2802 2529L2803 2530L2802 2529M3114 2530L3115 2531L3114 2530M2811 2531L2812 2532L2811 2531M3110 2531L3111 2532L3110 2531M2820 2533L2821 2534L2820 2533M3090 2536L3091 2537L3090 2536M3086 2537L3087 2538L3086 2537M2845 2538L2846 2539L2845 2538M2850 2539L2851 2540L2850 2539M3077 2539L3078 2540L3077 2539M3064 2540L3065 2541L3064 2540M3543 2541L3544 2542L3543 2541M3262 2543L3262 2544L3266 2544L3262 2543M3318 2543L3318 2544L3324 2544L3318 2543M2880 2544L2881 2545L2880 2544M3232.67 2544.33L3233.33 2544.67L3232.67 2544.33M3351.67 2544.33L3352.33 2544.67L3351.67 2544.33M2887 2545L2888 2546L2887 2545M3212.67 2545.33L3213.33 2545.67L3212.67 2545.33M3371 2545L3372 2546L3371 2545M2895 2546L2896 2547L2895 2546M3195 2546L3196 2547L3195 2546M3385 2546L3386 2547L3385 2546M2903 2547L2904 2548L2903 2547M3179.67 2547.33L3180.33 2547.67L3179.67 2547.33M3396 2547L3397 2548L3396 2547M3544 2547L3545 2548L3544 2547M2912 2548L2913 2549L2912 2548M3165 2548L3166 2549L3165 2548M3406 2548L3407 2549L3406 2548M2923 2549L2924 2550L2923 2549M3152 2549L3153 2550L3152 2549M3415 2549L3416 2550L3415 2549M3508 2549L3509 2550L3508 2549M2934.67 2550.33L2935.33 2550.67L2934.67 2550.33M3141 2550L3142 2551L3141 2550M3423 2550L3424 2551L3423 2550M2948.67 2551.33L2949.33 2551.67L2948.67 2551.33M3130 2551L3131 2552L3130 2551M2965.67 2552.33L2966.33 2552.67L2965.67 2552.33M3473 2552L3473 2553L3479 2553L3473 2552M2990 2553L2990 2554L2993 2554L2990 2553M3446 2553L3447 2554L3446 2553M3451 2553L3452 2554L3451 2553M3498 2553L3499 2554L3498 2553M3507 2554L3508 2555L3507 2554M3096 2555L3097 2556L3096 2555M3089 2556L3090 2557L3089 2556M3083 2557L3084 2558L3083 2557M3547 2562L3548 2563L3547 2562M3066 2563L3067 2564L3066 2563M3005 2564L3005 2567L3006 2567L3005 2564M3548 2566L3549 2567L3548 2566z"/>
<path style="fill:#390835; stroke:none;" d="M3550 2571L3556 2581L3550 2571z"/>
<path style="fill:#4c3a33; stroke:none;" d="M3005 2576L3006 2577L3005 2576z"/>
<path style="fill:#010165; stroke:none;" d="M3554 2577L3555 2578L3554 2577M2992 2578L2993 2579L2992 2578M2986 2579L2987 2580L2986 2579M2980 2580L2981 2581L2980 2580M2964 2583L2965 2584L2964 2583M2959 2584L2960 2585L2959 2584M2927 2591L2928 2592L2927 2591M2923 2592L2924 2593L2923 2592z"/>
<path style="fill:#390835; stroke:none;" d="M3566 2597C3568.72 2604.18 3572.69 2611.73 3581 2612C3578.83 2604.69 3573.23 2599.31 3566 2597z"/>
<path style="fill:#010165; stroke:none;" d="M3571 2599L3572 2600L3571 2599M2871 2605L2872 2606L2871 2605M3579 2607L3580 2608L3579 2607M2849 2611L2850 2612L2849 2611M2841 2613L2842 2614L2841 2613M2820 2618L2821 2619L2820 2618M2816 2619L2817 2620L2816 2619M2812 2620L2813 2621L2812 2620M2776 2629L2777 2630L2776 2629M2765 2632L2766 2633L2765 2632M2761 2633L2762 2634L2761 2633M2754 2635L2755 2636L2754 2635M2743 2638L2744 2639L2743 2638M2736 2640L2737 2641L2736 2640M2726 2643L2727 2644L2726 2643M2716 2646L2717 2647L2716 2646M2700 2651L2701 2652L2700 2651M2697 2652L2698 2653L2697 2652M2670 2661L2671 2662L2670 2661M2667 2662L2668 2663L2667 2662M2664 2663L2665 2664L2664 2663z"/>
<path style="fill:#390835; stroke:none;" d="M3695 2664C3700.5 2687.11 3672.87 2698.4 3655 2703.12C3605.11 2716.28 3551.18 2718.71 3500 2723.83C3274.33 2746.39 3047.89 2776.47 2825 2819.2C2765.04 2830.69 2704.36 2839.71 2645 2854.13C2630.74 2857.59 2612.57 2865.78 2598 2865.72C2592.06 2865.69 2590.17 2861.12 2590 2856C2550.91 2861.26 2510.77 2878.25 2474 2891.95C2429.01 2908.71 2384.12 2923.92 2340 2943C2319.32 2951.94 2302.26 2965.37 2284 2978.1C2277.47 2982.65 2266.38 2986.89 2264 2995C2279.54 2994.32 2294.13 2986.29 2309 2982.48C2349.72 2972.04 2389.84 2960.5 2430 2948.03C2519.33 2920.27 2610.21 2898.48 2703 2886.28C2855.65 2866.21 3009.71 2865.41 3163 2854.91C3191.53 2852.96 3219.59 2848.12 3248 2845.17C3274.76 2842.39 3302.11 2843.43 3329 2840.83C3364.42 2837.4 3399.29 2830.28 3434 2822.58C3478.27 2812.74 3520.19 2797.59 3563 2783C3592.39 2772.99 3623.27 2765.37 3649 2747.28C3669.07 2733.17 3689.28 2714.29 3698.39 2691C3700.84 2684.73 3706.84 2663.82 3695 2664z"/>
<path style="fill:#010165; stroke:none;" d="M2658 2665L2659 2666L2658 2665M2655 2666L2656 2667L2655 2666M2652 2667L2653 2668L2652 2667M3701 2669L3702 2670L3701 2669z"/>
<path style="fill:#390835; stroke:none;" d="M3676 2675L3667 2681L3667 2682C3670.68 2681.27 3676.1 2679.33 3676 2675z"/>
<path style="fill:#010165; stroke:none;" d="M3674 2676L3675 2677L3674 2676M2619 2678L2620 2679L2619 2678M3701 2680L3702 2681L3701 2680M2606 2682L2607 2683L2606 2682z"/>
<path style="fill:#390835; stroke:none;" d="M3665 2682L3666 2683L3665 2682z"/>
<path style="fill:#010165; stroke:none;" d="M3700 2684L3701 2685L3700 2684M2587 2688L2588 2689L2587 2688M2568 2694L2569 2695L2568 2694M2565 2695L2566 2696L2565 2695M3692 2702L3693 2703L3692 2702M2531 2706L2532 2707L2531 2706M2528 2707L2529 2708L2528 2707M2525 2708L2526 2709L2525 2708M2522 2709L2523 2710L2522 2709M2519 2710L2520 2711L2519 2710M2516 2711L2517 2712L2516 2711M2513 2712L2514 2713L2513 2712M2510 2713L2511 2714L2510 2713M2507 2714L2508 2715L2507 2714M2504 2715L2505 2716L2504 2715M3683 2715L3684 2716L3683 2715M2481 2723L2482 2724L2481 2723M2478 2724L2479 2725L2478 2724M2475 2725L2476 2726L2475 2725M2461 2730L2462 2731L2461 2730M3665 2733L3666 2734L3665 2733M2450 2734L2451 2735L2450 2734M3657 2740L3658 2741L3657 2740M2426 2743L2427 2744L2426 2743M3652 2744L3653 2745L3652 2744M2413 2748L2414 2749L2413 2748M3645 2749L3646 2750L3645 2749M3635 2755L3636 2756L3635 2755M2383 2760L2384 2761L2383 2760M2378 2762L2379 2763L2378 2762M3621 2762L3622 2763L3621 2762M3611 2766L3612 2767L3611 2766M2359 2770L2360 2771L2359 2770M2350 2774L2351 2775L2350 2774M2341 2778L2342 2779L2341 2778M2332 2782L2333 2783L2332 2782M3561 2783L3562 2784L3561 2783M3558 2784L3559 2785L3558 2784M2319 2788L2320 2789L2319 2788M3547 2788L3548 2789L3547 2788M3533 2793L3534 2794L3533 2793M2306 2794L2307 2795L2306 2794M3519 2798L3520 2799L3519 2798M3516 2799L3517 2800L3516 2799M2293 2800L2294 2801L2293 2800M3513 2800L3514 2801L3513 2800M3510 2801L3511 2802L3510 2801M3507 2802L3508 2803L3507 2802M3504 2803L3505 2804L3504 2803M2280 2806L2281 2807L2280 2806M2278 2807L2279 2808L2278 2807M3491 2807L3492 2808L3491 2807z"/>
<path style="fill:#390835; stroke:none;" d="M2766 2813L2767 2814L2766 2813z"/>
<path style="fill:#010165; stroke:none;" d="M3470 2813L3471 2814L3470 2813M2758 2814L2759 2815L2758 2814z"/>
<path style="fill:#390835; stroke:none;" d="M2759 2814L2760 2815L2759 2814M2762 2814L2763 2815L2762 2814z"/>
<path style="fill:#010165; stroke:none;" d="M2751 2815L2752 2816L2751 2815z"/>
<path style="fill:#390835; stroke:none;" d="M2644 2837L2644 2838L2756 2816C2748.3 2813.24 2735.08 2817.99 2727 2819.13C2700.17 2822.9 2668.94 2825.96 2644 2837M2166 2886L2166 2887C2225.62 2873.33 2280.15 2844.61 2335 2819L2322 2821.95L2291 2834.05L2166 2886z"/>
<path style="fill:#010165; stroke:none;" d="M2731 2818L2732 2819L2731 2818M2331 2820L2332 2821L2331 2820M2718 2820L2719 2821L2718 2820M3442 2820L3443 2821L3442 2820M2248 2822L2249 2823L2248 2822M2700 2823L2701 2824L2700 2823M3429 2823L3430 2824L3429 2823M2322 2825L2323 2826L2322 2825M2689 2825L2690 2826L2689 2825M2684 2826L2685 2827L2684 2826M3415 2826L3416 2827L3415 2826M2679 2827L2680 2828L2679 2827M2670 2829L2671 2830L2670 2829M3396 2830L3397 2831L3396 2830M3391 2831L3392 2832L3391 2831M2658 2832L2659 2833L2658 2832M3386 2832L3387 2833L3386 2832M3375 2834L3376 2835L3375 2834M3369 2835L3370 2836L3369 2835M2300 2836L2301 2837L2300 2836M2298 2837L2299 2838L2298 2837M2643 2837L2644 2838L2643 2837M3356 2837L3357 2838L3356 2837M3349 2838L3350 2839L3349 2838M3331 2840L3332 2841L3331 2840M3320 2841L3321 2842L3320 2841M3306.67 2842.33L3307.33 2842.67L3306.67 2842.33M2285 2843L2286 2844L2285 2843M3294 2843L3295 2844L3294 2843M2186 2844L2187 2845L2186 2844M3276.67 2844.33L3277.33 2844.67L3276.67 2844.33M2182 2845L2183 2846L2182 2845M3245 2845L3246 2846L3245 2845M2276 2847L2277 2848L2276 2847M3232 2847L3233 2848L3232 2847M3225 2848L3226 2849L3225 2848M2167 2849L2168 2850L2167 2849M2163 2850L2164 2851L2163 2850M3200 2851L3201 2852L3200 2851M2264 2852L2265 2853L2264 2852M3190 2852L3191 2853L3190 2852M2152 2853L2153 2854L2152 2853M3179 2853L3180 2854L3179 2853M2148 2854L2149 2855L2148 2854M2259 2854L2260 2855L2259 2854M3166 2854L3167 2855L3166 2854M3151.67 2855.33L3152.33 2855.67L3151.67 2855.33M2254 2856L2255 2857L2254 2856M2586 2856L2587 2857L2586 2856M3135 2856L3136 2857L3135 2856M2582 2857L2583 2858L2582 2857M3117.67 2857.33L3118.33 2857.67L3117.67 2857.33M2249 2858L2250 2859L2249 2858M3099.67 2858.33L3100.33 2858.67L3099.67 2858.33M3081 2859L3082 2860L3081 2859M2244 2860L2245 2861L2244 2860M3063 2860L3064 2861L3063 2860M2567 2861L2568 2862L2567 2861M3045.67 2861.33L3046.33 2861.67L3045.67 2861.33M3027.67 2862.33L3028.33 2862.67L3027.67 2862.33M2560 2863L2561 2864L2560 2863M3007.67 2863.33L3008.33 2863.67L3007.67 2863.33M2987.67 2864.33L2988.33 2864.67L2987.67 2864.33M2104 2865L2105 2866L2104 2865M2553 2865L2554 2866L2553 2865M2967.67 2865.33L2968.33 2865.67L2967.67 2865.33M2100 2866L2101 2867L2100 2866M2950 2866L2951 2867L2950 2866M2096 2867L2097 2868L2096 2867M2546 2867L2547 2868L2546 2867M2932 2867L2933 2868L2932 2867M2916 2868L2917 2869L2916 2868M1991 2869L1992 2870L1991 2869M2220 2869L2221 2870L2220 2869M2900 2869L2901 2870L2900 2869M2886 2870L2887 2871L2886 2870M1988 2871L1989 2872L1988 2871M2079 2871L2080 2872L2079 2871M2533 2871L2534 2872L2533 2871M2866.67 2871.33L2867.33 2871.67L2866.67 2871.33M2075 2872L2076 2873L2075 2872M2832 2872L2833 2873L2832 2872M2821 2873L2822 2874L2821 2873M2810 2874L2811 2875L2810 2874M1988 2875L1989 2876L1988 2875M2799 2875L2800 2876L2799 2875M2789 2876L2790 2877L2789 2876M2779 2877L2780 2878L2779 2877M1989 2878L1990 2879L1989 2878M2769 2878L2770 2879L2769 2878M2047 2879L2048 2880L2047 2879M2759 2879L2760 2880L2759 2879M2942 2879L2942 2880L2948 2880L2942 2879M2750 2880L2751 2881L2750 2880z"/>
<path style="fill:#390835; stroke:none;" d="M2654 2943C2670.46 2947.87 2691.05 2942 2708 2942C2693.22 2948.55 2676.95 2951.48 2662 2957.85C2658.34 2959.41 2648.64 2961.95 2648.64 2967.04C2648.64 2973.19 2662.82 2973.38 2667 2973.83C2687.2 2976 2709.72 2976.76 2730 2974.83C2797.03 2968.45 2865.8 2960.7 2931 2942.58C2957.99 2935.07 2991.84 2925.8 2985.58 2891C2984.31 2883.94 2972.77 2882.1 2967 2881.08C2947.83 2877.71 2927.2 2880.29 2908 2882.07C2878.56 2884.81 2849.07 2891.33 2820 2896.58C2785.12 2902.86 2750.41 2908.47 2716 2917.13C2700.45 2921.04 2684.75 2925.83 2670 2932.15C2664.06 2934.69 2657.08 2936.97 2654 2943z"/>
<path style="fill:#010165; stroke:none;" d="M2963 2880L2964 2881L2963 2880M2184 2881L2185 2882L2184 2881M2741 2881L2742 2882L2741 2881M2733 2882L2734 2883L2733 2882M2497 2883L2498 2884L2497 2883M2897 2883L2898 2884L2897 2883M2890 2884L2891 2885L2890 2884M2171 2885L2172 2886L2171 2885M2709 2885L2710 2886L2709 2885M2884 2885L2885 2886L2884 2885M2701 2886L2702 2887L2701 2886z"/>
<path style="fill:#390835; stroke:none;" d="M2164 2887L2165 2888L2164 2887z"/>
<path style="fill:#010165; stroke:none;" d="M2694 2887L2695 2888L2694 2887M2872 2887L2873 2888L2872 2887M1992 2888L1993 2889L1992 2888M2483 2888L2484 2889L2483 2888M2687 2888L2688 2889L2687 2888M2866 2888L2867 2889L2866 2888M2680 2889L2681 2890L2680 2889M2860 2889L2861 2890L2860 2889M2673 2890L2674 2891L2673 2890M2475 2891L2476 2892L2475 2891M2986 2891L2987 2892L2986 2891M2660 2892L2661 2893L2660 2892M2843 2892L2844 2893L2843 2892M2467 2894L2468 2895L2467 2894M2985 2894L2986 2895L2985 2894M2461 2896L2462 2897L2461 2896M2820 2896L2821 2897L2820 2896z"/>
<path style="fill:#010101; stroke:none;" d="M2932 2896.46C2868.22 2907.6 2803.34 2919.02 2741 2936.71C2725.43 2941.13 2709.22 2944.58 2694 2950.09C2689.44 2951.74 2680.83 2956.67 2685.75 2962.57C2689.74 2967.36 2697.39 2962.78 2702 2961.42C2716.89 2957.05 2731.95 2953.14 2747 2949.37C2792.04 2938.11 2837.32 2928.66 2883 2920.42C2896.66 2917.96 2910.42 2915.66 2924 2912.79C2929.05 2911.72 2936.45 2911.28 2940.61 2907.99C2948.73 2901.58 2938.8 2895.28 2932 2896.46z"/>
<path style="fill:#010165; stroke:none;" d="M2624 2898L2625 2899L2624 2898M2608 2901L2609 2902L2608 2901M2603 2902L2604 2903L2603 2902z"/>
<path style="fill:#390835; stroke:none;" d="M2086 2922L2116 2963C2121.89 2955.13 2119.26 2945.1 2120.17 2936C2121.29 2924.81 2125.54 2913.64 2129 2903C2115.11 2905.48 2098.17 2914.89 2086 2922z"/>
<path style="fill:#010165; stroke:none;" d="M2598 2903L2599 2904L2598 2903M2779 2903L2780 2904L2779 2903M2584 2906L2585 2907L2584 2906M2575 2908L2576 2909L2575 2908M2571 2909L2572 2910L2571 2909M2748 2909L2749 2910L2748 2909M2420 2910L2421 2911L2420 2910M2554 2913L2555 2914L2554 2913M2730 2913L2731 2914L2730 2913M2409 2914L2410 2915L2409 2914M2550 2914L2551 2915L2550 2914M2546 2915L2547 2916L2546 2915M2722 2915L2723 2916L2722 2915M2542 2916L2543 2917L2542 2916M2718 2916L2719 2917L2718 2916M2401 2917L2402 2918L2401 2917M2538 2917L2539 2918L2538 2917M2707 2919L2708 2920L2707 2919M2980 2919L2981 2920L2980 2919M2123 2920L2124 2921L2123 2920M2032 2921L2033 2922L2032 2921M2523 2921L2524 2922L2523 2921M2388 2922L2389 2923L2388 2922M2697 2922L2698 2923L2697 2922M2383 2924L2384 2925L2383 2924M2508 2925L2509 2926L2508 2925M2685 2926L2686 2927L2685 2926M2373 2928L2374 2929L2373 2928M2497 2928L2498 2929L2497 2928M2967 2929L2968 2930L2967 2929M2965 2930L2966 2931L2965 2930M2963 2931L2964 2932L2963 2931M2043 2932L2044 2933L2043 2932M2669 2932L2670 2933L2669 2932M2361 2933L2362 2934L2361 2933M2479 2933L2480 2934L2479 2933M2472 2935L2473 2936L2472 2935M2953 2935L2954 2936L2953 2935M2950 2936L2951 2937L2950 2936M2352 2937L2353 2938L2352 2937M2465 2937L2466 2938L2465 2937M2657 2938L2658 2939L2657 2938M2944 2938L2945 2939L2944 2938M2458 2939L2459 2940L2458 2939M2343 2941L2344 2942L2343 2941M2934 2941L2935 2942L2934 2941M2341 2942L2342 2943L2341 2942M2697 2942L2698 2943L2697 2942M2053 2943L2054 2944L2053 2943M2679.67 2943.33L2680.33 2943.67L2679.67 2943.33M2441 2944L2442 2945L2441 2944M2698 2945L2699 2946L2698 2945M2914 2946L2915 2947L2914 2946M2431 2947L2432 2948L2431 2947M2329 2948L2330 2949L2329 2948M2428 2948L2429 2949L2428 2948M2905 2948L2906 2949L2905 2948M2327 2949L2328 2950L2327 2949M2685 2949L2686 2950L2685 2949M2900 2949L2901 2950L2900 2949M2895 2950L2896 2951L2895 2950M2418 2951L2419 2952L2418 2951M2890 2951L2891 2952L2890 2951M2061 2953L2062 2954L2061 2953M2673 2953L2674 2954L2673 2953M2874 2954L2875 2955L2874 2954M2119 2955L2120 2956L2119 2955M2405 2955L2406 2956L2405 2955M2869 2955L2870 2956L2869 2955M2858 2957L2859 2958L2858 2957M2118 2958L2119 2959L2118 2958M2392 2959L2393 2960L2392 2959M2658 2959L2659 2960L2658 2959M2847 2959L2848 2960L2847 2959M2308 2960L2309 2961L2308 2960M2836 2961L2837 2962L2836 2961M2650 2963L2651 2964L2650 2963M2819 2964L2820 2965L2819 2964M2813 2965L2814 2966L2813 2965M2369 2966L2370 2967L2369 2966M2807 2966L2808 2967L2807 2966M2800 2967L2801 2968L2800 2967M2296 2968L2297 2969L2296 2968M2359 2969L2360 2970L2359 2969M2779 2970L2780 2971L2779 2970M2292 2971L2293 2972L2292 2971M2352 2971L2353 2972L2352 2971M2652 2971L2653 2972L2652 2971M2770 2971L2771 2972L2770 2971M2657 2972L2658 2973L2657 2972M2760 2972L2761 2973L2760 2972M2104 2973L2105 2974L2104 2973M2664 2973L2665 2974L2664 2973M2749 2973L2750 2974L2749 2973M2341 2974L2342 2975L2341 2974M2673 2974L2674 2975L2673 2974M2732.67 2974.33L2733.33 2974.67L2732.67 2974.33M2091 2975L2092 2976L2091 2975z"/>
<path style="fill:#4c3a33; stroke:none;" d="M2095.67 2975.33L2096.33 2975.67L2095.67 2975.33z"/>
<path style="fill:#010165; stroke:none;" d="M2330 2977L2331 2978L2330 2977M2326 2978L2327 2979L2326 2978M2313 2981L2314 2982L2313 2981M2277 2982L2278 2983L2277 2982M2308 2982L2309 2983L2308 2982M2305 2983L2306 2984L2305 2983M2274 2984L2275 2985L2274 2984M2271 2986L2272 2987L2271 2986M2293 2987L2294 2988L2293 2987M2267 2989L2268 2990L2267 2989M2280 2991L2281 2992L2280 2991M2263.33 2993.67L2263.67 2994.33L2263.33 2993.67M2273 2993L2274 2994L2273 2993z"/>
</svg>
