<svg version="1.0" xmlns="http://www.w3.org/2000/svg" width="5000.000000pt" height="5000.000000pt"
    viewBox="0 0 5000.000000 5000.000000" preserveAspectRatio="xMidYMid meet">

    <g transform="translate(0.000000,5000.000000) scale(0.100000,-0.100000)" fill="#000000" stroke="none">
        <path d="M24945 34672 c-36 -3 -101 -22 -135 -39 -14 -7 -28 -13 -32 -13 -18
0 -208 -96 -261 -132 -34 -23 -222 -200 -417 -393 -436 -429 -1060 -1026
-1161 -1110 -13 -11 -71 -56 -129 -99 -58 -44 -138 -105 -177 -138 -40 -32
-75 -58 -79 -58 -3 0 -22 -13 -42 -30 -110 -88 -179 -135 -367 -250 -219 -133
-283 -173 -367 -227 -44 -29 -83 -53 -86 -53 -3 0 -24 -16 -47 -35 -24 -19
-83 -55 -131 -80 -49 -25 -99 -56 -110 -69 -12 -12 -37 -29 -55 -36 -19 -8
-36 -17 -39 -20 -3 -4 -58 -42 -123 -84 -65 -43 -142 -100 -170 -126 -29 -26
-74 -66 -102 -87 -27 -22 -61 -53 -75 -68 -14 -15 -41 -35 -60 -45 -104 -55
-172 -170 -147 -249 10 -30 20 -39 55 -51 41 -14 45 -14 90 11 26 15 78 43
116 64 38 20 94 52 123 71 29 19 57 34 61 34 5 0 26 13 48 30 21 16 44 30 49
30 6 0 36 17 67 38 150 98 276 165 300 158 10 -2 18 1 18 7 0 8 3 7 9 -1 7
-11 9 -11 14 2 4 9 17 16 29 16 13 0 49 16 81 35 119 72 124 68 27 -21 -218
-200 -456 -453 -624 -664 -325 -407 -538 -785 -676 -1200 -166 -498 -209
-1000 -128 -1520 11 -74 22 -151 23 -170 7 -73 40 -130 128 -221 232 -235 587
-388 1042 -448 l129 -17 -114 -36 c-63 -20 -164 -51 -225 -68 -126 -36 -1103
-354 -1335 -434 -85 -30 -234 -77 -330 -106 -226 -68 -249 -77 -256 -105 -8
-31 11 -63 41 -71 43 -11 502 129 1445 441 173 57 394 127 490 155 96 28 256
78 355 110 179 58 632 176 860 224 198 41 375 64 665 87 237 18 324 20 630 15
195 -3 414 -10 485 -16 140 -11 638 -65 745 -81 36 -5 101 -14 145 -19 44 -6
94 -18 112 -27 42 -22 61 -16 258 88 174 92 312 181 457 296 208 166 194 149
239 308 35 125 40 157 46 290 14 344 -60 780 -244 1435 -162 581 -346 1019
-577 1380 -30 47 -78 123 -107 170 -29 47 -78 119 -109 160 -31 41 -66 92 -78
114 -36 61 -103 135 -144 158 -21 12 -38 25 -38 29 0 4 -46 47 -102 95 -57 49
-105 92 -108 95 -3 3 -35 26 -71 51 -77 54 -135 84 -193 103 -22 7 -92 36
-154 65 -315 143 -523 192 -812 194 -154 1 -312 -7 -380 -19 l-35 -6 31 18
c17 10 51 29 75 42 24 13 90 53 147 87 56 35 105 64 107 64 2 0 24 13 47 29
24 15 75 48 113 73 39 25 83 53 98 64 16 10 53 35 82 54 29 19 79 53 110 75
31 22 74 51 95 65 21 14 75 53 121 87 46 35 98 72 114 84 17 11 78 55 138 97
59 42 131 93 161 112 157 103 256 195 454 419 130 147 150 173 178 237 14 32
37 82 50 110 62 132 69 217 25 309 -34 72 -105 142 -153 149 -42 7 -184 12
-223 8z m-1383 -2492 c-28 -15 -66 -33 -84 -39 -17 -6 -41 -20 -53 -29 -11
-10 -45 -34 -75 -52 -63 -39 -198 -141 -250 -190 -19 -18 -61 -56 -94 -84
-127 -111 -395 -397 -396 -424 0 -4 -14 -20 -31 -37 -17 -16 -38 -43 -46 -60
-9 -16 -30 -50 -48 -75 -88 -121 -215 -378 -215 -435 0 -43 34 -93 77 -113 21
-9 41 -22 45 -29 8 -12 241 -112 376 -162 239 -89 393 -154 402 -171 19 -35
-8 -67 -89 -109 -42 -22 -143 -76 -226 -121 -152 -82 -549 -280 -617 -307 -21
-8 -38 -21 -38 -29 0 -20 -43 -45 -87 -50 -52 -6 -76 -20 -98 -56 -17 -29 -17
-39 -5 -144 7 -62 10 -139 7 -172 -5 -44 -1 -78 14 -133 42 -154 82 -275 100
-301 11 -14 19 -35 19 -45 0 -18 51 -133 96 -218 50 -93 77 -141 83 -145 4 -3
15 -18 25 -33 9 -16 33 -46 53 -68 19 -21 33 -39 29 -39 -20 0 180 -199 268
-267 69 -53 162 -111 243 -151 110 -55 194 -80 391 -114 35 -5 61 -12 59 -14
-2 -3 -109 -13 -238 -24 -337 -29 -603 -72 -890 -145 -55 -14 -104 -23 -109
-20 -5 3 -53 -2 -107 -11 -137 -24 -438 -24 -598 0 -437 64 -842 258 -964 461
-67 112 -105 383 -104 745 0 267 17 443 64 673 23 114 109 378 174 532 243
580 707 1183 1310 1704 227 196 357 276 590 365 39 15 78 31 88 37 33 18 322
90 382 95 33 2 74 7 90 10 29 5 63 8 269 22 55 4 135 6 179 4 l81 -4 -52 -28z
m428 -219 c7 -15 4 -43 -12 -108 -42 -173 -25 -330 45 -409 42 -49 77 -64 145
-64 82 0 116 -26 109 -83 -7 -51 -34 -78 -126 -128 -135 -73 -235 -182 -343
-371 -67 -120 -130 -208 -147 -208 -12 0 -39 64 -45 106 -9 66 -52 187 -90
251 -37 63 -90 116 -146 146 -31 17 -32 20 -27 63 7 64 32 93 120 139 184 96
330 262 348 395 14 99 56 216 93 255 37 39 60 44 76 16z m838 -632 c42 -14 59
-44 82 -141 153 -631 -49 -1480 -494 -2076 -95 -127 -244 -289 -293 -319 -66
-40 -126 -26 -158 37 -35 68 -12 123 99 242 316 335 531 767 609 1223 25 146
30 211 29 385 -1 130 -7 194 -27 302 -14 76 -25 154 -25 175 1 74 55 154 116
173 16 4 29 9 30 9 1 1 15 -4 32 -10z m759 -667 c237 -494 408 -1025 492
-1527 44 -264 55 -392 56 -695 l2 -295 -26 -33 c-53 -71 -276 -243 -448 -346
-72 -43 -246 -103 -335 -115 -51 -7 -134 0 -433 35 -331 39 -562 58 -1035 82
l-145 7 90 18 c50 10 104 26 120 36 17 10 47 20 68 24 20 3 64 19 97 36 33 17
62 31 65 31 16 0 149 74 177 99 18 15 52 38 75 50 24 12 50 32 58 44 8 13 37
38 63 55 27 17 70 54 96 82 26 27 51 50 56 50 6 0 10 3 10 8 0 4 36 45 81 92
44 47 89 102 100 123 11 21 27 41 35 44 8 3 35 40 60 83 24 43 52 84 60 91 9
7 20 22 25 34 5 11 22 43 39 70 90 148 259 545 260 608 0 9 5 17 11 17 5 0 8
4 5 8 -3 5 8 46 24 93 15 46 31 103 34 127 3 24 9 49 13 55 4 7 11 39 14 72 4
33 14 89 24 125 9 36 18 88 20 115 14 166 24 423 20 500 -6 129 -14 216 -20
243 -14 57 23 -1 92 -146z m-1978 -1678 c32 -23 52 -75 44 -116 -8 -42 -89
-123 -132 -133 -84 -18 -141 24 -141 103 0 40 5 50 43 86 74 72 139 92 186 60z" />
        <path d="M31920 33995 c-46 -21 -87 -60 -113 -110 -18 -33 -22 -56 -22 -137 1
-97 1 -98 50 -195 52 -101 86 -157 142 -231 18 -24 33 -48 33 -52 0 -27 117
-177 202 -259 91 -88 241 -213 315 -264 46 -31 49 -47 9 -47 -56 0 -176 -36
-306 -92 -307 -131 -504 -327 -690 -680 -154 -295 -267 -651 -329 -1038 -84
-520 -106 -872 -106 -1681 0 0 -59 -4 -132 -8 -72 -3 -135 -10 -139 -14 -4 -4
-10 -33 -12 -65 -3 -45 -1 -61 13 -72 12 -10 79 -15 281 -21 145 -4 268 -10
272 -13 5 -3 78 -12 163 -21 217 -22 490 -76 909 -181 227 -57 498 -170 720
-301 47 -27 152 -89 235 -137 89 -52 186 -119 240 -165 50 -43 101 -83 114
-90 35 -19 70 -5 86 33 13 30 21 36 65 45 27 6 116 44 197 85 260 130 466 210
638 248 130 29 444 34 1123 18 689 -16 732 -12 732 66 0 51 -13 54 -268 54
-130 0 -385 5 -567 10 -789 23 -979 10 -1245 -82 -168 -57 -159 -56 -134 -27
39 43 137 202 175 284 49 106 113 297 139 415 24 105 35 213 51 492 10 185 10
188 -16 295 -46 190 -144 481 -236 695 -32 76 -68 168 -78 206 -23 79 -66 205
-85 247 -8 17 -28 64 -47 105 -106 242 -260 539 -341 657 l-29 43 81 -53 c44
-28 89 -57 100 -63 11 -6 28 -18 38 -27 10 -9 54 -36 98 -58 43 -23 96 -57
117 -75 41 -38 76 -43 100 -16 22 24 21 60 -1 94 -25 38 -239 283 -308 352
-32 32 -79 75 -104 94 -25 20 -74 63 -110 97 -61 56 -139 123 -198 170 -14 11
-48 38 -76 61 -56 44 -232 171 -380 274 -52 36 -105 75 -118 86 -13 12 -39 30
-57 40 -57 31 -74 47 -364 334 -172 169 -335 342 -425 449 -115 136 -159 181
-199 204 -65 36 -151 45 -203 22z m690 -1555 c73 -25 175 -75 239 -118 l43
-30 -28 -5 c-16 -3 -51 -9 -79 -12 -70 -10 -158 -57 -216 -118 -125 -130 -233
-299 -254 -397 -4 -19 -23 -82 -42 -140 -43 -131 -52 -214 -29 -258 16 -30 47
-47 77 -41 22 4 78 -25 154 -80 39 -28 95 -68 125 -88 30 -20 61 -42 68 -50 7
-7 26 -20 42 -30 17 -9 30 -20 30 -24 0 -4 17 -18 38 -30 20 -13 64 -43 96
-68 33 -24 78 -54 100 -65 50 -25 60 -66 27 -108 -18 -23 -399 -242 -567 -326
-58 -29 -78 -45 -86 -67 -1 -5 -17 -23 -35 -38 -75 -66 -80 -202 -20 -497 17
-82 93 -326 112 -362 8 -14 15 -33 15 -43 0 -9 9 -33 20 -53 10 -20 29 -59 41
-87 12 -27 34 -68 49 -90 15 -22 29 -48 33 -57 9 -25 119 -184 165 -237 20
-25 30 -42 22 -39 -134 50 -426 135 -570 167 -388 85 -774 151 -882 151 -54 0
-58 2 -64 26 -11 44 4 677 20 869 70 805 158 1223 347 1637 180 394 451 688
671 728 88 15 263 5 338 -20z m545 -360 c17 -8 32 -15 34 -17 2 -2 10 -52 17
-112 18 -161 70 -242 178 -277 61 -20 76 -31 76 -55 0 -12 -11 -21 -35 -28
-19 -5 -48 -19 -64 -30 -16 -12 -33 -21 -38 -21 -12 0 -64 -49 -95 -90 -15
-19 -40 -73 -55 -120 -16 -47 -34 -94 -40 -105 -11 -18 -13 -18 -26 -5 -7 8
-22 44 -32 80 -47 167 -107 280 -175 329 -36 26 -99 104 -100 123 0 4 29 21
65 39 103 51 137 86 195 205 28 58 54 104 58 102 4 -2 21 -10 37 -18z m641
-659 c43 -26 68 -71 109 -195 157 -480 130 -1069 -71 -1550 -42 -101 -68 -126
-130 -126 -53 0 -99 35 -113 86 -11 39 -7 52 53 216 159 435 164 938 12 1356
-28 78 -33 139 -15 175 29 57 97 73 155 38z m618 -933 c165 -426 212 -849 134
-1208 -83 -384 -319 -693 -657 -860 -105 -52 -149 -67 -165 -55 -82 59 -218
144 -302 187 -103 53 -125 69 -81 61 48 -9 182 28 285 79 97 48 110 59 222
176 66 68 117 128 114 133 -3 5 0 9 5 9 6 0 11 5 11 10 0 6 4 16 10 23 16 19
80 119 80 124 0 3 17 39 39 81 55 110 89 210 167 487 8 28 16 64 19 80 2 17 9
55 15 85 6 30 15 91 20 135 26 247 31 312 33 437 1 75 3 135 4 134 1 -1 22
-54 47 -118z m-1037 -873 c44 -51 42 -103 -6 -157 -24 -27 -36 -33 -71 -33
-35 0 -47 6 -71 33 -23 26 -29 42 -29 78 0 39 5 51 35 81 32 32 39 35 78 30
28 -4 49 -14 64 -32z" />
        <path d="M20945 32850 c-7 -11 9 -11 45 0 24 8 24 8 -7 9 -17 1 -35 -3 -38 -9z" />
    </g>
</svg>
