<svg version="1.0" xmlns="http://www.w3.org/2000/svg" width="5000.000000pt" height="5000.000000pt"
    viewBox="0 0 5000.000000 5000.000000" preserveAspectRatio="xMidYMid meet">

    <g transform="translate(0.000000,5000.000000) scale(0.100000,-0.100000)" fill="#000000" stroke="none">
        <path d="M22447 35145 c-72 -25 -107 -75 -107 -151 0 -72 31 -114 165 -226
244 -204 466 -347 784 -506 202 -102 471 -223 640 -290 l73 -29 -138 -47
c-279 -97 -877 -368 -1119 -508 -33 -19 -105 -61 -160 -93 -586 -339 -1119
-807 -1505 -1320 -198 -264 -336 -481 -520 -819 -136 -249 -320 -650 -374
-814 -15 -44 -30 -63 -99 -124 -343 -298 -428 -387 -486 -508 -34 -71 -36 -80
-35 -170 1 -108 28 -195 73 -241 25 -25 30 -25 159 -27 73 -1 136 -4 141 -6
11 -7 5 -524 -7 -539 -6 -6 -13 -28 -17 -47 -7 -40 14 -90 97 -225 220 -355
520 -563 1082 -750 267 -88 672 -142 1166 -154 316 -7 321 -5 -225 -81 -614
-85 -611 -85 -1230 -85 -524 0 -557 1 -695 23 -352 56 -479 92 -551 157 -44
39 -55 42 -87 19 -55 -38 -9 -115 101 -168 89 -44 210 -76 437 -117 167 -30
194 -32 570 -40 610 -15 829 -3 1395 72 393 53 582 82 795 123 224 44 285 53
505 70 289 23 462 27 765 17 476 -17 1052 -100 1219 -176 90 -42 151 -26 151
38 0 90 -283 165 -918 242 -174 21 -556 38 -745 33 -135 -3 -156 -2 -131 9 16
6 34 12 41 13 41 1 499 132 753 215 197 65 410 125 540 154 107 23 186 48 248
80 22 11 65 30 94 41 35 13 58 29 69 47 11 21 28 31 65 40 86 19 305 112 374
158 64 43 93 73 177 186 68 93 148 139 307 178 105 26 130 38 173 83 37 39 53
76 53 124 0 107 -93 195 -285 270 -38 15 -71 28 -73 29 -1 1 25 48 58 103 89
151 160 297 235 487 37 94 71 174 76 179 5 6 49 2 110 -9 226 -39 319 5 319
151 0 72 -37 209 -79 292 -36 70 -127 193 -213 287 -35 39 -76 89 -91 113 -15
23 -39 47 -52 52 -17 7 -25 17 -25 34 0 14 -4 36 -10 51 -5 14 -19 97 -31 183
-49 374 -98 599 -192 883 -65 198 -127 345 -203 482 -173 313 -331 501 -637
756 -49 40 -86 75 -84 77 2 3 82 -24 178 -60 282 -104 506 -172 804 -246 386
-96 491 -113 635 -107 195 8 302 57 364 167 26 46 30 65 31 125 0 87 -31 157
-102 229 -65 65 -100 81 -234 106 -63 12 -163 34 -224 50 -60 16 -189 45 -285
65 -238 49 -366 82 -705 180 -159 46 -375 107 -480 135 -852 232 -1428 435
-2057 726 -266 123 -354 167 -500 247 -207 114 -244 125 -311 102z m1889
-1331 c87 -33 128 -54 139 -70 11 -18 25 -24 50 -24 46 0 139 -36 282 -109 78
-40 121 -68 128 -83 6 -12 24 -27 40 -31 99 -29 352 -219 574 -431 232 -223
446 -573 568 -931 41 -122 95 -320 129 -475 27 -125 98 -610 90 -617 -3 -3
-51 13 -108 35 -105 40 -379 125 -523 161 -103 26 -396 76 -550 95 -316 39
-853 46 -1210 16 -332 -28 -881 -99 -997 -131 -61 -16 -80 -84 -33 -115 29
-19 33 -18 335 27 513 77 822 102 1265 103 577 1 917 -47 1470 -209 212 -62
334 -110 425 -166 82 -51 296 -310 350 -424 31 -66 64 -191 58 -221 -7 -40
-95 -30 -443 52 -126 29 -345 80 -485 113 -650 153 -851 178 -1335 168 -264
-6 -385 -15 -720 -52 -425 -48 -922 -149 -1350 -273 -55 -16 -154 -44 -220
-62 -366 -98 -686 -208 -1055 -363 -124 -52 -257 -106 -295 -120 -39 -14 -126
-47 -195 -75 -415 -166 -727 -235 -917 -203 -96 17 -106 25 -110 97 -4 53 0
68 41 154 25 52 58 110 73 129 89 107 394 389 502 463 42 28 137 97 211 153
216 163 422 295 593 381 29 15 55 32 59 38 23 34 -8 86 -49 86 -62 0 -413
-204 -643 -374 -100 -74 -127 -89 -120 -71 26 69 112 259 184 410 408 846 896
1462 1555 1964 484 368 1275 777 1888 976 208 68 192 67 349 9z m814 -3438
c169 -20 334 -49 470 -81 192 -46 534 -123 642 -146 59 -12 113 -26 119 -30
25 -15 -139 -382 -268 -599 -44 -74 -83 -145 -87 -157 -7 -20 -8 -21 -59 -7
-343 92 -1093 169 -1575 162 -127 -1 -232 -1 -232 3 0 3 16 21 36 40 54 51
142 190 184 287 72 166 92 340 55 470 -15 54 -16 65 -4 73 22 15 561 4 719
-15z m-975 -192 c23 -9 45 -58 45 -101 0 -57 -26 -148 -65 -232 -44 -92 -152
-204 -238 -246 -90 -43 -93 -23 -11 77 80 98 151 239 189 378 15 52 34 103 42
113 18 20 16 19 38 11z m-1690 -215 c60 -16 129 -92 145 -158 53 -220 -214
-374 -379 -218 -74 70 -91 172 -45 265 48 96 164 142 279 111z m-471 -213 c45
-19 49 -29 28 -68 -25 -45 -93 -84 -268 -153 -82 -32 -206 -84 -275 -116 -241
-111 -337 -130 -431 -85 -70 34 -76 119 -13 175 42 36 187 107 305 149 76 26
327 94 390 105 63 11 232 6 264 -7z m-1330 -387 c24 -89 81 -202 132 -265 29
-35 40 -56 32 -58 -7 -3 -82 -23 -166 -46 -84 -22 -196 -56 -250 -75 -134 -49
-342 -107 -359 -101 -18 7 -19 429 0 443 6 5 49 15 94 22 110 16 250 53 381
101 59 21 110 39 113 39 3 1 13 -26 23 -60z m4231 -19 c197 -16 536 -49 663
-66 337 -44 691 -150 780 -233 47 -45 19 -72 -115 -111 -204 -59 -269 -96
-350 -200 -134 -172 -168 -196 -390 -281 -142 -54 -166 -56 -249 -26 -216 78
-630 121 -1169 122 -378 0 -1120 -13 -1172 -21 -18 -3 -39 -12 -48 -20 -22
-22 -19 -77 6 -100 19 -17 38 -18 272 -16 139 2 407 7 597 13 454 13 906 -7
1175 -51 106 -18 255 -53 255 -60 0 -17 -126 -61 -264 -95 -195 -46 -317 -82
-567 -165 -407 -136 -875 -260 -979 -260 -23 0 -68 -7 -99 -14 -31 -8 -105
-20 -166 -26 -60 -6 -182 -21 -270 -33 -135 -18 -208 -21 -465 -21 -390 1
-740 31 -1022 90 -185 39 -482 147 -658 240 -164 87 -383 246 -363 264 4 5 67
10 138 13 183 7 622 59 657 78 30 16 40 46 26 77 -12 25 -18 27 -89 30 -43 2
-158 -8 -260 -22 -230 -31 -443 -49 -534 -44 l-69 3 -60 88 c-51 76 -58 92
-48 108 7 10 12 32 12 48 0 26 5 31 48 45 26 8 79 22 117 31 39 9 133 36 210
61 182 59 537 145 583 143 46 -3 182 29 203 47 35 31 643 136 1149 199 201 25
457 59 570 75 632 89 1455 127 1945 90z" />
        <path d="M31484 34641 c-47 -21 -87 -68 -170 -196 -80 -124 -153 -204 -323
-353 -332 -291 -445 -370 -826 -577 -164 -90 -218 -161 -237 -314 -10 -73 -9
-94 6 -144 36 -123 142 -184 302 -174 103 6 169 36 302 137 57 44 92 64 88 53
-14 -47 -57 -239 -75 -343 -63 -356 -72 -738 -30 -1220 l13 -135 -57 -85 c-66
-99 -87 -167 -69 -229 7 -21 12 -50 12 -63 0 -14 29 -83 64 -154 60 -123 66
-132 137 -188 41 -33 106 -74 146 -93 62 -29 72 -37 78 -65 15 -70 90 -290
147 -436 34 -84 58 -155 56 -158 -3 -2 -43 -12 -89 -20 -114 -21 -129 -32
-129 -93 0 -106 56 -210 145 -267 29 -18 63 -48 76 -65 49 -69 123 -145 186
-191 81 -59 181 -108 220 -108 22 0 33 -7 41 -25 8 -17 42 -40 114 -75 82 -40
130 -55 233 -76 72 -14 148 -35 170 -46 66 -34 146 -58 194 -58 68 0 510 -159
746 -268 256 -118 290 -128 326 -96 16 14 35 14 221 -6 205 -22 587 -30 696
-14 26 4 45 4 42 2 -7 -7 -419 -184 -450 -193 -40 -12 -60 -35 -60 -70 0 -37
15 -55 47 -55 12 0 146 50 297 111 237 95 299 115 448 149 95 21 220 50 278
64 58 14 143 30 190 36 224 27 1450 -2 1911 -46 64 -6 68 -5 84 19 19 29 14
56 -14 81 -38 34 -643 72 -1310 82 -295 5 -465 11 -450 16 73 27 240 140 323
219 83 79 97 88 155 103 74 19 120 44 156 87 34 42 34 97 -1 132 -25 25 -286
163 -350 184 -29 10 -32 16 -39 68 -12 99 -71 314 -130 475 -76 207 -72 190
-41 190 68 0 119 42 154 127 28 65 28 107 1 180 -18 49 -38 75 -128 163 -112
111 -197 167 -364 240 l-80 35 -63 100 c-35 55 -64 104 -64 108 0 15 -221 317
-341 467 -263 328 -463 533 -733 750 -361 289 -628 480 -901 642 -461 275
-862 462 -1342 628 l-193 66 96 104 c234 256 411 485 447 578 34 86 21 136
-56 225 -80 92 -150 116 -233 78z m-177 -1150 c571 -200 973 -388 1441 -673
306 -186 626 -424 990 -736 192 -165 425 -424 655 -729 115 -153 247 -342 247
-354 0 -4 -29 2 -64 14 -63 22 -64 23 -171 162 -464 604 -743 863 -1395 1293
-468 309 -800 505 -1150 681 -243 122 -339 161 -486 198 -95 23 -104 24 -119
9 -9 -9 -31 -16 -48 -16 -76 0 -231 -128 -322 -265 -88 -132 -180 -361 -224
-555 -26 -113 -26 -68 0 105 25 171 69 381 104 495 15 47 29 92 32 101 4 15
327 329 337 329 3 0 80 -27 173 -59z m-247 -827 c22 -22 25 -32 23 -92 -2 -37
4 -158 12 -270 9 -112 13 -213 9 -225 -18 -62 -87 -91 -144 -62 -55 28 -61 60
-67 335 -5 224 -4 249 12 284 32 67 103 81 155 30z m-423 -316 c-2 -13 -4 -3
-4 22 0 25 2 35 4 23 2 -13 2 -33 0 -45z m544 -447 c51 -51 28 -126 -48 -157
-56 -24 -106 -4 -130 54 -40 95 102 178 178 103z m1929 -707 c431 -48 1429
-277 1540 -354 14 -9 63 -28 110 -41 98 -27 280 -116 360 -175 82 -61 183
-173 199 -220 17 -52 5 -76 -51 -105 -38 -19 -53 -21 -153 -16 -160 8 -200 24
-65 25 199 3 243 38 186 151 -44 86 -120 137 -361 239 -259 110 -379 145
-1050 306 -328 78 -576 123 -832 151 -129 14 -167 25 -178 54 -6 16 47 13 295
-15z m-1085 -84 c81 -18 113 -107 61 -167 l-24 -28 -274 -6 c-173 -3 -281 -2
-296 5 -27 11 -52 54 -52 89 0 36 36 75 81 87 85 23 432 37 504 20z m398 -30
c36 -29 52 -83 37 -121 -29 -68 -101 -80 -156 -25 -43 43 -46 90 -8 135 32 38
87 43 127 11z m-1240 -596 l96 -7 17 -51 c26 -78 58 -136 123 -222 58 -78 188
-210 245 -250 l29 -21 -234 -7 c-129 -4 -243 -8 -254 -9 -16 -2 -28 20 -73
128 -53 128 -117 306 -146 406 l-16 52 59 -6 c32 -4 101 -9 154 -13z m1679
-24 c52 -15 105 -77 113 -134 6 -37 3 -55 -16 -93 -31 -63 -77 -93 -141 -93
-103 0 -160 53 -166 155 -5 74 21 119 88 153 49 25 68 27 122 12z m1310 -45
c16 -36 -2 -91 -69 -205 -71 -120 -212 -267 -294 -305 -51 -23 -99 -33 -99
-19 0 3 28 38 62 78 61 71 166 225 247 365 54 92 73 111 111 111 23 0 33 -6
42 -25z m-1889 -29 c219 -40 208 -76 -42 -133 -157 -36 -401 -73 -485 -73 -57
0 -97 21 -127 66 -45 69 -10 134 86 158 45 11 482 -3 568 -18z m2188 -91 c156
-53 361 -100 602 -140 35 -6 41 -11 64 -63 59 -132 147 -403 177 -546 13 -62
12 -67 -3 -61 -39 15 -328 97 -459 130 -203 51 -554 120 -742 146 -88 13 -160
25 -160 28 0 3 32 31 71 61 140 108 265 279 314 428 9 28 20 52 24 52 4 0 54
-16 112 -35z m-2009 -516 c113 -5 239 -13 280 -18 40 -5 147 -12 238 -16 279
-11 947 -84 1285 -141 376 -63 1019 -226 1079 -273 6 -4 43 -19 81 -31 66 -21
279 -122 299 -140 8 -8 -56 -30 -132 -45 -23 -5 -64 -36 -132 -100 -74 -69
-122 -104 -187 -138 -151 -77 -542 -191 -758 -221 -222 -31 -727 -46 -915 -27
l-65 6 100 8 c410 32 1051 139 1345 224 131 38 197 71 285 146 44 38 113 88
153 112 l74 43 -94 30 c-267 86 -505 145 -887 222 -639 127 -1213 206 -1761
240 -205 13 -1351 25 -1442 16 -63 -7 -68 -9 -92 -47 -17 -24 -22 -39 -14 -39
7 0 19 -4 27 -9 11 -7 9 -13 -9 -31 -16 -16 -20 -28 -15 -48 10 -40 28 -54 81
-59 45 -5 56 -12 135 -89 48 -46 84 -84 82 -84 -2 0 -41 18 -86 39 -95 46
-201 131 -266 215 -25 32 -71 75 -101 95 -57 38 -103 94 -98 120 6 29 95 37
553 49 335 8 662 5 957 -9z" />
    </g>
</svg>
