<svg width="20" height="20" viewBox="0 0 20 20" fill="none" xmlns="http://www.w3.org/2000/svg">
<path d="M9.99971 18.3322C9.35887 18.3322 8.71887 18.0888 8.22971 17.603L7.62137 16.9947C7.38554 16.7597 7.06971 16.6297 6.73471 16.6288H5.87888C4.49554 16.6288 3.36971 15.503 3.36971 14.1197V13.263C3.36888 12.9288 3.23888 12.613 3.00304 12.3755L2.40471 11.778C1.42471 10.8038 1.42054 9.21132 2.39554 8.23049L3.00388 7.62132C3.23888 7.38549 3.36888 7.06966 3.36971 6.73466V5.87966C3.36971 4.49549 4.49554 3.36966 5.87888 3.36966H6.73554C7.06971 3.36966 7.38471 3.23966 7.62221 3.00216L8.22137 2.40466C9.19554 1.42466 10.7872 1.41966 11.7689 2.39549L12.3772 3.00382C12.6139 3.23966 12.9289 3.36966 13.263 3.36966H14.1197C15.503 3.36966 16.6289 4.49549 16.6289 5.87966V6.73549C16.6297 7.06966 16.7597 7.38549 16.9955 7.62299L17.5939 8.22132C18.068 8.69299 18.3305 9.32132 18.333 9.99216C18.3347 10.6588 18.078 11.2863 17.6105 11.7605C17.6022 11.7688 17.5947 11.778 17.5864 11.7855L16.9947 12.3772C16.7597 12.613 16.6297 12.9288 16.6289 13.2638V14.1197C16.6289 15.503 15.503 16.6288 14.1197 16.6288H13.263C12.9289 16.6297 12.613 16.7597 12.3764 16.9955L11.7772 17.5938C11.2889 18.0855 10.6439 18.3322 9.99971 18.3322Z" fill="#4447E2"/>
<path d="M13.2677 8.1351L8.59012 12.4399C8.54869 12.4784 8.49229 12.5 8.43346 12.5C8.37463 12.5 8.31823 12.4784 8.2768 12.4399L5.89827 10.251C5.8565 10.2128 5.83301 10.1609 5.83301 10.1068C5.83301 10.0527 5.8565 10.0008 5.89827 9.96262L6.20717 9.67834C6.2486 9.6399 6.305 9.61828 6.36383 9.61828C6.42266 9.61828 6.47906 9.6399 6.52049 9.67834L8.43125 11.4368L12.6455 7.55841C12.7328 7.48053 12.8716 7.48053 12.9588 7.55841L13.2677 7.84676C13.3095 7.88489 13.333 7.93679 13.333 7.99093C13.333 8.04507 13.3095 8.09697 13.2677 8.1351Z" fill="white"/>
</svg>
