<?xml version="1.0" encoding="utf-8"?>
<svg viewBox="0 0 160 148" xmlns="http://www.w3.org/2000/svg">
  <g style="" transform="matrix(0.313499, 0, 0, 0.313499, -29.831026, -14.940523)">
    <path d="m572.23 275.34c-1.3984-2.3281-3.2617-3.7266-5.5898-4.1914l-45.656-11.648c-5.125-1.3984-10.25 1.8633-11.18 6.9883l-10.25 41.465-39.605-9.7852-1.8633-0.46484c-2.3281-0.46484-5.125 0-6.9883 0.93359-2.3281 1.3984-3.7266 3.2617-4.1914 5.5898l-10.25 41.465-41.465-10.25c-5.125-1.3984-10.25 1.8633-11.18 6.9883l-11.184 40.996-41.465-10.25c-2.3281-0.46484-5.125 0-6.9883 0.93359-2.3281 1.3984-3.7266 3.2617-4.1914 5.5898l-0.93359 3.7266-10.715 43.793c-1.3984 5.125 1.8633 10.25 6.9883 11.18l180.77 45.191c2.3281 0.46484 4.1914 0.93359 6.5234 0.93359 11.648 0 22.363-7.9219 25.156-19.566l45.656-182.63c0.46875-2.3281 0.003906-4.6562-1.3945-6.9883zm-172.85 80.133 40.531 10.25c2.3281 0.93359 5.5898 0.46484 7.9219-0.93359 2.3281-1.3984 4.1914-4.1914 4.1914-6.9883l7.9219-32.145 26.09 34.477-13.047 52.18-82.93-20.965zm110.42 104.83c-0.93359 4.1914-5.125 6.5234-8.8516 5.5898l-171.91-42.863 6.5234-25.625 142.56 35.875c0.46484 0 1.3984 0.46484 1.8633 0.46484h0.46484c0.46484 0 0.93359 0 1.8633-0.46484h0.46484c0.93359 0 1.3984-0.46484 1.8633-0.93359 2.3281-1.3984 3.7266-3.2617 4.1914-5.5898l16.305-65.691c0.46484-2.7969 0-5.5898-1.3984-7.9219l-22.828-29.816 22.363 5.5898c5.125 1.3984 10.25-1.8633 11.18-6.9883l10.25-41.465 27.953 6.9883z" fill="currentColor"/>
    <path d="m319.25 353.61c5.125 0 9.3164-4.1914 9.3164-9.3164v-42.863h42.395c5.125 0 9.3164-4.1914 9.3164-9.3164v-42.395h42.395c5.125 0 9.3164-4.1914 9.3164-9.3164v-42.863h38.203c5.125 0 9.3164-4.1914 9.3164-9.3164l0.007813-82.465c0-14.441-11.648-26.09-26.09-26.09h-296.77c-14.441 0-26.09 11.648-26.09 26.09v271.15c0 14.441 11.648 26.09 26.09 26.09h110.41c5.125 0 9.3164-4.1914 9.3164-9.3164v-39.602zm42.398-70.812h-42.395c-5.125 0-9.3164 4.1914-9.3164 9.3164v42.863h-115.07v-28.418l36.34-27.488 31.68 18.168c3.7266 1.8633 7.9219 1.3984 11.18-1.3984l69.418-67.09 18.168 14.441zm-103.89 101.1h-101.1c-4.1914 0-7.4531-3.2617-7.4531-7.4531v-270.68c0-4.1914 3.2617-7.4531 7.4531-7.4531h296.77c4.1914 0 7.4531 3.2617 7.4531 7.4531v73.609h-37.738c-5.125 0-9.3164 4.1914-9.3164 9.3164v42.863h-37.27l-27.488-21.898c-3.7266-2.7969-8.8516-2.7969-12.113 0.46484l-70.816 67.559-30.75-17.703c-3.2617-1.8633-7.4531-1.8633-10.25 0.46484l-45.191 34.012c-2.3281 1.8633-3.7266 4.6602-3.7266 7.4531v42.859c0 2.3281 0.93359 4.6602 2.7969 6.5234s4.1914 2.7969 6.5234 2.7969h72.215z" fill="currentColor"/>
    <path d="m225.14 220.83c23.293 0 41.93-19.102 41.93-41.93 0-23.293-19.102-41.93-41.93-41.93-23.293 0-41.93 19.102-41.93 41.93-0.46484 22.828 18.637 41.93 41.93 41.93zm0-65.691c13.047 0 23.293 10.715 23.293 23.293 0 13.047-10.715 23.293-23.293 23.293-13.047 0-23.293-10.715-23.293-23.293-0.46484-13.043 10.25-23.293 23.293-23.293z" fill="currentColor"/>
  </g>
</svg>
