<svg width="15" height="12" viewBox="0 0 15 12" fill="none" xmlns="http://www.w3.org/2000/svg">
<path d="M1.50016 0H10.1139C10.3526 9.63564e-05 10.5879 0.0571737 10.8001 0.166488C11.0124 0.275801 11.1955 0.434194 11.3342 0.6285L14.8599 5.56425C14.951 5.69129 15 5.84368 15 6C15 6.15632 14.951 6.30871 14.8599 6.43575L11.3342 11.3715C11.1955 11.5658 11.0124 11.7242 10.8001 11.8335C10.5879 11.9428 10.3526 11.9999 10.1139 12H1.50016C0.672912 12 0.000162125 11.3273 0.000162125 10.5V1.5C0.000162125 0.67275 0.672912 0 1.50016 0ZM1.50016 10.5H10.1139L13.3284 6L10.1139 1.5H1.50016V10.5Z" fill="#70797B"/>
</svg>
