<svg version="1.0" xmlns="http://www.w3.org/2000/svg" width="5000.000000" height="5000.000000"
    viewBox="0 0 5000.000000 5000" preserveAspectRatio="xMidYMid meet">

    <g transform="translate(0.000000,5000.000000) scale(0.100000,-0.100000)" fill="#000000" stroke="none">
        <path d="M31712 36624 c8 -9 40 -17 74 -20 69 -5 63 0 -25 20 -57 13 -63 13
-49 0z" />
        <path d="M33678 35363 c7 -3 16 -2 19 1 4 3 -2 6 -13 5 -11 0 -14 -3 -6 -6z" />
        <path d="M22930 34739 c-398 -30 -640 -80 -1280 -265 -453 -131 -542 -165
-818 -305 -629 -322 -847 -462 -1156 -744 -166 -152 -411 -428 -589 -665 -215
-286 -392 -623 -503 -960 -51 -152 -167 -608 -189 -745 -9 -49 -22 -148 -30
-219 -8 -71 -17 -131 -20 -134 -2 -3 -94 3 -202 13 -257 23 -808 31 -1042 16
-469 -31 -897 -110 -1272 -235 -380 -126 -732 -328 -904 -518 -125 -137 -223
-337 -266 -538 -33 -154 -33 -415 0 -550 54 -219 200 -553 323 -740 34 -52 54
-71 97 -92 100 -51 203 -31 273 52 38 43 61 113 51 151 -4 12 3 29 15 42 56
59 68 168 28 252 -13 28 -55 98 -94 157 -114 172 -159 278 -169 399 -7 77 5
131 49 239 116 283 243 399 564 516 192 69 689 204 899 243 292 56 801 91
1037 72 284 -22 541 -90 636 -167 18 -15 28 -44 47 -138 40 -198 175 -649 249
-833 79 -196 188 -397 331 -613 120 -180 224 -312 396 -500 416 -457 682 -666
1224 -967 217 -121 303 -164 460 -233 281 -122 589 -221 895 -285 69 -15 339
-58 655 -105 487 -72 1026 -60 1540 35 157 29 501 113 740 182 165 47 403 128
419 144 6 5 -9 47 -37 106 -64 134 -84 225 -68 312 16 85 67 188 136 274 30
37 50 67 45 67 -6 0 -63 -26 -128 -59 -605 -303 -1445 -470 -2175 -433 -697
36 -1306 194 -1882 487 -386 197 -693 416 -994 710 -575 562 -913 1220 -1017
1980 -13 94 -18 196 -18 370 -1 255 10 377 51 590 135 712 527 1388 1088 1882
427 376 909 659 1424 834 47 16 94 38 105 48 28 26 53 35 231 83 424 114 785
161 1235 161 350 0 611 -24 950 -89 803 -152 1562 -509 2134 -1005 108 -92
316 -302 407 -409 221 -259 437 -613 557 -915 150 -378 215 -710 215 -1100 0
-812 -319 -1565 -931 -2197 -69 -70 -122 -128 -118 -128 3 0 50 22 104 49 200
100 408 177 827 306 83 25 158 54 167 63 23 23 129 239 182 370 59 144 148
422 176 548 11 51 12 52 78 82 100 46 282 95 559 151 423 85 597 112 870 136
304 27 517 17 958 -46 77 -11 141 -21 142 -23 2 -1 17 -52 34 -112 55 -196
134 -410 214 -575 l17 -36 197 -6 c108 -3 255 -13 326 -22 127 -15 239 -13
251 6 3 5 -16 44 -42 86 -376 618 -532 1366 -429 2055 101 669 397 1271 859
1747 256 262 713 614 1041 800 341 193 670 310 1059 376 1025 173 2123 -183
2886 -936 575 -568 924 -1282 1015 -2079 24 -201 16 -595 -15 -794 -62 -408
-242 -903 -445 -1226 -111 -176 -202 -288 -380 -466 -198 -198 -279 -267 -507
-432 -217 -158 -304 -211 -473 -293 -210 -101 -391 -164 -690 -240 -405 -102
-425 -104 -906 -104 l-406 0 -7 -145 c-8 -181 -25 -276 -65 -364 -17 -38 -28
-73 -23 -78 19 -19 311 -30 524 -19 332 18 536 51 888 147 637 173 969 335
1455 707 375 288 593 525 880 957 251 377 386 701 494 1183 95 422 120 667
102 988 -14 250 -38 399 -110 694 -94 382 -162 571 -299 840 -42 82 -86 172
-97 200 -37 90 -211 334 -404 565 -52 63 -187 208 -300 323 -113 114 -210 216
-216 227 -32 59 -277 226 -491 333 -236 118 -654 269 -963 348 -132 33 -236
67 -325 105 l-131 56 -240 8 c-298 11 -595 12 -595 3 0 -3 7 -14 15 -23 15
-16 9 -18 -87 -24 -213 -14 -646 -92 -923 -166 -215 -57 -478 -156 -666 -250
-180 -91 -489 -287 -684 -433 -322 -243 -632 -583 -893 -980 -202 -306 -342
-630 -436 -1002 -120 -484 -141 -633 -141 -1027 l0 -297 -55 5 c-30 2 -127 11
-214 19 -185 17 -540 19 -741 4 -427 -31 -942 -111 -1219 -189 -58 -17 -111
-30 -116 -30 -6 0 -10 77 -10 208 0 320 -33 538 -139 922 -95 341 -125 419
-291 750 -186 371 -233 445 -454 715 -336 410 -580 632 -1003 913 -495 330
-904 522 -1397 656 -182 50 -554 133 -756 170 -367 67 -790 91 -1140 65z" />
        <path d="M35580 31370 c-80 -4 -176 -11 -213 -15 -62 -7 -68 -10 -63 -28 3
-13 -6 -33 -29 -59 -99 -116 -54 -283 91 -337 l49 -19 31 -118 30 -118 35 -7
c19 -4 176 -9 349 -13 173 -3 392 -10 485 -16 481 -30 1002 -98 1303 -170 68
-17 138 -30 157 -30 31 0 33 2 39 44 23 153 32 440 17 586 -6 64 -6 65 -43 77
-56 18 -448 97 -678 137 -221 38 -393 60 -590 77 -157 13 -777 19 -970 9z" />
        <path d="M37560 29520 c-28 -56 -49 -104 -47 -106 2 -2 27 41 56 97 29 55 51
103 48 106 -3 3 -29 -41 -57 -97z" />
    </g>
</svg>
