<svg version="1.0" xmlns="http://www.w3.org/2000/svg" width="5000.000000pt" height="5000.000000pt"
    viewBox="0 0 5000.000000 5000.000000" preserveAspectRatio="xMidYMid meet">

    <g transform="translate(0.000000,5000.000000) scale(0.100000,-0.100000)" fill="#000000" stroke="none">
        <path d="M37090 32398 c-127 -8 -318 -34 -365 -48 -250 -77 -362 -116 -615
-215 -19 -7 -64 -24 -100 -38 -62 -23 -184 -75 -280 -118 -25 -12 -132 -63
-238 -115 -106 -52 -195 -94 -197 -94 -3 0 -121 -56 -263 -124 -141 -68 -324
-152 -405 -186 -129 -55 -148 -66 -145 -84 4 -31 46 -32 120 -2 35 13 83 31
108 39 25 9 62 23 82 31 46 20 59 20 34 1 -17 -13 -17 -15 -2 -21 9 -3 33 -3
54 0 41 7 228 63 253 76 9 5 52 21 95 35 161 55 384 178 362 200 -3 4 -48 -7
-100 -23 -128 -42 -232 -72 -235 -68 -2 2 23 13 56 25 33 12 63 26 66 31 4 6
12 10 20 10 7 0 91 37 186 81 209 98 379 171 504 215 22 8 56 21 75 29 175 71
560 199 651 216 122 22 285 30 509 25 248 -5 368 -19 530 -61 52 -14 115 -30
140 -36 25 -6 74 -22 110 -34 36 -13 89 -31 118 -40 l53 -17 -43 -28 c-94 -60
-182 -183 -304 -425 -65 -130 -73 -140 -105 -149 -133 -34 -358 -127 -361
-148 0 -7 -2 -17 -2 -23 -1 -5 -5 -15 -9 -22 -4 -6 -3 -14 2 -17 8 -6 39 5
126 44 22 10 85 37 140 60 55 23 104 45 109 48 5 3 7 1 4 -4 -11 -19 -71 -151
-94 -209 -14 -33 -29 -68 -34 -78 -6 -9 -20 -43 -31 -75 -11 -31 -24 -64 -29
-73 -5 -9 -39 -92 -75 -185 -95 -239 -165 -377 -205 -402 -23 -14 -27 -57 -5
-65 8 -4 40 -2 72 3 32 6 59 10 61 10 3 0 -47 -68 -63 -86 -5 -6 -28 -33 -50
-59 -22 -27 -86 -101 -142 -166 l-102 -117 -134 -66 c-74 -36 -144 -66 -155
-66 -41 0 -72 19 -72 43 0 23 49 83 100 123 35 26 72 81 61 88 -13 9 -39 -3
-45 -21 -5 -11 -10 -12 -19 -4 -15 12 -70 -4 -98 -29 -38 -33 -47 -39 -53 -33
-12 13 -5 33 12 34 30 1 -19 18 -55 18 -18 1 -33 6 -33 11 0 6 -7 10 -15 10
-8 0 -15 -3 -15 -7 0 -5 -14 -23 -31 -41 -31 -33 -31 -33 -46 -12 -22 31 -13
56 20 52 22 -3 27 1 27 18 0 16 -4 20 -16 16 -9 -3 -26 -9 -39 -12 -22 -5 -39
-34 -36 -60 1 -7 -5 -14 -13 -17 -22 -9 -29 23 -10 45 17 18 16 18 -22 16 -37
-3 -84 -31 -84 -51 0 -5 -10 -18 -22 -29 -22 -19 -23 -19 -39 1 -20 25 -61 27
-79 6 -11 -13 -15 -13 -21 -3 -5 7 -6 21 -3 31 4 12 0 17 -15 17 -12 0 -21 -3
-22 -7 -5 -48 -17 -65 -30 -41 -5 10 -16 15 -24 12 -11 -5 -15 1 -15 21 0 26
-1 27 -49 20 -36 -5 -51 -3 -57 7 -6 9 -10 4 -14 -17 -6 -34 -23 -39 -58 -18
-27 16 -57 10 -46 -9 6 -11 5 -11 -8 0 -23 19 -198 0 -198 -21 0 -7 -10 0 -21
16 -21 28 -47 35 -66 16 -7 -7 -16 -5 -29 8 -16 17 -17 17 -11 1 9 -25 -12
-23 -34 3 -16 19 -19 20 -25 5 -3 -9 -11 -13 -18 -10 -6 3 -3 -1 7 -9 9 -8 17
-17 17 -21 0 -12 -68 -6 -73 7 -3 6 -6 2 -6 -9 -1 -23 -37 -40 -44 -20 -3 8
-8 8 -18 -1 -18 -18 -25 -16 -26 7 -1 11 2 18 8 15 14 -9 11 19 -5 40 -9 13
-18 16 -32 10 -10 -5 -23 -9 -29 -9 -5 -1 -9 -11 -9 -24 1 -14 -5 -22 -15 -23
-12 0 -11 -2 4 -8 11 -5 23 -7 27 -4 4 2 5 -3 1 -12 -4 -12 -8 -13 -13 -4 -5
6 -17 9 -29 6 -14 -3 -21 0 -22 9 -2 23 -4 28 -13 43 -7 10 -6 12 4 6 8 -5 11
-3 8 6 -7 18 -54 15 -74 -5 -8 -9 -18 -16 -22 -17 -30 -3 -47 -10 -50 -18 -2
-6 -13 -11 -24 -11 -14 0 -18 5 -14 15 3 8 0 15 -7 15 -7 0 -3 7 7 15 11 8 17
18 13 21 -3 4 -21 -10 -40 -30 -19 -20 -37 -36 -41 -36 -4 0 -17 -9 -29 -21
-15 -13 -29 -18 -42 -13 -11 3 -30 7 -42 8 -15 1 -23 7 -23 19 0 15 -6 17 -39
12 -23 -3 -42 -1 -46 5 -3 5 -14 14 -23 19 -14 8 -18 5 -19 -11 -1 -11 -10
-26 -20 -33 -15 -11 -21 -11 -36 3 -15 13 -21 14 -39 3 -16 -10 -23 -10 -37 3
-16 15 -19 14 -36 -4 -10 -11 -28 -20 -41 -20 -13 0 -25 -4 -29 -10 -12 -19
-34 3 -37 38 l-3 37 -25 -25 c-14 -14 -33 -23 -43 -22 -10 2 -25 -2 -33 -9
-16 -13 -108 -15 -144 -4 -15 5 -23 0 -31 -18 -10 -23 -13 -24 -38 -11 -32 17
-53 18 -69 2 -9 -9 -12 -8 -12 8 0 11 -3 15 -8 8 -4 -6 -16 -10 -27 -8 -11 2
-27 -4 -36 -12 -15 -13 -24 -13 -61 -3 -23 7 -47 16 -53 21 -17 15 -102 9
-109 -7 -4 -12 -10 -13 -25 -6 -10 6 -21 7 -25 4 -3 -4 -17 0 -31 7 -19 10
-28 11 -37 2 -8 -8 -17 -7 -35 5 -20 13 -26 14 -36 3 -10 -10 -9 -11 3 -6 9 5
9 2 -2 -7 -10 -8 -15 -17 -11 -20 3 -4 1 -7 -5 -7 -6 0 -19 14 -28 31 -18 36
-33 25 -28 -19 3 -21 2 -23 -4 -7 -9 26 -32 30 -32 6 0 -26 -24 -33 -38 -10
-16 25 -62 25 -69 0 -6 -22 -36 -38 -41 -22 -2 6 -10 11 -18 11 -8 0 -14 5
-14 11 0 5 -4 7 -10 4 -5 -3 -10 -1 -10 6 0 8 -4 8 -15 -1 -11 -9 -19 -10 -26
-3 -6 6 -24 8 -44 3 -19 -4 -36 -5 -39 -2 -3 2 -8 -3 -12 -12 -3 -9 -10 -13
-15 -10 -5 3 -9 0 -9 -7 0 -9 -3 -9 -14 0 -12 10 -13 8 -9 -8 6 -25 -12 -28
-34 -6 -14 14 -14 18 1 34 18 19 21 41 7 41 -6 0 -13 -5 -17 -11 -3 -6 -17 -8
-29 -5 -13 3 -26 2 -29 -3 -3 -5 -14 -7 -25 -4 -12 3 -20 -2 -24 -16 -3 -13
-23 -29 -51 -42 -44 -19 -73 -18 -61 2 8 12 -38 12 -51 -1 -15 -15 -53 0 -56
23 -2 17 -11 21 -50 23 -42 1 -48 -1 -48 -19 0 -19 -1 -19 -18 -4 -20 19 -52
23 -52 7 0 -5 -8 -10 -18 -10 -10 0 -27 -7 -39 -15 -12 -9 -26 -15 -30 -14
-22 4 -32 -2 -27 -16 7 -18 -18 -20 -47 -5 -24 14 -24 25 1 36 14 7 17 13 10
24 -8 12 -13 13 -29 3 -11 -7 -27 -10 -36 -7 -10 4 -15 0 -15 -14 0 -32 -19
-36 -30 -8 -10 26 -34 34 -45 16 -3 -6 -19 -8 -35 -5 -21 4 -32 0 -39 -12 -14
-26 -23 -10 -12 21 12 30 5 32 -35 11 -16 -8 -36 -15 -45 -15 -9 0 -20 -7 -23
-16 -4 -11 -15 -15 -36 -12 -16 3 -31 1 -32 -4 -2 -5 -19 5 -38 21 -39 34 -50
37 -50 17 0 -7 -7 -19 -15 -26 -12 -10 -20 -9 -39 4 -14 9 -31 13 -39 10 -8
-3 -18 -1 -22 5 -4 8 -13 6 -28 -4 -12 -8 -30 -15 -41 -15 -11 0 -27 -7 -37
-16 -17 -15 -20 -14 -49 6 -26 19 -34 20 -41 9 -5 -8 -9 -18 -9 -23 0 -5 -10
0 -23 12 -28 27 -36 27 -53 5 -13 -17 -15 -16 -33 6 -12 16 -24 22 -36 17 -10
-3 -24 -1 -31 5 -18 14 -44 -5 -44 -32 0 -31 -18 -31 -50 1 -19 19 -41 30 -58
30 -15 0 -93 21 -174 47 -106 34 -147 52 -148 64 0 20 36 160 57 219 72 205
168 403 231 475 10 11 24 29 32 41 114 161 461 476 650 590 25 14 68 41 95 59
81 53 382 209 530 275 39 17 79 36 89 42 11 6 48 23 81 38 l62 28 -32 -92
c-61 -172 -117 -321 -140 -372 -13 -28 -28 -76 -34 -105 -5 -30 -17 -73 -25
-96 -8 -24 -13 -43 -9 -43 3 0 18 11 35 25 27 23 31 23 52 10 20 -14 28 -12
98 24 96 49 308 193 423 287 110 90 179 130 520 302 363 183 526 246 720 277
51 9 312 7 388 -3 l58 -7 -61 -60 c-74 -73 -132 -154 -172 -243 -16 -37 -34
-75 -39 -84 -5 -10 -9 -23 -9 -29 0 -5 -16 -44 -35 -86 -19 -42 -34 -78 -32
-80 12 -11 196 192 262 289 42 62 89 124 104 138 45 44 127 99 185 125 63 28
82 57 66 100 -13 35 -32 40 -215 59 -310 32 -517 21 -700 -40 -142 -46 -135
-44 -315 -125 -166 -74 -546 -267 -573 -290 -7 -5 -46 -31 -87 -58 -41 -28
-100 -70 -130 -95 -30 -25 -127 -100 -215 -167 -88 -67 -166 -126 -173 -132
-7 -6 2 21 21 59 86 173 140 317 186 498 11 44 29 91 41 105 50 63 53 71 42
96 -22 48 -65 41 -177 -30 -52 -33 -152 -85 -245 -128 -169 -77 -310 -147
-347 -170 -24 -15 -47 -27 -51 -27 -22 0 -326 -190 -437 -273 -162 -120 -452
-400 -538 -519 -25 -34 -57 -76 -70 -93 -103 -129 -226 -470 -230 -640 -2 -70
-3 -75 -22 -71 -11 3 -49 10 -85 16 -63 10 -110 21 -395 91 -311 75 -498 84
-745 35 -207 -42 -371 -98 -566 -194 -55 -27 -114 -53 -131 -60 -61 -21 -249
-107 -463 -212 -118 -59 -231 -112 -250 -120 -19 -7 -41 -18 -48 -24 -18 -13
-30 6 -30 53 -1 58 -37 150 -144 371 -137 283 -152 311 -216 404 -81 119 -159
207 -248 283 -27 23 -70 60 -97 82 -84 71 -125 96 -362 221 -159 84 -209 108
-241 116 -16 4 -45 15 -64 24 -36 18 -204 75 -365 124 -147 44 -238 66 -396
95 -57 11 -151 31 -209 45 -58 14 -133 28 -167 32 -82 9 -87 -4 -35 -93 36
-62 52 -94 125 -253 46 -98 111 -280 103 -287 -2 -3 -12 0 -23 6 -41 22 -212
89 -235 92 -8 1 -315 154 -338 168 -161 101 -457 243 -630 301 -196 66 -298
83 -502 82 -97 0 -227 -7 -290 -16 -62 -8 -137 -17 -167 -21 -170 -18 -487
-136 -584 -216 -49 -41 -65 -78 -41 -96 10 -7 28 -13 40 -13 13 0 29 -6 36
-13 7 -6 23 -19 34 -27 99 -69 209 -152 258 -194 170 -147 303 -266 323 -289
l21 -25 -36 -5 c-78 -10 -358 1 -437 17 -109 22 -128 29 -271 97 -68 33 -126
59 -130 59 -3 0 -33 13 -67 29 -34 15 -93 38 -132 51 -38 13 -74 26 -80 30
-11 9 -257 95 -325 114 -53 15 -239 72 -290 88 -19 6 -62 18 -95 25 -33 8 -78
18 -100 24 -22 5 -101 21 -175 34 -74 13 -178 33 -230 44 -277 57 -702 72
-1012 37 -63 -7 -394 -65 -438 -76 -19 -5 -93 -20 -164 -35 -138 -28 -281 -80
-416 -152 -156 -83 -183 -95 -233 -103 -54 -8 -63 -17 -72 -72 -8 -45 -1 -58
30 -58 19 0 47 -27 121 -112 53 -62 111 -135 129 -163 39 -60 145 -235 145
-240 0 -4 115 -193 147 -241 l17 -27 -144 8 c-80 4 -174 9 -210 11 -36 1 -155
7 -265 13 -110 6 -274 13 -365 16 -91 3 -183 8 -205 10 -45 4 -108 7 -755 35
-250 11 -488 22 -529 25 -40 2 -179 8 -307 11 -128 4 -231 11 -228 15 15 24
-218 23 -321 -2 -211 -50 -357 -126 -488 -252 -128 -123 -159 -197 -161 -386
-2 -157 13 -241 51 -291 107 -143 104 -140 135 -140 33 0 67 30 128 114 19 26
42 55 50 65 46 53 112 143 196 268 23 34 65 88 94 120 28 32 63 79 78 105 18
32 34 48 47 49 11 0 56 4 100 9 50 5 97 5 125 -2 25 -5 68 -13 95 -18 28 -4
127 -21 220 -38 219 -40 489 -72 775 -92 85 -7 166 -13 180 -15 46 -6 154 -14
270 -20 63 -3 133 -8 155 -10 38 -4 364 -18 395 -17 51 1 654 -32 775 -43 49
-5 298 -38 405 -54 30 -5 64 -5 75 -1 21 8 82 -27 116 -66 22 -26 96 -167 119
-226 28 -73 93 -178 171 -275 73 -92 401 -430 484 -500 194 -164 265 -208 434
-268 90 -33 141 -43 294 -60 73 -8 177 -22 232 -31 77 -12 159 -15 361 -12
253 3 260 3 217 -14 -57 -21 -73 -35 -73 -62 0 -36 40 -64 156 -108 60 -22
120 -48 134 -58 31 -22 180 -110 186 -110 2 0 50 -22 106 -49 57 -27 166 -71
243 -97 159 -54 234 -62 371 -38 44 7 115 17 159 22 75 9 181 32 301 67 66 20
252 50 260 43 8 -9 -81 -182 -132 -258 -55 -80 -65 -124 -36 -153 19 -19 23
-19 44 -5 32 21 166 48 237 48 72 0 167 17 205 37 17 9 62 19 101 24 94 12
252 36 350 53 44 8 120 15 169 15 l89 1 86 72 c47 40 88 75 91 78 14 15 225
184 300 239 47 35 105 80 130 100 25 21 70 52 100 70 30 17 102 61 160 96 58
35 108 64 112 65 3 0 42 22 85 48 111 69 364 200 523 270 74 33 180 81 235
107 127 59 125 58 220 93 119 44 345 116 475 152 63 18 161 47 217 66 56 19
115 34 132 34 73 0 112 47 87 103 -8 18 -17 51 -19 74 -4 40 -3 42 27 48 149
29 215 49 466 140 182 66 267 101 385 155 135 63 355 149 450 176 103 30 312
43 455 29 19 -2 96 -6 170 -9 146 -7 196 -14 395 -51 72 -14 184 -33 250 -43
l120 -18 -3 -38 c-4 -39 32 -121 71 -163 31 -35 101 -51 247 -57 277 -12 742
-76 905 -126 98 -30 243 -70 290 -80 22 -4 90 -26 150 -48 251 -90 343 -124
390 -144 93 -38 480 -231 512 -254 17 -13 34 -24 37 -24 3 0 52 -31 108 -68
57 -38 115 -76 130 -85 15 -9 36 -26 47 -38 20 -22 18 -22 721 -31 166 -2 228
8 242 37 6 13 19 26 29 28 55 15 24 83 -81 176 -102 91 -183 171 -177 177 5 5
73 -7 162 -27 90 -21 190 -28 259 -19 76 11 187 42 251 70 22 10 94 39 160 65
66 26 197 89 290 140 278 153 397 201 467 191 24 -4 72 -9 108 -12 58 -5 67
-4 85 16 19 21 19 23 2 52 -9 16 -17 40 -17 53 0 14 -10 34 -22 46 -21 19 -30
21 -104 15 -51 -4 -84 -2 -91 5 -6 6 -46 15 -88 20 -43 6 -117 25 -164 43
l-86 34 55 6 c30 3 111 8 180 11 69 4 134 9 146 11 11 3 54 9 95 14 82 9 143
23 300 69 229 66 393 148 509 256 30 28 101 90 156 138 123 106 220 206 259
271 25 40 144 189 165 206 4 3 27 31 53 63 50 61 60 104 32 127 -23 19 -63 15
-89 -9 -19 -18 -76 -30 -76 -16 0 2 14 27 30 55 32 54 50 91 150 315 34 77 72
163 85 190 13 28 39 91 60 140 42 104 65 153 183 400 101 210 130 258 227 380
40 50 82 105 93 124 13 21 34 39 53 45 58 20 48 80 -18 111 -273 126 -600 202
-913 211 -96 2 -188 6 -205 7 -16 2 -82 0 -145 -5z m-12776 -1183 c167 -41
324 -99 488 -181 42 -22 107 -54 145 -73 37 -19 116 -63 176 -98 112 -67 244
-132 312 -153 22 -7 49 -17 60 -21 51 -22 226 -63 284 -67 54 -3 67 -1 78 14
19 27 16 106 -8 176 -27 78 -157 343 -195 396 -19 26 -11 27 48 8 89 -29 218
-65 373 -104 166 -42 279 -73 330 -91 17 -6 94 -33 173 -61 79 -28 151 -55
160 -60 9 -5 44 -21 77 -36 341 -149 579 -319 744 -530 80 -101 114 -161 254
-444 116 -234 127 -263 141 -349 9 -52 16 -100 16 -107 0 -11 -151 -104 -170
-104 -4 0 -32 -17 -63 -37 -49 -32 -59 -44 -72 -87 -15 -46 -15 -56 -1 -111 9
-32 16 -62 16 -66 0 -3 -16 -6 -36 -5 -33 1 -40 -4 -68 -46 -32 -49 -63 -60
-59 -20 2 15 -3 22 -15 23 -9 0 -29 2 -44 4 -16 2 -28 0 -28 -5 0 -10 -71 -10
-85 1 -10 8 -66 6 -174 -6 -34 -4 -58 -1 -67 6 -22 18 -29 2 -10 -26 18 -27
17 -28 -34 -25 -22 1 -42 9 -54 23 -10 12 -27 21 -37 19 -11 -2 -22 4 -25 12
-9 24 -34 19 -34 -6 0 -17 -3 -19 -12 -10 -20 20 -43 13 -56 -18 -12 -26 -19
-30 -52 -30 -30 0 -39 4 -43 22 -5 18 -8 19 -22 8 -9 -7 -14 -19 -11 -25 3 -9
-5 -11 -30 -5 -20 5 -34 4 -34 -2 0 -9 -57 -5 -67 5 -2 3 0 14 6 25 8 16 7 21
-6 26 -18 7 -63 -29 -63 -50 0 -20 -17 -26 -38 -13 -14 9 -18 21 -15 51 2 21
0 38 -4 37 -4 -1 -16 1 -26 6 -19 8 -47 -10 -47 -31 0 -21 -31 -33 -53 -20
-14 8 -21 8 -24 0 -11 -31 -31 -48 -44 -38 -24 19 -50 25 -48 11 3 -17 -11
-47 -22 -47 -5 0 -9 7 -9 17 0 9 -8 34 -17 55 -20 44 -46 50 -86 18 -14 -11
-31 -20 -37 -20 -7 0 -10 -7 -6 -15 7 -19 -1 -19 -55 0 -37 13 -44 14 -51 1
-8 -15 -48 -11 -59 7 -4 5 -19 1 -35 -9 -15 -11 -25 -13 -21 -6 5 6 4 12 -2
12 -5 0 -13 -4 -16 -10 -10 -16 -82 -12 -88 4 -3 8 -1 16 5 18 12 4 -39 68
-53 68 -5 0 -6 -13 -3 -28 7 -37 -13 -54 -71 -58 -28 -2 -54 -11 -67 -24 l-22
-20 -22 26 c-29 32 -66 30 -74 -6 -7 -28 -40 -41 -40 -16 0 21 -24 20 -55 0
-23 -15 -25 -15 -31 0 -3 9 -12 16 -19 16 -7 0 -20 10 -29 23 -16 21 -16 21
-11 1 10 -39 -46 -55 -113 -33 -49 17 -55 17 -69 -1 -7 -9 -12 -10 -13 -4 0 7
-12 15 -26 18 -20 5 -33 1 -49 -14 -16 -15 -31 -19 -50 -16 -35 7 -65 -9 -65
-34 0 -38 -32 -33 -87 14 -27 23 -54 15 -50 -15 1 -15 -4 -23 -20 -25 -20 -3
-22 -1 -17 29 3 17 8 38 10 45 6 19 -14 52 -31 52 -7 0 -17 -9 -20 -20 -4 -11
-11 -18 -16 -15 -5 4 -9 1 -9 -4 0 -17 -21 -13 -36 7 -12 15 -15 15 -24 2 -11
-17 -14 -37 -4 -27 7 6 44 -55 44 -71 0 -5 -15 -9 -32 -9 -18 -1 -51 -2 -73
-3 -51 -3 -74 7 -70 30 4 20 -39 45 -58 33 -12 -8 -59 -14 -109 -13 -16 0 -28
-4 -28 -8 0 -5 -19 -9 -42 -8 -39 1 -43 -1 -41 -21 3 -27 0 -28 -22 -6 -10 9
-34 17 -58 17 l-42 1 -1 45 c0 25 3 50 6 55 6 9 6 18 1 43 -1 4 -14 -17 -29
-47 -15 -29 -30 -52 -34 -50 -3 2 -17 -6 -31 -19 -15 -14 -30 -20 -41 -16 -9
3 -22 1 -29 -5 -8 -6 -22 -12 -33 -14 -10 -1 -24 -6 -30 -9 -6 -4 -19 -2 -29
5 -16 12 -16 15 -1 29 8 9 21 18 28 21 10 3 10 9 2 23 -16 28 -38 28 -53 1
-14 -26 -37 -31 -45 -10 -3 8 -10 12 -15 9 -15 -9 -44 32 -38 54 4 17 3 19 -8
10 -8 -7 -18 -9 -24 -6 -9 6 -26 -21 -23 -36 3 -12 -16 -10 -23 2 -12 20 -25
10 -25 -19 0 -36 -10 -43 -70 -48 -53 -4 -69 12 -49 48 8 16 13 18 24 9 20
-17 35 -4 35 31 0 29 -17 38 -36 19 -5 -5 -27 -13 -49 -18 -22 -5 -39 -14 -37
-21 3 -17 -23 -24 -46 -12 -14 8 -24 6 -38 -4 -31 -23 -77 -18 -102 10 -19 22
-46 31 -75 26 -5 -1 -6 3 -3 8 6 10 -16 21 -42 21 -10 0 -34 -9 -55 -20 -20
-11 -47 -20 -59 -20 -12 0 -32 -10 -45 -22 -22 -21 -80 -27 -105 -12 -12 8 30
64 48 64 8 0 14 5 14 10 0 6 -4 10 -9 10 -5 0 -14 14 -20 30 -12 37 -19 37
-54 4 -15 -14 -34 -23 -42 -20 -8 3 -17 0 -21 -6 -4 -7 -3 -8 4 -4 18 11 14 0
-5 -15 -10 -7 -15 -9 -11 -5 4 5 0 15 -10 22 -16 11 -16 13 1 32 11 12 14 22
8 26 -5 4 -12 -3 -16 -13 -5 -16 -12 -19 -33 -15 -43 9 -62 -20 -53 -78 6 -38
4 -51 -8 -63 -15 -13 -17 -12 -19 12 -1 15 -9 35 -18 45 -15 16 -15 18 0 24
22 8 20 21 -4 34 -16 8 -26 7 -42 -5 -30 -20 -46 -19 -44 3 1 22 26 48 50 53
31 7 17 24 -19 25 -26 1 -39 -4 -46 -18 -7 -13 -16 -17 -27 -13 -27 10 -82 14
-82 5 0 -4 -7 -11 -16 -14 -15 -6 -24 0 -65 37 -10 9 -26 17 -34 17 -9 0 -15
9 -15 21 0 11 -9 33 -21 47 -17 22 -18 28 -6 30 20 4 31 33 15 43 -15 9 -47
-7 -55 -28 -3 -8 3 -31 13 -51 10 -21 20 -40 22 -43 1 -4 -7 -9 -19 -12 -17
-5 -20 -10 -14 -36 5 -23 1 -36 -14 -53 -19 -19 -21 -20 -21 -4 0 10 -9 20
-20 23 -11 3 -20 9 -20 13 0 5 -9 6 -21 3 -16 -5 -20 -2 -18 13 2 10 -6 30
-18 44 -12 14 -28 33 -36 44 -13 17 -15 17 -44 3 -25 -13 -36 -14 -62 -4 -27
10 -33 9 -41 -3 -7 -10 -10 -11 -10 -2 0 6 -9 12 -19 12 -23 0 -32 18 -20 41
10 20 -16 60 -28 42 -14 -20 -38 -19 -39 2 -2 46 -5 52 -28 63 -22 10 -24 8
-35 -28 -8 -28 -16 -38 -26 -34 -8 4 -15 10 -15 16 0 5 -4 7 -9 3 -5 -3 -12
-1 -16 5 -3 5 1 10 9 10 9 0 16 7 16 15 0 10 -10 15 -28 15 -15 0 -33 5 -39
11 -17 17 -30 4 -38 -37 -4 -25 -2 -39 6 -44 7 -5 14 -22 15 -39 3 -24 0 -31
-14 -31 -10 0 -25 9 -35 20 -9 11 -23 20 -31 20 -8 0 -19 8 -24 17 -6 9 -23
17 -38 18 -62 3 -82 36 -49 79 22 29 19 56 -5 56 -12 0 -43 -12 -71 -26 -42
-21 -53 -23 -66 -12 -9 7 -27 11 -40 10 -23 -3 -24 -1 -21 35 2 29 -1 38 -12
38 -10 0 -16 -12 -18 -35 -2 -24 -12 -41 -29 -54 -26 -19 -26 -19 -40 0 -8 10
-19 19 -26 19 -7 0 -14 14 -15 30 -7 55 -42 71 -42 19 0 -33 -19 -27 -40 12
-15 25 -23 29 -61 29 -24 1 -50 5 -58 9 -10 6 -12 4 -7 -12 4 -11 2 -23 -4
-27 -7 -4 -14 2 -17 14 -3 12 -12 21 -20 21 -8 0 -11 4 -8 10 3 5 2 18 -4 27
-6 12 -6 24 1 37 8 15 7 22 -8 33 -17 12 -21 11 -39 -12 -25 -30 -50 -32 -65
-4 -8 13 -15 17 -23 11 -7 -5 -20 -12 -31 -16 -15 -5 -17 -2 -12 18 5 19 1 26
-16 32 -20 6 -41 -9 -51 -39 -6 -20 -29 6 -24 29 5 26 -10 36 -35 22 -19 -9
-58 5 -58 21 0 5 -21 19 -46 31 -43 19 -48 20 -62 6 -13 -12 -14 -19 -4 -28 7
-7 12 -22 12 -35 0 -32 38 -90 94 -141 44 -41 177 -132 192 -132 4 0 15 -6 23
-14 9 -7 37 -21 64 -31 51 -19 54 -28 33 -80 -18 -42 -38 -44 -136 -15 -127
38 -266 127 -454 290 -103 89 -253 246 -275 287 -6 12 -34 49 -61 82 -28 33
-50 64 -50 69 0 5 -15 29 -33 53 -40 53 -61 87 -126 204 -27 50 -63 106 -79
125 -109 128 -262 354 -262 385 0 13 71 35 86 27 21 -12 90 1 113 22 9 9 21
16 26 16 5 0 16 7 25 15 10 9 29 18 43 21 15 2 41 13 59 23 18 11 56 25 83 32
28 6 55 15 60 20 29 22 442 111 600 128 206 23 273 28 375 25 143 -4 358 -14
395 -19 72 -10 320 -53 415 -72 41 -8 101 -19 133 -23 55 -8 165 -36 322 -82
200 -58 600 -192 688 -230 38 -16 76 -31 86 -33 9 -2 75 -31 146 -65 192 -91
217 -100 274 -100 20 0 52 -5 71 -10 50 -14 280 -20 375 -9 84 9 156 31 186
57 25 22 17 93 -17 137 -66 87 -517 425 -628 471 l-43 18 31 17 c73 39 238
100 336 123 136 33 447 75 585 79 94 3 234 -10 309 -28z m5761 -1195 c123 -20
385 -78 540 -121 83 -22 164 -41 181 -43 18 -1 39 -8 48 -15 9 -7 16 -9 16 -4
0 6 11 8 25 5 14 -2 25 -9 25 -14 0 -5 5 -6 10 -3 22 13 158 -44 336 -141 l51
-28 -31 -42 c-40 -55 -67 -67 -146 -65 -65 2 -308 42 -329 55 -11 7 -60 18
-166 36 -27 5 -77 16 -110 24 -33 9 -94 20 -135 25 -41 5 -106 16 -145 25
-115 27 -337 35 -515 19 -232 -20 -535 -78 -649 -123 -28 -11 -59 -20 -69 -20
-9 0 -39 -9 -67 -19 -27 -11 -84 -31 -125 -44 -41 -14 -154 -53 -250 -87 -324
-114 -422 -140 -537 -140 -88 0 -75 15 77 85 58 26 196 92 308 146 111 55 204
99 206 99 2 0 55 24 117 54 133 63 293 131 364 156 28 10 100 40 160 68 225
103 569 151 810 112z m5196 -63 c-10 -9 -11 -8 -5 6 3 10 9 15 12 12 3 -3 0
-11 -7 -18z m1150 10 c-1 -4 -1 -14 -1 -23 0 -9 -6 -14 -12 -11 -13 4 -18 25
-10 40 5 10 24 5 23 -6z m-1306 -8 c-4 -6 1 -16 11 -23 13 -10 14 -15 4 -21
-8 -5 -18 -1 -27 10 -7 11 -13 15 -13 11 0 -4 -5 -4 -11 0 -8 4 -3 12 12 20
30 16 32 17 24 3z m960 2 c3 -5 1 -12 -5 -16 -5 -3 -10 1 -10 9 0 18 6 21 15
7z m45 -16 c0 -8 -4 -15 -10 -15 -5 0 -7 7 -4 15 4 8 8 15 10 15 2 0 4 -7 4
-15z m-943 -27 c-3 -8 -6 -5 -6 6 -1 11 2 17 5 13 3 -3 4 -12 1 -19z m-18752
-32 c22 -3 60 -7 85 -10 51 -6 547 -44 570 -43 27 0 284 -14 310 -18 14 -2 88
-6 165 -9 77 -4 176 -9 220 -12 125 -8 185 -12 400 -24 110 -6 308 -17 440
-25 132 -8 337 -19 455 -25 552 -27 561 -27 583 -55 9 -13 51 -65 92 -117 41
-51 69 -95 64 -97 -6 -2 -36 2 -67 8 -77 15 -200 30 -297 37 -44 2 -94 7 -110
9 -33 5 -457 26 -810 40 -199 8 -497 24 -553 29 -26 3 -83 8 -127 11 -191 12
-390 29 -495 41 -108 12 -321 36 -394 44 -43 5 -86 12 -95 14 -44 14 -306 46
-376 47 -105 2 -178 -11 -327 -56 -176 -54 -203 -70 -290 -177 -57 -70 -72
-111 -59 -167 5 -24 12 -45 15 -48 3 -3 18 10 33 28 99 118 171 193 207 213
40 23 146 60 146 50 0 -10 -51 -84 -89 -128 -22 -25 -71 -88 -109 -139 -121
-162 -244 -307 -260 -307 -6 0 -29 33 -59 85 -20 35 -19 189 2 295 14 73 26
105 50 137 46 61 104 122 157 165 47 39 222 138 243 138 6 0 14 3 18 6 12 12
192 72 207 68 8 -1 33 -5 55 -8z m18745 10 c0 -3 -4 -8 -10 -11 -5 -3 -10 -1
-10 4 0 6 5 11 10 11 6 0 10 -2 10 -4z m-2236 -45 c3 -5 -2 -15 -12 -22 -15
-12 -16 -12 -5 2 7 9 10 19 6 22 -3 4 -4 7 0 7 3 0 8 -4 11 -9z m-1689 -31 c3
-6 -1 -7 -9 -4 -18 7 -21 14 -7 14 6 0 13 -4 16 -10z m-10691 -336 c12 -31
-21 -47 -43 -21 -8 10 -7 17 1 25 17 17 35 15 42 -4z m-81 -44 c-7 -28 -21
-34 -39 -19 -14 12 -14 15 6 31 26 21 40 16 33 -12z m227 -15 c0 -2 -11 -20
-24 -39 -18 -27 -25 -32 -30 -21 -3 9 4 27 16 40 19 23 38 32 38 20z m130 -60
c-12 -15 -30 -12 -30 6 0 5 10 9 21 9 18 0 19 -2 9 -15z m814 -186 c-8 -13
-24 -1 -24 18 0 13 3 13 15 3 8 -7 12 -16 9 -21z m-34 -57 c0 -13 -12 -22 -22
-16 -10 6 -1 24 13 24 5 0 9 -4 9 -8z m199 -59 c-15 -17 -32 -2 -23 21 5 13 9
14 20 5 11 -9 12 -15 3 -26z m88 -54 c-4 -41 -17 -66 -17 -32 0 12 -8 23 -20
26 -24 6 -26 30 -4 52 25 24 46 1 41 -46z m517 -53 c-21 -15 -30 -14 -19 3 3
6 14 11 23 11 13 0 13 -2 -4 -14z m12250 -11 c50 -2 201 -6 336 -9 326 -8 361
-13 330 -52 -21 -24 -110 -64 -179 -80 -167 -37 -227 -45 -384 -51 -273 -10
-377 28 -377 136 0 56 34 73 129 65 29 -2 94 -6 145 -9z m-14115 -32 c11 -10
40 -43 63 -74 60 -78 231 -269 242 -269 5 0 28 -17 52 -37 74 -64 111 -93 122
-93 16 0 63 -80 60 -103 -2 -18 -11 -23 -42 -25 -54 -5 -78 3 -125 40 -91 73
-105 83 -122 90 -10 4 -31 26 -46 49 -15 23 -44 58 -63 78 -159 163 -216 249
-207 308 9 53 31 65 66 36z m5118 -13 c2 -32 -20 -43 -31 -14 -10 25 -7 32 12
37 9 3 17 5 17 6 0 0 1 -13 2 -29z m773 14 c0 -14 -3 -14 -15 -4 -8 7 -15 14
-15 16 0 2 7 4 15 4 8 0 15 -7 15 -16z m-2877 -46 c-9 -11 -19 -15 -21 -9 -4
13 20 40 31 34 5 -3 0 -14 -10 -25z m2507 16 c0 -8 -4 -12 -10 -9 -5 3 -10 10
-10 16 0 5 5 9 10 9 6 0 10 -7 10 -16z m-1463 -16 c-3 -8 -6 -5 -6 6 -1 11 2
17 5 13 3 -3 4 -12 1 -19z m-1372 -38 c3 -5 2 -10 -4 -10 -5 0 -13 5 -16 10
-3 6 -2 10 4 10 5 0 13 -4 16 -10z m140 0 c3 -5 1 -10 -4 -10 -6 0 -11 5 -11
10 0 6 2 10 4 10 3 0 8 -4 11 -10z m10310 -301 c89 -15 111 -23 124 -48 10
-17 7 -22 -21 -35 -71 -32 -89 -28 -215 54 l-72 47 57 -4 c31 -2 89 -8 127
-14z m-10403 -834 c416 -5 710 -24 734 -48 8 -8 -24 -22 -96 -41 -36 -10 -81
-27 -100 -38 -69 -40 -367 -67 -535 -49 -228 26 -276 42 -399 135 -36 28 -37
31 -19 43 12 9 31 12 55 8 20 -4 182 -8 360 -10z m2099 -184 l-103 -98 -76 -7
c-130 -11 -444 -6 -481 8 -88 32 -31 61 259 131 30 7 129 23 220 34 91 11 179
22 195 24 98 13 98 14 -14 -92z" />
        <path d="M20150 29759 c0 -5 5 -7 10 -4 6 3 10 8 10 11 0 2 -4 4 -10 4 -5 0
-10 -5 -10 -11z" />
        <path d="M20060 29701 c13 -26 53 -29 48 -3 -2 10 -14 18 -31 20 -26 3 -28 2
-17 -17z" />
        <path d="M20163 29643 c-16 -6 -17 -33 -3 -33 11 0 26 28 19 34 -2 2 -10 1
-16 -1z" />
        <path d="M20830 29550 c0 -15 5 -20 18 -18 9 2 17 10 17 18 0 8 -8 16 -17 18
-13 2 -18 -3 -18 -18z" />
        <path d="M20756 29515 c4 -8 10 -12 15 -9 14 8 10 24 -6 24 -9 0 -12 -6 -9
-15z" />
        <path d="M21188 29459 c-17 -10 -24 -39 -12 -51 9 -10 42 3 49 20 9 23 -16 43
-37 31z" />
        <path d="M20996 29391 c-4 -7 -5 -15 -2 -18 9 -9 19 4 14 18 -4 11 -6 11 -12
0z" />
        <path d="M21344 29355 c-6 -13 40 -64 59 -65 17 0 18 31 0 54 -20 28 -51 34
-59 11z" />
        <path d="M22045 29220 c3 -5 8 -10 11 -10 2 0 4 5 4 10 0 6 -5 10 -11 10 -5 0
-7 -4 -4 -10z" />
        <path d="M22031 29194 c0 -11 3 -14 6 -6 3 7 2 16 -1 19 -3 4 -6 -2 -5 -13z" />
        <path d="M22058 29116 c-11 -25 -6 -56 9 -56 4 0 17 7 27 15 16 12 18 19 8 40
-15 32 -29 32 -44 1z" />
        <path d="M25116 29041 c-4 -7 -5 -15 -2 -18 9 -9 19 4 14 18 -4 11 -6 11 -12
0z" />
        <path d="M23220 28996 c0 -8 -7 -21 -15 -29 -13 -13 -13 -16 0 -21 10 -3 15 1
15 13 0 10 7 22 16 25 8 3 12 10 9 16 -9 15 -25 12 -25 -4z" />
        <path d="M27515 29001 c-7 -12 12 -24 25 -16 11 7 4 25 -10 25 -5 0 -11 -4
-15 -9z" />
        <path d="M25568 28993 c7 -3 16 -2 19 1 4 3 -2 6 -13 5 -11 0 -14 -3 -6 -6z" />
        <path d="M24215 28930 c-8 -12 53 -53 70 -46 16 6 19 15 7 32 -9 14 -70 26
-77 14z" />
        <path d="M37879 31780 c-39 -10 -232 -83 -321 -123 -52 -23 -58 -29 -58 -56
l0 -30 78 28 c84 31 211 88 310 139 86 45 82 63 -9 42z" />
        <path d="M36809 31276 c-2 -3 -17 -7 -32 -10 -16 -3 -48 -14 -71 -25 -23 -12
-46 -21 -50 -21 -4 0 -24 -7 -44 -16 -88 -39 -119 -56 -119 -69 0 -9 5 -10 16
-4 9 5 50 22 93 38 106 42 241 111 215 111 -2 0 -6 -2 -8 -4z" />
        <path d="M36840 31098 c-14 -6 -61 -27 -105 -45 -44 -19 -111 -49 -150 -68
-38 -18 -80 -36 -92 -40 -13 -3 -23 -11 -23 -16 0 -5 -6 -9 -13 -9 -7 0 -13
-9 -13 -20 0 -14 5 -19 16 -15 8 4 29 9 45 12 27 6 29 5 16 -11 -8 -9 -12 -19
-9 -22 6 -5 82 23 163 60 28 13 78 36 113 51 56 25 63 31 59 52 -2 13 -2 22 0
19 9 -9 31 19 25 32 -3 8 1 18 9 23 21 13 -9 11 -41 -3z" />
        <path d="M35740 30877 c-14 -8 -75 -31 -135 -51 -160 -55 -143 -32 -146 -197
-1 -22 37 -127 56 -155 24 -37 71 -31 173 19 48 24 131 61 185 81 95 37 108
48 67 59 -11 3 -18 1 -14 -4 3 -5 0 -9 -5 -9 -6 0 -11 5 -11 11 0 5 -6 7 -12
4 -7 -4 -2 2 11 13 13 10 21 24 17 30 -7 12 -35 4 -214 -63 -67 -25 -129 -45
-136 -45 -8 0 -22 20 -31 44 -10 25 -28 55 -41 67 -24 22 -33 46 -14 34 16
-10 127 24 217 66 81 38 83 39 79 71 -4 38 -12 42 -46 25z" />
        <path d="M36960 30050 c0 -13 11 -13 30 0 12 8 11 10 -7 10 -13 0 -23 -4 -23
-10z" />
        <path d="M35353 30001 c1 -14 5 -17 13 -11 6 6 15 6 20 2 4 -4 2 1 -5 11 -18
23 -30 22 -28 -2z" />
        <path d="M35850 30010 c0 -5 5 -10 11 -10 5 0 7 5 4 10 -3 6 -8 10 -11 10 -2
0 -4 -4 -4 -10z" />
        <path d="M36320 30007 c0 -8 6 -20 13 -26 11 -8 13 -6 12 11 -2 24 -25 38 -25
15z" />
        <path d="M36115 29990 c-3 -5 -2 -10 4 -10 5 0 13 5 16 10 3 6 2 10 -4 10 -5
0 -13 -4 -16 -10z" />
        <path d="M32737 29920 c3 -11 9 -20 14 -20 5 0 9 9 9 20 0 11 -6 20 -14 20 -9
0 -12 -7 -9 -20z" />
        <path d="M33350 29930 c0 -5 4 -10 9 -10 6 0 13 5 16 10 3 6 -1 10 -9 10 -9 0
-16 -4 -16 -10z" />
        <path d="M34030 29925 c0 -8 5 -15 10 -15 6 0 10 7 10 15 0 8 -4 15 -10 15 -5
0 -10 -7 -10 -15z" />
        <path d="M32820 29873 c0 -9 3 -13 7 -10 3 4 12 2 19 -4 8 -7 14 -6 20 2 4 8
3 9 -4 5 -7 -4 -12 -1 -12 8 0 9 -7 16 -15 16 -8 0 -15 -7 -15 -17z" />
        <path d="M32702 29859 c2 -7 10 -15 17 -17 8 -3 12 1 9 9 -2 7 -10 15 -17 17
-8 3 -12 -1 -9 -9z" />
    </g>
</svg>
