<svg xmlns="http://www.w3.org/2000/svg" width="5000" height="5000">
    <path style="fill:#010101; stroke:none;" d="M0 0L0 5000L5000 5000L5000 0L0 0z" />
    <path style="fill:#d5e3e8; stroke:none;"
        d="M1514 1872L1515 1873L1514 1872M1516.33 1872.67L1516.67 1873.33L1516.33 1872.67M1519 1872L1520 1873L1519 1872M1507 1875L1510 1874L1507 1875z" />
    <path style="fill:#af6b23; stroke:none;" d="M1514 1873L1515 1874L1514 1873z" />
    <path style="fill:#d5e3e8; stroke:none;" d="M1505 1874L1499 1882L1500 1882L1505 1874z" />
    <path style="fill:#485c82; stroke:none;" d="M1517 1874L1518 1875L1517 1874z" />
    <path style="fill:#d5e3e8; stroke:none;" d="M1518.67 1874.33L1519.33 1874.67L1518.67 1874.33z" />
    <path style="fill:#485c82; stroke:none;"
        d="M1520 1874L1521 1875L1520 1874M1511.67 1878.33L1512.33 1878.67L1511.67 1878.33z" />
    <path style="fill:#af6b23; stroke:none;" d="M1513 1878L1514 1879L1513 1878z" />
    <path style="fill:#485c82; stroke:none;"
        d="M1514.67 1878.33L1515.33 1878.67L1514.67 1878.33M1501 1879L1502 1880L1501 1879z" />
    <path style="fill:#e4be39; stroke:none;" d="M1510.67 1879.33L1511.33 1879.67L1510.67 1879.33z" />
    <path style="fill:#d5e3e8; stroke:none;"
        d="M1509 1896L1506 1888L1512 1884L1513 1884L1514 1884L1519 1890C1518.96 1888.02 1519.03 1885.96 1518.43 1884.04C1513.38 1867.87 1491.82 1896.27 1509 1896z" />
    <path style="fill:#e4be39; stroke:none;" d="M1515 1879L1516 1880L1515 1879z" />
    <path style="fill:#af6b23; stroke:none;" d="M1516 1879L1517 1880L1516 1879z" />
    <path style="fill:#485c82; stroke:none;" d="M1517 1879L1518 1880L1517 1879z" />
    <path style="fill:#e4be39; stroke:none;"
        d="M1508 1880L1509 1881L1508 1880M1517 1880L1519 1890L1514 1884L1513 1884L1512 1884L1506 1888L1508 1897L1520 1891L1524 1893L1520 1890C1520.71 1885.58 1520.43 1883.04 1517 1880z" />
    <path style="fill:#af6b23; stroke:none;" d="M1518 1880L1519 1881L1518 1880z" />
    <path style="fill:#485c82; stroke:none;" d="M1506 1881L1507 1882L1506 1881z" />
    <path style="fill:#af6b23; stroke:none;" d="M1519 1881L1520 1882L1519 1881z" />
    <path style="fill:#485c82; stroke:none;" d="M1505 1882L1506 1883L1505 1882z" />
    <path style="fill:#af6b23; stroke:none;"
        d="M1520 1882L1520 1890C1525.62 1893.09 1530.45 1891.3 1536 1893.31C1552.16 1899.18 1573.46 1915.91 1577 1933L1578 1933C1575.37 1913.45 1554.37 1899.37 1537.83 1891.26C1529.13 1887 1526.33 1890.63 1520 1882M1504 1883L1505 1884L1504 1883z" />
    <path style="fill:#485c82; stroke:none;" d="M1521 1883L1522 1884L1521 1883z" />
    <path style="fill:#d5e3e8; stroke:none;" d="M1498 1884L1499 1885L1498 1884z" />
    <path style="fill:#485c82; stroke:none;" d="M1522 1885L1522 1888L1523 1888L1522 1885z" />
    <path style="fill:#d5e3e8; stroke:none;"
        d="M1487 1886L1488 1887L1487 1886M1497 1886L1496 1888L1498 1888L1497 1886M1478 1890L1478 1891L1486 1888L1478 1890z" />
    <path style="fill:#485c82; stroke:none;" d="M1502 1887L1503 1888L1502 1887z" />
    <path style="fill:#d5e3e8; stroke:none;" d="M1494 1888L1495 1889L1494 1888z" />
    <path style="fill:#485c82; stroke:none;" d="M1495 1888L1496 1889L1495 1888z" />
    <path style="fill:#d5e3e8; stroke:none;" d="M1546 1888L1548 1890L1546 1888M1492 1889L1493 1890L1492 1889z" />
    <path style="fill:#485c82; stroke:none;" d="M1529 1889L1529 1890L1532 1890L1529 1889z" />
    <path style="fill:#e4be39; stroke:none;" d="M1548 1890L1549 1891L1548 1890z" />
    <path style="fill:#d5e3e8; stroke:none;" d="M1549 1890L1550 1891L1549 1890M1488 1891L1489 1892L1488 1891z" />
    <path style="fill:#485c82; stroke:none;" d="M1502 1891L1503 1892L1502 1891z" />
    <path style="fill:#af6b23; stroke:none;" d="M1507 1897L1507 1898L1520 1892L1507 1897z" />
    <path style="fill:#485c82; stroke:none;" d="M1538 1891L1539 1892L1538 1891z" />
    <path style="fill:#d5e3e8; stroke:none;" d="M1550 1891L1551 1892L1550 1891z" />
    <path style="fill:#af6b23; stroke:none;" d="M1486.67 1892.33L1487.33 1892.67L1486.67 1892.33z" />
    <path style="fill:#485c82; stroke:none;" d="M1500 1892L1501 1893L1500 1892z" />
    <path style="fill:#af6b23; stroke:none;" d="M1501 1892L1499 1893L1499 1894L1501 1892z" />
    <path style="fill:#e4be39; stroke:none;" d="M1501 1894L1504 1894L1503 1892L1501 1894z" />
    <path style="fill:#485c82; stroke:none;" d="M1518 1892L1516 1897L1520 1892L1518 1892z" />
    <path style="fill:#d5e3e8; stroke:none;"
        d="M1521 1892C1516.47 1897.93 1504.03 1906.83 1502 1894C1491.4 1896.21 1466.97 1906.89 1468 1920C1453.85 1922.08 1456.15 1943.35 1457.74 1953C1459.18 1961.72 1457.45 1970.35 1459.92 1979C1464.45 1994.81 1479.67 2003.9 1494 2009.52C1506.89 2014.58 1519.86 1999.51 1530 2012C1550.19 2006.64 1571.35 1992.42 1577.49 1971C1580.74 1959.66 1564.43 1945.05 1578 1938C1574.66 1918.35 1555.05 1898.99 1536 1893.08C1531.31 1891.63 1525.93 1893.17 1521 1892z" />
    <path style="fill:#e4be39; stroke:none;" d="M1532 1892L1533 1893L1532 1892M1535 1892L1536 1893L1535 1892z" />
    <path style="fill:#485c82; stroke:none;" d="M1551 1892L1552 1893L1551 1892z" />
    <path style="fill:#d5e3e8; stroke:none;" d="M1552 1892L1553 1893L1552 1892z" />
    <path style="fill:#485c82; stroke:none;" d="M1497.67 1893.33L1498.33 1893.67L1497.67 1893.33z" />
    <path style="fill:#010101; stroke:none;" d="M1518 1893L1519 1894L1518 1893z" />
    <path style="fill:#485c82; stroke:none;" d="M1540.67 1893.33L1541.33 1893.67L1540.67 1893.33z" />
    <path style="fill:#d5e3e8; stroke:none;" d="M1553 1893L1554 1894L1553 1893z" />
    <path style="fill:#af6b23; stroke:none;"
        d="M1477 1903L1478 1905L1468 1912L1497 1895C1489.86 1892.89 1482.6 1899.39 1477 1903z" />
    <path style="fill:#e4be39; stroke:none;" d="M1495 1895L1495 1896L1499 1895L1495 1895z" />
    <path style="fill:#af6b23; stroke:none;" d="M1502 1894L1506 1897L1502 1894z" />
    <path style="fill:#010101; stroke:none;"
        d="M1503 1896C1506.99 1902.83 1514.53 1899.46 1518 1894C1512.13 1896.42 1509.31 1898.28 1503 1896z" />
    <path style="fill:#e4be39; stroke:none;" d="M1519 1894L1520 1895L1519 1894z" />
    <path style="fill:#485c82; stroke:none;" d="M1543 1894L1544 1895L1543 1894z" />
    <path style="fill:#af6b23; stroke:none;" d="M1554 1894L1555 1895L1554 1894z" />
    <path style="fill:#d5e3e8; stroke:none;" d="M1555 1894L1556 1895L1555 1894z" />
    <path style="fill:#485c82; stroke:none;"
        d="M1481 1895L1482 1896L1481 1895M1488 1895L1488 1896L1491 1896L1488 1895z" />
    <path style="fill:#e4be39; stroke:none;" d="M1518 1895L1519 1896L1518 1895z" />
    <path style="fill:#485c82; stroke:none;" d="M1532 1895L1526 1907C1532.06 1907.92 1533.7 1899.73 1532 1895z" />
    <path style="fill:#e4be39; stroke:none;" d="M1540 1895L1541 1896L1540 1895z" />
    <path style="fill:#485c82; stroke:none;" d="M1544 1895L1545 1896L1544 1895z" />
    <path style="fill:#e4be39; stroke:none;" d="M1556 1895L1557 1896L1556 1895z" />
    <path style="fill:#d5e3e8; stroke:none;" d="M1479 1896L1480 1897L1479 1896z" />
    <path style="fill:#e4be39; stroke:none;" d="M1492.67 1896.33L1493.33 1896.67L1492.67 1896.33z" />
    <path style="fill:#485c82; stroke:none;"
        d="M1502 1896L1508 1901L1508 1900L1502 1896M1504 1896L1505 1897L1504 1896z" />
    <path style="fill:#af6b23; stroke:none;" d="M1517 1896L1518 1897L1517 1896z" />
    <path style="fill:#485c82; stroke:none;" d="M1546 1896L1547 1897L1546 1896z" />
    <path style="fill:#d5e3e8; stroke:none;" d="M1477 1897L1478 1898L1477 1897z" />
    <path style="fill:#af6b23; stroke:none;" d="M1478 1897L1479 1898L1478 1897z" />
    <path style="fill:#e4be39; stroke:none;" d="M1490.67 1897.33L1491.33 1897.67L1490.67 1897.33z" />
    <path style="fill:#485c82; stroke:none;" d="M1506 1897L1507 1898L1506 1897M1511 1897L1512 1898L1511 1897z" />
    <path style="fill:#af6b23; stroke:none;" d="M1516 1897L1517 1898L1516 1897z" />
    <path style="fill:#e4be39; stroke:none;" d="M1543 1897L1544 1898L1543 1897z" />
    <path style="fill:#d5e3e8; stroke:none;" d="M1473 1901L1477 1899L1473 1901z" />
    <path style="fill:#e4be39; stroke:none;" d="M1487.67 1898.33L1488.33 1898.67L1487.67 1898.33z" />
    <path style="fill:#af6b23; stroke:none;" d="M1502 1898L1503 1899L1502 1898z" />
    <path style="fill:#485c82; stroke:none;" d="M1514 1898L1513 1900L1514 1898z" />
    <path style="fill:#af6b23; stroke:none;" d="M1515 1898L1516 1899L1515 1898z" />
    <path style="fill:#e4be39; stroke:none;" d="M1545 1898L1546 1899L1545 1898z" />
    <path style="fill:#485c82; stroke:none;"
        d="M1475 1899L1476 1900L1475 1899M1482.67 1899.33L1483.33 1899.67L1482.67 1899.33z" />
    <path style="fill:#e4be39; stroke:none;"
        d="M1485 1899L1486 1900L1485 1899M1503 1899L1504 1900L1503 1899M1514 1899L1515 1900L1514 1899z" />
    <path style="fill:#485c82; stroke:none;" d="M1474 1900L1475 1901L1474 1900z" />
    <path style="fill:#af6b23; stroke:none;" d="M1508 1900L1508 1901L1511 1901L1508 1900z" />
    <path style="fill:#e4be39; stroke:none;" d="M1511 1900L1512 1901L1511 1900z" />
    <path style="fill:#d5e3e8; stroke:none;" d="M1472 1901L1473 1902L1472 1901z" />
    <path style="fill:#485c82; stroke:none;" d="M1479 1901L1480 1902L1479 1901z" />
    <path style="fill:#e4be39; stroke:none;" d="M1483 1901L1484 1902L1483 1901z" />
    <path style="fill:#485c82; stroke:none;" d="M1554 1901L1555 1902L1554 1901z" />
    <path style="fill:#d5e3e8; stroke:none;" d="M1470 1902L1471 1903L1470 1902z" />
    <path style="fill:#af6b23; stroke:none;" d="M1471 1902L1472 1903L1471 1902z" />
    <path style="fill:#d5e3e8; stroke:none;" d="M1469 1903L1470 1904L1469 1903z" />
    <path style="fill:#e4be39; stroke:none;"
        d="M1480.67 1903.33L1481.33 1903.67L1480.67 1903.33M1553 1903L1554 1904L1553 1903z" />
    <path style="fill:#d5e3e8; stroke:none;" d="M1468 1904L1469 1905L1468 1904z" />
    <path style="fill:#e4be39; stroke:none;"
        d="M1474 1907L1478 1905L1474 1907M1479 1904L1478 1906L1480 1906L1479 1904M1531 1904L1532 1905L1531 1904M1555 1904L1556 1905L1555 1904M1558 1904L1559 1905L1558 1904z" />
    <path style="fill:#d5e3e8; stroke:none;" d="M1467 1905L1468 1906L1467 1905z" />
    <path style="fill:#485c82; stroke:none;" d="M1474 1905L1475 1906L1474 1905z" />
    <path style="fill:#e4be39; stroke:none;"
        d="M1483 1905C1480.63 1912.41 1477.32 1921.66 1486 1926L1483 1905M1556 1905L1557 1906L1556 1905z" />
    <path style="fill:#af6b23; stroke:none;" d="M1466 1906L1467 1907L1466 1906z" />
    <path style="fill:#e4be39; stroke:none;" d="M1477 1906L1478 1907L1477 1906z" />
    <path style="fill:#d5e3e8; stroke:none;" d="M1464 1907L1463 1909L1464 1907z" />
    <path style="fill:#e4be39; stroke:none;"
        d="M1458 1928L1468 1920C1467.88 1913.82 1472.16 1911.11 1477 1908C1467.9 1904.86 1460.37 1921.49 1458 1928z" />
    <path style="fill:#af6b23; stroke:none;" d="M1530 1907L1531 1908L1530 1907z" />
    <path style="fill:#e4be39; stroke:none;"
        d="M1499 1919L1507 1909C1500.08 1907.53 1496.45 1912.51 1499 1919M1525 1908L1526 1909L1525 1908M1529 1908L1529 1911L1530 1911L1529 1908z" />
    <path style="fill:#af6b23; stroke:none;" d="M1462 1909L1463 1910L1462 1909z" />
    <path style="fill:#d5e3e8; stroke:none;" d="M1461 1910L1462 1911L1461 1910z" />
    <path style="fill:#485c82; stroke:none;" d="M1468 1910L1469 1911L1468 1910M1564 1910L1565 1911L1564 1910z" />
    <path style="fill:#af6b23; stroke:none;" d="M1460 1911L1461 1912L1460 1911z" />
    <path style="fill:#485c82; stroke:none;"
        d="M1467 1911L1468 1912L1467 1911M1565 1911L1566 1912L1565 1911M1459 1912L1460 1913L1459 1912z" />
    <path style="fill:#af6b23; stroke:none;" d="M1466 1912L1467 1913L1466 1912z" />
    <path style="fill:#e4be39; stroke:none;" d="M1508 1912L1507 1914L1508 1912z" />
    <path style="fill:#485c82; stroke:none;" d="M1458 1913L1457 1916L1458 1913z" />
    <path style="fill:#af6b23; stroke:none;"
        d="M1508 1913L1510 1921L1508 1920L1508 1921L1509 1925C1515.32 1921.67 1512.55 1916.73 1508 1913z" />
    <path style="fill:#e4be39; stroke:none;" d="M1564 1913L1565 1914L1564 1913z" />
    <path style="fill:#485c82; stroke:none;" d="M1568 1914L1569 1915L1568 1914z" />
    <path style="fill:#e4be39; stroke:none;"
        d="M1506 1915L1502 1924L1506 1919L1507 1919L1507 1925L1508 1925C1509.03 1921.06 1508.72 1918.1 1506 1915z" />
    <path style="fill:#485c82; stroke:none;" d="M1509 1915L1509 1918L1510 1918L1509 1915z" />
    <path style="fill:#e4be39; stroke:none;" d="M1566 1915L1567 1916L1566 1915z" />
    <path style="fill:#485c82; stroke:none;" d="M1569 1915L1570 1916L1569 1915z" />
    <path style="fill:#e4be39; stroke:none;" d="M1511 1916L1512 1917L1511 1916z" />
    <path style="fill:#485c82; stroke:none;" d="M1570 1916L1571 1917L1570 1916M1576 1916L1578 1918L1576 1916z" />
    <path style="fill:#af6b23; stroke:none;" d="M1462.33 1917.67L1462.67 1918.33L1462.33 1917.67z" />
    <path style="fill:#e4be39; stroke:none;" d="M1512 1917L1513 1918L1512 1917M1568 1917L1569 1918L1568 1917z" />
    <path style="fill:#485c82; stroke:none;" d="M1571 1917L1572 1918L1571 1917z" />
    <path style="fill:#e4be39; stroke:none;" d="M1513 1918L1514 1919L1513 1918M1570 1918L1571 1919L1570 1918z" />
    <path style="fill:#485c82; stroke:none;" d="M1572 1918L1573 1919L1572 1918M1461 1919L1462 1920L1461 1919z" />
    <path style="fill:#af6b23; stroke:none;" d="M1506 1919L1503 1925L1507 1925L1506 1919z" />
    <path style="fill:#485c82; stroke:none;" d="M1509.33 1919.67L1509.67 1920.33L1509.33 1919.67z" />
    <path style="fill:#e4be39; stroke:none;" d="M1571 1919L1572 1920L1571 1919z" />
    <path style="fill:#485c82; stroke:none;" d="M1573 1919L1574 1920L1573 1919z" />
    <path style="fill:#af6b23; stroke:none;" d="M1461 1920L1462 1921L1461 1920z" />
    <path style="fill:#e4be39; stroke:none;" d="M1572 1920L1573 1921L1572 1920z" />
    <path style="fill:#485c82; stroke:none;" d="M1454 1921L1455 1922L1454 1921M1460 1921L1461 1922L1460 1921z" />
    <path style="fill:#e4be39; stroke:none;" d="M1513 1921L1514 1922L1513 1921z" />
    <path style="fill:#485c82; stroke:none;"
        d="M1539 1924C1534.69 1920.98 1530.69 1922.54 1526 1924C1528.94 1930.11 1536.54 1935.32 1543 1937L1543 1921L1539 1924z" />
    <path style="fill:#e4be39; stroke:none;" d="M1573 1921L1575 1929L1576 1929L1573 1921z" />
    <path style="fill:#af6b23; stroke:none;" d="M1460 1922L1461 1923L1460 1922z" />
    <path style="fill:#485c82; stroke:none;" d="M1514 1923L1514 1924L1518 1922L1514 1923z" />
    <path style="fill:#e4be39; stroke:none;" d="M1565 1925L1569 1923L1565 1925z" />
    <path style="fill:#af6b23; stroke:none;" d="M1459.33 1923.67L1459.67 1924.33L1459.33 1923.67z" />
    <path style="fill:#485c82; stroke:none;" d="M1509 1923L1510 1924L1509 1923z" />
    <path style="fill:#e4be39; stroke:none;" d="M1512 1923L1513 1924L1512 1923M1524 1923L1525 1924L1524 1923z" />
    <path style="fill:#af6b23; stroke:none;"
        d="M1525.33 1923.67L1525.67 1924.33L1525.33 1923.67M1567.67 1923.33L1568.33 1923.67L1567.67 1923.33z" />
    <path style="fill:#485c82; stroke:none;" d="M1458 1925L1459 1926L1458 1925M1576 1925L1577 1926L1576 1925z" />
    <path style="fill:#e4be39; stroke:none;" d="M1527 1926L1528 1927L1527 1926z" />
    <path style="fill:#485c82; stroke:none;" d="M1453 1927L1457 1931L1457 1927L1453 1927z" />
    <path style="fill:#af6b23; stroke:none;" d="M1457 1928L1458 1929L1457 1928M1456 1929L1457 1930L1456 1929z" />
    <path style="fill:#e4be39; stroke:none;" d="M1582 1929L1583 1930L1582 1929z" />
    <path style="fill:#485c82; stroke:none;" d="M1452 1930L1452 1936L1453 1936L1452 1930z" />
    <path style="fill:#e4be39; stroke:none;" d="M1576 1930L1576 1933L1577 1933L1576 1930z" />
    <path style="fill:#d5e3e8; stroke:none;" d="M1583 1930L1583 1931L1587 1931L1583 1930z" />
    <path style="fill:#485c82; stroke:none;" d="M1588 1931L1589 1932L1588 1931z" />
    <path style="fill:#af6b23; stroke:none;" d="M1589 1931L1590 1932L1589 1931z" />
    <path style="fill:#d5e3e8; stroke:none;" d="M1590 1931L1591 1932L1590 1931z" />
    <path style="fill:#e4be39; stroke:none;" d="M1534 1932L1535 1933L1534 1932M1451 1933L1452 1934L1451 1933z" />
    <path style="fill:#af6b23; stroke:none;" d="M1457 1933L1458 1934L1457 1933z" />
    <path style="fill:#e4be39; stroke:none;" d="M1577.33 1933.67L1577.67 1934.33L1577.33 1933.67z" />
    <path style="fill:#d5e3e8; stroke:none;" d="M1451 1934L1452 1935L1451 1934z" />
    <path style="fill:#e4be39; stroke:none;"
        d="M1462 1934C1463.04 1937.55 1465.53 1937.75 1469 1938L1462 1934M1537 1934L1538 1935L1537 1934z" />
    <path style="fill:#485c82; stroke:none;" d="M1578 1934L1579 1935L1578 1934M1595 1934L1596 1935L1595 1934z" />
    <path style="fill:#d5e3e8; stroke:none;"
        d="M1596 1934L1600 1944L1601 1944C1600.85 1939.35 1599.73 1936.84 1596 1934z" />
    <path style="fill:#af6b23; stroke:none;" d="M1451 1935L1452 1936L1451 1935z" />
    <path style="fill:#e4be39; stroke:none;" d="M1542 1935L1543 1936L1542 1935z" />
    <path style="fill:#af6b23; stroke:none;" d="M1578 1935L1579 1936L1578 1935z" />
    <path style="fill:#e4be39; stroke:none;"
        d="M1451 1936L1452 1937L1451 1936M1578.33 1936.67L1578.67 1937.33L1578.33 1936.67z" />
    <path style="fill:#485c82; stroke:none;" d="M1579 1936L1580 1937L1579 1936z" />
    <path style="fill:#af6b23; stroke:none;"
        d="M1576 1938L1576 1939L1578 1940C1572.34 1947.61 1578.29 1950.13 1580.23 1957.09C1581.47 1961.52 1579.63 1966.35 1581 1971L1582 1971L1584 1959C1580.94 1959 1582.46 1956.34 1580.83 1954C1576.09 1947.17 1576.95 1938.16 1588 1937L1576 1938M1451 1937L1451 1940L1452 1940L1451 1937M1542 1937L1543 1938L1542 1937z" />
    <path style="fill:#e4be39; stroke:none;" d="M1553 1939L1556 1937L1553 1939z" />
    <path style="fill:#485c82; stroke:none;" d="M1581 1937L1582 1938L1581 1937z" />
    <path style="fill:#e4be39; stroke:none;"
        d="M1582 1960L1583 1960L1583 1954L1593 1949L1590 1948L1594 1945C1591.5 1934.56 1579.68 1936.26 1576.8 1946C1575.38 1950.83 1581.26 1955.22 1582 1960z" />
    <path style="fill:#af6b23; stroke:none;" d="M1589 1937L1590 1938L1589 1937z" />
    <path style="fill:#485c82; stroke:none;" d="M1590 1937L1591 1938L1590 1937z" />
    <path style="fill:#e4be39; stroke:none;"
        d="M1551.33 1938.67L1551.67 1939.33L1551.33 1938.67M1575 1938L1574 1940L1575 1938z" />
    <path style="fill:#af6b23; stroke:none;" d="M1591 1938L1592 1939L1591 1938z" />
    <path style="fill:#485c82; stroke:none;" d="M1450 1939L1449 1942L1450 1939z" />
    <path style="fill:#af6b23; stroke:none;" d="M1552.67 1939.33L1553.33 1939.67L1552.67 1939.33z" />
    <path style="fill:#485c82; stroke:none;" d="M1575 1939L1574 1941L1575 1939z" />
    <path style="fill:#010101; stroke:none;"
        d="M1576 1939C1569.97 1947.87 1573.91 1952.66 1580 1960L1575.36 1948L1576 1939z" />
    <path style="fill:#485c82; stroke:none;"
        d="M1577 1939L1578 1940L1577 1939M1456 1940L1457 1941L1456 1940M1551 1940L1551 1942L1553 1940L1551 1940z" />
    <path style="fill:#d5e3e8; stroke:none;" d="M1585 1941L1585 1943L1590 1944L1590 1940L1585 1941z" />
    <path style="fill:#af6b23; stroke:none;" d="M1592 1940L1593 1941L1592 1940z" />
    <path style="fill:#e4be39; stroke:none;" d="M1599 1940L1600 1941L1599 1940z" />
    <path style="fill:#af6b23; stroke:none;" d="M1573 1941L1574 1942L1573 1941z" />
    <path style="fill:#485c82; stroke:none;" d="M1576 1941L1577 1942L1576 1941z" />
    <path style="fill:#af6b23; stroke:none;" d="M1593 1941L1594 1942L1593 1941z" />
    <path style="fill:#485c82; stroke:none;" d="M1573 1942L1574 1943L1573 1942z" />
    <path style="fill:#e4be39; stroke:none;" d="M1572 1943L1573 1944L1572 1943z" />
    <path style="fill:#485c82; stroke:none;"
        d="M1575.33 1943.67L1575.67 1944.33L1575.33 1943.67M1594 1943L1595 1944L1594 1943M1454 1944L1453 1946L1454 1944z" />
    <path style="fill:#e4be39; stroke:none;" d="M1455 1944L1455 1948L1456 1948L1455 1944z" />
    <path style="fill:#485c82; stroke:none;" d="M1572.33 1944.67L1572.67 1945.33L1572.33 1944.67z" />
    <path style="fill:#d5e3e8; stroke:none;" d="M1592 1944C1590.66 1946.63 1590.44 1947.4 1593 1949L1592 1944z" />
    <path style="fill:#af6b23; stroke:none;" d="M1594.33 1944.67L1594.67 1945.33L1594.33 1944.67z" />
    <path style="fill:#e4be39; stroke:none;"
        d="M1551 1945L1552 1956L1555 1956L1558 1952L1552 1949L1554 1945L1551 1945z" />
    <path style="fill:#485c82; stroke:none;" d="M1600 1945L1601 1946L1600 1945M1445 1946L1446 1947L1445 1946z" />
    <path style="fill:#e4be39; stroke:none;" d="M1452 1946L1453 1947L1452 1946z" />
    <path style="fill:#af6b23; stroke:none;"
        d="M1453 1946L1452 1949L1455 1947L1453 1946M1554 1946L1552 1949L1560 1951L1560 1950L1556 1950L1554 1946z" />
    <path style="fill:#e4be39; stroke:none;"
        d="M1555 1946L1556 1947L1555 1946M1593.33 1946.67L1593.67 1947.33L1593.33 1946.67z" />
    <path style="fill:#485c82; stroke:none;" d="M1594 1946L1595 1947L1594 1946z" />
    <path style="fill:#af6b23; stroke:none;" d="M1600 1946L1601 1947L1600 1946z" />
    <path style="fill:#485c82; stroke:none;"
        d="M1451 1947L1452 1948L1451 1947M1556 1947C1556.73 1950.4 1558.81 1949.99 1562 1950L1562 1949L1556 1947z" />
    <path style="fill:#d5e3e8; stroke:none;" d="M1600 1947L1601 1948L1600 1947z" />
    <path style="fill:#e4be39; stroke:none;"
        d="M1451 1948L1452 1952L1452 1953C1448.91 1955.26 1452.22 1961.47 1455 1963L1453 1951L1456 1955C1456.75 1951.3 1454.04 1949.63 1451 1948z" />
    <path style="fill:#485c82; stroke:none;"
        d="M1454 1948L1454 1949L1454 1950L1456 1952L1457 1952L1458 1950L1454 1948z" />
    <path style="fill:#d5e3e8; stroke:none;" d="M1586.67 1948.33L1587.33 1948.67L1586.67 1948.33z" />
    <path style="fill:#af6b23; stroke:none;" d="M1593 1948L1594 1949L1593 1948z" />
    <path style="fill:#010101; stroke:none;" d="M1455 1949L1457 1951L1455 1949z" />
    <path style="fill:#485c82; stroke:none;" d="M1599 1949L1600 1950L1599 1949z" />
    <path style="fill:#af6b23; stroke:none;" d="M1443 1950L1444 1951L1443 1950z" />
    <path style="fill:#d5e3e8; stroke:none;"
        d="M1449 1950C1446.99 1956.82 1448.92 1963.48 1456 1966C1456.2 1959.97 1458.16 1955.55 1453 1951L1455 1963C1452.41 1960.48 1450.2 1956.43 1452 1953L1452 1952L1449 1950z" />
    <path style="fill:#af6b23; stroke:none;" d="M1455 1950L1456 1951L1455 1950z" />
    <path style="fill:#e4be39; stroke:none;" d="M1560.67 1950.33L1561.33 1950.67L1560.67 1950.33z" />
    <path style="fill:#485c82; stroke:none;"
        d="M1572 1950L1574 1955L1575 1955L1572 1950M1575 1950L1576 1951L1575 1950z" />
    <path style="fill:#010101; stroke:none;" d="M1457.33 1951.67L1457.67 1952.33L1457.33 1951.67z" />
    <path style="fill:#485c82; stroke:none;" d="M1598 1951L1599 1952L1598 1951z" />
    <path style="fill:#af6b23; stroke:none;" d="M1572 1952L1573 1953L1572 1952z" />
    <path style="fill:#485c82; stroke:none;" d="M1447.33 1953.67L1447.67 1954.33L1447.33 1953.67z" />
    <path style="fill:#af6b23; stroke:none;"
        d="M1457 1953L1457 1956L1458 1956L1457 1953M1587 1953L1588 1954L1587 1953z" />
    <path style="fill:#e4be39; stroke:none;" d="M1558 1954L1557 1956L1558 1954z" />
    <path style="fill:#485c82; stroke:none;" d="M1579 1954L1580 1955L1579 1954z" />
    <path style="fill:#af6b23; stroke:none;" d="M1583.33 1954.67L1583.67 1955.33L1583.33 1954.67z" />
    <path style="fill:#485c82; stroke:none;" d="M1584 1954L1585 1955L1584 1954z" />
    <path style="fill:#af6b23; stroke:none;" d="M1447.33 1955.67L1447.67 1956.33L1447.33 1955.67z" />
    <path style="fill:#485c82; stroke:none;"
        d="M1575.67 1955.33L1576.33 1955.67L1575.67 1955.33M1580 1955L1581 1956L1580 1955z" />
    <path style="fill:#e4be39; stroke:none;" d="M1457 1956L1456 1964L1457 1964L1457 1956z" />
    <path style="fill:#af6b23; stroke:none;" d="M1552.67 1956.33L1553.33 1956.67L1552.67 1956.33z" />
    <path style="fill:#485c82; stroke:none;"
        d="M1577 1956L1578 1957L1577 1956M1583 1956L1584 1957L1583 1956M1447 1957L1448 1958L1447 1957z" />
    <path style="fill:#e4be39; stroke:none;" d="M1552 1957L1553 1958L1552 1957z" />
    <path style="fill:#485c82; stroke:none;"
        d="M1578 1957L1578 1972L1579 1972C1580.44 1967.13 1580.67 1961.46 1578 1957z" />
    <path style="fill:#af6b23; stroke:none;" d="M1583 1957L1584 1958L1583 1957z" />
    <path style="fill:#485c82; stroke:none;"
        d="M1592 1957L1593 1958L1592 1957M1474.33 1958.67L1474.67 1959.33L1474.33 1958.67M1590 1958L1591 1959L1590 1958z" />
    <path style="fill:#d5e3e8; stroke:none;" d="M1591 1958L1592 1959L1591 1958z" />
    <path style="fill:#e4be39; stroke:none;" d="M1448 1959L1449 1960L1448 1959z" />
    <path style="fill:#485c82; stroke:none;" d="M1580 1959L1581 1960L1580 1959z" />
    <path style="fill:#d5e3e8; stroke:none;" d="M1589 1959L1588 1973L1589 1973L1591 1959L1589 1959z" />
    <path style="fill:#485c82; stroke:none;"
        d="M1468 1960C1470.04 1963.08 1472.56 1964.14 1475 1961L1468 1960M1548 1960L1548 1963L1550 1960L1548 1960z" />
    <path style="fill:#e4be39; stroke:none;"
        d="M1578 1960L1578 1964L1579 1964L1578 1960M1581 1960L1581 1968L1582 1968L1581 1960z" />
    <path style="fill:#485c82; stroke:none;" d="M1449 1961L1450 1962L1449 1961M1450 1962L1451 1963L1450 1962z" />
    <path style="fill:#af6b23; stroke:none;" d="M1457 1963L1458 1964L1457 1963z" />
    <path style="fill:#485c82; stroke:none;" d="M1458 1963L1454 1966L1457 1970L1458 1963z" />
    <path style="fill:#af6b23; stroke:none;" d="M1455 1964L1456 1965L1455 1964z" />
    <path style="fill:#485c82; stroke:none;" d="M1456 1964L1457 1965L1456 1964z" />
    <path style="fill:#010101; stroke:none;" d="M1457 1964L1456 1966L1458 1966L1457 1964z" />
    <path style="fill:#af6b23; stroke:none;"
        d="M1578 1964L1578 1970L1579 1970L1578 1964M1453 1965L1454 1966L1453 1965z" />
    <path style="fill:#485c82; stroke:none;" d="M1477 1965L1476 1967L1478 1967L1477 1965z" />
    <path style="fill:#e4be39; stroke:none;" d="M1455 1966L1456 1967L1455 1966z" />
    <path style="fill:#010101; stroke:none;" d="M1456 1967L1457 1968L1456 1967z" />
    <path style="fill:#485c82; stroke:none;" d="M1448 1968L1449 1969L1448 1968z" />
    <path style="fill:#d5e3e8; stroke:none;" d="M1449 1969L1450 1970L1449 1969z" />
    <path style="fill:#010101; stroke:none;" d="M1457.33 1969.67L1457.67 1970.33L1457.33 1969.67z" />
    <path style="fill:#485c82; stroke:none;"
        d="M1547 1969L1541 1979C1547.16 1979.88 1549.15 1974.13 1547 1969M1588 1969L1589 1970L1588 1969M1449 1970L1450 1971L1449 1970z" />
    <path style="fill:#af6b23; stroke:none;" d="M1456 1970L1457 1975L1458 1975L1456 1970z" />
    <path style="fill:#e4be39; stroke:none;"
        d="M1580 1970L1576 1973L1574 1980L1564 1994L1565 1994L1569 1990L1569 1986C1573.38 1983.65 1582.43 1975.17 1580 1970z" />
    <path style="fill:#485c82; stroke:none;"
        d="M1582 1970L1583 1971L1582 1970M1450.33 1971.67L1450.67 1972.33L1450.33 1971.67M1456 1971L1457 1972L1456 1971z" />
    <path style="fill:#e4be39; stroke:none;"
        d="M1548 1971L1549 1972L1548 1971M1574 1971L1572 1972L1572 1973L1574 1971z" />
    <path style="fill:#af6b23; stroke:none;" d="M1579 1971L1580 1972L1579 1971z" />
    <path style="fill:#485c82; stroke:none;" d="M1458.33 1972.67L1458.67 1973.33L1458.33 1972.67z" />
    <path style="fill:#af6b23; stroke:none;"
        d="M1544 1972L1545 1973L1544 1972M1548 1972L1549 1973L1548 1972M1577 1972L1577 1974L1579 1972L1577 1972M1581 1972L1582 1973L1581 1972z" />
    <path style="fill:#e4be39; stroke:none;" d="M1548 1973L1549 1974L1548 1973z" />
    <path style="fill:#d5e3e8; stroke:none;" d="M1587 1973L1588 1974L1587 1973z" />
    <path style="fill:#e4be39; stroke:none;" d="M1458.33 1974.67L1458.67 1975.33L1458.33 1974.67z" />
    <path style="fill:#af6b23; stroke:none;"
        d="M1548 1974C1546.32 1977.46 1544.4 1979.74 1541 1977L1540 1977L1533 1987C1537.62 1986.72 1542.36 1986.99 1544 1982L1549 1983L1548 1974z" />
    <path style="fill:#485c82; stroke:none;" d="M1457 1975L1458 1976L1457 1975z" />
    <path style="fill:#d5e3e8; stroke:none;" d="M1586 1975L1587 1976L1586 1975z" />
    <path style="fill:#af6b23; stroke:none;" d="M1458.33 1976.67L1458.67 1977.33L1458.33 1976.67z" />
    <path style="fill:#485c82; stroke:none;"
        d="M1481 1976L1483 1990L1484 1990C1486.18 1984.17 1487.2 1979.5 1481 1976z" />
    <path style="fill:#af6b23; stroke:none;" d="M1541 1976L1542 1977L1541 1976z" />
    <path style="fill:#485c82; stroke:none;" d="M1578 1976L1579 1977L1578 1976M1585 1976L1586 1977L1585 1976z" />
    <path style="fill:#e4be39; stroke:none;" d="M1459 1977L1459 1980L1460 1980L1459 1977z" />
    <path style="fill:#af6b23; stroke:none;" d="M1577 1977L1578 1978L1577 1977z" />
    <path style="fill:#485c82; stroke:none;" d="M1458 1978L1459 1979L1458 1978M1576 1978L1577 1979L1576 1978z" />
    <path style="fill:#af6b23; stroke:none;" d="M1573 1979L1574 1980L1573 1979z" />
    <path style="fill:#d5e3e8; stroke:none;" d="M1583 1979L1579 1985L1583 1979z" />
    <path style="fill:#af6b23; stroke:none;" d="M1459 1980L1460 1981L1459 1980M1484 1980L1485 1981L1484 1980z" />
    <path style="fill:#485c82; stroke:none;" d="M1459 1981L1460 1982L1459 1981z" />
    <path style="fill:#e4be39; stroke:none;" d="M1460 1981L1461 1982L1460 1981z" />
    <path style="fill:#485c82; stroke:none;" d="M1463 1981L1463 1982L1467 1983L1463 1981z" />
    <path style="fill:#e4be39; stroke:none;" d="M1467 1981L1468 1982L1467 1981z" />
    <path style="fill:#af6b23; stroke:none;"
        d="M1460 1982L1461 1983L1460 1982M1486 1982L1486 1985L1487 1985L1486 1982z" />
    <path style="fill:#485c82; stroke:none;"
        d="M1544 1982L1543 1986L1549 1983L1544 1982M1580 1982L1581 1983L1580 1982M1460 1983L1462 1985L1460 1983z" />
    <path style="fill:#e4be39; stroke:none;" d="M1461 1983L1462 1984L1461 1983M1535 1983L1536 1984L1535 1983z" />
    <path style="fill:#485c82; stroke:none;" d="M1572 1983L1573 1984L1572 1983M1579 1983L1580 1984L1579 1983z" />
    <path style="fill:#e4be39; stroke:none;" d="M1469 1984L1470 1985L1469 1984z" />
    <path style="fill:#485c82; stroke:none;" d="M1491 1984L1492 1985L1491 1984M1542 1984L1543 1985L1542 1984z" />
    <path style="fill:#e4be39; stroke:none;" d="M1549 1984L1550 1985L1549 1984z" />
    <path style="fill:#af6b23; stroke:none;" d="M1462 1985L1463 1986L1462 1985z" />
    <path style="fill:#e4be39; stroke:none;" d="M1533 1985L1534 1986L1533 1985z" />
    <path style="fill:#485c82; stroke:none;" d="M1535 1985L1536 1986L1535 1985z" />
    <path style="fill:#af6b23; stroke:none;" d="M1547.67 1985.33L1548.33 1985.67L1547.67 1985.33z" />
    <path style="fill:#e4be39; stroke:none;" d="M1578 1985L1579 1986L1578 1985z" />
    <path style="fill:#485c82; stroke:none;" d="M1462 1986L1463 1987L1462 1986z" />
    <path style="fill:#e4be39; stroke:none;"
        d="M1463 1986L1464 1987L1463 1986M1532 1986L1533 1987L1532 1986M1536 1986L1537 1987L1536 1986M1539.67 1986.33L1540.33 1986.67L1539.67 1986.33z" />
    <path style="fill:#af6b23; stroke:none;" d="M1569 1986L1570 1987L1569 1986z" />
    <path style="fill:#485c82; stroke:none;" d="M1570 1986L1571 1987L1570 1986z" />
    <path style="fill:#af6b23; stroke:none;" d="M1577 1986L1578 1987L1577 1986M1463 1987L1464 1988L1463 1987z" />
    <path style="fill:#485c82; stroke:none;" d="M1576.67 1987.33L1577.33 1987.67L1576.67 1987.33z" />
    <path style="fill:#af6b23; stroke:none;"
        d="M1464 1988L1465 1989L1464 1988M1524 1988L1524 1991L1525 1991L1526 1988L1524 1988M1568.67 1988.33L1569.33 1988.67L1568.67 1988.33M1576 1988L1577 1989L1576 1988z" />
    <path style="fill:#485c82; stroke:none;" d="M1464 1989L1466 1991L1464 1989z" />
    <path style="fill:#e4be39; stroke:none;"
        d="M1465 1989L1466 1990L1465 1989M1496 1989L1497 1990L1496 1989M1512.67 1989.33L1513.33 1989.67L1512.67 1989.33M1519 1989L1521 1992L1521 1989L1519 1989z" />
    <path style="fill:#af6b23; stroke:none;" d="M1521 1989L1523 1992L1521 1989z" />
    <path style="fill:#485c82; stroke:none;" d="M1522 1991L1525 1989L1522 1991z" />
    <path style="fill:#af6b23; stroke:none;" d="M1567 1989L1565 1994L1566 1994L1567 1989z" />
    <path style="fill:#485c82; stroke:none;" d="M1575 1989L1576 1990L1575 1989z" />
    <path style="fill:#e4be39; stroke:none;" d="M1466 1990L1467 1991L1466 1990z" />
    <path style="fill:#485c82; stroke:none;" d="M1502.67 1990.33L1503.33 1990.67L1502.67 1990.33z" />
    <path style="fill:#e4be39; stroke:none;" d="M1510 1990L1511 1991L1510 1990z" />
    <path style="fill:#af6b23; stroke:none;" d="M1511 1990L1512 1991L1511 1990z" />
    <path style="fill:#485c82; stroke:none;" d="M1512.67 1990.33L1513.33 1990.67L1512.67 1990.33z" />
    <path style="fill:#e4be39; stroke:none;" d="M1539 1990L1540 1991L1539 1990z" />
    <path style="fill:#af6b23; stroke:none;" d="M1466 1991L1467 1992L1466 1991z" />
    <path style="fill:#485c82; stroke:none;" d="M1574 1991L1575 1992L1574 1991z" />
    <path style="fill:#af6b23; stroke:none;" d="M1459 1992L1460 1993L1459 1992M1467 1992L1468 1993L1467 1992z" />
    <path style="fill:#e4be39; stroke:none;" d="M1522 1992L1523 1993L1522 1992z" />
    <path style="fill:#485c82; stroke:none;" d="M1566 1992L1567 1993L1566 1992z" />
    <path style="fill:#e4be39; stroke:none;" d="M1468 1993L1470 1995L1468 1993z" />
    <path style="fill:#485c82; stroke:none;"
        d="M1496 1993L1497 2009L1507 1993L1502 1993L1502 1998L1501 1998L1496 1993z" />
    <path style="fill:#e4be39; stroke:none;" d="M1511 1993L1512 1994L1511 1993z" />
    <path style="fill:#485c82; stroke:none;" d="M1512 1993L1516 1999L1515 1993L1512 1993z" />
    <path style="fill:#e4be39; stroke:none;" d="M1526 1993L1530 1996L1530 1995L1526 1993z" />
    <path style="fill:#485c82; stroke:none;"
        d="M1573 1993L1574 1994L1573 1993M1460 1994L1462 1996L1460 1994M1468 1994L1469 1995L1468 1994z" />
    <path style="fill:#af6b23; stroke:none;"
        d="M1497 1994L1498 1995L1497 1994M1512.33 1994.67L1512.67 1995.33L1512.33 1994.67z" />
    <path style="fill:#e4be39; stroke:none;" d="M1562 1994L1561 1998L1562 1998L1562 1994z" />
    <path style="fill:#af6b23; stroke:none;"
        d="M1561 1997L1565 1994L1561 1997M1572.33 1994.67L1572.67 1995.33L1572.33 1994.67M1469 1995L1470 1996L1469 1995z" />
    <path style="fill:#e4be39; stroke:none;" d="M1496 1995L1497 1996L1496 1995M1571 1995L1572 1996L1571 1995z" />
    <path style="fill:#af6b23; stroke:none;" d="M1470 1996L1471 1997L1470 1996z" />
    <path style="fill:#e4be39; stroke:none;" d="M1515 1996L1516 1997L1515 1996z" />
    <path style="fill:#485c82; stroke:none;" d="M1570 1996L1569 2000L1570 1996z" />
    <path style="fill:#d5e3e8; stroke:none;" d="M1571 1996L1572 1997L1571 1996z" />
    <path style="fill:#e4be39; stroke:none;" d="M1471 1997L1472 1998L1471 1997M1531 1997L1532 1998L1531 1997z" />
    <path style="fill:#af6b23; stroke:none;" d="M1551 2006L1552 2006L1553 2003L1561 1997L1551 2006z" />
    <path style="fill:#d5e3e8; stroke:none;" d="M1570 1997L1571 1998L1570 1997z" />
    <path style="fill:#485c82; stroke:none;" d="M1463 1998L1464 1999L1463 1998M1472 1998L1473 1999L1472 1998z" />
    <path style="fill:#e4be39; stroke:none;" d="M1489 1998L1490 1999L1489 1998M1557 1998L1558 1999L1557 1998z" />
    <path style="fill:#d5e3e8; stroke:none;" d="M1569 1998L1570 1999L1569 1998z" />
    <path style="fill:#485c82; stroke:none;" d="M1473 1999L1474 2000L1473 1999z" />
    <path style="fill:#e4be39; stroke:none;"
        d="M1474 1999L1475 2000L1474 1999M1556 1999L1557 2000L1556 1999M1568 1999L1569 2000L1568 1999z" />
    <path style="fill:#485c82; stroke:none;" d="M1465 2000L1466 2001L1465 2000z" />
    <path style="fill:#af6b23; stroke:none;" d="M1475 2000L1476 2001L1475 2000z" />
    <path style="fill:#e4be39; stroke:none;"
        d="M1543 2000L1544 2003L1545 2003L1543 2000M1554 2000L1555 2001L1554 2000M1557 2000L1558 2001L1557 2000z" />
    <path style="fill:#485c82; stroke:none;" d="M1558 2000L1559 2001L1558 2000z" />
    <path style="fill:#e4be39; stroke:none;" d="M1567 2000L1568 2001L1567 2000z" />
    <path style="fill:#d5e3e8; stroke:none;" d="M1467 2001L1468 2002L1467 2001z" />
    <path style="fill:#485c82; stroke:none;" d="M1476 2001L1477 2002L1476 2001z" />
    <path style="fill:#e4be39; stroke:none;" d="M1477 2001L1478 2002L1477 2001z" />
    <path style="fill:#485c82; stroke:none;" d="M1557 2001L1558 2002L1557 2001z" />
    <path style="fill:#af6b23; stroke:none;" d="M1566 2001L1567 2002L1566 2001M1468 2002L1469 2003L1468 2002z" />
    <path style="fill:#485c82; stroke:none;" d="M1469 2002L1472 2006L1469 2002z" />
    <path style="fill:#e4be39; stroke:none;"
        d="M1479 2002L1480 2003L1479 2002M1552 2002L1553 2003L1552 2002M1554 2002L1555 2003L1554 2002z" />
    <path style="fill:#485c82; stroke:none;" d="M1565 2002L1566 2003L1565 2002z" />
    <path style="fill:#d5e3e8; stroke:none;" d="M1470 2003L1471 2004L1470 2003z" />
    <path style="fill:#485c82; stroke:none;" d="M1481 2003L1482 2004L1481 2003z" />
    <path style="fill:#e4be39; stroke:none;"
        d="M1551 2003L1532 2011L1532 2012C1537.83 2011.95 1551.17 2011 1551 2003M1553 2003L1554 2004L1553 2003z" />
    <path style="fill:#485c82; stroke:none;" d="M1564 2003L1565 2004L1564 2003z" />
    <path style="fill:#d5e3e8; stroke:none;" d="M1471 2004L1472 2005L1471 2004z" />
    <path style="fill:#e4be39; stroke:none;" d="M1484 2004L1485 2005L1484 2004z" />
    <path style="fill:#485c82; stroke:none;" d="M1562 2004L1563 2005L1562 2004z" />
    <path style="fill:#d5e3e8; stroke:none;" d="M1472 2005L1472 2006L1480 2009L1480 2008L1472 2005z" />
    <path style="fill:#e4be39; stroke:none;" d="M1486 2005L1487 2006L1486 2005M1561 2005L1562 2006L1561 2005z" />
    <path style="fill:#485c82; stroke:none;" d="M1473 2006L1474 2007L1473 2006M1487 2006L1488 2007L1487 2006z" />
    <path style="fill:#e4be39; stroke:none;" d="M1488 2006L1489 2007L1488 2006z" />
    <path style="fill:#af6b23; stroke:none;" d="M1515 2006L1515 2007L1520 2007L1515 2006z" />
    <path style="fill:#485c82; stroke:none;" d="M1520 2006L1521 2007L1520 2006z" />
    <path style="fill:#e4be39; stroke:none;" d="M1521 2006L1522 2007L1521 2006z" />
    <path style="fill:#485c82; stroke:none;" d="M1550 2006L1551 2007L1550 2006z" />
    <path style="fill:#af6b23; stroke:none;" d="M1560 2006L1561 2007L1560 2006z" />
    <path style="fill:#485c82; stroke:none;" d="M1474 2007L1475 2008L1474 2007z" />
    <path style="fill:#af6b23; stroke:none;" d="M1489 2007L1490 2008L1489 2007z" />
    <path style="fill:#485c82; stroke:none;" d="M1511 2012L1515 2007L1511 2012z" />
    <path style="fill:#010101; stroke:none;" d="M1515 2007L1515 2008L1522 2008L1515 2007z" />
    <path style="fill:#485c82; stroke:none;"
        d="M1522 2007L1523 2009L1524 2009L1525 2007L1522 2007M1549 2007L1550 2008L1549 2007M1558 2007L1559 2008L1558 2007z" />
    <path style="fill:#af6b23; stroke:none;" d="M1559 2007L1560 2008L1559 2007z" />
    <path style="fill:#485c82; stroke:none;" d="M1477 2008L1478 2009L1477 2008M1480 2008L1479 2010L1480 2008z" />
    <path style="fill:#af6b23; stroke:none;" d="M1491 2008L1492 2009L1491 2008z" />
    <path style="fill:#e4be39; stroke:none;" d="M1511 2008L1512 2009L1511 2008z" />
    <path style="fill:#010101; stroke:none;" d="M1513 2008L1512 2010L1513 2008z" />
    <path style="fill:#af6b23; stroke:none;"
        d="M1512 2012C1519.2 2008.3 1523.24 2011.07 1529 2016L1534 2013L1534 2012L1529 2009C1522.42 2009.06 1516.84 2006.18 1512 2012z" />
    <path style="fill:#010101; stroke:none;" d="M1524.67 2008.33L1525.33 2008.67L1524.67 2008.33z" />
    <path style="fill:#485c82; stroke:none;" d="M1526 2008L1526 2010L1528 2010L1526 2008z" />
    <path style="fill:#e4be39; stroke:none;" d="M1527 2008L1528 2009L1527 2008z" />
    <path style="fill:#d5e3e8; stroke:none;"
        d="M1557 2008L1541 2017L1541 2018C1547.29 2017.5 1555.22 2014.85 1557 2008z" />
    <path style="fill:#af6b23; stroke:none;" d="M1558 2008L1559 2009L1558 2008z" />
    <path style="fill:#e4be39; stroke:none;" d="M1480 2009L1481 2010L1480 2009z" />
    <path style="fill:#d5e3e8; stroke:none;" d="M1481 2009L1481 2010L1486 2012L1486 2011L1481 2009z" />
    <path style="fill:#485c82; stroke:none;" d="M1493 2009L1494 2010L1493 2009z" />
    <path style="fill:#e4be39; stroke:none;"
        d="M1513 2012L1522 2018L1526 2016L1524 2020C1531.54 2021.6 1522.36 2002.33 1513 2012z" />
    <path style="fill:#af6b23; stroke:none;" d="M1546 2009L1547 2010L1546 2009z" />
    <path style="fill:#485c82; stroke:none;" d="M1555 2009L1556 2010L1555 2009z" />
    <path style="fill:#af6b23; stroke:none;" d="M1557 2009L1558 2010L1557 2009M1482 2010L1483 2011L1482 2010z" />
    <path style="fill:#485c82; stroke:none;" d="M1484 2010L1485 2011L1484 2010z" />
    <path style="fill:#e4be39; stroke:none;"
        d="M1496 2010L1497 2011L1496 2010M1500 2011L1500 2012L1506 2012L1500 2011M1507 2010L1508 2011L1507 2010z" />
    <path style="fill:#af6b23; stroke:none;" d="M1508 2010L1506 2013L1508 2010z" />
    <path style="fill:#485c82; stroke:none;" d="M1509 2010L1508 2012L1510 2012L1509 2010z" />
    <path style="fill:#010101; stroke:none;" d="M1510 2010L1510 2012L1512 2010L1510 2010z" />
    <path style="fill:#e4be39; stroke:none;" d="M1529.33 2010.67L1529.67 2011.33L1529.33 2010.67z" />
    <path style="fill:#af6b23; stroke:none;" d="M1543 2010L1544 2011L1543 2010z" />
    <path style="fill:#485c82; stroke:none;"
        d="M1544 2010L1545 2011L1544 2010M1556 2010L1557 2011L1556 2010M1483 2011L1484 2012L1483 2011z" />
    <path style="fill:#af6b23; stroke:none;"
        d="M1499 2011L1500 2012L1499 2011M1539 2011L1539 2012L1542 2012L1539 2011z" />
    <path style="fill:#e4be39; stroke:none;" d="M1554 2011L1555 2012L1554 2011z" />
    <path style="fill:#d5e3e8; stroke:none;" d="M1486 2012L1487 2013L1486 2012z" />
    <path style="fill:#485c82; stroke:none;" d="M1487 2012L1488 2013L1487 2012z" />
    <path style="fill:#d5e3e8; stroke:none;"
        d="M1509 2012L1509 2013C1513 2015.86 1524.27 2025.85 1526 2016L1522 2018L1516 2012L1509 2012z" />
    <path style="fill:#485c82; stroke:none;" d="M1534 2012L1535 2013L1534 2012z" />
    <path style="fill:#e4be39; stroke:none;" d="M1553 2012L1554 2013L1553 2012z" />
    <path style="fill:#d5e3e8; stroke:none;" d="M1488 2013L1489 2014L1488 2013z" />
    <path style="fill:#485c82; stroke:none;" d="M1489 2013L1490 2014L1489 2013z" />
    <path style="fill:#e4be39; stroke:none;" d="M1510 2013L1511 2014L1510 2013z" />
    <path style="fill:#485c82; stroke:none;"
        d="M1550 2013L1551 2014L1550 2013M1553 2013L1554 2014L1553 2013M1490 2014L1491 2015L1490 2014z" />
    <path style="fill:#d5e3e8; stroke:none;" d="M1491 2014L1492 2015L1491 2014z" />
    <path style="fill:#485c82; stroke:none;" d="M1492 2014L1492 2016L1494 2016L1492 2014z" />
    <path style="fill:#af6b23; stroke:none;" d="M1511 2014L1512 2015L1511 2014z" />
    <path style="fill:#485c82; stroke:none;" d="M1552 2014L1553 2015L1552 2014z" />
    <path style="fill:#d5e3e8; stroke:none;" d="M1494 2015L1495 2016L1494 2015z" />
    <path style="fill:#e4be39; stroke:none;" d="M1512 2015L1513 2016L1512 2015z" />
    <path style="fill:#485c82; stroke:none;"
        d="M1551 2015L1552 2016L1551 2015M1496 2016L1497 2017L1496 2016M1550 2016L1551 2017L1550 2016M1501 2017L1502 2018L1501 2017z" />
    <path style="fill:#af6b23; stroke:none;" d="M1502 2017L1503 2018L1502 2017z" />
    <path style="fill:#d5e3e8; stroke:none;" d="M1503 2017L1504 2018L1503 2017z" />
    <path style="fill:#485c82; stroke:none;" d="M1504 2017L1507 2019L1504 2017z" />
    <path style="fill:#af6b23; stroke:none;" d="M1514 2017L1515 2018L1514 2017z" />
    <path style="fill:#e4be39; stroke:none;" d="M1545 2017L1545 2018L1548 2018L1545 2017z" />
    <path style="fill:#af6b23; stroke:none;" d="M1548 2017L1549 2018L1548 2017z" />
    <path style="fill:#d5e3e8; stroke:none;" d="M1507 2018L1508 2019L1507 2018z" />
    <path style="fill:#485c82; stroke:none;"
        d="M1515 2018L1516 2019L1515 2018M1536 2018L1536 2020L1538 2018L1536 2018z" />
    <path style="fill:#e4be39; stroke:none;" d="M1538 2018L1538 2019L1541 2019L1538 2018z" />
    <path style="fill:#af6b23; stroke:none;" d="M1541 2018L1542 2019L1541 2018z" />
    <path style="fill:#485c82; stroke:none;"
        d="M1542.67 2018.33L1543.33 2018.67L1542.67 2018.33M1508 2019L1509 2020L1508 2019M1517 2019L1518 2020L1517 2019z" />
    <path style="fill:#af6b23; stroke:none;" d="M1528 2019L1529 2020L1528 2019z" />
    <path style="fill:#485c82; stroke:none;" d="M1533 2019L1531 2022L1533 2019z" />
    <path style="fill:#af6b23; stroke:none;"
        d="M1534.67 2019.33L1535.33 2019.67L1534.67 2019.33M1519 2020L1520 2021L1519 2020z" />
    <path style="fill:#e4be39; stroke:none;" d="M1520 2020L1520 2021L1523 2021L1520 2020z" />
    <path style="fill:#af6b23; stroke:none;" d="M1527 2020L1528 2021L1527 2020z" />
    <path style="fill:#485c82; stroke:none;" d="M1521.67 2021.33L1522.33 2021.67L1521.67 2021.33z" />
    <path style="fill:#af6b23; stroke:none;" d="M1523.67 2021.33L1524.33 2021.67L1523.67 2021.33z" />
    <path style="fill:#485c82; stroke:none;"
        d="M1525 2021L1526 2022L1525 2021M1514 2022L1515 2023L1514 2022M1518 2023L1519 2024L1518 2023z" />
</svg>
