<svg width="20" height="20" viewBox="0 0 20 20" fill="none" xmlns="http://www.w3.org/2000/svg">
<path d="M14.1426 10.2083V13.9583C14.1426 17.0833 12.8926 18.3333 9.76758 18.3333H6.01758C2.89258 18.3333 1.64258 17.0833 1.64258 13.9583V10.2083C1.64258 7.08325 2.89258 5.83325 6.01758 5.83325H9.76758C12.8926 5.83325 14.1426 7.08325 14.1426 10.2083Z" stroke="white" stroke-linecap="round" stroke-linejoin="round"/>
<path d="M18.3092 4.87508V7.62508C18.3092 9.91675 17.3926 10.8334 15.1009 10.8334H14.1426V10.2084C14.1426 7.08341 12.8926 5.83341 9.76758 5.83341H9.14258V4.87508C9.14258 2.58341 10.0592 1.66675 12.3509 1.66675H15.1009C17.3926 1.66675 18.3092 2.58341 18.3092 4.87508Z" stroke="white" stroke-linecap="round" stroke-linejoin="round"/>
</svg>
