<svg width="24" height="24" viewBox="0 0 24 24" fill="none" xmlns="http://www.w3.org/2000/svg">
<path fill-rule="evenodd" clip-rule="evenodd" d="M8.81078 4H6.38059C5.06471 4 4 5.07396 4 6.39641V8.8477C4 10.1696 5.06494 11.2441 6.38059 11.2441H8.81078C10.1264 11.2441 11.1914 10.1696 11.1914 8.8477V6.39641C11.1914 5.07396 10.1267 4 8.81078 4ZM6.38072 5.11628H8.81091C9.50812 5.11628 10.0752 5.68831 10.0752 6.39641V8.8477C10.0752 9.55534 9.50782 10.1278 8.81091 10.1278H6.38072C5.68381 10.1278 5.11641 9.55534 5.11641 8.8477V6.39641C5.11641 5.68831 5.68351 5.11628 6.38072 5.11628ZM17.6201 4H15.1892C13.8733 4 12.8086 5.07396 12.8086 6.39641V8.8477C12.8086 10.1696 13.8735 11.2441 15.1892 11.2441H17.6201C18.9352 11.2441 20 10.1695 20 8.8477V6.39641C20 5.07411 18.9354 4 17.6201 4ZM15.1893 5.11628H17.6203C18.3168 5.11628 18.8838 5.68839 18.8838 6.39641V8.8477C18.8838 9.55526 18.3165 10.1278 17.6203 10.1278H15.1893C14.4924 10.1278 13.925 9.55534 13.925 8.8477V6.39641C13.925 5.68831 14.4921 5.11628 15.1893 5.11628ZM6.38059 12.7559H8.81078C10.1268 12.7559 11.1914 13.83 11.1914 15.1531V17.6036C11.1914 18.926 10.1267 20 8.81078 20H6.38059C5.06471 20 4 18.926 4 17.6036V15.1531C4 13.83 5.06456 12.7559 6.38059 12.7559ZM8.81091 13.8722H6.38072C5.68343 13.8722 5.11641 14.4443 5.11641 15.1531V17.6036C5.11641 18.3117 5.68351 18.8837 6.38072 18.8837H8.81091C9.50812 18.8837 10.0752 18.3117 10.0752 17.6036V15.1531C10.0752 14.4443 9.5082 13.8722 8.81091 13.8722ZM17.6201 12.7559H15.1892C13.8732 12.7559 12.8086 13.83 12.8086 15.1531V17.6036C12.8086 18.926 13.8733 20 15.1892 20H17.6201C18.9354 20 20 18.9259 20 17.6036V15.1531C20 13.8301 18.9356 12.7559 17.6201 12.7559ZM15.1893 13.8722H17.6203C18.3169 13.8722 18.8838 14.4444 18.8838 15.1531V17.6036C18.8838 18.3116 18.3168 18.8837 17.6203 18.8837H15.1893C14.4921 18.8837 13.925 18.3117 13.925 17.6036V15.1531C13.925 14.4443 14.492 13.8722 15.1893 13.8722Z" fill="white"/>
</svg>
