<svg width="25" height="24" viewBox="0 0 25 24" fill="none" xmlns="http://www.w3.org/2000/svg">
<path d="M11.7167 5.61798H6.72052C6.1316 5.61798 5.5668 5.8511 5.15038 6.26604C4.73395 6.68099 4.5 7.24378 4.5 7.8306V17.7874C4.5 18.3742 4.73395 18.937 5.15038 19.352C5.5668 19.7669 6.1316 20 6.72052 20H17.8231C18.412 20 18.9768 19.7669 19.3933 19.352C19.8097 18.937 20.0436 18.3742 20.0436 17.7874V12.809" stroke="white" stroke-linecap="round" stroke-linejoin="round"/>
<path fill-rule="evenodd" clip-rule="evenodd" d="M20.0436 4.47518C20.3396 4.78014 20.5035 5.18877 20.5 5.613C20.4964 6.03722 20.3258 6.44309 20.0248 6.74311L12.2718 14.4685L8.94104 15.5748L10.0513 12.2559L17.8087 4.4608C18.0814 4.18696 18.4463 4.02362 18.8329 4.00237C19.2195 3.98112 19.6002 4.10346 19.9015 4.34574L20.0436 4.47518Z" stroke="white" stroke-linecap="round" stroke-linejoin="round"/>
</svg>
