<svg width="24" height="24" viewBox="0 0 24 24" fill="none" xmlns="http://www.w3.org/2000/svg">
<path fill-rule="evenodd" clip-rule="evenodd" d="M11.9987 1.70997C12.0007 1.57439 11.9463 1.44405 11.8486 1.34997L11.6483 1.14997C11.5544 1.05532 11.4264 1.00208 11.293 1.00208C11.1595 1.00208 11.0316 1.05532 10.9376 1.14997L7.39399 4.67997C7.202 4.87779 7.202 5.19216 7.39399 5.38997L10.9376 8.91997C11.0316 9.01463 11.1595 9.06787 11.293 9.06787C11.4264 9.06787 11.5544 9.01463 11.6483 8.91997L11.8486 8.71997C11.9463 8.6259 12.0007 8.49556 11.9987 8.35997V5.99997C15.3158 5.99997 18.0049 8.68627 18.0049 12C18.0051 12.9691 17.7679 13.9235 17.3142 14.78C17.2105 14.9749 17.2471 15.2147 17.4042 15.37L18.135 16.1C18.2457 16.2095 18.4011 16.2612 18.5554 16.24C18.7084 16.2188 18.8441 16.1309 18.9258 16C20.3556 13.526 20.3564 10.4782 18.9279 8.00352C17.4993 5.52885 14.8583 4.0029 11.9987 3.99997V1.70997ZM12.7057 14.9313C12.8392 14.9313 12.9671 14.9845 13.0611 15.0792L16.6047 18.6092C16.7967 18.807 16.7967 19.1214 16.6047 19.3192L13.0611 22.8492C12.9671 22.9438 12.8392 22.9971 12.7057 22.9971C12.5723 22.9971 12.4443 22.9438 12.3504 22.8492L12.1502 22.6492C12.0524 22.5551 11.998 22.4248 12 22.2892V19.9992C9.14041 19.9963 6.49937 18.4703 5.07084 15.9956C3.64232 13.521 3.6431 10.4731 5.0729 7.99918C5.1502 7.86061 5.28658 7.76487 5.44328 7.73918C5.59759 7.71794 5.75301 7.7697 5.86371 7.87918L6.60447 8.61918C6.75858 8.77593 6.79488 9.01366 6.69456 9.20918C6.23139 10.0661 5.99048 11.0253 5.99384 11.9992C5.99384 15.3129 8.68289 17.9992 12 17.9992V15.6392C11.998 15.5036 12.0524 15.3733 12.1502 15.2792L12.3504 15.0792C12.4443 14.9845 12.5723 14.9313 12.7057 14.9313Z" fill="white"/>
</svg>
