<svg version="1.0" xmlns="http://www.w3.org/2000/svg" width="5000.000000pt" height="5000.000000pt"
    viewBox="0 0 5000.000000 5000.000000" preserveAspectRatio="xMidYMid meet">

    <g transform="translate(0.000000,5000.000000) scale(0.100000,-0.100000)" fill="#000000" stroke="none">
        <path d="M27397 40834 c-1 -1 -58 -5 -127 -8 -110 -6 -261 -28 -385 -56 -22
-5 -56 -12 -75 -16 -34 -6 -61 -14 -229 -69 -46 -15 -130 -51 -187 -80 -256
-131 -354 -223 -559 -529 -16 -25 -35 -47 -41 -50 -6 -2 -26 5 -44 17 -19 12
-59 39 -89 59 -31 20 -76 49 -101 63 -25 14 -63 36 -85 49 -96 57 -239 127
-350 171 -66 26 -133 53 -150 60 -128 54 -430 143 -595 175 -175 35 -204 39
-349 56 -212 23 -842 23 -931 -1 -8 -3 -62 -11 -120 -20 -58 -8 -125 -19 -150
-25 -25 -5 -124 -26 -220 -45 -96 -20 -213 -48 -260 -61 -158 -47 -435 -135
-510 -164 -41 -15 -109 -40 -150 -56 -41 -15 -91 -35 -110 -46 -19 -10 -40
-18 -47 -18 -6 0 -49 -17 -95 -39 -46 -21 -94 -42 -108 -46 -14 -4 -32 -13
-40 -20 -8 -6 -35 -20 -60 -29 -40 -16 -109 -51 -335 -171 -33 -17 -89 -49
-124 -71 -35 -21 -83 -50 -106 -64 -24 -14 -69 -41 -102 -59 -99 -59 -645
-430 -663 -451 -3 -3 -23 -17 -45 -30 -22 -13 -47 -30 -55 -37 -30 -26 -120
-93 -125 -93 -6 0 -45 -32 -233 -188 -132 -110 -262 -244 -262 -270 0 -22 34
-52 60 -52 8 0 65 29 125 64 61 35 166 96 235 136 129 75 173 99 345 190 55
29 128 68 163 87 65 36 291 148 397 196 33 15 71 33 85 41 43 24 140 67 209
93 36 13 71 28 76 32 6 4 37 18 70 30 76 29 79 30 205 78 58 22 134 50 170 62
192 62 328 102 398 116 42 9 91 20 107 25 31 10 134 36 195 50 19 4 55 12 80
18 25 6 108 23 185 37 77 14 158 30 180 35 78 18 251 49 335 59 47 6 153 20
235 31 83 12 175 23 205 26 30 2 75 6 100 9 248 26 562 25 874 -4 280 -25 305
-31 146 -37 -166 -5 -645 -65 -790 -99 -36 -8 -92 -20 -124 -26 -32 -5 -66
-14 -75 -18 -9 -5 -43 -12 -76 -16 -156 -19 -778 -204 -1150 -342 -66 -25
-138 -51 -160 -58 -48 -16 -372 -148 -428 -176 -23 -10 -44 -19 -49 -19 -4 0
-55 -22 -113 -50 -58 -27 -110 -50 -116 -50 -11 0 -62 -26 -89 -46 -8 -6 -44
-23 -80 -39 -126 -54 -637 -314 -670 -340 -15 -11 -49 -31 -195 -110 -38 -21
-88 -50 -110 -65 -22 -14 -85 -53 -140 -85 -84 -49 -188 -114 -269 -167 -10
-7 -40 -29 -65 -48 -25 -19 -66 -48 -90 -64 -24 -16 -68 -47 -96 -70 -28 -22
-75 -59 -103 -81 -77 -58 -286 -226 -292 -234 -3 -3 -34 -31 -70 -61 -97 -82
-506 -491 -602 -601 -88 -102 -137 -167 -255 -332 -120 -168 -172 -247 -208
-313 -14 -27 -37 -67 -50 -89 -81 -135 -120 -219 -163 -355 -51 -160 -52 -243
-2 -270 34 -18 239 -406 293 -556 8 -21 31 -82 52 -134 55 -143 135 -363 135
-375 0 -5 11 -39 24 -75 103 -276 129 -359 166 -530 10 -47 26 -119 35 -160 9
-41 25 -94 35 -117 l19 -43 -61 -131 c-34 -73 -73 -155 -88 -183 -15 -28 -77
-148 -138 -266 -179 -347 -273 -511 -428 -744 -21 -32 -43 -66 -49 -75 -38
-63 -85 -133 -116 -171 -20 -25 -42 -56 -49 -69 -6 -13 -51 -76 -99 -140 -48
-64 -93 -126 -101 -138 -24 -35 -112 -146 -132 -168 -26 -27 -151 -177 -218
-260 -30 -38 -78 -94 -105 -124 -28 -31 -83 -95 -123 -143 -40 -48 -76 -88
-80 -90 -4 -2 -32 -32 -61 -68 -29 -36 -65 -77 -80 -91 -14 -14 -80 -83 -146
-154 -66 -70 -185 -194 -265 -275 -80 -81 -194 -198 -255 -260 -60 -61 -125
-120 -142 -132 -18 -11 -33 -26 -33 -33 0 -22 -167 -66 -260 -70 -19 -1 -152
-7 -295 -14 l-260 -13 -120 25 c-66 14 -169 39 -230 54 -174 46 -294 72 -377
82 -60 7 -88 16 -125 40 -58 39 -101 41 -134 5 -13 -14 -42 -39 -65 -54 -74
-52 -231 -289 -447 -675 -49 -88 -155 -327 -215 -485 -57 -151 -140 -380 -183
-505 -26 -77 -57 -165 -69 -195 -24 -60 -42 -119 -70 -221 -10 -37 -27 -87
-38 -110 -11 -24 -34 -98 -52 -164 -18 -66 -41 -142 -51 -169 -10 -27 -19 -56
-19 -65 0 -9 -11 -48 -24 -87 -13 -39 -28 -93 -31 -120 -4 -27 -11 -53 -15
-59 -4 -5 -24 -77 -44 -160 -20 -82 -41 -166 -46 -185 -5 -19 -14 -64 -20
-100 -6 -36 -17 -92 -25 -125 -7 -33 -18 -85 -24 -115 -36 -201 -51 -291 -57
-335 -3 -27 -10 -64 -15 -81 -12 -38 -48 -279 -79 -519 -6 -44 -15 -109 -20
-145 -5 -36 -15 -110 -21 -165 -6 -55 -12 -113 -14 -130 -2 -16 -6 -68 -10
-115 -3 -47 -8 -92 -10 -100 -4 -12 -16 -147 -30 -310 -1 -19 -10 -120 -19
-225 -55 -635 -50 -1144 16 -1540 31 -187 38 -232 53 -350 14 -114 32 -208 75
-395 27 -118 117 -367 168 -465 46 -88 84 -137 202 -265 63 -69 135 -149 160
-179 98 -117 1116 -846 1158 -830 5 2 -1 39 -13 82 -12 42 -19 77 -16 77 4 0
25 -15 47 -34 73 -62 116 -78 208 -75 95 4 100 2 211 -91 125 -104 177 -133
238 -134 76 -1 116 26 143 93 29 72 47 86 134 111 41 12 82 24 91 27 10 3 25
-10 45 -39 41 -62 50 -76 84 -143 134 -262 175 -334 206 -366 45 -46 155 -98
243 -114 36 -7 124 -14 195 -14 71 -1 132 -4 135 -5 3 -2 31 -7 61 -11 30 -3
114 -22 187 -41 l132 -35 298 -5 c164 -3 332 -9 373 -14 41 -5 77 -7 81 -4 4
2 8 107 8 232 1 125 3 261 5 302 6 94 20 866 21 1095 0 173 -9 213 -32 138
-14 -47 -13 36 13 692 2 72 9 202 14 290 6 88 12 221 15 295 3 74 7 153 10
175 6 43 23 346 30 514 3 57 7 111 10 120 2 9 7 64 9 122 3 58 7 117 10 130 6
24 26 201 32 269 1 19 8 67 15 105 6 39 13 83 14 98 3 25 14 108 30 232 17
127 62 364 90 482 8 34 15 73 15 87 0 30 32 167 56 238 9 26 14 53 12 60 -3 7
8 49 24 93 15 44 28 87 28 95 0 17 64 245 85 300 7 19 33 98 58 175 61 189
165 493 183 530 7 17 31 80 53 140 21 61 64 171 96 245 31 74 79 194 107 265
27 72 65 163 84 203 19 40 34 74 34 77 0 2 18 42 40 89 22 47 40 88 40 91 0 6
33 79 162 355 22 47 92 189 155 315 64 127 147 293 186 370 39 77 89 174 112
215 23 41 65 118 93 171 28 53 65 119 81 145 16 27 53 92 82 144 29 52 54 89
57 82 2 -6 -6 -29 -17 -49 -11 -21 -32 -67 -46 -103 -89 -223 -115 -291 -115
-304 0 -8 -4 -17 -9 -20 -9 -6 -64 -141 -116 -286 -15 -41 -37 -100 -48 -130
-11 -30 -25 -71 -33 -90 -7 -19 -37 -111 -68 -205 -59 -185 -75 -229 -87 -260
-5 -11 -20 -60 -33 -110 -14 -49 -29 -106 -35 -125 -6 -19 -38 -138 -72 -265
-34 -126 -71 -250 -82 -275 -10 -25 -25 -65 -33 -90 -7 -25 -29 -90 -48 -145
-20 -55 -39 -113 -42 -130 -3 -16 -15 -64 -28 -105 -84 -269 -96 -341 -102
-600 -3 -134 -10 -240 -19 -281 -23 -104 -45 -265 -52 -371 -5 -95 4 -220 33
-446 9 -75 14 -198 13 -365 -1 -139 1 -272 5 -297 3 -25 8 -119 11 -210 7
-236 53 -785 75 -905 9 -47 32 -206 50 -342 4 -34 10 -65 13 -70 3 -4 10 -51
17 -103 6 -52 22 -147 36 -210 13 -63 26 -129 28 -146 2 -16 13 -62 25 -100
11 -38 27 -103 36 -144 36 -181 74 -305 101 -328 27 -24 27 -25 44 -202 7 -63
18 -143 26 -178 8 -35 14 -76 14 -92 0 -16 5 -32 12 -36 8 -5 9 -2 5 9 -7 19
-14 129 -22 339 -5 145 -5 147 21 185 29 42 28 54 -4 169 -20 70 -21 86 -8
284 2 30 7 107 11 170 6 105 27 304 70 670 9 74 20 149 25 165 5 17 12 63 15
104 3 41 8 78 10 81 4 7 35 200 60 375 9 61 21 134 26 163 18 90 41 236 44
267 1 17 8 56 15 88 6 33 13 73 15 90 1 18 8 52 14 77 6 25 27 131 46 235 20
105 42 210 50 235 8 25 25 101 40 170 14 69 32 148 40 175 9 28 22 82 30 120
8 39 26 113 40 165 15 52 37 138 51 190 14 52 30 109 34 125 5 17 16 55 23 85
8 30 31 111 51 180 20 69 43 150 52 180 27 94 36 124 49 165 7 22 37 114 65
205 71 224 129 401 140 425 11 25 69 189 80 230 15 52 116 339 127 360 5 11
27 72 48 135 20 63 43 129 51 145 7 17 31 80 53 140 21 61 48 135 60 165 13
30 37 98 56 150 18 52 39 111 48 130 31 70 76 186 88 225 6 22 22 63 35 90 13
28 39 91 59 140 46 113 50 121 124 286 33 75 65 149 71 165 14 35 103 240 135
309 13 28 31 66 39 85 9 19 20 42 25 50 6 8 38 74 71 145 71 150 79 166 107
220 12 22 56 110 98 195 87 177 195 379 235 440 5 8 28 49 50 90 23 41 70 122
105 180 35 58 79 132 99 165 72 122 278 432 363 545 29 38 65 89 80 112 15 24
41 59 58 79 16 19 57 70 89 112 33 42 92 112 133 154 40 43 98 105 128 138 30
33 67 73 82 89 36 38 131 146 191 215 26 30 72 82 103 115 31 34 85 95 120
136 76 89 318 332 484 485 66 61 133 124 150 140 17 17 60 55 95 85 35 30 82
73 105 95 23 22 76 68 118 103 41 35 113 97 159 138 132 118 181 161 218 191
91 72 241 206 250 223 6 11 16 20 21 20 6 0 39 24 73 52 33 29 115 99 181 156
66 57 126 108 134 115 8 6 34 27 57 47 23 19 50 42 60 50 20 15 332 276 461
384 91 77 104 87 292 228 86 64 164 123 174 132 9 9 21 16 26 16 5 0 14 7 21
15 6 8 35 30 63 49 29 20 90 63 137 97 46 33 107 76 135 94 27 19 82 57 120
84 39 28 84 58 100 67 17 10 73 45 125 79 52 34 115 74 140 88 25 15 77 47
115 72 78 49 228 138 335 197 25 13 86 47 135 75 50 28 133 70 185 93 52 24
100 46 105 50 6 4 37 16 70 27 52 18 68 19 122 10 52 -9 68 -8 107 7 43 17 48
17 72 2 13 -10 22 -21 19 -26 -9 -14 31 -49 62 -55 16 -3 62 -20 103 -37 41
-17 201 -81 355 -143 154 -62 377 -152 495 -200 118 -48 249 -100 290 -116 41
-16 84 -33 95 -38 11 -5 41 -18 67 -30 26 -12 51 -21 55 -21 4 0 25 -9 47 -19
23 -11 100 -45 171 -76 72 -30 153 -66 180 -80 28 -13 95 -45 149 -70 108 -50
282 -132 306 -144 79 -41 257 -137 350 -189 63 -36 133 -74 155 -85 22 -11 65
-36 95 -57 30 -20 80 -53 110 -72 183 -115 243 -155 315 -206 247 -175 317
-228 384 -288 25 -23 61 -51 79 -61 18 -11 63 -48 100 -81 37 -33 121 -109
187 -167 66 -59 151 -135 188 -168 107 -98 590 -581 733 -733 71 -76 136 -146
144 -155 32 -33 170 -187 219 -244 28 -33 76 -87 105 -120 30 -33 80 -91 112
-129 31 -38 64 -77 73 -86 9 -9 36 -43 61 -74 25 -32 55 -69 67 -82 41 -44
138 -166 177 -223 22 -31 42 -58 45 -61 4 -3 22 -25 40 -50 19 -25 40 -49 46
-55 6 -5 24 -31 38 -56 15 -25 36 -54 47 -64 11 -10 20 -24 20 -31 0 -7 3 -14
8 -16 4 -1 25 -29 47 -62 61 -90 67 -98 108 -153 20 -28 37 -55 37 -61 0 -5
18 -32 41 -58 22 -27 49 -65 60 -84 20 -36 24 -43 76 -125 17 -27 47 -81 67
-119 20 -37 45 -80 56 -93 11 -14 20 -29 20 -34 0 -4 13 -27 29 -51 15 -24 31
-56 35 -73 4 -16 34 -84 66 -150 32 -66 62 -133 66 -150 4 -16 12 -33 17 -37
6 -3 12 -15 13 -25 5 -35 72 -205 146 -373 6 -14 12 -29 14 -35 4 -19 67 -150
74 -155 4 -3 12 -21 19 -40 6 -19 63 -138 126 -264 63 -126 115 -235 115 -243
0 -7 4 -21 10 -31 13 -23 50 -128 61 -176 6 -22 16 -51 24 -65 8 -14 26 -73
40 -131 14 -58 41 -154 60 -215 28 -90 69 -243 90 -338 2 -9 7 -22 10 -27 4
-6 17 -48 30 -93 12 -45 32 -109 43 -142 67 -199 127 -403 162 -555 4 -19 18
-71 30 -115 12 -44 37 -143 56 -220 19 -77 39 -153 44 -170 24 -78 49 -175 58
-220 10 -51 23 -106 72 -300 29 -113 47 -183 61 -245 4 -19 15 -66 24 -105 9
-38 23 -104 31 -145 8 -41 23 -104 33 -140 11 -36 27 -110 36 -165 14 -92 32
-181 56 -280 15 -63 19 -85 29 -167 5 -43 12 -83 16 -89 3 -6 10 -41 15 -78 4
-36 15 -109 24 -161 8 -52 19 -124 24 -160 5 -36 17 -114 26 -175 9 -60 18
-137 21 -170 3 -33 11 -94 19 -135 11 -64 24 -176 50 -465 10 -110 15 -160 20
-205 4 -25 8 -76 10 -115 2 -38 7 -81 10 -95 3 -14 10 -72 15 -130 5 -58 14
-148 19 -200 6 -52 15 -144 20 -203 6 -60 12 -111 15 -115 2 -4 7 -43 10 -87
4 -44 12 -120 17 -170 15 -135 20 -193 23 -270 2 -38 7 -117 10 -175 12 -196
15 -315 8 -372 -8 -60 -9 -62 -171 -242 -84 -92 -323 -339 -380 -391 -50 -46
-467 -464 -555 -558 -82 -85 -292 -322 -340 -380 -21 -26 -51 -60 -66 -75 -15
-15 -67 -76 -115 -137 -121 -151 -180 -212 -263 -269 -39 -27 -80 -58 -90 -70
-68 -74 -36 -204 63 -258 28 -14 56 -31 63 -38 51 -46 160 -57 307 -30 64 12
118 20 119 18 1 -2 8 -28 15 -58 31 -131 76 -192 156 -215 104 -30 204 -15
342 52 131 63 269 94 393 88 105 -5 141 -11 315 -49 150 -33 179 -43 345 -124
143 -69 175 -76 233 -45 37 19 60 74 52 122 -5 31 0 45 33 96 79 122 122 192
122 199 0 4 15 30 33 59 58 92 257 507 257 537 0 7 15 43 34 79 33 65 127 298
159 396 44 134 77 250 77 272 0 13 4 31 9 41 29 56 54 139 97 312 48 198 51
211 79 360 8 47 22 102 30 123 8 20 15 60 15 88 0 28 5 59 10 69 18 33 41 154
66 340 9 63 22 136 30 161 8 26 14 62 13 80 -1 19 3 52 9 74 10 38 14 68 27
210 4 33 10 74 15 90 5 17 12 64 15 105 3 41 10 100 15 130 6 30 10 78 9 105
0 28 4 104 10 170 12 139 14 300 4 504 -7 156 -16 181 -66 181 -31 0 -83 -53
-97 -98 -17 -55 -203 -428 -249 -498 -33 -52 -43 -61 -63 -57 -15 3 -30 -3
-42 -16 -25 -27 -124 -169 -182 -261 -90 -142 -157 -245 -195 -303 -22 -32
-39 -60 -39 -62 0 -16 -307 -456 -388 -557 -164 -205 -178 -222 -201 -242 -21
-19 -21 -19 -21 5 0 13 9 125 20 249 11 123 20 234 21 245 0 14 3 12 11 -10 5
-16 10 -103 11 -192 1 -89 5 -155 9 -145 4 9 7 29 7 45 1 27 14 36 26 17 10
-16 61 -12 76 6 19 24 15 72 -15 147 -30 78 -32 121 -12 257 39 257 48 335 71
585 13 149 27 342 30 430 11 311 6 869 -10 1030 -2 28 -7 93 -10 145 -8 122
-14 194 -24 300 -5 47 -9 99 -10 115 -2 56 -41 385 -72 600 -31 217 -49 331
-69 445 -11 58 -26 148 -35 200 -9 52 -25 136 -36 185 -11 50 -26 131 -34 180
-8 50 -33 180 -56 290 -23 110 -45 218 -49 240 -9 43 -29 139 -53 250 -18 82
-22 98 -38 180 -6 33 -15 68 -20 77 -5 10 -9 29 -9 43 0 14 -9 58 -19 98 -18
65 -35 138 -86 367 -10 41 -26 107 -36 145 -17 64 -35 136 -60 240 -6 21 -15
45 -21 52 -6 7 -6 13 -1 13 15 0 55 -59 58 -85 3 -30 28 -69 90 -140 78 -90
177 -211 262 -319 43 -55 84 -104 91 -110 7 -6 92 -90 190 -186 97 -97 197
-189 222 -205 25 -17 75 -52 113 -78 37 -27 72 -47 77 -45 18 6 -118 256 -191
354 -76 100 -169 229 -169 234 0 3 -11 17 -23 30 -13 14 -30 37 -38 52 -8 14
-30 48 -49 74 -32 45 -51 88 -96 219 -9 28 -25 68 -35 90 -39 88 -42 97 -62
177 -8 32 -21 68 -29 80 -8 13 -21 47 -28 76 -11 47 -14 51 -25 35 -11 -14
-16 -15 -26 -6 -10 10 -9 16 4 31 19 21 21 35 8 60 -12 21 -25 73 -22 88 0 6
-6 17 -14 24 -8 7 -15 18 -15 25 0 7 -7 26 -15 41 -8 16 -15 40 -15 55 0 14
-5 30 -12 37 -7 7 -9 12 -5 12 4 0 1 14 -8 30 -9 17 -13 30 -10 30 4 0 -3 12
-14 26 -12 15 -21 34 -21 43 0 8 -6 33 -14 56 -7 22 -19 62 -25 89 -6 27 -23
72 -36 101 -14 28 -34 76 -44 106 -10 30 -31 90 -47 134 -15 44 -31 89 -36
100 -18 45 -45 145 -39 145 3 0 2 4 -4 8 -20 15 -45 71 -45 104 0 18 -7 42
-16 53 -8 11 -23 48 -34 82 -10 34 -37 99 -60 145 -22 46 -47 108 -55 140 -8
31 -32 94 -53 140 -21 45 -42 97 -46 113 -4 17 -24 66 -46 110 -21 44 -48 105
-60 135 -13 30 -32 75 -43 100 -11 25 -30 70 -42 102 -13 31 -44 93 -69 138
-25 45 -46 87 -46 94 0 6 -7 22 -16 34 -8 12 -11 22 -5 22 5 0 14 -6 18 -14 4
-8 24 -31 43 -52 105 -115 346 -449 480 -669 71 -116 110 -173 110 -163 0 3
-45 108 -101 234 -85 193 -324 677 -377 763 -8 14 -30 49 -47 76 -18 28 -43
70 -56 95 -33 62 -135 219 -186 288 -24 31 -62 84 -84 117 -23 33 -56 76 -73
97 -17 20 -47 58 -66 85 -36 50 -153 196 -180 224 -83 87 -239 257 -255 278
-25 32 -325 331 -462 461 -204 194 -229 216 -267 242 -39 27 -139 112 -186
158 -14 14 -41 36 -60 49 -19 13 -73 56 -118 95 -46 39 -99 82 -117 96 -19 14
-63 48 -100 75 -130 99 -234 175 -240 175 -4 0 -27 18 -53 39 -26 21 -90 68
-142 103 -52 35 -146 100 -208 144 -149 104 -277 188 -330 215 -23 13 -50 31
-59 41 -9 10 -21 18 -26 18 -6 0 -25 11 -43 25 -18 14 -36 25 -41 25 -4 0 -26
14 -47 30 -22 17 -44 30 -49 30 -6 0 -26 12 -45 27 -20 15 -67 44 -106 65 -77
41 -172 93 -196 107 -8 5 -26 14 -40 20 -14 6 -43 22 -65 35 -72 43 -490 256
-503 256 -4 0 -23 11 -42 24 -19 12 -53 29 -75 36 -22 7 -49 19 -60 26 -11 7
-69 33 -130 59 -60 25 -148 64 -195 85 -47 21 -101 45 -120 53 -74 31 -137 60
-185 84 -27 14 -72 32 -99 40 -27 8 -59 21 -70 28 -12 7 -54 23 -95 35 -40 12
-94 35 -121 51 -26 16 -58 29 -72 29 -14 0 -46 11 -71 24 -25 14 -65 30 -89
37 -24 6 -61 19 -83 29 -22 9 -74 29 -115 45 -41 15 -91 35 -110 44 -19 10
-62 26 -95 36 -33 9 -96 31 -139 47 -44 17 -87 31 -95 33 -30 6 -216 67 -263
86 -26 10 -55 19 -64 19 -10 0 -31 5 -48 10 -17 6 -100 30 -185 54 -125 35
-151 45 -135 54 31 16 434 3 544 -18 29 -5 74 -10 100 -10 26 0 98 -12 161
-26 63 -14 126 -27 140 -28 14 -2 30 -5 35 -9 5 -3 37 -9 69 -12 33 -4 75 -13
94 -21 18 -8 41 -14 51 -14 10 0 40 -6 66 -14 27 -8 76 -21 109 -29 33 -8 105
-29 160 -46 55 -18 138 -43 184 -56 46 -14 100 -33 121 -44 20 -10 70 -28 111
-39 41 -11 112 -37 157 -56 46 -20 88 -36 93 -36 6 0 39 -13 74 -30 35 -16 67
-30 70 -30 3 0 67 -30 143 -66 75 -36 146 -69 157 -74 59 -25 142 -66 240
-118 61 -32 162 -86 225 -119 104 -55 207 -117 236 -141 6 -5 31 -18 55 -29
25 -11 65 -34 89 -52 24 -17 48 -31 54 -31 5 0 49 -24 96 -53 47 -30 114 -71
150 -92 36 -21 115 -72 175 -114 61 -41 133 -90 160 -108 59 -38 138 -95 145
-104 3 -3 19 -14 37 -23 18 -9 36 -22 40 -30 4 -8 28 -23 54 -35 25 -12 61
-35 80 -51 38 -34 175 -135 264 -195 33 -22 79 -57 103 -77 24 -21 47 -38 52
-38 5 0 30 -18 55 -40 26 -22 61 -48 78 -57 32 -16 209 -161 215 -176 2 -4 38
-31 80 -59 76 -50 100 -69 205 -158 29 -25 91 -76 137 -115 46 -38 129 -116
184 -171 56 -56 110 -106 121 -112 54 -29 485 -458 485 -483 0 -4 10 -16 23
-26 12 -10 40 -40 62 -67 22 -27 53 -63 69 -80 15 -17 53 -64 84 -104 30 -41
61 -76 69 -79 7 -3 13 -9 13 -15 0 -5 13 -29 29 -52 16 -23 44 -69 61 -102 17
-32 38 -70 45 -84 8 -14 47 -88 88 -165 40 -77 78 -149 84 -160 6 -11 19 -40
29 -64 10 -24 23 -49 29 -55 6 -6 23 -41 37 -77 15 -36 40 -89 57 -118 17 -28
31 -54 31 -57 0 -3 11 -29 24 -57 13 -29 47 -106 76 -172 28 -66 76 -171 106
-233 30 -63 54 -119 54 -126 0 -7 11 -35 25 -63 13 -28 33 -78 45 -112 22 -65
40 -109 76 -184 13 -27 24 -55 24 -63 0 -8 11 -37 25 -66 14 -28 25 -57 25
-65 0 -7 7 -29 16 -50 9 -21 21 -47 25 -58 9 -20 48 -133 76 -215 8 -25 26
-72 41 -105 14 -33 31 -78 38 -100 7 -22 24 -71 38 -110 75 -208 110 -304 122
-343 7 -23 20 -52 29 -64 8 -13 15 -32 15 -43 0 -11 7 -33 15 -48 8 -16 20
-47 25 -70 6 -23 22 -71 35 -107 12 -36 44 -128 69 -205 25 -77 62 -185 82
-240 19 -55 44 -127 54 -160 10 -33 41 -125 70 -205 28 -80 73 -210 100 -290
27 -80 66 -190 85 -245 20 -55 48 -136 64 -180 59 -169 93 -255 102 -255 5 0
7 10 5 23 -3 12 -8 39 -11 60 -5 33 -36 142 -120 427 -7 25 -20 66 -28 93 -8
26 -13 47 -11 47 3 0 -2 13 -11 30 -8 16 -15 32 -14 35 2 13 -15 93 -28 130
-8 22 -18 60 -22 85 -5 25 -20 89 -35 143 -44 161 -87 327 -105 407 -10 41
-23 91 -29 110 -6 19 -23 85 -38 145 -14 61 -44 171 -65 245 -21 74 -54 199
-73 276 -19 78 -46 175 -59 215 -14 41 -33 103 -42 139 -10 36 -21 70 -25 75
-4 6 -13 34 -19 63 -6 29 -18 69 -27 90 -9 20 -24 64 -34 97 -22 73 -99 290
-130 365 -12 30 -35 93 -50 140 -15 47 -41 117 -57 155 -52 120 -91 219 -98
245 -4 14 -11 30 -15 35 -4 6 -10 24 -14 40 -4 17 -23 66 -41 110 -19 44 -45
107 -58 140 -14 33 -41 98 -61 145 -21 47 -44 105 -53 130 -8 25 -25 65 -38
90 -41 78 -112 234 -123 267 -6 18 -26 59 -44 90 -18 32 -38 69 -45 83 -51
113 -210 427 -220 435 -6 6 -28 45 -49 89 -20 43 -54 107 -75 142 -22 35 -39
66 -39 69 0 4 -11 21 -24 38 -13 18 -33 48 -44 67 -73 129 -95 167 -107 180
-8 8 -24 38 -37 65 -13 28 -42 76 -65 107 -23 31 -52 73 -63 93 -23 41 -87
143 -120 190 -11 17 -37 55 -57 85 -20 30 -39 57 -42 60 -4 3 -22 29 -41 59
-18 29 -49 72 -67 94 -19 22 -54 70 -78 107 -23 37 -68 98 -99 136 -30 38 -56
75 -56 82 0 6 -3 12 -7 12 -5 0 -19 17 -33 37 -14 21 -50 67 -80 103 -30 36
-67 83 -82 105 -15 22 -50 65 -77 95 -28 30 -51 58 -51 62 0 9 -13 25 -100
126 -36 42 -81 97 -100 123 -127 171 -616 713 -769 853 -25 23 -61 59 -80 80
-20 22 -54 56 -75 75 -22 20 -46 44 -55 54 -9 11 -50 48 -91 85 -41 36 -139
126 -218 200 -79 75 -153 143 -165 151 -12 8 -34 29 -49 45 -25 29 -26 32 -10
49 16 18 14 21 -38 70 -30 28 -86 80 -125 117 -131 123 -197 181 -251 221 -29
21 -61 47 -71 57 -10 10 -49 42 -88 72 -38 30 -72 57 -75 60 -9 9 -114 85
-145 104 -16 11 -61 45 -100 76 -38 31 -115 86 -170 123 -55 37 -111 75 -125
86 -14 10 -47 31 -74 47 -26 16 -67 41 -90 56 -22 16 -56 35 -73 43 -40 19
-43 30 -5 21 l27 -7 -22 16 c-13 9 -49 31 -80 49 -32 18 -121 69 -198 113
-187 107 -443 242 -650 342 -93 46 -181 89 -195 96 -64 34 -540 241 -620 270
-44 16 -164 61 -302 114 -58 23 -112 41 -120 41 -7 0 -38 10 -68 21 -30 12
-140 48 -245 81 -168 52 -245 76 -479 147 -77 23 -52 34 47 21 40 -5 128 -14
197 -20 69 -6 190 -20 270 -31 158 -22 166 -23 319 -39 58 -6 108 -13 112 -16
4 -2 38 -8 76 -13 77 -11 285 -51 418 -81 50 -11 113 -25 140 -29 122 -22 397
-108 508 -160 37 -17 69 -31 72 -31 3 0 51 -22 106 -50 55 -27 112 -50 126
-50 14 0 51 -12 82 -26 139 -64 258 -127 281 -149 52 -47 85 -41 106 21 23 65
23 64 -91 189 -84 91 -424 368 -502 408 -17 9 -38 23 -46 31 -44 44 -375 226
-637 350 -138 65 -167 76 -525 208 -44 16 -115 40 -158 53 -42 13 -81 26 -86
29 -10 7 -172 52 -251 71 -30 8 -109 27 -175 45 -141 36 -239 58 -315 70 -30
5 -82 14 -115 20 -33 5 -82 13 -110 16 -27 3 -88 12 -135 19 -126 21 -333 35
-528 38 -96 1 -174 1 -175 1z m448 -138 c50 -3 135 -13 190 -21 55 -8 120 -17
145 -19 55 -4 289 -48 430 -80 58 -13 112 -24 120 -24 8 0 29 -5 45 -11 58
-20 140 -43 170 -48 17 -2 58 -15 92 -29 34 -13 66 -24 72 -24 12 0 220 -65
256 -80 11 -5 45 -16 75 -26 30 -9 64 -23 75 -30 19 -14 19 -14 -2 -14 -12 0
-24 4 -27 9 -3 5 -21 9 -40 9 -18 0 -42 4 -52 10 -26 13 -170 52 -194 52 -18
0 -57 17 -70 30 -3 3 -18 6 -35 8 -16 2 -39 7 -50 12 -11 5 -58 16 -105 25
-47 8 -146 26 -220 39 -155 28 -469 64 -615 71 -213 10 -626 13 -760 5 -447
-27 -863 -153 -1135 -345 -52 -37 -97 -70 -100 -74 -13 -17 -98 -81 -108 -81
-6 0 -12 -6 -15 -12 -2 -7 -7 -10 -11 -6 -9 7 33 85 72 138 50 66 140 146 245
217 127 86 154 101 288 151 202 77 399 119 699 151 77 8 404 6 565 -3z m-3965
-151 c30 -3 75 -8 100 -10 294 -31 547 -90 860 -199 230 -80 385 -146 343
-146 -12 0 -93 24 -158 46 -22 7 -114 32 -205 54 -91 22 -178 45 -195 50 -26
8 -213 35 -485 70 -240 31 -1011 -6 -1370 -65 -112 -19 -365 -80 -412 -99 -21
-9 -46 -16 -57 -16 -21 0 -121 -31 -241 -74 -36 -13 -83 -28 -105 -35 -43 -13
-107 -39 -195 -78 -78 -35 -90 -40 -140 -57 -69 -23 -168 -61 -237 -90 -34
-14 -68 -26 -75 -26 -7 0 -33 -11 -58 -24 -76 -40 -143 -73 -180 -88 -19 -8
-60 -25 -90 -38 -30 -12 -64 -27 -75 -33 -65 -34 -192 -92 -222 -102 -13 -3
-36 -19 -52 -36 -16 -16 -39 -29 -50 -29 -12 0 -21 -4 -21 -8 0 -10 -93 -52
-114 -52 -8 0 -16 -6 -19 -14 -3 -7 -22 -17 -41 -20 -23 -4 -34 -11 -30 -18 5
-8 -3 -9 -26 -5 -26 6 -31 4 -26 -9 3 -8 2 -12 -4 -9 -6 3 -10 10 -10 15 0 11
210 152 289 194 29 16 83 49 118 73 36 24 111 68 167 98 57 29 125 66 152 82
27 16 81 44 119 62 39 18 124 60 190 92 66 33 123 59 127 59 10 0 187 74 265
111 35 16 67 29 73 29 6 0 18 4 28 9 18 9 268 94 342 116 161 49 231 67 355
96 77 17 185 42 240 55 94 21 230 42 405 62 41 5 138 10 215 11 77 1 141 3
142 4 4 5 310 -2 363 -8z m5739 -281 c14 -12 -19 -1 -35 12 -18 14 -18 14 6 3
14 -6 27 -13 29 -15z m-2334 -254 c39 -6 115 -18 170 -26 55 -8 127 -21 160
-28 33 -8 96 -22 140 -31 44 -8 101 -22 126 -30 26 -8 58 -15 71 -15 13 0 28
-4 33 -9 6 -5 44 -18 85 -29 41 -11 127 -36 190 -57 63 -20 140 -43 170 -51
30 -9 60 -19 65 -24 6 -4 42 -18 80 -30 39 -13 93 -32 120 -43 28 -11 86 -32
130 -48 44 -15 116 -41 160 -57 44 -16 146 -53 227 -83 145 -52 180 -78 89
-64 -25 4 -113 6 -196 5 -275 -5 -234 -12 -630 109 -55 17 -175 49 -266 71
-91 21 -186 46 -210 54 -56 19 -176 50 -256 66 -35 7 -68 19 -74 26 -6 8 -28
14 -49 14 -20 0 -40 3 -44 7 -7 7 -13 8 -93 16 -46 5 -78 13 -143 35 -8 3 -31
6 -50 8 -19 2 -57 6 -85 9 -27 3 -131 6 -230 6 -200 -1 -301 -14 -410 -56 -94
-36 -106 -38 -137 -26 -30 11 -58 65 -58 110 0 39 28 116 50 136 59 54 601 76
865 35z m-2505 -271 c0 -5 -4 -9 -10 -9 -5 0 -10 7 -10 16 0 8 5 12 10 9 6 -3
10 -10 10 -16z m-185 1 c3 -5 3 -10 -2 -11 -24 -2 -46 -8 -51 -15 -4 -4 36 -4
88 0 52 4 110 7 128 6 20 0 32 4 32 12 0 9 20 14 67 15 43 1 62 -2 52 -8 -8
-5 -27 -9 -44 -9 -19 0 -25 -3 -17 -8 7 -5 38 -7 70 -5 31 2 67 4 80 3 13 0
20 5 17 10 -3 6 -3 10 2 11 4 0 17 2 28 4 11 2 28 -5 38 -16 14 -15 31 -19 80
-19 37 0 69 5 76 13 11 10 13 9 9 -3 -5 -13 6 -16 61 -18 36 -2 80 -5 96 -7
17 -3 103 -7 192 -9 89 -2 165 -6 170 -9 4 -3 41 -8 82 -11 48 -4 83 -13 100
-26 15 -10 54 -28 86 -39 33 -12 72 -30 88 -42 15 -11 31 -17 36 -15 11 7 40
-8 106 -54 48 -33 49 -34 25 -41 -40 -11 -128 -10 -136 2 -3 6 -18 9 -32 6
-15 -3 -69 -1 -122 4 -218 21 -901 30 -1115 15 -49 -3 -166 -10 -260 -16 -184
-10 -532 -30 -599 -34 -55 -4 -262 -34 -356 -52 -42 -7 -92 -14 -112 -14 -20
0 -59 -4 -85 -9 -26 -5 -88 -15 -138 -21 -49 -7 -153 -26 -230 -42 -77 -16
-185 -37 -240 -47 -242 -45 -754 -191 -868 -248 -15 -8 -74 -30 -130 -49 -56
-20 -119 -45 -142 -56 -41 -22 -205 -88 -216 -88 -3 0 -72 -31 -152 -70 -80
-38 -151 -70 -157 -70 -6 0 -36 -11 -66 -25 -30 -14 -57 -25 -60 -25 -9 0
-349 -170 -405 -202 -30 -18 -75 -49 -99 -68 -46 -37 -54 -42 -116 -77 -22
-12 -54 -35 -72 -51 -18 -15 -58 -44 -90 -62 -31 -19 -84 -55 -117 -81 -33
-26 -78 -56 -100 -67 -22 -11 -45 -29 -51 -39 -6 -10 -51 -45 -100 -78 -49
-33 -111 -79 -138 -103 -28 -24 -68 -53 -89 -64 -22 -11 -52 -31 -66 -44 -14
-14 -53 -44 -86 -67 -33 -23 -80 -62 -105 -86 -25 -24 -61 -55 -80 -68 -19
-13 -71 -59 -115 -101 -44 -43 -105 -98 -135 -123 -113 -95 -480 -469 -530
-540 -44 -63 -184 -234 -250 -305 -97 -106 -184 -205 -207 -239 -55 -82 -74
-115 -99 -178 -22 -53 -30 -64 -37 -51 -15 27 -21 214 -8 274 13 60 63 174 91
205 10 11 26 36 37 55 27 51 168 259 182 270 4 3 26 34 50 70 96 147 310 378
605 655 185 174 170 161 241 220 32 28 68 58 79 68 12 10 41 34 66 52 25 19
82 63 128 97 46 35 98 75 115 90 18 15 36 28 40 28 5 0 34 19 65 43 113 85
604 380 802 482 41 21 95 49 120 62 70 37 450 223 455 223 4 0 61 25 180 80
33 15 80 35 104 44 24 9 64 28 90 41 25 14 52 25 59 25 13 0 91 32 126 51 11
6 56 24 100 39 45 16 126 47 181 69 54 23 103 41 108 41 13 0 171 62 181 72 6
4 19 8 30 8 12 0 66 16 121 36 55 20 109 38 120 41 11 3 79 23 150 45 72 22
157 48 190 58 83 25 365 88 395 88 8 0 62 12 119 26 57 15 120 28 140 30 20 2
70 8 111 14 125 18 374 46 550 61 52 5 106 11 120 14 21 4 137 13 263 20 15 1
27 6 26 11 -2 22 64 36 76 16z m55 0 c0 -5 -9 -10 -20 -10 -11 0 -20 5 -20 10
0 6 9 10 20 10 11 0 20 -4 20 -10z m505 0 c-27 -12 -35 -12 -35 0 0 6 12 10
28 9 24 0 25 -1 7 -9z m165 -16 c0 -2 -7 -4 -15 -4 -8 0 -15 4 -15 10 0 5 7 7
15 4 8 -4 15 -8 15 -10z m4389 -604 c20 -5 68 -17 106 -25 90 -21 344 -104
370 -122 11 -7 28 -13 38 -13 11 0 45 -13 76 -30 66 -35 172 -84 186 -86 6 -1
34 -16 62 -33 27 -17 55 -31 61 -31 6 0 14 -5 17 -10 7 -11 -39 -4 -60 9 -30
17 -115 40 -152 41 -23 0 -45 5 -48 10 -9 15 -155 82 -255 118 -47 17 -123 47
-170 67 -47 20 -110 45 -140 55 -62 20 -150 58 -136 59 5 1 25 -3 45 -9z m852
-367 c16 -16 -6 -26 -28 -14 -10 5 -26 12 -35 15 -10 3 -18 12 -18 20 0 11 6
12 35 2 20 -7 40 -17 46 -23z m80 -29 c19 -8 41 -19 49 -24 52 -31 129 -63
155 -64 37 -2 56 -13 49 -30 -6 -16 15 -34 54 -46 22 -6 32 -5 35 3 3 9 8 8
20 -2 9 -7 14 -17 11 -22 -3 -5 1 -9 9 -9 8 0 17 -7 20 -15 8 -19 105 -68 122
-61 8 3 19 -2 25 -10 7 -8 17 -14 23 -14 6 0 34 -18 63 -40 29 -22 57 -40 62
-40 5 0 26 -12 45 -27 20 -16 68 -48 107 -72 38 -24 70 -48 70 -52 0 -4 24
-22 53 -39 28 -17 72 -46 97 -65 25 -18 50 -34 57 -34 7 -1 16 -7 20 -14 4 -7
55 -48 113 -92 58 -43 133 -100 167 -127 34 -26 66 -48 71 -48 4 0 21 -12 38
-28 16 -15 47 -41 69 -57 58 -42 106 -84 236 -209 139 -133 260 -248 314 -297
133 -121 631 -645 750 -788 37 -45 72 -84 79 -89 7 -4 25 -25 41 -47 25 -35
21 -33 -32 19 -60 57 -83 64 -83 25 0 -54 -68 -124 -137 -140 -63 -14 -131 11
-288 106 -49 30 -96 55 -105 55 -8 0 -23 -19 -33 -43 -22 -52 -74 -93 -131
-101 -39 -6 -108 8 -207 40 -12 4 -14 -1 -11 -30 9 -76 -13 -124 -78 -169 -55
-38 -129 -6 -161 71 -11 26 -29 63 -39 82 -27 51 -60 155 -60 187 0 38 53 119
93 143 17 11 44 20 60 20 15 0 27 4 27 10 0 11 8 4 -145 128 -169 137 -195
164 -195 200 0 42 56 102 96 102 26 1 126 -45 418 -191 54 -28 100 -48 102
-46 6 6 -172 183 -251 247 -43 36 -113 93 -154 128 -42 35 -110 91 -151 125
-41 34 -104 89 -138 122 -97 91 -101 95 -112 95 -5 0 -10 7 -10 15 0 8 -4 15
-10 15 -16 0 -12 27 6 34 8 3 13 10 10 14 -3 5 10 9 29 9 19 0 35 -4 35 -8 0
-5 6 -6 14 -3 15 6 56 -12 68 -29 3 -6 18 -11 33 -13 15 -2 57 -21 94 -43 36
-21 68 -37 70 -35 6 6 -108 108 -198 177 -42 32 -83 63 -91 70 -8 7 -31 22
-51 35 -20 12 -47 32 -60 45 -35 35 -125 107 -194 155 -141 99 -224 159 -265
193 -25 20 -64 47 -88 59 -23 13 -49 34 -57 46 -8 13 -34 32 -58 42 -45 20
-84 49 -120 90 -12 12 -27 22 -34 22 -7 0 -13 3 -13 8 0 4 -22 18 -49 31 -27
12 -51 31 -54 42 -3 10 0 17 5 16 6 -1 13 4 15 11 4 9 -4 11 -28 7 -18 -3 -36
-8 -41 -11 -4 -3 -8 2 -8 10 0 8 -10 16 -22 18 -13 2 -22 9 -20 16 1 7 -9 17
-23 22 -14 5 -25 11 -25 13 0 8 45 5 51 -4 3 -6 17 -9 30 -7 21 3 19 6 -22 33
-24 16 -77 46 -117 67 -107 55 -132 70 -158 95 -19 19 -20 23 -6 26 10 3 17 5
18 6 0 0 16 -6 35 -15z m-10355 -697 c-7 -28 10 -137 22 -149 5 -5 36 4 72 21
35 17 69 31 76 31 7 0 14 3 16 8 5 12 77 42 103 42 15 0 31 -11 44 -29 33 -46
32 -48 -59 -140 l-55 -56 43 -40 c98 -89 111 -178 45 -312 -23 -46 -40 -83
-39 -83 0 0 46 16 101 35 101 35 136 40 194 29 33 -7 91 -58 91 -81 0 -21 29
-15 82 17 26 17 52 30 56 30 4 0 34 16 67 36 33 20 87 43 120 52 l59 15 37
-42 c20 -22 43 -41 52 -41 8 0 40 19 70 43 31 23 99 69 151 102 53 33 96 63
96 68 0 4 5 7 10 7 6 0 27 11 48 24 121 76 188 120 192 126 3 4 45 29 95 55
49 27 104 59 123 71 94 64 184 84 220 48 12 -13 12 -17 -1 -32 -8 -9 -12 -23
-10 -29 3 -7 -1 -13 -9 -13 -7 0 -24 -14 -37 -30 -13 -17 -29 -30 -36 -30 -8
0 -17 -9 -20 -20 -3 -11 -10 -20 -15 -20 -8 0 -40 -26 -130 -104 -14 -12 -47
-37 -75 -56 -27 -19 -54 -39 -60 -45 -5 -7 -26 -21 -45 -33 -20 -11 -47 -33
-60 -47 -14 -15 -45 -41 -70 -58 -25 -17 -81 -60 -125 -97 -44 -37 -93 -75
-110 -86 -16 -10 -50 -36 -75 -57 -25 -22 -62 -48 -83 -58 -21 -11 -40 -26
-43 -34 -3 -8 -42 -42 -87 -77 -45 -35 -104 -84 -132 -110 -27 -25 -68 -62
-89 -82 l-39 -36 44 -39 c25 -21 53 -55 64 -75 11 -20 23 -36 27 -36 5 0 36
27 70 59 78 73 213 177 338 261 52 35 99 69 103 77 4 7 13 13 19 13 5 0 27 13
47 29 20 15 48 34 62 42 15 8 60 36 100 63 41 27 94 58 119 69 25 11 47 23 50
27 3 4 34 22 70 41 43 23 78 34 106 34 23 0 40 3 38 7 -2 3 7 1 21 -5 l24 -12
-23 -8 c-14 -5 -30 -25 -43 -55 -11 -26 -36 -61 -54 -79 -43 -40 -163 -140
-212 -176 -20 -16 -47 -39 -60 -51 -12 -13 -65 -56 -117 -96 -52 -40 -122 -98
-155 -129 -120 -112 -241 -221 -275 -248 -19 -15 -51 -45 -70 -66 -32 -37 -33
-39 -15 -50 26 -14 97 -86 113 -114 17 -32 15 -89 -8 -157 -11 -33 -20 -61
-20 -63 0 -1 26 -3 58 -3 102 0 175 -64 174 -151 -1 -39 -22 -83 -78 -166 -13
-20 -21 -39 -18 -44 3 -5 29 7 59 25 116 75 229 125 292 131 23 2 47 6 53 10
13 8 42 -13 35 -25 -3 -4 2 -10 10 -13 8 -4 34 11 61 32 25 22 65 49 89 61 23
12 84 62 136 112 86 83 118 106 159 114 8 2 16 8 18 13 2 6 10 11 18 11 9 0
12 5 9 10 -3 6 -2 10 4 10 5 0 12 9 16 19 3 10 18 22 32 26 15 3 35 15 44 26
11 12 20 16 24 9 3 -5 1 -10 -5 -10 -6 0 -8 -4 -5 -10 4 -6 13 -5 25 3 23 13
26 33 8 40 -8 4 -4 8 10 12 12 4 22 14 22 22 0 9 6 13 15 10 8 -4 17 -2 20 3
4 6 20 10 36 10 21 0 49 14 88 45 31 25 60 45 64 45 11 0 112 67 126 84 7 9
18 16 24 16 6 0 20 9 31 19 12 11 50 34 86 51 36 18 74 40 85 50 11 9 40 27
65 40 25 12 56 29 70 37 75 43 181 86 220 90 59 6 100 -23 100 -71 0 -28 -12
-45 -77 -108 -43 -42 -112 -106 -153 -142 -41 -37 -100 -91 -130 -120 -30 -29
-84 -75 -120 -102 -36 -26 -83 -65 -105 -85 -22 -21 -59 -53 -82 -71 -76 -60
-217 -182 -289 -248 -38 -36 -99 -90 -134 -120 -210 -181 -695 -669 -679 -684
2 -2 27 0 55 4 99 16 174 -18 217 -98 l28 -52 57 44 c31 24 88 58 125 76 57
27 75 32 113 26 149 -20 196 -131 117 -274 -20 -37 -40 -69 -43 -72 -9 -7
-140 -226 -140 -234 0 -15 22 -3 77 42 32 26 67 54 79 62 57 40 155 118 209
165 95 84 282 232 410 325 245 178 293 212 380 272 50 33 135 96 190 138 55
42 111 83 125 93 14 9 59 40 101 69 161 111 337 226 406 267 40 23 75 46 78
51 4 6 39 27 78 46 40 19 90 46 112 60 119 73 671 353 855 434 47 21 112 50
145 65 33 15 141 63 240 105 99 43 216 94 260 114 44 21 94 43 110 51 31 14
140 68 260 128 39 20 108 52 155 72 47 21 137 61 200 90 63 29 126 56 140 60
14 3 43 15 65 25 119 53 288 93 374 88 57 -4 67 -8 92 -36 29 -32 35 -55 23
-86 -7 -19 -69 -48 -184 -86 -131 -43 -503 -181 -538 -200 -10 -4 -89 -36
-177 -69 -88 -34 -207 -80 -265 -103 -58 -23 -125 -49 -150 -59 -42 -15 -263
-112 -442 -192 -43 -18 -83 -38 -90 -44 -7 -5 -29 -16 -48 -23 -19 -7 -73 -31
-120 -52 -47 -22 -107 -49 -135 -60 -27 -12 -54 -25 -60 -28 -5 -4 -57 -32
-115 -63 -58 -30 -165 -92 -239 -136 -74 -45 -137 -81 -141 -81 -4 0 -13 -6
-19 -14 -7 -8 -35 -26 -64 -40 -62 -31 -101 -54 -142 -82 -17 -11 -61 -38
-100 -59 -38 -21 -90 -53 -115 -70 -25 -18 -72 -47 -105 -65 -114 -64 -347
-221 -560 -377 -16 -12 -58 -41 -92 -64 -35 -22 -63 -44 -63 -48 0 -4 -21 -20
-47 -37 -26 -16 -66 -45 -88 -64 -23 -19 -74 -60 -114 -90 -170 -130 -360
-284 -391 -319 -8 -9 -28 -27 -45 -39 -77 -60 -356 -330 -549 -533 -60 -63
-209 -215 -330 -339 -381 -389 -477 -491 -626 -664 -80 -93 -175 -203 -211
-245 -78 -90 -244 -299 -302 -381 -23 -31 -96 -129 -163 -217 -115 -152 -224
-306 -224 -317 0 -3 -15 -25 -32 -49 -18 -24 -39 -53 -45 -63 -7 -10 -34 -50
-61 -89 -26 -38 -72 -110 -102 -160 -30 -49 -63 -99 -72 -109 -10 -11 -18 -24
-18 -30 0 -5 -10 -26 -23 -45 -69 -105 -122 -183 -164 -241 -26 -36 -85 -121
-131 -190 -47 -69 -95 -138 -107 -155 -12 -16 -35 -52 -50 -80 -15 -27 -38
-63 -52 -80 -31 -39 -188 -286 -254 -401 -30 -51 -133 -217 -165 -265 -13 -19
-24 -38 -24 -43 0 -4 -17 -33 -39 -64 -21 -31 -59 -95 -85 -142 -26 -47 -70
-123 -98 -170 -28 -47 -66 -114 -85 -150 -19 -35 -47 -83 -63 -106 -15 -23
-31 -53 -35 -66 -4 -12 -16 -34 -25 -48 -10 -14 -41 -69 -68 -122 -28 -53 -63
-116 -78 -140 -15 -23 -67 -119 -114 -213 -48 -93 -113 -217 -144 -275 -32
-58 -69 -132 -83 -165 -14 -33 -61 -130 -104 -216 -43 -85 -79 -160 -79 -165
0 -5 -18 -45 -39 -89 -42 -85 -124 -273 -136 -314 -4 -14 -27 -63 -50 -110
-47 -94 -130 -290 -175 -414 -16 -43 -38 -97 -49 -120 -12 -24 -21 -49 -21
-55 0 -7 -4 -20 -9 -30 -20 -38 -41 -91 -41 -104 0 -8 -4 -18 -9 -24 -18 -20
-222 -612 -251 -729 -7 -27 -25 -87 -41 -132 -28 -82 -73 -257 -110 -428 -11
-49 -27 -117 -35 -150 -44 -176 -83 -382 -89 -466 -1 -26 -5 -52 -9 -58 -4 -6
-9 -35 -11 -64 -2 -28 -10 -85 -19 -125 -9 -41 -14 -78 -10 -83 3 -5 1 -24 -5
-42 -12 -38 -18 -114 -41 -547 -16 -286 -13 -1538 4 -1960 26 -624 26 -1154 1
-1470 -2 -25 -6 -130 -9 -235 -4 -104 -9 -206 -12 -225 l-5 -36 -59 6 c-33 3
-69 2 -81 -2 -24 -9 -49 6 -49 28 0 8 -4 22 -9 32 -22 42 -41 92 -41 109 0 10
-4 23 -9 28 -8 9 -59 167 -81 250 -4 17 -17 55 -29 85 -11 30 -21 66 -21 80
-1 30 -33 156 -43 166 -4 4 -7 22 -7 40 0 18 -4 36 -10 39 -5 3 -10 17 -10 30
0 13 -4 26 -9 29 -5 3 -12 23 -15 43 -9 52 -36 164 -46 188 -5 11 -27 101 -50
200 -23 99 -46 189 -50 200 -4 11 -13 53 -20 92 -6 40 -16 75 -21 79 -5 3 -9
20 -9 37 0 18 -10 75 -21 127 -22 106 -50 268 -79 470 -11 74 -23 143 -27 155
-4 11 -9 34 -10 50 -7 79 -23 202 -42 325 -28 176 -47 305 -60 410 -6 47 -18
137 -27 200 -9 63 -18 142 -20 175 -5 96 -23 340 -33 470 -6 67 -13 177 -17
245 -10 205 -11 220 -19 355 -15 276 -6 1129 15 1402 16 203 21 272 24 333 2
30 8 93 14 140 12 89 36 296 50 440 9 84 2 130 -18 130 -22 0 -110 -233 -110
-290 0 -15 -9 -72 -19 -126 -11 -55 -22 -130 -26 -169 -3 -38 -11 -90 -16
-114 -5 -24 -12 -71 -14 -105 -8 -108 -17 -177 -22 -172 -12 11 28 500 57 706
10 74 21 160 24 191 3 30 7 62 10 70 3 8 7 34 10 59 2 25 14 92 26 150 12 58
23 128 26 155 3 28 15 91 26 140 11 50 26 117 33 150 7 33 27 114 45 180 18
66 33 129 35 140 9 64 52 197 101 310 9 22 23 60 30 85 16 57 110 271 147 332
15 26 27 50 27 54 0 4 20 40 45 80 25 39 45 76 45 81 0 4 17 29 38 54 20 26
44 57 52 69 8 12 21 28 28 36 6 7 12 20 12 28 0 27 43 48 74 36 15 -5 29 -10
32 -10 9 0 3 17 -12 36 -13 16 -15 16 -10 2 3 -11 0 -18 -8 -18 -21 0 -24 20
-7 56 21 47 50 60 90 39 30 -15 32 -18 18 -38 -7 -12 -17 -34 -21 -49 -3 -16
-13 -28 -22 -28 -12 0 -15 -6 -10 -26 4 -14 3 -31 -2 -37 -5 -7 -15 -30 -22
-52 -11 -36 -56 -131 -96 -207 -8 -14 -14 -33 -14 -42 0 -9 -4 -16 -9 -16 -5
0 -13 -15 -16 -32 -4 -18 -11 -37 -15 -43 -6 -9 -38 -101 -105 -305 -15 -47
-38 -112 -50 -145 -12 -33 -30 -94 -40 -135 -10 -41 -31 -115 -46 -163 -28
-85 -50 -187 -83 -387 -9 -52 -23 -138 -32 -190 -10 -52 -20 -129 -24 -170 -4
-41 -17 -166 -29 -277 -12 -111 -22 -214 -22 -230 0 -15 -2 -236 -4 -491 -3
-308 -8 -470 -16 -483 -8 -16 -7 -25 4 -37 15 -18 16 -59 3 -81 -5 -8 -3 -17
5 -22 10 -6 14 -42 15 -141 4 -202 13 -449 19 -488 3 -19 5 -66 4 -105 -1 -38
-1 -77 -1 -85 0 -8 3 -55 7 -105 7 -90 9 -120 19 -463 3 -101 8 -186 10 -190
2 -4 0 -28 -4 -53 -6 -31 -5 -60 4 -89 8 -26 10 -62 6 -94 -4 -28 -6 -94 -4
-146 2 -52 3 -115 4 -140 1 -25 -1 -81 -4 -125 -6 -95 4 -205 34 -375 12 -69
26 -152 30 -185 5 -33 16 -82 24 -110 9 -27 21 -83 26 -125 12 -93 28 -176 42
-215 11 -31 51 -218 69 -320 6 -33 15 -78 20 -100 36 -147 52 -209 74 -275 45
-141 95 -305 119 -395 13 -49 35 -121 49 -160 13 -38 37 -109 52 -158 15 -48
31 -90 36 -93 5 -3 6 37 3 88 -14 241 -20 1329 -9 1893 3 176 7 419 10 540 4
273 14 589 21 716 4 89 3 97 -14 101 -28 8 -32 54 -10 117 10 31 17 63 15 72
-3 9 1 25 7 35 6 10 11 54 12 96 0 42 5 83 11 90 6 7 16 47 23 88 15 97 34
201 66 375 15 77 34 190 45 250 18 113 53 277 69 330 5 17 21 75 36 130 15 55
40 138 56 185 16 47 40 117 53 155 28 84 101 263 113 279 5 6 22 43 37 81 31
81 45 113 126 288 33 70 59 130 59 133 0 25 383 786 485 964 55 97 221 439
235 485 13 41 111 244 170 350 18 33 40 74 48 90 8 17 21 37 28 45 6 8 35 60
63 115 29 55 58 106 65 115 7 8 33 53 58 100 73 139 109 204 128 230 9 14 43
73 75 132 31 60 61 110 66 113 4 3 17 26 28 50 10 24 39 77 64 117 25 41 63
110 85 155 23 44 61 109 85 144 25 35 48 75 52 89 4 14 11 27 14 30 10 8 125
189 170 267 23 40 46 75 51 78 6 4 20 25 32 48 51 100 222 367 273 425 30 35
55 69 55 75 0 28 126 228 204 323 14 18 26 34 26 37 0 4 23 36 50 73 28 37 50
70 50 75 0 4 22 34 49 67 27 32 58 76 69 98 11 21 32 50 46 63 14 14 26 29 26
35 0 6 18 35 40 64 22 29 40 55 40 58 0 2 21 34 48 69 26 35 78 110 115 167
102 154 129 193 222 313 47 61 107 139 133 174 26 34 83 111 127 171 237 319
451 593 537 689 27 29 67 81 91 115 41 59 43 65 40 122 -4 65 -9 56 92 196 67
93 104 150 105 160 0 4 -28 5 -63 1 -203 -19 -323 130 -264 327 l14 45 -61 65
c-36 38 -68 84 -77 110 -8 24 -20 45 -26 47 -6 2 -49 -31 -94 -74 -46 -43
-129 -121 -185 -173 -55 -52 -130 -122 -165 -155 -35 -34 -102 -105 -149 -159
-47 -55 -121 -140 -165 -190 -44 -50 -100 -118 -125 -151 -24 -33 -76 -98
-115 -145 -38 -47 -79 -97 -90 -112 -11 -15 -58 -74 -105 -131 -47 -58 -105
-133 -130 -168 -25 -35 -74 -101 -109 -148 -34 -48 -73 -106 -84 -131 -12 -25
-52 -92 -91 -150 -145 -220 -162 -246 -176 -274 -8 -17 -64 -105 -125 -198
-60 -92 -121 -186 -135 -209 -44 -73 -89 -143 -106 -164 -14 -18 -90 -135
-207 -320 -24 -38 -56 -92 -71 -118 -18 -31 -33 -47 -41 -43 -9 3 -12 0 -9 -9
6 -14 -7 -44 -28 -67 -7 -7 -22 -30 -33 -51 -11 -21 -28 -45 -37 -54 -10 -9
-18 -22 -18 -29 0 -7 -5 -14 -11 -16 -5 -2 -11 -11 -12 -20 -4 -25 -27 -47
-43 -41 -19 7 -18 15 5 39 10 12 22 41 26 65 4 24 13 57 21 73 8 16 14 38 14
50 0 19 -1 19 -17 -4 -22 -33 -35 -41 -55 -36 -14 3 -15 0 -8 -19 6 -17 3 -28
-16 -48 -13 -14 -24 -29 -24 -32 0 -10 -28 -35 -38 -35 -13 0 -23 -27 -16 -44
6 -16 -37 -66 -57 -67 -8 0 -5 -4 6 -9 18 -7 19 -8 3 -15 -10 -4 -18 -13 -18
-20 0 -8 -9 -17 -20 -20 -15 -5 -19 -12 -15 -26 5 -14 0 -22 -17 -30 -21 -9
-40 -36 -62 -89 -29 -67 -76 -110 -122 -110 -18 0 -34 3 -34 8 0 18 32 50 55
56 20 5 25 11 20 26 -4 13 1 23 14 32 23 14 28 44 10 50 -15 5 11 48 28 48 7
0 13 12 13 28 0 36 22 97 43 120 9 10 17 26 17 35 0 12 9 17 32 17 23 0 29 3
21 11 -14 14 19 101 52 141 13 16 22 35 19 43 -4 8 -2 15 3 15 5 0 21 24 37
53 50 94 61 112 74 120 6 4 12 14 12 21 0 8 20 41 45 75 25 34 45 65 45 70 0
5 6 16 14 23 7 8 23 33 35 55 11 23 27 47 34 55 8 8 33 47 56 87 22 40 50 84
61 98 11 14 20 33 20 43 0 9 9 25 20 35 11 10 20 23 20 30 0 6 11 22 25 35 14
13 25 29 25 35 0 6 8 20 18 31 10 10 28 37 41 59 13 22 34 56 47 75 12 19 33
55 47 79 13 25 45 72 71 105 26 34 106 151 177 260 72 110 146 219 165 242 19
22 34 45 34 51 0 5 18 36 41 68 112 159 169 246 169 254 0 5 3 11 8 13 4 2 15
14 25 28 9 14 28 41 42 60 13 19 38 53 54 75 17 22 50 69 74 105 24 36 65 92
90 125 98 128 123 159 137 175 31 34 57 76 69 112 7 20 25 53 42 74 16 20 29
40 29 44 0 7 64 82 185 215 162 179 649 659 925 913 36 33 40 41 23 37 -12 -2
-28 -9 -35 -14 -7 -6 -65 -52 -128 -103 -63 -51 -155 -125 -204 -166 -125
-104 -175 -121 -245 -86 -84 42 -91 129 -19 222 25 31 56 75 71 98 l25 41 -51
2 c-66 2 -166 49 -199 94 -51 68 -61 104 -48 169 6 32 24 87 40 122 21 47 25
67 17 75 -16 16 -35 14 -54 -7 -42 -43 -200 -219 -288 -321 -16 -19 -39 -44
-51 -55 -11 -12 -40 -48 -64 -81 -25 -33 -65 -85 -90 -115 -25 -30 -58 -73
-73 -95 -15 -22 -61 -87 -102 -145 -100 -141 -165 -238 -188 -280 -11 -19 -34
-57 -52 -85 -18 -27 -71 -110 -119 -184 -48 -73 -98 -156 -112 -183 -14 -27
-45 -81 -70 -119 -24 -38 -65 -108 -90 -157 -25 -48 -51 -94 -58 -102 -15 -18
-62 -103 -151 -275 -37 -71 -76 -144 -86 -161 -10 -17 -65 -123 -122 -235
-108 -212 -147 -286 -238 -454 -30 -55 -70 -131 -89 -170 -19 -38 -49 -93 -67
-122 -18 -29 -33 -54 -33 -57 0 -2 -20 -35 -45 -73 -25 -37 -45 -73 -45 -79 0
-5 -13 -31 -30 -57 -16 -26 -30 -54 -30 -62 0 -8 -8 -20 -19 -27 -10 -7 -20
-17 -21 -23 -2 -5 -5 -18 -8 -27 -2 -10 -8 -18 -13 -18 -5 0 -9 -11 -9 -25 0
-16 -6 -25 -15 -25 -9 0 -18 -7 -21 -15 -4 -9 -14 -19 -23 -24 -33 -18 -14 72
21 97 10 7 16 17 14 21 -8 12 41 182 64 222 11 20 21 45 23 55 1 10 10 34 20
53 9 19 17 42 17 53 0 10 5 18 10 18 6 0 10 10 10 23 0 12 6 31 14 42 7 11 21
47 31 80 9 33 23 71 30 85 7 14 25 57 40 95 15 39 36 88 46 111 10 22 19 43
19 47 0 6 102 219 235 492 29 61 66 135 80 165 15 30 42 84 62 120 19 36 101
196 182 356 81 159 156 303 168 320 11 16 42 72 68 124 53 107 152 274 197
335 16 22 61 90 100 150 40 61 91 134 115 163 24 30 43 57 43 60 0 4 14 23 31
42 17 19 53 69 81 110 28 41 61 85 72 97 12 12 37 40 56 63 64 74 250 283 320
359 105 114 118 135 124 201 3 36 8 82 12 103 l6 37 -62 0 c-60 0 -65 -2 -114
-44 -28 -24 -125 -119 -216 -212 -201 -204 -196 -199 -293 -306 -57 -64 -85
-88 -102 -88 -16 0 -30 -10 -42 -30 -18 -31 -45 -38 -73 -20 -12 8 -13 11 -1
19 9 6 11 18 6 40 -4 17 -3 31 2 31 4 0 14 15 22 33 8 17 22 44 33 59 10 14
18 31 18 38 0 14 100 165 141 210 17 19 55 70 86 112 30 43 60 81 66 85 11 7
70 79 101 123 11 15 -52 -37 -175 -146 -102 -90 -216 -147 -240 -118 -14 17
-4 89 23 162 20 53 141 225 192 271 40 37 32 43 -26 20 -70 -27 -161 -22 -206
11 -17 13 -29 27 -26 32 3 5 -3 12 -14 15 -22 5 -37 36 -48 95 -6 39 12 89 46
126 11 12 20 28 20 36 0 8 4 17 10 21 5 3 39 49 74 103 36 53 85 124 108 157
41 57 68 106 68 124 0 4 -25 14 -55 21 -53 13 -56 12 -93 -14 -22 -15 -66 -52
-98 -84 -54 -51 -104 -94 -261 -220 -104 -83 -166 -89 -189 -17 -6 19 -7 32
-2 29 13 -9 9 25 -7 49 -19 30 -5 84 30 117 14 13 25 29 25 35 0 13 127 137
220 215 36 29 74 62 85 72 11 10 34 29 51 42 24 20 32 37 42 87 7 40 23 79 40
104 28 38 243 205 264 205 6 0 8 -10 4 -23z m11634 -487 c0 -5 -2 -10 -4 -10
-2 0 -12 -3 -22 -7 -16 -6 -17 -5 -4 10 17 19 30 22 30 7z m-12406 -391 c-3
-5 -10 -7 -15 -3 -5 3 -7 10 -3 15 3 5 10 7 15 3 5 -3 7 -10 3 -15z m7686
-360 c-41 -22 -79 -45 -84 -50 -14 -13 -26 -11 -26 4 0 14 141 85 170 86 8 0
-19 -18 -60 -40z m1881 4 c10 -11 10 -14 2 -9 -8 4 -13 2 -13 -5 0 -8 -4 -8
-15 1 -13 11 -13 15 -3 21 7 5 14 9 14 9 1 0 8 -8 15 -17z m302 -83 c42 -16
82 -30 90 -30 8 0 32 -7 53 -16 22 -9 63 -23 93 -31 30 -7 60 -18 65 -22 6 -5
49 -21 96 -36 47 -15 108 -36 135 -47 28 -11 102 -38 165 -60 63 -23 126 -49
140 -58 25 -17 67 -31 106 -36 12 -1 39 -12 60 -23 21 -12 43 -21 47 -21 5 0
21 -8 35 -19 15 -10 43 -22 62 -26 19 -4 55 -18 80 -31 52 -27 124 -58 160
-69 14 -4 30 -11 36 -16 5 -4 55 -31 110 -59 54 -28 119 -64 144 -80 25 -15
51 -29 58 -29 15 -1 86 -40 149 -83 23 -15 46 -28 52 -28 5 0 37 -18 70 -40
33 -22 63 -40 66 -40 10 0 139 -82 163 -104 13 -12 43 -32 66 -46 68 -40 120
-76 135 -94 7 -9 18 -16 24 -16 14 0 78 -43 142 -95 51 -42 85 -66 138 -98 17
-10 65 -49 106 -86 42 -37 94 -79 116 -93 22 -15 58 -43 80 -63 22 -20 53 -46
69 -58 79 -61 146 -119 146 -127 0 -6 5 -10 10 -10 6 0 18 -8 29 -17 16 -16
69 -54 244 -177 23 -16 54 -32 70 -37 24 -7 27 -6 22 11 -9 27 24 87 56 100
24 10 33 7 90 -31 35 -24 84 -59 109 -78 25 -20 53 -40 62 -46 9 -5 56 -44
105 -85 48 -42 103 -87 121 -100 17 -13 32 -29 32 -36 0 -41 -109 -28 -155 19
-15 15 -36 27 -46 27 -11 0 -27 8 -38 19 -19 19 -78 51 -94 51 -6 0 -18 6 -26
14 -21 18 -61 30 -61 18 0 -5 35 -38 78 -73 103 -84 348 -308 393 -357 40 -45
61 -103 52 -146 -3 -16 -26 -48 -50 -72 -38 -36 -43 -45 -34 -62 6 -11 14 -22
18 -24 14 -6 93 -106 93 -117 0 -6 4 -10 9 -8 13 3 123 -105 187 -183 29 -36
82 -96 118 -135 36 -38 66 -74 66 -80 1 -20 62 -77 71 -68 6 6 4 14 -5 22 -8
7 -13 18 -10 26 3 7 1 16 -5 20 -6 3 -11 13 -11 22 0 14 3 14 20 -2 11 -10 20
-22 20 -27 0 -4 19 -27 43 -51 24 -23 54 -58 67 -77 28 -42 56 -71 67 -69 23
4 32 -2 26 -18 -4 -10 -2 -14 4 -10 6 4 19 4 29 0 15 -6 15 -7 -5 -15 -12 -4
-19 -12 -16 -18 4 -6 11 -8 16 -5 5 4 9 -5 9 -18 0 -13 9 -32 20 -42 12 -11
28 -34 36 -51 9 -18 36 -55 61 -81 24 -26 51 -64 60 -83 8 -18 30 -52 47 -75
18 -22 47 -65 65 -95 17 -30 58 -95 90 -145 52 -79 197 -315 254 -415 11 -19
30 -46 43 -60 12 -14 34 -50 50 -80 39 -79 141 -256 180 -317 19 -28 62 -105
95 -170 34 -65 81 -154 104 -198 108 -204 125 -242 142 -305 13 -48 43 -223
58 -330 2 -19 11 -60 20 -90 9 -30 18 -65 20 -78 2 -13 9 -29 15 -37 7 -8 13
-27 15 -42 1 -15 24 -86 49 -158 26 -71 56 -157 67 -190 39 -118 117 -248 190
-316 16 -15 29 -31 29 -36 0 -11 48 -188 67 -243 19 -58 32 -105 43 -155 13
-62 60 -226 76 -265 7 -19 27 -96 44 -170 44 -192 51 -223 58 -240 3 -8 7 -22
8 -30 2 -8 10 -44 18 -80 8 -35 12 -68 9 -73 -2 -4 1 -14 7 -22 6 -8 11 -24 9
-37 -1 -13 4 -36 11 -53 7 -16 14 -47 15 -68 2 -22 6 -41 8 -44 3 -2 1 -18 -3
-34 -5 -16 -5 -29 0 -29 10 0 31 -91 24 -102 -3 -4 -2 -13 2 -20 10 -16 18
-71 18 -133 1 -84 -23 -65 -71 55 -23 58 -43 112 -43 121 0 9 -7 36 -16 60 -8
24 -18 55 -20 69 -3 14 -10 41 -16 60 -7 19 -11 38 -10 42 1 4 -5 23 -13 42
-8 19 -15 48 -15 63 0 15 -7 37 -15 47 -8 11 -15 33 -15 49 0 15 -4 36 -10 46
-5 10 -11 29 -14 42 -10 55 -30 128 -52 196 -13 39 -24 82 -24 95 0 13 -4 28
-9 34 -5 5 -23 63 -39 129 -17 66 -39 147 -51 180 -18 56 -48 156 -72 250 -6
22 -19 63 -29 90 -10 28 -24 68 -31 90 -6 22 -23 69 -36 105 -12 36 -23 71
-23 78 0 15 -78 250 -91 274 -5 10 -9 26 -9 36 0 10 -5 23 -11 29 -6 6 -15 29
-20 52 -5 23 -20 65 -34 93 -14 29 -25 57 -25 64 0 7 -13 42 -30 79 -16 37
-30 74 -30 82 0 8 -11 36 -24 62 -13 25 -33 71 -46 101 -39 95 -60 143 -91
205 -16 33 -29 65 -29 71 0 6 -8 22 -18 35 -11 13 -27 47 -37 74 -10 28 -22
55 -25 60 -17 24 -78 139 -133 250 -32 66 -65 127 -73 135 -7 9 -29 47 -49 85
-20 39 -54 97 -75 130 -22 33 -58 94 -81 135 -23 41 -57 94 -75 117 -19 23
-34 46 -34 51 0 5 -9 17 -21 28 -12 10 -30 35 -40 54 -35 63 -56 96 -98 151
-22 30 -41 58 -41 63 0 4 -11 22 -25 40 -31 38 -29 35 -88 116 -25 36 -57 80
-69 99 -13 18 -30 41 -39 50 -8 10 -18 24 -21 33 -17 44 -202 306 -289 407
-30 36 -64 80 -74 96 -22 36 -51 65 -63 65 -4 0 -22 15 -38 33 -16 17 -54 52
-84 77 -60 49 -144 134 -345 346 -71 75 -166 174 -210 219 -44 45 -105 108
-136 141 -79 82 -249 245 -414 397 -77 71 -185 170 -240 222 -55 52 -114 104
-130 116 -17 13 -53 43 -81 68 -28 25 -88 75 -134 111 -45 36 -106 85 -134
110 -28 25 -67 56 -86 70 -19 14 -42 30 -50 37 -77 63 -361 266 -424 303 -24
14 -59 37 -79 53 -20 15 -38 27 -42 27 -6 0 -118 73 -165 108 -14 10 -48 29
-77 42 -30 14 -57 35 -65 50 -7 14 -21 33 -31 42 -11 9 -16 22 -12 27 3 7 -3
11 -14 11 -12 0 -21 5 -21 11 0 6 -7 9 -15 5 -8 -3 -14 -2 -14 2 4 24 -10 36
-88 83 -49 28 -90 55 -93 58 -3 4 -21 16 -40 27 -19 10 -37 21 -40 24 -11 11
-92 54 -210 111 -69 34 -129 68 -133 75 -4 8 -15 14 -22 14 -8 0 -15 5 -15 10
0 6 -8 10 -17 10 -26 0 -83 22 -136 52 -26 16 -54 28 -62 28 -7 0 -20 6 -27
13 -14 13 -37 22 -162 68 -43 16 -87 35 -96 44 -9 8 -24 15 -33 15 -9 0 -17 6
-17 13 0 14 -87 50 -101 41 -8 -4 -38 7 -166 62 -17 8 -37 14 -45 14 -7 0 -22
6 -33 14 -11 7 -47 21 -80 31 -97 30 -114 41 -111 72 2 16 4 29 5 31 5 11 73
-3 134 -28z m-2419 -39 c4 -5 -24 -26 -61 -47 -38 -20 -79 -46 -93 -56 -25
-19 -83 -56 -240 -153 -73 -45 -214 -139 -443 -296 -117 -81 -172 -122 -431
-322 -65 -51 -134 -103 -152 -117 -38 -29 -212 -170 -265 -215 -20 -16 -53
-43 -74 -60 -34 -26 -125 -103 -364 -305 -37 -31 -106 -89 -156 -129 -85 -69
-198 -167 -234 -202 -34 -33 -117 -83 -133 -81 -10 2 -18 -1 -18 -6 0 -5 -19
-22 -42 -38 -24 -16 -71 -57 -106 -91 -35 -35 -70 -63 -78 -63 -8 0 -14 -4
-14 -9 0 -11 -44 -61 -54 -61 -3 0 -14 -8 -24 -17 -10 -10 -59 -54 -108 -98
-98 -88 -204 -186 -274 -254 -25 -24 -112 -105 -194 -179 -195 -177 -754 -737
-931 -932 -77 -85 -176 -193 -220 -241 -44 -47 -107 -117 -140 -154 -33 -38
-82 -94 -110 -125 -27 -31 -79 -91 -115 -135 -36 -43 -96 -114 -135 -158 -38
-43 -80 -93 -92 -110 -13 -17 -39 -46 -58 -65 -19 -19 -35 -40 -35 -47 0 -7
-6 -15 -14 -18 -9 -4 -12 -14 -9 -26 3 -12 1 -21 -6 -21 -6 0 -11 -6 -11 -14
0 -7 -7 -19 -15 -26 -9 -7 -13 -15 -11 -17 5 -6 -30 -74 -67 -128 -15 -22 -27
-45 -27 -52 0 -7 -4 -13 -10 -13 -5 0 -10 -7 -10 -15 0 -7 -6 -18 -13 -22 -7
-4 -29 -39 -48 -76 -18 -38 -44 -80 -56 -93 -13 -14 -23 -31 -23 -38 0 -7 -10
-26 -21 -40 -12 -15 -41 -64 -64 -109 -23 -45 -52 -100 -65 -122 -12 -22 -41
-74 -63 -115 -22 -41 -43 -79 -47 -85 -7 -9 -59 -105 -104 -190 -21 -41 -139
-291 -161 -342 -9 -23 -15 -48 -12 -56 3 -7 -4 -19 -15 -26 -17 -10 -19 -20
-15 -53 3 -22 0 -51 -8 -66 -57 -122 -81 -171 -125 -265 -27 -59 -50 -110 -50
-112 0 -2 -27 -60 -60 -130 -33 -70 -60 -129 -60 -131 0 -7 -75 -186 -106
-252 -13 -29 -24 -58 -24 -65 0 -7 -6 -21 -14 -32 -7 -11 -23 -48 -34 -82 -12
-33 -30 -78 -41 -100 -34 -67 -61 -131 -61 -146 0 -7 -7 -22 -15 -33 -8 -10
-15 -25 -15 -32 0 -7 -14 -43 -31 -79 -17 -37 -51 -119 -75 -182 -67 -173
-119 -312 -133 -351 -7 -19 -26 -71 -43 -115 -17 -44 -47 -129 -68 -190 -21
-60 -55 -153 -75 -205 -73 -189 -325 -946 -325 -975 0 -5 -8 -27 -19 -49 -10
-23 -26 -70 -36 -106 -10 -36 -30 -103 -46 -150 -15 -47 -39 -128 -54 -180
-15 -52 -38 -131 -50 -175 -13 -44 -42 -154 -65 -245 -22 -91 -47 -185 -55
-210 -8 -25 -21 -79 -29 -120 -16 -82 -36 -171 -59 -265 -9 -33 -22 -96 -31
-140 -8 -44 -29 -147 -46 -230 -18 -82 -35 -172 -40 -200 -5 -27 -13 -68 -18
-90 -6 -22 -20 -96 -32 -165 -11 -69 -25 -144 -31 -168 -5 -23 -9 -62 -9 -85
0 -24 -4 -68 -10 -98 -5 -30 -11 -81 -14 -114 -2 -33 -9 -92 -15 -131 -6 -39
-13 -118 -15 -175 -3 -57 -7 -111 -10 -119 -3 -8 -8 -78 -11 -155 -21 -485
-32 -727 -34 -704 0 14 -8 48 -16 75 -9 27 -20 76 -26 109 -58 347 -100 683
-104 825 -1 52 -5 138 -9 190 -11 162 -21 746 -14 833 1 19 13 23 23 7 3 -5 1
-10 -6 -10 -8 0 -6 -7 5 -19 10 -11 24 -45 32 -78 9 -32 21 -80 28 -108 l13
-50 16 55 c8 30 23 98 32 150 40 220 110 509 154 634 12 33 21 72 21 88 0 15
8 54 19 85 10 32 26 85 36 118 9 33 23 80 31 105 9 25 29 92 45 150 17 58 37
119 45 135 18 34 32 77 64 185 28 96 111 344 145 435 14 39 42 115 61 170 20
55 50 138 69 185 18 47 47 126 65 175 29 81 66 171 91 217 5 10 9 22 9 28 0
10 10 33 70 165 15 33 46 107 68 165 41 106 57 151 138 378 24 67 46 127 49
132 6 10 49 127 114 310 27 74 60 160 74 190 14 30 39 94 55 142 17 47 44 115
61 149 17 35 31 69 31 75 0 6 30 78 66 160 60 134 85 194 159 374 12 30 45
107 73 170 68 156 76 185 36 145 -9 -8 -24 -15 -34 -15 -17 0 -18 3 -8 28 7
15 15 32 19 37 3 6 9 24 13 40 4 17 17 46 29 65 12 19 22 46 23 60 2 29 76
215 136 340 22 47 53 119 69 160 16 41 44 100 63 130 18 30 55 98 81 150 25
52 52 102 59 110 7 8 28 44 46 80 18 36 41 77 51 92 11 14 19 30 19 35 0 6 29
53 64 106 35 52 66 101 69 109 2 7 35 58 71 112 67 101 77 126 51 126 -8 0
-15 -5 -15 -11 0 -5 -5 -7 -10 -4 -6 3 -13 -1 -16 -9 -8 -20 -24 -21 -24 -1 0
8 4 15 8 15 5 0 14 18 21 40 6 22 36 83 66 136 30 53 55 98 55 100 0 1 33 56
73 121 90 147 216 331 277 403 25 30 53 64 61 76 8 12 62 81 121 155 59 74
108 137 108 140 0 4 -13 9 -29 12 -36 7 -71 61 -71 108 0 19 9 49 21 68 l20
33 -22 24 -22 23 259 256 c142 140 263 255 268 255 16 0 56 -43 56 -60 0 -26
11 -30 41 -15 36 19 78 19 99 0 14 -13 21 -11 58 14 24 16 53 42 65 58 33 44
547 567 622 633 22 19 72 64 110 100 39 36 85 77 103 91 18 15 54 46 80 71
115 107 362 310 462 378 28 19 59 42 68 51 25 25 141 112 187 141 22 14 49 34
60 44 32 31 146 117 195 149 25 16 59 41 75 56 17 15 82 62 145 105 63 42 117
80 120 84 3 4 32 25 65 47 174 115 313 210 326 221 7 8 64 46 124 86 61 40
159 105 218 145 128 85 266 169 322 195 22 10 44 25 48 32 4 8 18 14 30 14 13
0 71 29 131 65 59 36 111 65 114 65 3 0 28 17 56 38 28 20 71 51 96 67 25 16
74 51 110 76 81 58 136 90 225 133 111 53 158 66 169 47z m-8357 -3043 c-3 -8
-6 -5 -6 6 -1 11 2 17 5 13 3 -3 4 -12 1 -19z m16263 -308 c42 -41 99 -103
127 -137 45 -55 52 -70 63 -135 12 -76 58 -225 83 -275 8 -15 18 -44 22 -63 7
-34 6 -35 -10 -12 -9 12 -32 70 -51 129 -19 58 -38 111 -43 117 -5 6 -26 45
-47 86 -20 41 -48 89 -61 106 -12 17 -23 34 -23 38 0 13 -88 134 -124 170 -20
19 -36 42 -36 51 0 8 -4 15 -10 15 -5 0 -10 5 -10 12 0 13 16 -1 120 -102z
m-16375 -1261 c10 -15 -1 -23 -20 -15 -9 3 -13 10 -10 16 8 13 22 13 30 -1z
m-52 -1219 c6 -24 3 -25 -17 -4 -9 8 -14 20 -10 25 8 13 21 3 27 -21z m-93
-140 c0 -5 -5 -10 -11 -10 -5 0 -7 5 -4 10 3 6 8 10 11 10 2 0 4 -4 4 -10z
m-4490 -901 c0 -3 -7 -12 -15 -19 -8 -7 -15 -18 -15 -25 0 -7 -7 -18 -15 -25
-8 -7 -15 -19 -15 -26 0 -8 -15 -37 -34 -66 -18 -29 -58 -102 -88 -163 -30
-60 -60 -119 -66 -130 -43 -77 -149 -322 -223 -520 -33 -88 -72 -189 -86 -225
-30 -76 -44 -120 -107 -330 -107 -357 -114 -379 -152 -550 -14 -63 -39 -171
-55 -240 -16 -69 -29 -135 -29 -147 0 -12 -9 -46 -20 -75 -11 -29 -22 -73 -24
-98 -4 -41 -11 -83 -35 -225 -5 -27 -16 -86 -25 -130 -9 -44 -21 -111 -26
-150 -5 -38 -16 -101 -24 -140 -25 -122 -82 -461 -91 -545 -3 -30 -10 -80 -16
-110 -54 -301 -72 -404 -79 -460 -5 -36 -13 -87 -19 -115 -5 -27 -17 -97 -25
-155 -8 -58 -20 -143 -27 -190 -7 -47 -15 -125 -19 -175 -14 -175 -40 -451
-50 -528 -19 -154 -33 -540 -33 -932 0 -524 22 -866 73 -1134 11 -62 19 -115
17 -117 -2 -3 -21 67 -42 153 -20 87 -41 174 -46 193 -5 19 -16 87 -24 150 -9
63 -18 126 -21 140 -21 101 -36 224 -63 495 -24 248 -28 625 -10 900 6 88 12
180 14 205 20 307 35 467 96 1020 5 47 11 109 14 138 2 29 6 61 9 70 3 9 7 40
10 67 4 43 35 259 52 365 3 19 12 76 19 125 8 50 20 113 25 140 6 28 13 66 16
85 5 44 19 113 39 210 9 41 18 84 19 95 2 11 6 35 10 53 5 19 9 43 11 55 1 12
7 40 13 62 6 22 30 121 52 220 23 99 50 209 60 245 11 36 29 101 40 145 12 44
27 103 35 130 7 28 18 61 23 75 21 48 82 254 82 274 0 12 10 41 21 66 12 25
43 108 69 185 27 77 60 172 75 210 14 39 37 99 50 135 56 154 98 259 125 315
15 33 40 89 55 125 15 36 42 99 61 140 19 42 34 79 34 83 0 5 22 54 49 110 27
56 61 127 75 157 30 64 96 186 154 285 22 39 53 92 68 119 25 47 27 49 40 31
8 -10 14 -22 14 -26z m22716 -2068 c-11 -18 -36 -13 -36 7 0 10 3 22 7 26 10
10 37 -20 29 -33z m44 -131 c0 -5 -4 -10 -10 -10 -5 0 -10 5 -10 10 0 6 5 10
10 10 6 0 10 -4 10 -10z m-23106 -1304 c-3 -8 4 -16 20 -20 32 -8 40 -46 27
-123 -5 -32 -9 -65 -9 -73 0 -20 -12 -204 -17 -260 -3 -25 -12 -126 -20 -225
-9 -99 -22 -232 -30 -295 -7 -63 -19 -169 -25 -235 -6 -66 -13 -138 -15 -160
-10 -74 -35 -349 -45 -485 -5 -74 -13 -178 -17 -230 -15 -182 -7 -850 11 -878
2 -4 7 -56 10 -117 6 -116 38 -412 57 -530 32 -197 62 -350 84 -435 14 -52 32
-126 41 -165 8 -38 23 -97 34 -130 44 -142 163 -512 170 -530 5 -11 18 -47 29
-81 11 -33 26 -78 35 -100 50 -132 69 -180 78 -191 6 -8 34 -13 69 -13 32 0
78 -6 101 -14 24 -8 66 -21 93 -29 28 -8 57 -18 66 -22 18 -7 22 19 55 330 3
28 12 97 20 155 8 58 19 139 24 180 20 171 51 404 55 410 2 3 6 35 9 70 4 36
10 101 15 145 8 74 16 121 55 355 8 47 20 117 26 155 13 84 28 173 40 235 5
25 14 77 21 115 6 39 17 90 24 115 7 25 27 108 45 185 17 77 35 148 41 157 5
10 9 28 9 41 0 13 3 27 7 31 4 3 9 28 11 54 2 26 9 53 15 60 6 8 12 24 12 35
3 48 18 97 30 97 16 0 26 24 32 75 2 22 9 42 14 43 5 2 9 9 9 16 0 9 9 12 25
8 23 -4 31 -20 25 -47 -1 -5 -2 -40 -2 -77 0 -52 -5 -74 -20 -93 -16 -20 -18
-33 -12 -70 4 -28 2 -50 -5 -58 -6 -7 -13 -51 -16 -98 -3 -46 -8 -91 -10 -99
-5 -16 -29 -172 -45 -295 -5 -38 -14 -97 -19 -130 -5 -33 -21 -134 -36 -225
-14 -91 -33 -214 -41 -275 -8 -60 -22 -157 -30 -215 -79 -570 -99 -812 -110
-1300 -6 -235 0 -370 15 -370 4 0 20 39 36 87 36 103 71 160 136 216 55 48
175 97 235 97 92 0 245 -69 324 -146 25 -24 48 -44 52 -44 3 0 5 215 4 478 0
262 2 504 7 537 4 33 12 107 17 165 6 58 12 120 15 138 3 18 9 81 15 140 5 59
14 152 20 207 6 55 12 129 15 165 3 36 7 88 10 115 3 28 10 111 15 185 6 74
17 212 25 305 9 94 17 190 19 215 4 46 13 116 22 159 4 16 8 21 15 14 8 -8 7
-18 -1 -33 -7 -13 -8 -26 -2 -33 5 -7 9 -64 10 -127 0 -63 3 -288 6 -500 3
-212 8 -761 11 -1220 3 -459 7 -846 10 -860 2 -14 9 -70 15 -125 6 -55 13
-113 15 -130 2 -16 7 -70 10 -120 7 -101 17 -119 71 -129 18 -4 35 -6 36 -5 2
1 21 -9 43 -23 70 -44 194 -68 362 -69 218 -2 205 -4 197 29 -4 15 -13 39 -20
54 -7 14 -27 70 -43 125 -16 54 -41 136 -56 183 -38 121 -70 249 -95 370 -12
58 -30 139 -40 180 -10 41 -26 109 -34 150 -8 41 -17 89 -20 105 -4 17 -13 73
-20 125 -8 52 -25 145 -36 205 -12 61 -24 148 -26 195 -2 47 -8 112 -13 145
-6 33 -15 112 -20 175 -6 63 -14 147 -18 185 -4 39 -6 77 -5 85 9 75 10 130 2
125 -11 -7 -12 1 -4 32 9 32 71 44 91 17 8 -10 19 -18 24 -16 5 1 9 -10 9 -25
-1 -16 4 -50 10 -78 22 -106 31 -157 60 -365 64 -457 71 -506 80 -525 5 -11
16 -65 25 -120 9 -55 22 -118 29 -140 8 -22 17 -67 21 -100 4 -33 10 -64 15
-70 4 -5 8 -17 8 -25 1 -31 34 -185 42 -195 4 -5 11 -35 14 -65 4 -30 11 -64
16 -75 5 -11 13 -40 19 -65 11 -49 19 -82 46 -175 10 -33 23 -85 29 -115 7
-30 15 -62 18 -70 4 -8 16 -55 28 -105 12 -49 25 -97 29 -105 4 -8 14 -40 21
-70 6 -30 16 -62 20 -70 4 -9 13 -42 21 -73 7 -32 16 -60 21 -63 4 -3 8 -15 8
-27 0 -12 7 -35 15 -51 8 -15 15 -35 15 -43 0 -8 5 -24 12 -36 12 -22 47 -116
48 -129 0 -8 -120 20 -134 31 -6 5 -23 11 -38 15 -24 5 -26 9 -16 25 8 14 8
26 -3 50 -15 35 -13 35 -119 17 -97 -15 -132 -16 -210 -2 -92 16 -174 23 -345
31 -62 2 -129 11 -153 20 -92 33 -106 50 -203 241 -49 99 -94 183 -100 189 -5
5 -9 17 -9 26 0 10 -9 24 -19 31 -10 7 -28 32 -40 54 -12 22 -43 65 -70 95
-46 52 -51 54 -95 52 -26 -1 -58 -10 -73 -20 -16 -11 -62 -30 -103 -42 -145
-45 -163 -57 -204 -144 -30 -64 -25 -64 -108 2 -186 150 -259 187 -354 177
-72 -7 -91 -1 -180 61 -39 27 -65 38 -71 32 -6 -6 -30 4 -66 28 -53 35 -64 49
-159 213 -55 96 -107 182 -114 190 -7 8 -28 51 -47 95 -19 44 -44 100 -55 125
-37 82 -70 164 -83 210 -7 25 -21 61 -31 80 -18 35 -67 193 -93 300 -7 30 -27
109 -43 175 -17 66 -33 149 -37 185 -4 35 -11 71 -15 80 -5 8 -13 60 -20 115
-6 55 -18 148 -26 207 -8 59 -15 124 -15 145 -1 21 -5 65 -10 98 -12 89 -31
429 -33 605 -3 283 15 823 31 950 4 30 8 60 8 65 1 6 4 33 8 60 4 28 9 92 12
144 3 52 12 142 21 200 25 170 32 231 39 311 3 41 13 113 21 159 7 46 14 97
14 114 0 16 4 46 9 66 5 20 15 68 21 106 24 144 31 182 58 290 26 103 43 147
67 172 14 15 25 36 25 45 0 10 4 18 10 18 5 0 7 -6 4 -14z m2352 -324 c-3 -20
-8 -104 -11 -187 -4 -82 -8 -181 -11 -220 -2 -38 -4 -221 -3 -405 0 -184 1
-342 0 -350 -2 -61 0 -313 3 -318 2 -4 7 -113 11 -242 4 -129 9 -238 11 -242
14 -22 20 -343 10 -448 -2 -14 -4 -35 -4 -47 -3 -43 -20 -23 -25 30 -3 28 -8
66 -10 82 -5 34 -16 145 -22 220 -23 274 -29 1316 -9 1495 7 64 12 129 19 250
3 58 8 128 10 155 2 28 7 106 11 173 5 84 10 119 16 107 5 -9 7 -33 4 -53z
m2521 -1609 c-3 -10 -5 -4 -5 12 0 17 2 24 5 18 2 -7 2 -21 0 -30z m0 -90 c-3
-10 -5 -2 -5 17 0 19 2 27 5 18 2 -10 2 -26 0 -35z m-3492 -124 c4 -6 5 -12 3
-14 -7 -7 -48 7 -48 16 0 13 37 11 45 -2z m3502 -81 c-3 -8 -6 -5 -6 6 -1 11
2 17 5 13 3 -3 4 -12 1 -19z m-3510 6 c-3 -3 -12 -4 -19 -1 -8 3 -5 6 6 6 11
1 17 -2 13 -5z m23469 -386 c-34 -328 -132 -967 -166 -1083 -4 -16 -11 -46
-15 -65 -4 -19 -13 -54 -21 -78 -8 -23 -14 -60 -14 -82 0 -21 -9 -60 -21 -87
-11 -26 -31 -93 -44 -148 -13 -55 -33 -131 -45 -170 -37 -124 -60 -208 -81
-290 -11 -44 -26 -97 -34 -118 -8 -20 -15 -50 -15 -65 0 -15 -14 -74 -31 -132
-51 -174 -81 -291 -94 -370 -7 -41 -17 -86 -22 -100 -12 -28 -26 -91 -44 -195
-6 -38 -17 -83 -25 -100 -7 -16 -20 -61 -29 -100 -9 -38 -23 -81 -30 -95 -7
-14 -18 -52 -25 -85 -12 -59 -61 -220 -79 -260 -5 -11 -12 -29 -14 -40 -3 -11
-17 -51 -31 -90 -15 -38 -34 -90 -42 -115 -9 -25 -18 -47 -19 -48 -2 -2 -40
20 -84 49 -89 58 -84 46 -65 159 3 19 9 63 13 96 5 34 15 90 24 125 9 35 30
123 48 194 17 72 43 171 59 220 15 50 31 109 35 132 4 24 11 45 16 49 5 3 9
18 9 33 0 16 7 48 16 72 8 24 31 121 51 214 19 94 39 177 43 185 4 8 20 65 34
125 15 61 33 133 41 160 8 28 25 104 39 170 14 66 32 152 40 190 8 39 32 147
54 240 22 94 50 226 62 295 13 69 27 133 32 142 4 9 15 54 24 100 8 46 21 112
29 148 7 36 18 90 24 120 27 152 44 217 60 240 62 87 173 253 181 272 6 13 28
50 50 83 21 33 51 84 65 113 36 70 49 67 41 -10z m-516 -713 c-10 -39 -21 -99
-25 -135 -4 -35 -11 -71 -16 -80 -12 -20 -39 -134 -58 -240 -5 -30 -14 -73
-19 -95 -6 -22 -22 -94 -36 -161 -28 -130 -43 -195 -81 -344 -13 -52 -29 -122
-35 -155 -6 -33 -22 -94 -35 -135 -13 -41 -33 -118 -45 -170 -30 -138 -68
-286 -91 -355 -11 -33 -24 -89 -30 -125 -9 -61 -19 -100 -55 -225 -8 -27 -18
-75 -23 -105 -5 -30 -17 -80 -26 -110 -9 -30 -18 -66 -19 -80 -1 -14 -7 -37
-14 -52 -6 -16 -14 -54 -17 -85 -7 -77 -16 -124 -26 -145 -5 -9 -10 -36 -10
-60 -1 -24 -5 -47 -9 -53 -4 -5 -10 -36 -13 -69 -3 -32 -8 -60 -11 -63 -3 -3
-25 3 -50 13 -54 22 -56 29 -58 169 -1 101 1 119 29 213 8 29 12 59 9 67 -3 8
0 28 6 43 6 15 11 68 12 117 2 84 16 165 76 430 36 159 80 348 100 425 11 41
31 125 45 185 14 61 32 133 40 160 8 28 19 66 24 85 6 19 19 73 29 120 11 47
39 159 62 250 23 91 53 210 66 265 14 55 34 122 45 149 17 40 76 137 112 181
4 6 25 37 46 70 94 146 114 176 117 173 1 -2 -6 -35 -16 -73z m-24555 -1948
c56 -46 106 -96 133 -135 24 -36 35 -59 25 -53 -26 15 -270 261 -258 261 6 -1
50 -33 100 -73z" />
        <path d="M30960 38480 c8 -5 20 -10 25 -10 6 0 3 5 -5 10 -8 5 -19 10 -25 10
-5 0 -3 -5 5 -10z" />
        <path d="M33110 34620 c0 -5 5 -10 11 -10 5 0 7 5 4 10 -3 6 -8 10 -11 10 -2
0 -4 -4 -4 -10z" />
        <path d="M33140 34600 c-12 -8 -10 -10 8 -10 13 0 20 4 17 10 -7 12 -6 12 -25
0z" />
        <path d="M20490 29955 c-7 -9 -8 -15 -2 -15 5 0 12 7 16 15 3 8 4 15 2 15 -2
0 -9 -7 -16 -15z" />
        <path d="M14820 23965 c0 -8 2 -15 4 -15 2 0 6 7 10 15 3 8 1 15 -4 15 -6 0
-10 -7 -10 -15z" />
    </g>
</svg>
