<svg version="1.0" xmlns="http://www.w3.org/2000/svg" width="5000.000000pt" height="5000.000000pt"
    viewBox="0 0 5000.000000 5000.000000" preserveAspectRatio="xMidYMid meet">

    <g transform="translate(0.000000,5000.000000) scale(0.100000,-0.100000)" fill="#000000" stroke="none">
        <path d="M27070 45909 c-125 -7 -239 -16 -340 -26 -36 -4 -68 -6 -71 -5 -14 3
-468 -51 -669 -79 -41 -5 -97 -12 -125 -15 -27 -3 -84 -11 -125 -19 -42 -8
-120 -19 -175 -25 -55 -6 -127 -15 -160 -21 -33 -6 -89 -14 -125 -19 -118 -15
-284 -40 -335 -50 -27 -5 -115 -21 -195 -35 -204 -36 -442 -83 -530 -105 -41
-10 -106 -23 -145 -30 -118 -20 -277 -50 -345 -65 -36 -7 -119 -23 -185 -35
-149 -26 -213 -38 -291 -56 -33 -8 -70 -14 -82 -14 -12 0 -86 -15 -164 -34
-79 -18 -174 -41 -213 -50 -38 -9 -97 -23 -130 -32 -33 -8 -76 -19 -95 -23
-19 -5 -80 -19 -135 -30 -55 -12 -122 -28 -150 -35 -27 -8 -113 -28 -190 -46
-153 -35 -367 -88 -485 -120 -41 -12 -95 -25 -120 -30 -25 -6 -85 -21 -135
-35 -49 -14 -117 -32 -150 -39 -132 -31 -318 -100 -470 -175 -88 -43 -196 -93
-240 -111 -89 -36 -227 -102 -381 -182 -118 -62 -197 -98 -214 -98 -6 0 -24
-6 -38 -14 -15 -8 -72 -36 -127 -62 -167 -78 -319 -155 -336 -170 -8 -8 -21
-14 -28 -14 -7 0 -25 -8 -39 -18 -15 -11 -52 -32 -82 -48 -30 -16 -73 -41 -94
-56 -21 -16 -42 -28 -46 -28 -9 0 -171 -96 -252 -148 -149 -98 -183 -121 -251
-169 -39 -29 -87 -63 -105 -75 -18 -13 -63 -46 -100 -74 -37 -27 -125 -91
-197 -142 -220 -155 -308 -219 -360 -259 -28 -22 -64 -47 -82 -56 -18 -10 -36
-23 -40 -31 -4 -7 -28 -27 -53 -44 -25 -17 -57 -41 -72 -54 -14 -13 -47 -39
-73 -58 -124 -94 -521 -443 -581 -511 -11 -13 -52 -54 -90 -90 -105 -100 -289
-291 -400 -414 -138 -154 -167 -186 -179 -199 -97 -104 -260 -282 -294 -321
-24 -27 -69 -77 -100 -110 -52 -55 -124 -136 -286 -321 -105 -119 -296 -346
-395 -467 -8 -10 -23 -28 -33 -40 -9 -12 -26 -33 -37 -47 -11 -14 -44 -54 -73
-90 -29 -36 -69 -86 -88 -111 -19 -25 -59 -77 -89 -115 -30 -38 -64 -82 -75
-96 -11 -15 -74 -97 -140 -183 -220 -287 -251 -331 -399 -563 -188 -296 -258
-389 -430 -572 -84 -90 -186 -205 -204 -232 -9 -13 -22 -29 -30 -37 -7 -8 -31
-38 -53 -67 -21 -29 -43 -55 -48 -59 -17 -10 -97 -166 -111 -215 -7 -25 -19
-65 -27 -90 -8 -25 -17 -79 -20 -120 -8 -115 22 -205 124 -362 24 -37 43 -70
43 -73 0 -18 150 -221 177 -238 6 -4 25 -28 42 -55 17 -26 57 -86 88 -134 106
-160 184 -304 218 -403 36 -104 75 -262 75 -303 0 -19 -16 -108 -35 -196 -38
-176 -45 -202 -100 -416 -40 -156 -39 -129 -19 -385 10 -136 54 -321 100 -425
9 -19 23 -55 31 -80 21 -62 118 -256 150 -300 39 -53 144 -152 220 -207 105
-76 202 -133 399 -235 99 -51 207 -108 240 -126 175 -99 229 -127 309 -160 28
-11 94 -39 148 -61 54 -23 101 -41 106 -41 9 0 176 -78 451 -212 178 -87 199
-97 238 -117 9 -5 40 -19 67 -31 28 -12 64 -28 80 -36 17 -7 77 -34 135 -58
58 -25 130 -58 160 -74 l55 -30 7 -100 c7 -109 34 -310 48 -357 5 -16 14 -57
20 -90 6 -33 19 -80 29 -105 10 -25 29 -72 41 -105 13 -33 40 -93 61 -133 l38
-73 -30 -43 c-34 -47 -33 -90 2 -101 23 -7 69 23 94 61 21 32 31 44 205 238
215 241 465 485 745 728 147 127 311 258 324 258 6 0 30 -9 53 -19 62 -28 272
-93 503 -156 28 -7 75 -20 105 -29 93 -28 269 -74 404 -106 70 -17 132 -32
136 -35 11 -6 541 -117 725 -151 44 -8 125 -23 180 -33 55 -11 150 -27 210
-36 61 -10 133 -23 161 -30 28 -7 86 -16 130 -20 43 -4 106 -13 139 -21 33 -7
83 -16 110 -19 28 -3 82 -10 120 -15 355 -48 420 -56 670 -81 55 -5 111 -12
125 -14 26 -5 314 -30 460 -40 47 -3 105 -7 130 -10 25 -2 99 -7 165 -10 66
-4 145 -8 175 -10 30 -2 141 -7 245 -10 105 -4 193 -9 196 -11 26 -15 1139
-22 1694 -10 448 10 1245 45 1375 61 19 2 89 7 155 11 138 8 171 10 240 18 28
3 140 13 250 21 110 9 223 18 250 21 100 10 273 25 385 32 64 5 121 12 128 16
6 4 57 9 112 12 55 2 111 9 126 14 14 6 60 10 103 10 43 0 102 4 131 10 28 5
97 13 153 16 56 3 111 10 123 14 12 5 78 12 145 15 68 4 127 9 131 11 4 3 83
13 175 24 92 11 200 24 238 29 39 6 122 15 185 22 63 6 152 17 197 25 46 8
115 17 155 20 40 3 76 8 80 10 3 2 62 11 130 19 67 8 152 20 188 25 99 16 126
20 240 36 58 8 164 23 235 33 72 11 162 24 201 30 39 6 98 17 130 26 32 8 71
15 87 15 15 0 47 4 70 9 23 5 85 17 137 27 52 9 131 25 175 35 44 10 170 36
280 58 250 50 663 149 855 206 30 9 73 20 95 26 69 17 325 99 440 141 225 81
240 87 485 192 175 75 212 99 310 204 49 53 90 100 90 104 0 4 16 33 36 63 91
143 135 294 142 495 13 350 4 416 -75 535 -90 137 -186 256 -273 339 -134 127
-344 296 -430 346 -148 85 -475 257 -603 317 -44 20 -56 30 -51 42 23 53 9
137 -48 301 -50 144 -72 321 -72 570 1 203 3 221 29 315 15 55 32 120 37 145
13 55 13 56 34 39 16 -13 17 -11 11 28 -6 34 -2 54 19 100 17 39 24 69 21 93
-3 21 3 51 13 75 84 188 117 245 248 430 27 39 89 140 137 225 138 242 182
306 379 550 73 91 183 203 318 322 90 80 195 175 233 212 39 37 94 91 124 119
29 29 61 63 70 78 17 27 64 87 121 153 20 22 43 52 52 66 9 14 35 50 57 80 22
30 48 69 57 85 9 17 24 39 34 50 40 45 212 386 252 500 l42 120 -1 150 c-1
164 -14 297 -39 390 -8 33 -19 80 -24 105 -16 88 -75 274 -100 315 -11 17 -39
115 -69 240 -16 66 -47 170 -68 231 -22 61 -46 135 -54 165 -15 63 -13 53 -23
109 -8 41 -120 366 -151 435 -7 17 -25 62 -40 100 -15 39 -31 75 -35 80 -4 6
-25 41 -45 80 -72 132 -233 356 -384 533 -77 90 -421 434 -557 557 -42 39 -91
84 -108 101 -45 44 -240 202 -316 256 -147 103 -331 203 -505 275 -60 24 -135
55 -165 68 -98 42 -233 93 -320 120 -47 15 -107 35 -135 46 -27 10 -117 41
-200 68 -82 28 -222 75 -310 106 -88 31 -180 62 -205 70 -25 8 -106 34 -180
59 -180 60 -279 86 -332 87 -36 1 -39 2 -18 9 14 4 18 8 10 9 -8 1 -82 10
-165 21 -82 11 -197 25 -255 30 -399 36 -433 40 -555 80 -109 35 -175 51 -320
82 -27 6 -106 28 -175 49 -255 77 -305 92 -379 106 -42 8 -96 18 -121 23 -96
20 -381 57 -490 65 -47 3 -104 7 -126 10 -36 4 -142 12 -254 20 -19 1 -129 10
-245 20 -230 18 -457 23 -635 14z m640 -158 c137 -17 310 -31 550 -46 82 -6
124 -16 219 -54 25 -11 80 -29 121 -41 41 -12 93 -28 115 -36 83 -27 360 -95
554 -134 114 -23 147 -35 121 -44 -8 -3 -94 -17 -190 -31 -96 -14 -231 -37
-300 -52 -69 -14 -159 -32 -200 -40 -128 -25 -144 -28 -325 -68 -245 -54 -495
-103 -665 -130 -47 -8 -128 -21 -180 -30 -289 -47 -419 -64 -815 -106 -179
-18 -376 -24 -700 -20 -583 7 -975 6 -1175 -3 -107 -5 -280 -9 -383 -8 -104 1
-193 0 -198 -3 -13 -9 7 -42 28 -49 45 -14 329 -45 423 -47 58 -1 157 -8 220
-15 267 -31 346 -37 715 -50 93 -3 173 -8 177 -10 32 -20 327 -34 443 -20 42
5 45 4 20 -5 -16 -5 -61 -14 -100 -19 -38 -5 -131 -18 -205 -29 -170 -25 -209
-28 -460 -36 -347 -10 -533 -25 -690 -54 -196 -37 -283 -61 -354 -98 -56 -29
-118 -87 -138 -131 -11 -23 -33 -51 -49 -63 -34 -24 -88 -117 -125 -215 l-26
-69 -6 -775 c-3 -426 -6 -953 -6 -1170 0 -420 12 -1288 18 -1330 26 -159 27
-160 155 -290 110 -112 181 -160 415 -278 79 -40 207 -53 456 -46 118 3 463 7
765 9 303 2 602 6 665 9 152 8 276 16 325 21 70 8 149 18 175 21 23 4 74 9
338 34 56 5 117 11 135 14 18 3 68 8 112 11 123 10 325 38 385 53 19 5 55 16
80 25 25 8 70 20 100 27 30 6 71 16 91 21 20 5 47 9 61 9 39 0 125 39 253 115
110 65 225 160 225 186 0 6 12 23 28 39 111 112 128 142 156 275 33 153 36
170 46 245 6 41 19 131 30 200 11 69 25 152 30 185 15 96 39 285 46 355 3 36
7 83 9 105 49 509 53 1251 10 1875 -17 250 -41 503 -56 589 -16 86 -69 169
-141 221 -148 107 -483 155 -883 127 -99 -7 -188 -11 -460 -22 -77 -3 -167
-10 -200 -15 -63 -10 -410 -45 -530 -54 -43 -3 -3 7 105 25 96 16 225 39 285
50 61 12 135 25 165 29 30 4 156 28 280 53 124 25 236 48 250 51 158 30 232
46 238 50 5 3 58 14 118 25 60 11 141 28 179 36 285 63 756 151 915 170 19 3
91 12 160 22 243 33 605 20 924 -33 82 -13 151 -22 153 -20 3 2 23 -2 44 -9
22 -8 59 -17 82 -20 45 -5 127 -31 382 -120 88 -31 225 -78 305 -105 80 -27
192 -66 250 -86 58 -20 132 -45 165 -55 33 -10 103 -33 155 -52 52 -19 122
-44 155 -56 33 -12 69 -25 80 -31 11 -5 103 -45 205 -88 102 -44 208 -91 235
-105 28 -15 70 -36 95 -48 87 -43 419 -300 560 -434 30 -29 78 -75 106 -101
330 -312 515 -511 639 -688 22 -32 59 -82 83 -113 23 -30 42 -58 42 -62 0 -4
16 -31 34 -60 45 -69 137 -258 149 -306 3 -11 32 -92 65 -181 32 -88 74 -221
92 -295 31 -129 56 -210 99 -329 11 -30 31 -104 45 -165 13 -60 49 -175 79
-255 31 -81 65 -194 77 -255 13 -61 28 -139 36 -175 7 -36 16 -132 20 -215 5
-124 3 -161 -11 -215 -9 -36 -20 -69 -24 -75 -4 -5 -16 -32 -25 -60 -23 -62
-158 -325 -190 -368 -12 -18 -26 -39 -30 -47 -3 -8 -26 -42 -51 -75 -25 -33
-48 -68 -52 -77 -3 -10 -9 -18 -13 -18 -5 0 -19 -17 -31 -37 -13 -21 -43 -63
-68 -95 -25 -31 -57 -70 -70 -88 -47 -62 -310 -315 -399 -384 -86 -67 -271
-251 -347 -346 -90 -110 -149 -185 -172 -216 -39 -51 -173 -252 -173 -259 0
-4 -8 -19 -18 -33 -11 -15 -34 -56 -53 -92 -43 -83 -106 -181 -188 -295 -36
-49 -90 -141 -121 -202 l-56 -113 -36 73 c-146 301 -367 595 -629 839 -106 99
-266 232 -329 274 -19 13 -49 34 -66 46 -73 52 -232 156 -274 178 -25 14 -52
30 -60 37 -18 14 -324 168 -401 202 -30 12 -72 31 -94 41 -50 23 -272 110
-281 110 -3 0 -20 7 -37 15 -70 32 -392 133 -547 170 -30 7 -102 25 -160 40
-58 14 -116 28 -130 30 -14 2 -52 10 -85 18 -33 9 -87 19 -120 23 -33 3 -67
10 -75 14 -8 4 -53 13 -100 19 -47 6 -121 17 -165 25 -44 8 -111 17 -150 21
-38 3 -97 10 -130 15 -68 11 -235 27 -370 36 -49 3 -108 7 -130 10 -272 28
-1272 21 -1555 -11 -19 -2 -78 -7 -130 -10 -52 -3 -106 -9 -120 -12 -14 -3
-49 -7 -78 -8 -29 -2 -90 -8 -135 -14 -45 -6 -156 -21 -247 -32 -292 -36 -374
-47 -440 -59 -36 -6 -78 -13 -95 -15 -62 -10 -263 -47 -345 -65 -47 -10 -114
-23 -150 -30 -36 -6 -79 -15 -96 -21 -17 -5 -46 -11 -65 -13 -35 -4 -309 -65
-320 -72 -4 -2 -56 -15 -115 -28 -60 -14 -145 -34 -189 -45 -44 -12 -91 -24
-105 -27 -25 -5 -38 -9 -200 -57 -47 -14 -119 -35 -160 -47 -41 -12 -86 -26
-100 -30 -14 -4 -52 -16 -85 -25 -33 -9 -78 -23 -100 -30 -22 -7 -65 -21 -95
-30 -30 -8 -71 -22 -90 -29 -19 -7 -53 -19 -75 -26 -42 -13 -226 -77 -260 -90
-11 -5 -29 -11 -40 -13 -11 -3 -58 -19 -105 -37 -47 -17 -110 -40 -140 -51
-30 -10 -66 -24 -80 -30 -14 -7 -34 -15 -45 -20 -11 -4 -36 -14 -55 -23 -19
-8 -66 -26 -105 -39 -86 -31 -197 -77 -210 -89 -5 -4 -16 -8 -25 -8 -8 0 -91
-34 -183 -75 -92 -41 -170 -75 -173 -75 -3 0 -35 -13 -71 -30 -35 -16 -67 -30
-69 -30 -8 0 -717 -354 -799 -399 -38 -21 -108 -58 -155 -83 -47 -24 -111 -60
-143 -79 -88 -51 -85 -50 -197 -113 -58 -33 -127 -73 -155 -91 -27 -17 -93
-58 -145 -90 -52 -33 -173 -111 -269 -174 -95 -64 -197 -132 -226 -151 -107
-70 -243 -167 -359 -255 -43 -33 -99 -74 -124 -92 -24 -17 -59 -45 -76 -61
-17 -15 -41 -35 -52 -43 -46 -31 -140 -104 -214 -168 -42 -36 -99 -84 -125
-106 -61 -51 -120 -103 -210 -184 -38 -36 -88 -81 -110 -100 -70 -63 -428
-425 -495 -500 -36 -41 -77 -85 -91 -100 -30 -29 -264 -312 -319 -385 -19 -25
-57 -74 -84 -109 -27 -34 -64 -84 -82 -112 -18 -27 -52 -77 -75 -110 -69 -100
-192 -295 -239 -380 -25 -44 -57 -102 -72 -130 -50 -90 -157 -311 -164 -339
-3 -14 -15 -31 -25 -37 -54 -29 -140 -377 -143 -581 -1 -84 2 -100 20 -125 13
-17 27 -60 34 -103 7 -41 20 -102 29 -135 12 -43 14 -68 7 -87 -7 -20 -5 -33
7 -52 10 -14 17 -37 17 -50 l0 -25 -67 30 c-87 39 -106 47 -238 104 -94 41
-266 123 -640 306 -81 39 -281 126 -345 149 -100 36 -237 99 -320 149 -41 24
-158 87 -260 139 -490 251 -608 345 -718 573 -18 37 -32 69 -32 72 0 4 -11 30
-24 59 -103 228 -154 525 -126 728 6 46 15 91 20 100 12 23 66 233 84 328 16
83 67 244 136 427 41 109 45 120 95 275 19 58 47 143 64 190 79 223 88 252
196 645 31 110 72 251 91 313 20 63 33 116 31 119 -16 15 -397 -803 -397 -852
0 -8 -4 -23 -10 -33 -5 -9 -45 -127 -89 -262 -112 -345 -98 -321 -130 -225
-15 44 -42 112 -60 150 -59 129 -241 426 -307 504 -76 90 -92 109 -120 146
-48 62 -180 295 -198 348 -43 128 9 311 141 488 81 110 121 157 253 299 162
175 180 195 180 202 0 4 6 13 13 20 39 42 112 139 163 218 33 50 99 153 148
228 48 75 93 144 100 154 23 34 130 183 138 193 5 6 31 39 59 75 27 36 62 81
77 100 16 19 43 55 60 80 33 46 63 85 145 189 26 34 47 64 47 67 0 3 10 15 23
27 13 12 45 51 72 87 28 36 65 81 82 100 18 19 33 38 33 43 0 4 17 26 38 50
21 23 70 81 108 128 126 156 317 383 378 450 85 92 123 134 186 209 30 35 87
98 126 140 89 95 216 231 319 344 44 48 91 100 105 115 356 388 721 746 965
946 33 27 80 67 106 89 69 63 98 86 107 86 4 0 31 23 61 50 29 28 58 50 62 50
5 0 35 19 66 43 107 80 208 153 321 233 62 43 152 107 200 142 48 34 103 73
122 87 19 13 69 49 110 80 122 90 324 225 337 225 3 0 28 16 54 35 27 19 51
35 53 35 3 0 31 18 63 39 33 22 81 50 109 63 27 14 114 61 194 105 125 70 347
181 460 231 19 8 42 19 50 24 22 12 45 22 150 64 52 20 111 44 130 53 43 18
40 17 69 26 13 5 44 19 68 32 24 12 49 23 56 23 7 0 45 13 85 30 40 16 92 36
115 44 224 79 438 153 512 178 50 16 95 34 100 38 6 5 42 21 80 36 121 47 107
53 -45 17 -77 -17 -277 -75 -372 -107 -37 -12 -65 -19 -62 -15 2 4 21 13 42
20 20 6 42 15 47 19 21 15 358 119 500 153 55 14 150 38 210 54 61 16 135 35
165 42 30 7 114 27 185 46 72 18 175 43 230 54 83 18 241 55 365 86 41 10 152
35 200 45 25 5 70 16 100 25 30 8 109 26 175 40 66 13 149 31 185 40 36 8 146
29 245 45 99 17 186 33 193 35 7 3 81 16 165 31 84 14 186 34 227 44 41 11
172 38 290 61 118 22 253 49 300 59 91 20 273 51 435 74 22 3 63 10 90 15 76
15 171 28 395 56 113 14 234 30 269 36 35 7 80 13 100 15 49 3 184 22 252 34
115 21 567 66 769 76 63 4 117 8 119 10 9 8 541 -5 631 -15z m-1133 -1017 c-3
-3 -12 -4 -19 -1 -8 3 -5 6 6 6 11 1 17 -2 13 -5z m-199 -21 c-10 -2 -26 -2
-35 0 -10 3 -2 5 17 5 19 0 27 -2 18 -5z m2127 -450 c71 -22 133 -55 191 -101
42 -33 55 -51 76 -108 14 -38 29 -78 33 -89 4 -11 -10 5 -31 35 -40 55 -105
103 -157 114 -23 6 -30 3 -34 -13 -5 -19 -7 -20 -35 -5 -65 34 -233 48 -279
24 l-21 -12 21 -22 c27 -28 27 -61 0 -116 -12 -25 -30 -69 -40 -98 l-19 -54
60 -63 c103 -107 209 -146 380 -142 83 2 95 0 98 -15 2 -11 -3 -18 -13 -18 -9
0 -22 -15 -31 -35 -8 -19 -19 -35 -26 -35 -6 0 -4 -8 5 -18 20 -22 22 -71 4
-78 -22 -8 -67 14 -94 47 -23 27 -30 30 -63 24 -21 -4 -65 -1 -98 6 -55 10
-69 19 -143 86 -70 63 -86 73 -109 68 -22 -5 -33 1 -67 38 -61 66 -111 146
-122 197 -16 69 -12 90 8 40 24 -63 73 -127 134 -177 28 -23 53 -41 55 -39 2
3 -20 53 -50 112 -47 95 -53 114 -52 168 0 100 64 202 169 272 48 33 52 34
125 28 41 -3 98 -13 125 -21z m-1043 -199 c27 -20 60 -57 77 -87 28 -49 104
-115 195 -170 17 -11 58 -45 91 -77 102 -99 205 -155 217 -118 3 7 14 9 29 5
39 -10 167 -100 202 -143 30 -36 90 -94 162 -157 22 -20 26 -26 13 -27 -9 0
-26 -12 -37 -26 -24 -30 -22 -59 8 -109 l20 -34 -55 -17 c-30 -9 -57 -21 -60
-26 -7 -12 15 -38 41 -48 l20 -9 -21 0 c-29 -1 -44 14 -109 107 -57 83 -80 97
-105 67 -18 -22 9 -90 85 -220 68 -113 76 -148 39 -153 -16 -2 -42 17 -94 70
-76 77 -109 120 -155 203 -15 28 -42 68 -60 90 -18 22 -47 69 -65 105 -55 109
-101 175 -110 160 -5 -8 -4 -23 1 -34 10 -21 -45 35 -89 90 -34 43 -124 149
-195 232 -95 109 -147 226 -147 331 0 42 1 43 27 36 15 -3 49 -22 75 -41z
m-2352 21 c103 -17 144 -31 171 -55 15 -15 31 -25 34 -21 3 3 3 -1 0 -10 -3
-9 9 -34 29 -61 57 -74 81 -128 82 -182 1 -67 -18 -141 -51 -198 -14 -26 -27
-61 -27 -77 -1 -36 -64 -106 -114 -127 -34 -14 -84 -5 -84 15 0 5 16 31 36 57
36 47 37 49 31 119 -3 46 -12 83 -26 105 -11 19 -24 42 -28 50 -18 41 -46 70
-68 70 -13 0 -27 -5 -31 -11 -4 -8 -9 -8 -17 0 -6 6 -27 11 -46 11 -27 0 -42
-9 -75 -42 -22 -24 -46 -42 -53 -40 -10 2 -12 -4 -8 -20 3 -13 -1 -48 -8 -79
-17 -69 -8 -160 17 -188 12 -14 23 -18 30 -12 7 6 17 -4 31 -31 16 -33 23 -39
45 -36 23 4 26 1 22 -23 -5 -34 28 -69 66 -70 133 -2 158 -13 199 -91 28 -53
42 -151 24 -163 -7 -4 -34 -1 -61 5 -60 14 -106 58 -122 115 -13 45 -36 77
-49 69 -17 -10 -9 -113 12 -166 15 -38 19 -64 14 -95 -5 -34 -1 -49 18 -80 34
-55 47 -124 31 -162 -7 -17 -18 -31 -24 -31 -5 0 -19 -9 -31 -21 l-21 -21 -46
40 c-59 49 -83 90 -88 150 -6 60 -18 72 -45 45 -34 -33 -32 -128 4 -181 33
-50 92 -91 154 -107 l45 -11 -23 -27 c-42 -46 -96 -40 -160 19 l-49 47 -70 -6
c-60 -5 -73 -3 -92 14 -13 10 -33 27 -44 37 -38 31 -55 127 -32 176 10 24 16
26 74 24 54 -1 73 3 125 30 34 18 65 29 70 26 5 -3 9 3 9 13 0 10 8 30 18 46
11 16 17 39 14 57 l-4 29 -26 -24 c-30 -28 -131 -65 -175 -65 -55 0 -95 35
-123 107 -15 39 -15 45 -1 67 15 22 22 24 90 23 41 -1 80 3 88 9 8 6 33 16 55
22 47 14 94 47 94 67 0 25 -61 28 -122 5 -106 -39 -180 -22 -176 43 1 17 -2
40 -6 50 -7 14 -3 17 17 17 14 0 40 12 57 27 31 26 32 29 27 83 -3 31 -12 71
-22 90 -10 19 -19 67 -22 120 -5 79 -3 98 26 191 54 173 77 209 154 241 42 17
167 19 257 3z m796 -158 c59 -130 -34 -326 -221 -468 -30 -23 -55 -43 -55 -45
0 -2 21 3 47 11 55 17 67 13 26 -8 -15 -8 -39 -27 -53 -42 -64 -69 -151 -105
-252 -105 -66 0 -97 13 -60 25 21 6 72 59 117 121 17 23 54 68 84 99 42 46 59
58 84 59 38 1 63 40 103 161 43 129 82 209 111 227 35 21 47 15 69 -35z m1239
-412 c39 -8 95 -20 125 -28 107 -28 305 -143 294 -171 -5 -14 36 -46 60 -46 8
0 22 -10 30 -22 15 -21 14 -23 -10 -38 -33 -20 -64 -79 -66 -129 -3 -90 124
-221 214 -221 49 0 49 19 1 56 -79 58 -123 116 -123 160 0 45 19 84 41 84 24
0 110 -173 132 -265 14 -57 36 -188 37 -216 0 -4 -13 -12 -30 -19 -57 -24
-110 -122 -110 -204 1 -58 41 -139 82 -162 15 -8 13 -18 -16 -104 -50 -146
-183 -397 -250 -474 -14 -16 -26 -32 -26 -35 0 -12 -195 -208 -260 -262 -36
-30 -91 -72 -123 -94 l-59 -39 -16 21 c-28 35 -80 56 -129 50 -85 -9 -142 -82
-130 -168 5 -37 3 -40 -28 -53 -40 -17 -192 -56 -217 -56 -10 0 -18 5 -18 11
0 32 -46 97 -90 127 -85 58 -156 53 -224 -16 -45 -47 -54 -95 -18 -100 15 -2
30 5 43 22 29 37 75 59 107 51 15 -3 43 -19 62 -36 19 -17 46 -39 60 -49 l24
-18 -78 -7 c-264 -25 -559 76 -731 249 -76 77 -195 264 -195 306 0 6 14 23 30
38 42 37 59 91 49 150 -14 76 -69 102 -120 56 -15 -13 -17 -12 -24 13 -18 69
-2 312 30 448 35 153 130 373 171 400 14 9 29 27 34 40 21 56 121 179 240 297
260 257 552 408 890 461 61 10 271 5 335 -8z m709 -262 c16 -38 30 -73 33 -80
2 -6 -4 -16 -15 -22 -17 -9 -25 -2 -65 59 l-46 69 26 21 c14 11 29 20 33 20 3
0 19 -30 34 -67z m646 -68 c0 -8 -2 -15 -4 -15 -2 0 -6 7 -10 15 -3 8 -1 15 4
15 6 0 10 -7 10 -15z m-3007 -77 c45 -46 98 -97 118 -114 59 -50 62 -62 27
-112 -22 -32 -34 -42 -46 -36 -10 4 -34 13 -55 21 -93 33 -164 88 -168 129 -1
8 -2 19 -3 26 -1 7 -11 22 -23 35 -47 46 -18 133 43 133 19 0 47 -21 107 -82z
m2377 -640 c-23 -181 -31 -201 -49 -119 -13 61 2 154 32 202 27 44 31 26 17
-83z m593 -312 c16 -25 54 -72 87 -106 32 -33 54 -63 49 -66 -14 -8 -11 -24 5
-24 45 0 46 -317 2 -490 -56 -218 -63 -240 -106 -295 -23 -30 -46 -55 -51 -55
-5 0 -17 -16 -26 -35 -9 -19 -30 -41 -47 -49 -17 -8 -80 -47 -141 -85 -182
-117 -215 -135 -330 -183 -214 -89 -322 -117 -483 -125 -96 -6 -104 -5 -126
16 -35 33 -70 25 -74 -16 -4 -45 -22 -42 -79 12 -25 25 -50 45 -55 45 -5 0
-28 10 -51 22 -23 13 -55 28 -71 34 l-29 10 54 21 c30 11 73 26 96 32 26 7 47
20 54 34 18 33 32 38 47 16 14 -20 57 -26 67 -9 3 6 11 10 17 10 7 0 8 -16 3
-46 -6 -43 -5 -46 12 -40 10 4 50 16 88 27 73 19 140 41 290 95 243 87 368
148 373 184 2 12 19 46 37 75 32 49 37 53 75 53 25 1 58 11 85 27 88 51 126
131 145 307 20 187 -5 357 -52 345 -16 -5 -38 17 -38 38 0 10 55 -23 73 -44
14 -17 21 -19 37 -11 23 12 25 31 9 63 -17 33 -61 77 -76 77 -9 0 -3 14 16 38
33 42 71 111 71 129 0 24 15 13 43 -31z m-3608 -73 c10 -16 51 -61 92 -101
l75 -72 -45 -54 c-42 -48 -46 -59 -56 -132 -32 -228 49 -506 191 -657 l63 -67
42 21 c23 11 74 50 115 85 40 36 91 76 113 89 49 28 105 42 105 25 0 -8 8 -7
25 4 36 23 66 19 103 -14 43 -40 43 -79 0 -115 -23 -19 -33 -23 -39 -14 -6 10
-17 6 -46 -13 -21 -14 -83 -50 -138 -81 -105 -58 -140 -92 -108 -104 9 -4 46
-26 81 -49 175 -118 350 -163 617 -159 61 1 118 5 128 9 13 6 17 4 17 -11 0
-11 9 -28 20 -38 32 -29 71 -10 86 40 l11 40 26 -41 c14 -23 44 -56 67 -75
l42 -35 -60 -42 c-33 -23 -66 -42 -73 -42 -7 0 -23 10 -35 21 -22 21 -26 21
-106 9 -99 -15 -447 -14 -563 1 -170 22 -321 75 -389 135 l-29 26 29 24 29 24
-60 -4 c-33 -2 -67 -6 -75 -9 -72 -25 -120 -9 -120 40 0 51 -24 119 -52 145
-15 14 -28 35 -28 46 0 11 -5 22 -10 24 -6 2 -12 17 -14 33 -2 17 -29 82 -59
145 -52 110 -64 152 -82 293 -4 27 -9 59 -11 70 -3 12 -6 65 -8 117 -2 104 -6
110 -78 125 -16 3 -28 10 -28 16 0 5 26 54 58 107 31 53 59 101 61 107 2 5 17
27 33 49 15 21 28 44 28 51 0 12 20 35 31 35 4 0 15 -12 24 -27z m2995 -212
c7 -27 7 -88 1 -190 -9 -131 -13 -154 -32 -181 -13 -16 -28 -30 -35 -30 -7 0
-50 -29 -96 -63 -46 -35 -99 -72 -118 -82 -39 -20 -118 -23 -178 -5 l-40 13
122 121 c67 66 132 135 144 151 13 17 43 56 68 89 24 32 65 96 91 142 26 45
51 80 55 78 4 -3 12 -22 18 -43z m-2358 -51 l31 0 -6 -65 c-9 -97 -21 -110
-40 -44 -15 56 -31 144 -21 122 3 -7 19 -13 36 -13z m2502 -405 c86 -56 118
-91 114 -126 -2 -25 -12 -36 -50 -57 l-47 -27 -38 20 c-61 32 -111 75 -128
112 -9 19 -25 37 -35 41 -17 7 -17 8 4 33 50 58 95 60 180 4z m-955 -159 c-9
-9 -144 -76 -152 -76 -14 0 3 44 25 63 14 12 37 17 76 17 30 0 53 -2 51 -4z
m1426 -1417 c61 -5 146 -11 190 -14 44 -3 84 -10 89 -15 6 -6 24 -10 41 -10
30 0 103 -16 200 -44 28 -8 86 -25 130 -36 86 -23 165 -52 165 -60 0 -3 -109
-6 -243 -7 -133 0 -312 -8 -397 -17 -253 -25 -354 -31 -560 -31 -107 -1 -199
-2 -203 -3 -10 -3 12 -45 29 -55 8 -4 94 -9 191 -11 98 -1 189 -6 203 -9 14
-3 54 -8 90 -11 82 -8 98 -10 106 -19 4 -4 18 -7 31 -7 13 0 23 -4 23 -10 0
-5 7 -7 16 -3 12 4 15 2 12 -8 -3 -8 -11 -13 -17 -12 -6 2 -11 -1 -11 -6 0 -5
-7 -12 -16 -15 -8 -3 -13 -2 -10 2 3 5 -1 9 -9 9 -8 0 -11 -5 -8 -10 4 -7 -1
-8 -12 -3 -22 8 -90 -13 -78 -24 8 -8 29 -12 143 -25 60 -7 277 -48 350 -66
25 -6 56 -13 70 -15 13 -3 29 -9 36 -15 6 -5 15 -5 19 -1 5 4 6 3 3 -3 -4 -6
-71 -11 -160 -13 -280 -5 -530 -22 -588 -39 -50 -15 -249 -28 -484 -32 -38 0
-67 -3 -64 -6 2 -3 142 -7 311 -10 259 -4 558 -22 672 -40 17 -3 59 -9 95 -14
91 -13 190 -34 190 -41 0 -4 14 -5 30 -4 37 2 64 -29 50 -56 -10 -18 1 -23 85
-36 17 -3 44 -9 60 -14 17 -5 59 -12 95 -16 36 -3 85 -12 110 -19 25 -7 70
-18 100 -25 59 -12 160 -41 250 -70 30 -10 116 -37 190 -61 74 -23 140 -46
145 -50 9 -6 69 -31 129 -53 15 -5 16 -9 6 -21 -7 -8 -17 -12 -24 -8 -6 4 -31
9 -55 10 -25 2 -72 8 -105 14 -34 6 -74 12 -91 15 -16 2 -57 11 -90 19 -53 13
-195 43 -435 91 -82 16 -333 56 -500 79 -58 8 -121 16 -140 19 -59 9 -301 35
-375 41 -38 3 -88 7 -110 10 -128 15 -200 19 -385 19 -223 1 -334 -5 -695 -34
-224 -19 -543 -56 -690 -80 -66 -11 -163 -26 -215 -35 -226 -36 -391 -67 -625
-120 -412 -94 -374 -84 -805 -201 -91 -25 -192 -53 -225 -64 -33 -11 -100 -31
-150 -46 -49 -14 -124 -37 -165 -51 -206 -68 -396 -123 -430 -123 -15 0 -30
-4 -35 -9 -9 -7 -61 -23 -120 -36 -43 -10 -560 -168 -600 -184 -11 -5 -38 -14
-60 -21 -22 -6 -89 -30 -150 -52 -148 -55 -259 -95 -325 -118 -30 -10 -91 -35
-135 -55 -44 -20 -93 -42 -110 -50 -16 -7 -52 -22 -78 -34 -26 -12 -67 -29
-90 -37 -51 -19 -69 -27 -127 -52 -58 -25 -83 -35 -95 -36 -5 -1 -39 -16 -75
-33 -79 -37 -97 -44 -135 -50 -16 -2 -45 -11 -64 -20 -18 -8 -44 -13 -57 -10
-13 2 -24 0 -24 -5 0 -5 -6 -6 -12 -1 -7 4 -21 6 -30 5 -10 -2 -18 2 -18 7 0
6 7 11 15 11 9 0 27 11 41 25 14 14 33 25 44 25 10 0 22 5 25 10 5 8 11 7 21
-1 11 -9 14 -8 14 3 0 8 18 25 40 38 22 14 40 29 40 34 0 4 7 6 15 2 8 -3 15
-1 15 4 0 6 7 10 15 10 8 0 15 4 15 9 0 5 10 13 23 17 12 3 29 12 37 18 14 11
144 74 330 159 119 55 189 87 275 127 142 66 236 107 410 175 94 37 188 75
210 85 22 9 51 21 65 25 14 4 39 13 55 20 71 30 251 95 263 95 7 0 54 15 105
33 199 72 292 103 577 187 199 59 285 83 350 99 25 6 97 26 160 43 63 17 131
34 150 39 143 33 280 68 289 73 6 4 23 9 38 11 67 11 124 25 158 40 21 8 49
15 64 15 28 0 125 31 138 44 4 4 1 5 -7 2 -8 -3 -89 -15 -180 -26 -279 -35
-382 -50 -454 -66 -38 -8 -117 -23 -175 -34 -144 -25 -492 -104 -746 -168
-285 -72 -375 -84 -407 -55 -12 11 -18 12 -18 4 0 -7 -4 -9 -10 -6 -12 7 -14
36 -2 34 24 -4 34 3 29 21 -3 11 -1 18 4 14 5 -3 9 2 9 10 0 9 15 23 33 32 41
21 39 18 31 38 -3 9 -14 16 -23 16 -14 0 -14 2 -1 10 22 14 27 12 34 -15 4
-14 11 -25 17 -25 6 0 6 8 -2 22 -9 17 -9 20 4 15 10 -4 17 3 21 25 5 26 10
30 31 26 14 -3 25 -1 25 3 0 5 4 9 9 9 5 0 40 14 77 31 37 17 84 32 105 33 22
0 39 4 39 8 0 4 6 5 13 2 8 -3 20 2 27 11 7 8 22 15 33 15 11 0 28 7 37 15 15
13 154 53 207 60 13 1 28 7 35 12 21 16 228 76 368 108 36 8 110 30 165 49
269 94 325 113 325 111 0 -2 15 1 33 6 90 27 263 68 314 75 32 3 69 11 83 16
25 10 48 15 195 44 86 17 136 26 230 42 33 6 85 16 115 22 30 6 66 13 80 14
177 19 178 36 3 36 -122 0 -168 -4 -433 -36 -69 -8 -141 -16 -160 -19 -55 -6
-263 -43 -280 -49 -21 -8 -147 -28 -200 -31 -66 -5 -257 -43 -283 -56 -12 -7
-23 -11 -25 -10 -2 2 -73 -11 -177 -34 -33 -8 -87 -19 -120 -25 -66 -13 -110
-24 -265 -69 -58 -16 -150 -42 -205 -56 -127 -34 -174 -49 -310 -95 -60 -20
-130 -43 -155 -50 -25 -8 -49 -16 -55 -19 -16 -9 -375 -131 -438 -149 -51 -14
-59 -15 -67 -2 -5 8 -10 11 -10 5 -1 -11 -29 35 -30 47 0 4 21 29 48 55 68 69
271 167 492 238 96 31 183 61 192 66 10 5 27 9 38 9 10 0 34 6 52 14 18 8 53
19 78 26 25 7 72 20 105 31 33 10 78 22 100 28 22 5 101 25 175 46 233 63 319
84 520 130 107 25 211 49 230 54 19 5 100 22 180 36 80 14 190 35 245 45 242
45 649 111 720 116 28 2 68 8 90 13 22 5 78 12 125 15 47 3 148 12 225 20 144
16 534 44 685 49 184 7 961 4 1065 -4z m680 -799 c3 -5 1 -10 -4 -10 -6 0 -11
5 -11 10 0 6 2 10 4 10 3 0 8 -4 11 -10z m-855 -219 c36 -5 78 -13 93 -17 17
-4 38 -2 52 6 20 11 45 11 132 1 59 -7 122 -14 138 -16 241 -26 805 -128 1135
-205 47 -11 103 -24 125 -29 22 -5 85 -21 140 -36 55 -15 116 -31 135 -35 120
-27 625 -189 840 -270 47 -17 110 -41 140 -51 71 -26 183 -73 288 -121 45 -21
85 -38 88 -38 10 0 383 -186 456 -227 80 -45 287 -174 302 -188 6 -6 52 -40
101 -77 134 -99 320 -294 309 -323 -21 -55 -42 -236 -41 -355 l2 -135 -141 70
c-77 39 -161 78 -185 89 -24 10 -73 31 -109 46 -36 16 -105 44 -155 63 -49 20
-142 55 -205 80 -63 24 -140 52 -170 62 -30 10 -75 26 -100 35 -25 10 -76 27
-115 39 -38 12 -97 30 -130 41 -140 45 -331 94 -525 135 -36 8 -87 19 -115 24
-27 6 -81 15 -120 20 -38 5 -101 14 -140 20 -213 31 -646 65 -925 72 -238 6
-937 4 -1205 -4 -639 -19 -1293 -63 -1735 -117 -47 -6 -123 -15 -170 -20 -47
-5 -112 -14 -145 -19 -33 -6 -116 -17 -185 -26 -113 -15 -224 -30 -395 -56
-279 -41 -603 -99 -1010 -180 -376 -74 -395 -84 -90 -44 379 49 788 92 1055
110 41 3 100 7 130 10 30 3 132 10 225 16 94 5 184 12 200 14 17 2 111 7 210
10 99 3 203 8 230 10 28 2 118 6 200 10 145 5 208 8 400 21 90 6 182 10 350
18 50 3 110 7 135 10 25 3 124 8 220 11 96 4 204 9 240 11 36 3 108 6 160 8
52 2 167 7 255 10 554 21 1510 8 1750 -24 39 -5 131 -17 205 -25 140 -17 153
-19 360 -60 119 -23 277 -60 365 -85 165 -46 702 -226 790 -265 17 -7 64 -26
105 -40 41 -15 116 -42 165 -60 50 -18 104 -38 120 -45 17 -6 67 -25 113 -42
59 -21 86 -37 92 -52 5 -11 14 -68 21 -126 6 -58 23 -139 36 -180 13 -41 35
-115 48 -165 13 -49 27 -98 30 -108 8 -20 -1 -18 -72 14 -24 10 -48 19 -54 19
-5 0 -35 11 -65 25 -30 14 -59 25 -65 25 -6 0 -81 23 -167 50 -86 28 -177 57
-202 65 -25 8 -81 24 -125 36 -44 11 -114 30 -155 41 -41 11 -94 24 -118 29
-24 5 -47 11 -52 14 -5 3 -30 10 -57 15 -26 5 -79 17 -118 25 -190 42 -316 66
-490 94 -104 17 -212 35 -240 40 -126 24 -421 58 -650 76 -44 4 -93 9 -110 11
-328 46 -1457 59 -1939 24 -66 -5 -222 -16 -346 -25 -250 -16 -405 -31 -417
-38 -5 -3 -42 -8 -83 -12 -231 -20 -716 -82 -820 -105 -25 -5 -110 -19 -190
-30 -80 -12 -156 -25 -170 -31 -14 -5 -70 -16 -125 -25 -55 -8 -122 -19 -150
-23 -66 -12 -326 -67 -395 -84 -30 -8 -84 -20 -120 -26 -83 -16 -260 -57 -326
-76 -28 -8 -61 -15 -73 -15 -12 0 -56 -9 -99 -21 -42 -11 -135 -36 -207 -54
-71 -18 -184 -47 -250 -64 -66 -17 -156 -42 -200 -55 -44 -14 -109 -32 -145
-42 -36 -9 -99 -27 -140 -40 -41 -14 -106 -34 -145 -45 -38 -11 -83 -24 -100
-29 -16 -5 -55 -16 -85 -24 -30 -8 -102 -31 -160 -50 -58 -19 -166 -53 -240
-76 -74 -23 -139 -45 -145 -49 -5 -4 -30 -13 -55 -20 -25 -7 -58 -18 -75 -25
-16 -7 -104 -38 -195 -68 -91 -31 -196 -68 -235 -83 -75 -29 -285 -106 -374
-136 -88 -31 -282 -108 -341 -136 -30 -14 -68 -29 -85 -33 -33 -9 -309 -124
-631 -263 -147 -64 -627 -299 -754 -369 -117 -65 -160 -88 -315 -166 -179 -90
-274 -145 -481 -278 -28 -18 -77 -47 -110 -65 -61 -33 -204 -125 -402 -258
-62 -42 -124 -83 -137 -91 -186 -117 -703 -518 -945 -734 -187 -166 -462 -444
-607 -614 -67 -78 -126 -143 -129 -143 -9 -1 -95 198 -113 259 -6 24 -25 120
-41 215 -25 150 -28 190 -24 312 3 77 6 184 7 237 1 91 3 97 24 103 13 3 33
25 49 55 15 28 31 50 35 50 4 0 10 -13 14 -30 3 -16 14 -39 24 -52 10 -13 31
-48 49 -78 69 -123 175 -211 307 -256 71 -23 90 -26 175 -21 151 8 245 50 383
171 58 51 177 191 177 208 0 4 18 37 39 75 81 140 142 343 157 518 2 33 7 72
9 86 8 53 -14 306 -34 381 -26 100 -72 210 -116 277 l-35 53 67 76 c143 161
483 492 648 631 107 90 215 195 207 200 -5 3 34 41 87 83 53 43 114 94 136
113 46 42 165 130 260 195 36 25 88 61 115 80 28 19 80 57 117 83 38 26 82 57
98 67 17 11 53 35 80 55 83 61 267 181 320 210 223 121 583 331 691 402 29 18
144 76 255 127 112 52 281 131 374 176 191 92 320 147 510 215 114 42 317 127
367 155 10 6 22 10 27 10 5 0 47 18 94 40 47 21 135 59 196 84 61 25 126 52
143 60 52 23 357 143 460 180 51 19 156 57 233 86 77 28 181 65 230 82 50 16
104 36 120 42 30 13 218 73 370 120 44 13 130 40 190 59 199 62 517 150 735
202 345 82 450 106 475 110 58 10 481 89 585 110 41 8 127 20 190 26 63 6 118
13 121 15 16 10 523 56 734 67 122 7 722 -3 785 -12z m4559 -1287 c11 -35 11
-45 -2 -70 -8 -16 -17 -42 -21 -58 l-7 -28 -29 30 c-61 64 -61 66 -32 180 l26
102 26 -57 c14 -32 32 -76 39 -99z m-1739 -1198 c47 -9 135 -26 195 -37 222
-42 487 -103 705 -164 52 -14 119 -33 149 -41 125 -34 426 -135 591 -198 93
-36 131 -53 180 -81 14 -7 113 -56 220 -108 163 -80 255 -130 455 -250 11 -7
39 -24 62 -39 23 -16 44 -28 48 -28 4 0 27 -17 53 -38 26 -21 79 -64 117 -94
156 -125 295 -288 355 -419 111 -241 57 -436 -182 -664 -76 -72 -105 -96 -173
-142 -98 -65 -365 -206 -469 -248 -38 -15 -77 -31 -85 -35 -46 -24 -146 -62
-221 -85 -47 -14 -94 -30 -105 -36 -11 -5 -87 -29 -168 -54 -82 -25 -152 -47
-156 -49 -4 -3 -39 -12 -77 -20 -38 -9 -139 -34 -224 -56 -207 -55 -545 -125
-888 -185 -45 -8 -86 -16 -90 -19 -10 -6 -340 -60 -517 -85 -68 -9 -114 -15
-355 -46 -63 -8 -135 -17 -160 -20 -78 -10 -214 -25 -233 -25 -39 0 -4 17 45
23 60 7 108 16 118 22 4 3 32 7 61 11 30 3 57 8 60 10 3 1 28 6 55 9 27 3 85
13 129 22 44 9 96 18 115 20 39 5 359 66 460 87 36 8 117 25 179 37 72 14 122
30 133 41 9 9 28 20 40 22 30 6 115 27 258 65 63 16 183 42 265 56 83 15 164
30 180 35 17 5 46 11 65 13 43 6 118 22 190 42 30 8 96 24 145 35 50 11 97 23
105 25 8 2 53 13 100 24 47 11 123 34 170 52 47 17 130 46 185 64 157 53 470
203 525 254 10 9 51 39 91 66 128 88 259 233 311 345 47 98 47 100 58 176 7
56 6 84 -5 127 -16 60 -84 196 -113 225 -10 10 -30 34 -46 54 -83 110 -329
315 -345 289 -5 -7 -26 0 -61 19 -151 82 -413 201 -515 235 -22 7 -67 25 -100
40 -270 122 -565 242 -685 279 -30 10 -64 21 -75 26 -35 16 -318 110 -370 124
-27 7 -104 30 -170 51 -179 55 -408 114 -552 140 -40 7 -76 16 -81 19 -6 3
-38 12 -73 20 -35 8 -82 19 -104 25 -22 5 -61 12 -86 15 -26 3 -57 10 -70 15
-23 8 -22 9 11 15 109 19 244 16 370 -8z m-13200 -1597 c36 -5 72 -16 80 -24
8 -7 35 -24 60 -37 76 -40 170 -175 214 -309 73 -220 67 -511 -16 -754 -88
-254 -244 -452 -426 -538 -57 -27 -80 -32 -155 -34 -81 -2 -92 0 -149 30 -61
32 -140 100 -171 148 -16 25 -16 30 0 100 10 41 20 76 23 79 5 4 33 82 36 100
0 3 3 12 6 20 10 26 41 203 44 251 5 94 63 264 98 293 34 28 66 101 66 153 0
53 17 95 125 317 48 98 84 184 81 191 -5 13 2 25 13 25 3 0 35 -5 71 -11z
m-153 -27 c-15 -18 -65 -120 -115 -237 -17 -38 -54 -122 -81 -186 -28 -65 -51
-122 -51 -128 0 -35 -32 13 -107 162 -24 48 -24 48 -6 96 12 32 47 79 108 144
75 81 102 103 169 136 79 40 110 44 83 13z m-418 -460 c22 -44 128 -145 142
-136 13 7 14 15 -41 -151 -28 -83 -64 -211 -80 -285 -16 -74 -34 -155 -39
-180 -6 -25 -15 -71 -21 -104 -7 -32 -15 -54 -20 -50 -20 23 -60 174 -71 271
-12 110 -7 298 10 363 5 19 12 48 16 64 l6 29 26 -39 c31 -46 97 -114 111
-114 51 0 -46 201 -107 221 -9 3 -5 24 16 77 15 39 29 72 30 72 2 0 11 -17 22
-38z m1731 -777 c25 -3 138 -24 251 -45 113 -22 242 -46 285 -54 140 -26 458
-87 499 -97 59 -14 132 -28 200 -39 33 -5 85 -16 115 -25 30 -9 82 -20 115
-25 73 -10 156 -27 204 -40 20 -5 65 -14 101 -19 59 -9 193 -35 310 -60 83
-18 373 -62 590 -91 47 -6 114 -15 150 -20 36 -6 135 -19 220 -31 85 -11 225
-32 310 -46 85 -14 169 -27 185 -29 17 -2 55 -9 85 -15 30 -6 69 -13 85 -16
17 -3 32 -7 35 -10 7 -7 -150 3 -430 27 -642 56 -858 79 -1225 135 -88 14
-182 27 -210 30 -27 3 -72 10 -100 15 -27 5 -99 16 -160 25 -60 8 -130 20
-155 25 -25 6 -106 19 -180 30 -74 11 -164 27 -200 35 -36 8 -77 15 -92 15
-26 0 -265 49 -341 70 -31 9 -350 68 -462 86 -16 2 -48 9 -70 14 -22 5 -68 14
-102 20 -94 16 -202 45 -215 58 -13 13 -2 25 57 65 29 20 48 26 70 22 17 -3
50 -7 75 -10z m3800 -671 c0 -2 -11 -4 -25 -4 -14 0 -25 4 -25 9 0 4 11 6 25
3 14 -2 25 -6 25 -8z" />
        <path d="M29565 43600 c-3 -5 -1 -10 4 -10 6 0 11 5 11 10 0 6 -2 10 -4 10 -3
0 -8 -4 -11 -10z" />
        <path d="M21054 41352 c-275 -186 -430 -297 -655 -472 -223 -172 -484 -395
-754 -644 -136 -125 -545 -537 -545 -549 0 -4 -22 -29 -48 -55 -26 -26 -81
-85 -122 -132 -41 -47 -86 -96 -100 -111 -14 -14 -41 -45 -61 -70 -21 -24 -50
-58 -65 -76 -16 -17 -49 -57 -74 -88 -25 -31 -61 -75 -81 -98 -31 -36 -85
-103 -287 -362 -22 -27 -52 -70 -67 -95 -15 -25 -50 -73 -76 -106 -27 -34 -49
-65 -49 -69 0 -5 -15 -26 -33 -49 -19 -23 -40 -52 -47 -66 -7 -14 -22 -35 -33
-47 -21 -23 -67 -95 -113 -175 -15 -27 -31 -48 -36 -48 -4 0 -8 -4 -8 -10 0
-5 -10 -25 -22 -44 -13 -19 -36 -58 -53 -86 -16 -28 -34 -57 -40 -64 -16 -19
-33 -47 -64 -107 -17 -31 -43 -76 -59 -100 -16 -24 -46 -75 -67 -114 -20 -38
-41 -75 -45 -80 -14 -17 -292 -572 -339 -675 -24 -52 -55 -122 -71 -155 -15
-33 -46 -105 -69 -160 -24 -55 -49 -114 -57 -132 -8 -17 -14 -34 -14 -37 0 -3
-8 -25 -19 -49 -10 -23 -33 -80 -51 -127 -17 -47 -42 -112 -55 -145 -50 -129
-166 -487 -199 -615 -36 -140 -39 -152 -56 -259 -6 -36 -13 -68 -16 -72 -8
-14 -14 -259 -6 -259 4 0 18 51 31 113 12 61 31 150 42 197 12 47 23 96 25
110 20 108 172 565 259 775 18 44 36 91 40 105 4 14 18 48 31 75 12 28 47 106
77 175 30 69 75 168 100 220 24 52 47 102 50 110 13 31 205 398 249 475 24 44
57 103 73 130 31 56 87 152 120 205 36 58 87 143 105 175 9 17 45 71 78 121
34 50 62 95 62 100 0 4 9 17 19 28 10 12 50 66 87 122 61 89 135 194 300 423
25 35 52 71 61 79 8 8 33 40 56 71 23 31 64 83 92 116 28 33 66 80 85 105 33
44 181 218 264 311 23 25 64 72 91 105 28 32 80 90 116 129 36 38 90 97 120
130 61 68 212 226 280 294 25 25 105 111 179 191 138 149 667 681 800 805 113
106 349 315 405 360 28 22 52 42 55 46 12 13 361 289 394 311 6 4 8 9 5 12 -3
3 -91 -52 -195 -122z" />
        <path d="M26868 43201 c-80 -63 -91 -167 -27 -260 19 -28 37 -51 40 -51 3 0 4
25 1 55 -5 60 12 140 36 168 20 23 59 22 67 -3 8 -24 -1 -76 -27 -158 -22 -68
-19 -92 10 -92 39 0 79 77 94 181 12 78 3 111 -38 150 -35 33 -120 38 -156 10z" />
        <path d="M26355 43176 c-58 -25 -115 -112 -115 -176 0 -34 54 -99 103 -125 28
-14 52 -23 54 -21 3 3 -11 26 -31 52 -60 78 -60 122 -1 181 42 42 81 44 119 4
21 -22 31 -49 46 -122 11 -52 20 -106 20 -120 0 -15 6 -29 14 -32 58 -22 49
176 -13 288 -41 76 -120 104 -196 71z" />
        <path d="M27262 42965 c-18 -15 -39 -40 -47 -56 -19 -35 -19 -108 -1 -132 8
-10 12 -26 9 -36 -6 -25 34 -61 66 -61 46 0 90 36 118 96 50 110 21 195 -73
210 -34 5 -45 2 -72 -21z m68 -109 c0 -36 -32 -86 -56 -86 -18 0 -18 12 1 57
29 70 55 83 55 29z" />
        <path d="M25966 42777 c-14 -15 -26 -31 -26 -36 0 -48 80 -140 148 -169 63
-27 165 -46 199 -37 27 7 27 7 -20 25 -79 30 -237 144 -237 171 0 26 136 -7
213 -53 27 -16 54 -27 61 -24 6 2 4 5 -4 5 -9 1 -24 15 -34 32 -17 28 -101 89
-136 97 -8 2 -43 6 -77 9 -56 5 -64 3 -87 -20z" />
        <path d="M26710 42783 c-153 -27 -357 -141 -375 -210 -3 -14 -18 -40 -31 -56
-41 -49 -92 -159 -104 -227 -23 -126 12 -231 109 -331 36 -38 70 -69 76 -69 6
0 31 -9 54 -21 132 -63 331 -63 480 0 71 30 169 89 190 115 15 18 21 19 40 7
12 -8 12 -12 -2 -26 -10 -9 -17 -32 -17 -52 0 -70 120 -151 188 -127 15 5 36
25 46 45 19 35 19 36 -2 80 -28 57 -69 81 -155 88 l-69 6 27 30 c42 47 91 128
105 171 7 21 16 49 21 62 5 13 9 37 9 54 0 29 1 30 18 15 30 -27 121 -58 150
-51 68 17 70 53 5 77 -27 10 -61 29 -78 43 l-30 25 50 -6 c28 -4 64 -15 81
-26 48 -29 66 -25 62 14 -2 26 -12 38 -50 64 -59 39 -163 55 -201 30 -23 -15
-24 -14 -48 36 -52 110 -180 201 -327 232 -63 14 -167 17 -222 8z" />
        <path d="M26040 42455 c-7 -9 -21 -13 -30 -10 -10 3 -43 6 -75 6 -85 1 -123
-44 -74 -90 34 -31 90 -36 145 -12 25 12 56 21 67 21 17 0 19 5 13 38 -3 20
-6 43 -6 50 0 17 -25 15 -40 -3z" />
        <path d="M25930 42119 c-58 -21 -73 -30 -104 -66 -16 -19 -17 -27 -6 -52 20
-49 106 -72 173 -46 30 12 13 29 -41 40 -28 5 -53 13 -57 16 -13 13 103 60
165 67 67 7 81 19 55 46 -23 22 -115 20 -185 -5z" />
        <path d="M27500 41892 c0 -6 -9 -8 -19 -5 -12 3 -23 -2 -30 -15 -14 -26 -5
-32 29 -20 30 10 46 33 30 43 -6 4 -10 2 -10 -3z" />
        <path d="M26150 41852 c-56 -31 -100 -95 -100 -148 0 -98 112 -133 195 -60 43
38 60 96 27 96 -11 0 -22 -6 -25 -13 -8 -21 -75 -49 -97 -42 -11 4 -20 14 -20
23 0 24 39 76 77 102 64 44 14 80 -57 42z" />
        <path d="M26840 41824 c0 -4 8 -12 17 -19 15 -11 15 -14 -4 -41 -33 -46 -50
-143 -34 -195 14 -46 60 -99 86 -99 62 0 113 75 122 179 10 103 -53 181 -144
181 -24 0 -43 -3 -43 -6z m104 -152 c0 -32 -7 -70 -16 -87 l-16 -30 -11 29
c-11 27 0 134 16 159 13 21 28 -19 27 -71z" />
        <path d="M26493 41708 c-52 -54 -73 -97 -73 -145 0 -49 21 -78 65 -93 31 -10
39 -9 71 11 60 37 93 143 63 202 -18 35 -51 67 -69 67 -9 0 -34 -19 -57 -42z
m52 -114 c-9 -24 -23 -44 -31 -44 -23 0 -16 52 13 95 26 37 28 39 31 16 2 -13
-4 -43 -13 -67z" />
        <path d="M25642 41510 c-43 -20 -54 -48 -16 -42 58 10 138 14 168 8 74 -14
126 -86 126 -174 l0 -46 21 21 c17 17 22 34 23 80 1 51 -3 65 -27 96 -42 56
-92 77 -179 77 -51 0 -86 -6 -116 -20z" />
        <path d="M17861 34627 c-6 -8 -8 -17 -4 -20 13 -14 6 -117 -9 -134 -23 -27
-63 -103 -78 -148 -7 -22 -17 -45 -22 -51 -5 -7 -11 -20 -13 -30 -2 -11 -15
-50 -28 -89 -14 -38 -29 -92 -35 -120 -18 -86 -102 -438 -114 -475 -18 -58
-47 -199 -54 -264 -6 -60 10 -176 24 -176 16 0 74 132 91 210 11 47 25 109 31
138 l12 53 62 -54 c88 -77 127 -105 158 -112 24 -6 26 -10 17 -29 -6 -11 -32
-42 -57 -68 -52 -54 -44 -60 30 -22 100 51 195 168 229 284 5 19 18 60 27 90
13 44 16 98 16 275 -1 195 -4 236 -28 360 -21 110 -35 158 -67 223 -45 92 -81
140 -113 152 -52 19 -64 20 -75 7z m114 -302 c24 -90 55 -328 56 -430 1 -96
-8 -205 -17 -214 -5 -5 -36 23 -170 158 -83 84 -92 96 -82 115 6 11 35 90 64
176 51 151 69 198 102 269 l16 35 8 -30 c5 -16 15 -51 23 -79z m-233 -525 c59
-74 140 -154 193 -190 28 -18 52 -34 54 -36 5 -4 -40 -137 -50 -148 -6 -6 -9
-6 -9 1 0 6 -37 42 -82 79 -103 84 -114 94 -139 121 -12 12 -32 24 -46 28 -17
4 -23 11 -20 23 31 116 52 181 57 175 3 -5 22 -28 42 -53z" />
    </g>
</svg>
